<?xml version="1.0" encoding="UTF-8"?>
<svg xmlns="http://www.w3.org/2000/svg" version="1.1" width="300" height="300" viewBox="0 0 300 300"><rect x="0" y="0" width="300" height="300" fill="#ffffff"/><g transform="scale(7.692)"><g transform="translate(1,1)"><path fill-rule="evenodd" d="M9 0L9 1L11 1L11 0ZM12 0L12 1L13 1L13 2L8 2L8 4L9 4L9 3L10 3L10 5L11 5L11 6L10 6L10 7L9 7L9 6L8 6L8 7L9 7L9 8L10 8L10 9L9 9L9 10L8 10L8 8L6 8L6 9L7 9L7 10L4 10L4 9L5 9L5 8L3 8L3 10L2 10L2 11L1 11L1 9L0 9L0 11L1 11L1 12L3 12L3 10L4 10L4 11L5 11L5 12L4 12L4 13L3 13L3 14L4 14L4 15L8 15L8 16L5 16L5 17L7 17L7 18L3 18L3 17L4 17L4 16L3 16L3 15L2 15L2 14L1 14L1 13L0 13L0 16L1 16L1 17L0 17L0 20L1 20L1 19L2 19L2 18L3 18L3 20L4 20L4 19L5 19L5 21L4 21L4 23L5 23L5 21L8 21L8 17L9 17L9 16L10 16L10 18L9 18L9 25L8 25L8 22L6 22L6 23L7 23L7 24L6 24L6 25L3 25L3 26L2 26L2 21L1 21L1 22L0 22L0 23L1 23L1 25L0 25L0 29L1 29L1 27L3 27L3 28L4 28L4 29L7 29L7 28L9 28L9 29L8 29L8 31L9 31L9 30L10 30L10 26L9 26L9 25L10 25L10 24L11 24L11 23L14 23L14 25L16 25L16 24L15 24L15 23L16 23L16 22L17 22L17 23L18 23L18 24L17 24L17 27L16 27L16 26L15 26L15 27L14 27L14 26L13 26L13 25L12 25L12 26L11 26L11 28L12 28L12 29L11 29L11 31L10 31L10 33L9 33L9 32L8 32L8 34L9 34L9 36L10 36L10 37L11 37L11 35L12 35L12 36L15 36L15 32L18 32L18 33L19 33L19 32L20 32L20 34L19 34L19 35L17 35L17 33L16 33L16 35L17 35L17 37L18 37L18 36L21 36L21 37L24 37L24 36L25 36L25 35L24 35L24 34L25 34L25 33L24 33L24 34L23 34L23 32L21 32L21 31L20 31L20 29L19 29L19 30L18 30L18 29L15 29L15 27L16 27L16 28L17 28L17 27L19 27L19 26L20 26L20 27L21 27L21 28L22 28L22 27L23 27L23 28L24 28L24 27L25 27L25 26L23 26L23 25L22 25L22 24L23 24L23 23L22 23L22 21L24 21L24 20L22 20L22 21L20 21L20 20L21 20L21 19L24 19L24 18L25 18L25 20L28 20L28 21L27 21L27 24L28 24L28 23L29 23L29 24L30 24L30 23L29 23L29 20L28 20L28 19L29 19L29 16L30 16L30 17L31 17L31 18L32 18L32 16L34 16L34 17L33 17L33 20L32 20L32 21L31 21L31 20L30 20L30 21L31 21L31 22L32 22L32 23L31 23L31 24L32 24L32 23L33 23L33 25L30 25L30 26L31 26L31 27L32 27L32 28L29 28L29 27L28 27L28 26L27 26L27 25L26 25L26 21L25 21L25 22L24 22L24 23L25 23L25 24L24 24L24 25L26 25L26 27L28 27L28 28L27 28L27 29L28 29L28 30L25 30L25 29L26 29L26 28L25 28L25 29L24 29L24 30L23 30L23 29L21 29L21 30L22 30L22 31L24 31L24 32L27 32L27 34L26 34L26 35L27 35L27 36L26 36L26 37L34 37L34 36L36 36L36 37L37 37L37 34L35 34L35 35L34 35L34 34L31 34L31 33L33 33L33 32L34 32L34 31L35 31L35 32L36 32L36 33L37 33L37 32L36 32L36 31L37 31L37 30L36 30L36 29L37 29L37 26L36 26L36 28L35 28L35 26L34 26L34 24L35 24L35 25L37 25L37 22L36 22L36 21L37 21L37 18L36 18L36 17L37 17L37 14L35 14L35 13L34 13L34 14L33 14L33 13L32 13L32 12L33 12L33 9L34 9L34 10L36 10L36 11L37 11L37 10L36 10L36 9L35 9L35 8L33 8L33 9L32 9L32 10L31 10L31 9L30 9L30 10L29 10L29 12L28 12L28 11L27 11L27 12L28 12L28 14L27 14L27 13L25 13L25 14L24 14L24 13L23 13L23 15L24 15L24 16L25 16L25 17L23 17L23 18L22 18L22 17L21 17L21 15L22 15L22 13L21 13L21 11L20 11L20 10L22 10L22 12L23 12L23 11L24 11L24 12L25 12L25 10L26 10L26 7L27 7L27 8L28 8L28 9L29 9L29 6L28 6L28 7L27 7L27 6L26 6L26 7L25 7L25 6L24 6L24 7L23 7L23 6L22 6L22 7L21 7L21 6L20 6L20 5L23 5L23 4L25 4L25 3L26 3L26 0L21 0L21 1L18 1L18 0L16 0L16 1L15 1L15 2L14 2L14 1L13 1L13 0ZM28 0L28 1L29 1L29 0ZM16 1L16 2L17 2L17 3L15 3L15 4L14 4L14 3L12 3L12 5L13 5L13 4L14 4L14 6L13 6L13 7L14 7L14 6L15 6L15 8L17 8L17 10L16 10L16 9L15 9L15 10L14 10L14 8L12 8L12 6L11 6L11 7L10 7L10 8L12 8L12 9L11 9L11 11L9 11L9 12L8 12L8 10L7 10L7 11L6 11L6 12L8 12L8 13L9 13L9 15L12 15L12 16L11 16L11 18L12 18L12 19L10 19L10 20L11 20L11 21L12 21L12 20L16 20L16 19L21 19L21 18L19 18L19 17L18 17L18 16L20 16L20 15L17 15L17 17L14 17L14 18L15 18L15 19L13 19L13 18L12 18L12 17L13 17L13 16L15 16L15 15L16 15L16 14L13 14L13 12L12 12L12 9L13 9L13 11L15 11L15 12L14 12L14 13L17 13L17 14L18 14L18 13L17 13L17 12L19 12L19 13L20 13L20 14L21 14L21 13L20 13L20 11L19 11L19 9L20 9L20 6L19 6L19 9L18 9L18 6L17 6L17 7L16 7L16 6L15 6L15 4L19 4L19 5L20 5L20 3L24 3L24 2L23 2L23 1L21 1L21 2L17 2L17 1ZM27 2L27 4L28 4L28 5L29 5L29 2ZM22 7L22 8L23 8L23 9L22 9L22 10L23 10L23 9L25 9L25 8L23 8L23 7ZM15 10L15 11L16 11L16 10ZM17 10L17 11L18 11L18 10ZM31 11L31 12L32 12L32 11ZM34 11L34 12L35 12L35 11ZM9 12L9 13L12 13L12 12ZM6 13L6 14L7 14L7 13ZM30 13L30 14L28 14L28 15L27 15L27 14L26 14L26 15L25 15L25 16L26 16L26 15L27 15L27 16L28 16L28 15L30 15L30 16L32 16L32 15L33 15L33 14L32 14L32 13ZM12 14L12 15L13 15L13 14ZM30 14L30 15L31 15L31 14ZM1 15L1 16L2 16L2 17L3 17L3 16L2 16L2 15ZM25 17L25 18L26 18L26 17ZM34 17L34 18L35 18L35 19L34 19L34 21L33 21L33 23L34 23L34 21L35 21L35 19L36 19L36 18L35 18L35 17ZM6 19L6 20L7 20L7 19ZM18 20L18 23L19 23L19 24L18 24L18 25L19 25L19 24L20 24L20 26L21 26L21 27L22 27L22 26L21 26L21 24L22 24L22 23L21 23L21 22L20 22L20 21L19 21L19 20ZM13 21L13 22L14 22L14 23L15 23L15 22L16 22L16 21ZM10 22L10 23L11 23L11 22ZM20 23L20 24L21 24L21 23ZM6 25L6 26L7 26L7 27L6 27L6 28L7 28L7 27L9 27L9 26L7 26L7 25ZM4 26L4 28L5 28L5 26ZM13 27L13 29L12 29L12 30L13 30L13 31L11 31L11 34L10 34L10 35L11 35L11 34L14 34L14 33L13 33L13 31L14 31L14 30L13 30L13 29L14 29L14 27ZM33 27L33 29L34 29L34 27ZM29 29L29 32L32 32L32 29ZM17 30L17 31L18 31L18 30ZM30 30L30 31L31 31L31 30ZM35 30L35 31L36 31L36 30ZM21 33L21 34L20 34L20 35L21 35L21 34L22 34L22 36L23 36L23 34L22 34L22 33ZM28 33L28 34L27 34L27 35L28 35L28 36L30 36L30 35L31 35L31 34L30 34L30 33ZM28 34L28 35L30 35L30 34ZM0 0L0 7L7 7L7 0ZM1 1L1 6L6 6L6 1ZM2 2L2 5L5 5L5 2ZM30 0L30 7L37 7L37 0ZM31 1L31 6L36 6L36 1ZM32 2L32 5L35 5L35 2ZM0 30L0 37L7 37L7 30ZM1 31L1 36L6 36L6 31ZM2 32L2 35L5 35L5 32Z" fill="#000000"/></g></g></svg>
