<?xml version="1.0" encoding="UTF-8"?>
<svg xmlns="http://www.w3.org/2000/svg" version="1.1" width="300" height="300" viewBox="0 0 300 300"><rect x="0" y="0" width="300" height="300" fill="#ffffff"/><g transform="scale(7.692)"><g transform="translate(1,1)"><path fill-rule="evenodd" d="M8 0L8 3L9 3L9 4L10 4L10 5L8 5L8 9L7 9L7 8L6 8L6 9L7 9L7 10L6 10L6 11L7 11L7 10L9 10L9 11L8 11L8 13L10 13L10 12L14 12L14 13L16 13L16 14L17 14L17 16L15 16L15 15L14 15L14 14L12 14L12 15L11 15L11 14L8 14L8 15L9 15L9 16L6 16L6 17L5 17L5 15L3 15L3 16L1 16L1 14L3 14L3 13L2 13L2 11L1 11L1 10L2 10L2 9L3 9L3 10L4 10L4 12L5 12L5 8L2 8L2 9L0 9L0 11L1 11L1 13L0 13L0 16L1 16L1 17L0 17L0 20L1 20L1 21L0 21L0 22L2 22L2 23L3 23L3 24L1 24L1 23L0 23L0 29L1 29L1 26L3 26L3 27L2 27L2 29L3 29L3 28L4 28L4 29L5 29L5 28L6 28L6 29L7 29L7 28L8 28L8 30L11 30L11 29L13 29L13 30L12 30L12 31L14 31L14 30L15 30L15 31L16 31L16 33L15 33L15 32L14 32L14 33L15 33L15 34L16 34L16 35L14 35L14 34L13 34L13 37L15 37L15 36L16 36L16 37L17 37L17 35L18 35L18 36L19 36L19 37L22 37L22 36L23 36L23 35L22 35L22 31L21 31L21 30L20 30L20 29L21 29L21 24L23 24L23 25L22 25L22 26L23 26L23 27L22 27L22 28L23 28L23 30L24 30L24 32L25 32L25 33L24 33L24 34L25 34L25 33L26 33L26 34L27 34L27 33L28 33L28 36L27 36L27 37L28 37L28 36L30 36L30 37L31 37L31 36L33 36L33 37L37 37L37 34L36 34L36 36L33 36L33 35L34 35L34 34L35 34L35 32L36 32L36 33L37 33L37 32L36 32L36 31L37 31L37 30L35 30L35 32L34 32L34 33L33 33L33 31L34 31L34 30L33 30L33 28L34 28L34 29L35 29L35 28L34 28L34 27L35 27L35 26L34 26L34 25L35 25L35 24L32 24L32 23L31 23L31 25L30 25L30 24L29 24L29 23L30 23L30 22L27 22L27 21L26 21L26 20L25 20L25 22L23 22L23 21L24 21L24 20L23 20L23 21L21 21L21 22L20 22L20 26L19 26L19 25L17 25L17 24L19 24L19 23L16 23L16 20L17 20L17 22L18 22L18 20L19 20L19 19L18 19L18 18L19 18L19 17L21 17L21 16L23 16L23 17L22 17L22 18L21 18L21 19L20 19L20 20L22 20L22 18L23 18L23 17L24 17L24 18L25 18L25 17L26 17L26 18L27 18L27 19L28 19L28 18L27 18L27 17L29 17L29 19L30 19L30 17L31 17L31 20L30 20L30 21L31 21L31 22L32 22L32 21L33 21L33 22L34 22L34 23L35 23L35 22L36 22L36 25L37 25L37 22L36 22L36 21L37 21L37 18L35 18L35 16L36 16L36 17L37 17L37 14L35 14L35 13L36 13L36 11L37 11L37 10L36 10L36 9L37 9L37 8L34 8L34 9L33 9L33 10L31 10L31 9L32 9L32 8L29 8L29 4L28 4L28 5L27 5L27 3L28 3L28 1L27 1L27 0L26 0L26 2L27 2L27 3L26 3L26 5L27 5L27 6L26 6L26 8L27 8L27 6L28 6L28 8L29 8L29 9L25 9L25 10L24 10L24 11L23 11L23 8L25 8L25 6L24 6L24 4L25 4L25 0L24 0L24 1L23 1L23 2L22 2L22 0L19 0L19 1L17 1L17 2L19 2L19 1L21 1L21 2L20 2L20 3L19 3L19 4L18 4L18 9L19 9L19 11L20 11L20 12L18 12L18 11L17 11L17 12L16 12L16 11L15 11L15 10L16 10L16 9L17 9L17 8L16 8L16 7L17 7L17 6L16 6L16 7L15 7L15 6L14 6L14 5L17 5L17 3L16 3L16 2L15 2L15 0L13 0L13 1L11 1L11 0ZM10 1L10 4L11 4L11 7L10 7L10 6L9 6L9 10L12 10L12 9L13 9L13 11L14 11L14 10L15 10L15 8L14 8L14 6L13 6L13 8L12 8L12 5L14 5L14 4L15 4L15 3L14 3L14 1L13 1L13 3L12 3L12 2L11 2L11 1ZM21 2L21 3L20 3L20 4L19 4L19 5L20 5L20 6L19 6L19 7L20 7L20 8L21 8L21 7L22 7L22 8L23 8L23 7L24 7L24 6L23 6L23 7L22 7L22 6L21 6L21 5L22 5L22 4L23 4L23 3L24 3L24 2L23 2L23 3L22 3L22 2ZM11 3L11 4L12 4L12 3ZM20 6L20 7L21 7L21 6ZM11 8L11 9L12 9L12 8ZM13 8L13 9L14 9L14 8ZM20 9L20 10L21 10L21 11L22 11L22 12L20 12L20 13L19 13L19 16L21 16L21 15L20 15L20 13L21 13L21 14L23 14L23 13L22 13L22 12L23 12L23 11L22 11L22 9ZM29 9L29 10L27 10L27 11L26 11L26 10L25 10L25 12L24 12L24 14L25 14L25 16L24 16L24 15L23 15L23 16L24 16L24 17L25 17L25 16L26 16L26 17L27 17L27 13L30 13L30 14L29 14L29 15L28 15L28 16L29 16L29 15L30 15L30 16L33 16L33 17L32 17L32 18L34 18L34 19L33 19L33 20L35 20L35 18L34 18L34 16L35 16L35 14L34 14L34 15L33 15L33 13L34 13L34 12L35 12L35 9L34 9L34 10L33 10L33 11L31 11L31 13L30 13L30 9ZM28 11L28 12L29 12L29 11ZM33 11L33 12L32 12L32 13L31 13L31 14L30 14L30 15L32 15L32 13L33 13L33 12L34 12L34 11ZM6 12L6 13L5 13L5 14L6 14L6 15L7 15L7 14L6 14L6 13L7 13L7 12ZM17 12L17 13L18 13L18 12ZM25 12L25 13L27 13L27 12ZM12 15L12 17L13 17L13 16L14 16L14 18L13 18L13 19L12 19L12 20L13 20L13 21L14 21L14 20L13 20L13 19L16 19L16 18L15 18L15 16L14 16L14 15ZM17 16L17 17L18 17L18 16ZM6 17L6 18L4 18L4 19L3 19L3 20L2 20L2 21L4 21L4 22L3 22L3 23L4 23L4 22L8 22L8 21L9 21L9 22L10 22L10 23L8 23L8 24L7 24L7 23L6 23L6 24L7 24L7 25L6 25L6 26L8 26L8 28L10 28L10 29L11 29L11 28L10 28L10 27L9 27L9 25L8 25L8 24L11 24L11 23L12 23L12 25L10 25L10 26L12 26L12 25L13 25L13 23L15 23L15 22L13 22L13 23L12 23L12 22L11 22L11 18L10 18L10 19L9 19L9 17L8 17L8 19L9 19L9 20L7 20L7 19L6 19L6 18L7 18L7 17ZM1 18L1 19L2 19L2 18ZM5 19L5 20L4 20L4 21L7 21L7 20L6 20L6 19ZM9 20L9 21L10 21L10 20ZM34 21L34 22L35 22L35 21ZM22 22L22 23L23 23L23 22ZM24 23L24 24L25 24L25 25L23 25L23 26L25 26L25 25L26 25L26 26L27 26L27 25L28 25L28 26L29 26L29 27L28 27L28 28L33 28L33 25L31 25L31 26L30 26L30 25L28 25L28 23L26 23L26 24L25 24L25 23ZM3 24L3 25L4 25L4 24ZM26 24L26 25L27 25L27 24ZM14 25L14 26L13 26L13 29L15 29L15 30L16 30L16 31L17 31L17 28L18 28L18 31L19 31L19 32L18 32L18 33L16 33L16 34L18 34L18 35L20 35L20 34L21 34L21 31L20 31L20 30L19 30L19 29L20 29L20 27L17 27L17 25ZM15 26L15 27L16 27L16 26ZM36 26L36 29L37 29L37 26ZM6 27L6 28L7 28L7 27ZM24 27L24 29L25 29L25 32L26 32L26 33L27 33L27 32L28 32L28 31L27 31L27 29L25 29L25 28L26 28L26 27ZM15 28L15 29L16 29L16 28ZM29 29L29 32L32 32L32 29ZM30 30L30 31L31 31L31 30ZM8 32L8 35L10 35L10 34L11 34L11 37L12 37L12 33L13 33L13 32L12 32L12 33L11 33L11 32ZM19 32L19 34L20 34L20 32ZM9 33L9 34L10 34L10 33ZM29 33L29 35L31 35L31 34L32 34L32 35L33 35L33 34L32 34L32 33L31 33L31 34L30 34L30 33ZM21 35L21 36L22 36L22 35ZM24 35L24 36L25 36L25 37L26 37L26 36L25 36L25 35ZM0 0L0 7L7 7L7 0ZM1 1L1 6L6 6L6 1ZM2 2L2 5L5 5L5 2ZM30 0L30 7L37 7L37 0ZM31 1L31 6L36 6L36 1ZM32 2L32 5L35 5L35 2ZM0 30L0 37L7 37L7 30ZM1 31L1 36L6 36L6 31ZM2 32L2 35L5 35L5 32Z" fill="#000000"/></g></g></svg>
