<?xml version="1.0" encoding="UTF-8"?>
<svg xmlns="http://www.w3.org/2000/svg" version="1.1" width="300" height="300" viewBox="0 0 300 300"><rect x="0" y="0" width="300" height="300" fill="#ffffff"/><g transform="scale(7.692)"><g transform="translate(1,1)"><path fill-rule="evenodd" d="M10 0L10 1L12 1L12 2L14 2L14 3L15 3L15 4L16 4L16 5L14 5L14 4L13 4L13 3L12 3L12 4L13 4L13 5L12 5L12 7L11 7L11 2L9 2L9 1L8 1L8 2L9 2L9 5L8 5L8 8L4 8L4 9L2 9L2 11L0 11L0 12L2 12L2 11L3 11L3 14L4 14L4 15L3 15L3 16L4 16L4 15L5 15L5 17L4 17L4 18L2 18L2 19L1 19L1 20L2 20L2 21L7 21L7 22L6 22L6 23L7 23L7 24L4 24L4 23L3 23L3 22L1 22L1 21L0 21L0 23L1 23L1 24L0 24L0 26L3 26L3 28L0 28L0 29L5 29L5 28L4 28L4 26L6 26L6 27L7 27L7 28L6 28L6 29L8 29L8 33L9 33L9 35L10 35L10 36L9 36L9 37L10 37L10 36L11 36L11 37L12 37L12 36L11 36L11 35L12 35L12 34L13 34L13 36L15 36L15 37L17 37L17 36L18 36L18 35L19 35L19 36L20 36L20 35L23 35L23 36L24 36L24 35L25 35L25 34L26 34L26 33L27 33L27 34L29 34L29 35L31 35L31 36L30 36L30 37L33 37L33 35L34 35L34 37L37 37L37 36L36 36L36 34L35 34L35 30L34 30L34 29L35 29L35 28L36 28L36 29L37 29L37 28L36 28L36 26L35 26L35 27L32 27L32 26L33 26L33 25L30 25L30 24L32 24L32 23L31 23L31 22L30 22L30 23L29 23L29 24L27 24L27 25L26 25L26 23L28 23L28 20L30 20L30 21L31 21L31 20L33 20L33 19L34 19L34 21L35 21L35 23L34 23L34 25L35 25L35 24L36 24L36 25L37 25L37 24L36 24L36 21L37 21L37 20L35 20L35 13L36 13L36 12L37 12L37 11L36 11L36 12L35 12L35 10L36 10L36 8L35 8L35 10L34 10L34 11L33 11L33 9L32 9L32 8L30 8L30 10L29 10L29 9L28 9L28 8L27 8L27 5L28 5L28 7L29 7L29 2L27 2L27 3L26 3L26 4L25 4L25 6L24 6L24 4L23 4L23 3L24 3L24 2L26 2L26 0L24 0L24 1L23 1L23 3L22 3L22 5L21 5L21 4L20 4L20 2L21 2L21 0L19 0L19 1L17 1L17 2L16 2L16 0L15 0L15 2L14 2L14 1L13 1L13 0ZM27 0L27 1L28 1L28 0ZM19 1L19 2L20 2L20 1ZM16 3L16 4L17 4L17 5L16 5L16 6L15 6L15 7L14 7L14 5L13 5L13 7L12 7L12 9L11 9L11 8L10 8L10 5L9 5L9 8L8 8L8 9L5 9L5 10L3 10L3 11L4 11L4 13L6 13L6 14L5 14L5 15L6 15L6 16L7 16L7 17L6 17L6 18L10 18L10 17L8 17L8 16L9 16L9 15L10 15L10 16L12 16L12 17L11 17L11 20L10 20L10 19L9 19L9 21L8 21L8 19L5 19L5 20L7 20L7 21L8 21L8 22L9 22L9 21L10 21L10 22L11 22L11 20L13 20L13 19L16 19L16 20L14 20L14 21L13 21L13 22L12 22L12 23L11 23L11 24L12 24L12 25L10 25L10 23L8 23L8 25L9 25L9 26L8 26L8 29L11 29L11 30L9 30L9 31L11 31L11 30L12 30L12 31L13 31L13 32L11 32L11 33L10 33L10 34L11 34L11 33L13 33L13 32L14 32L14 33L15 33L15 34L14 34L14 35L16 35L16 36L17 36L17 35L18 35L18 34L19 34L19 35L20 35L20 34L19 34L19 33L20 33L20 32L21 32L21 34L24 34L24 33L26 33L26 32L27 32L27 33L28 33L28 31L27 31L27 30L28 30L28 28L26 28L26 27L25 27L25 26L26 26L26 25L23 25L23 24L24 24L24 23L25 23L25 22L27 22L27 21L26 21L26 20L28 20L28 19L27 19L27 17L28 17L28 18L29 18L29 19L30 19L30 18L32 18L32 17L33 17L33 16L34 16L34 15L33 15L33 14L34 14L34 13L33 13L33 11L32 11L32 13L30 13L30 12L31 12L31 10L30 10L30 12L29 12L29 11L28 11L28 9L25 9L25 8L26 8L26 6L25 6L25 7L24 7L24 6L23 6L23 5L22 5L22 6L21 6L21 7L20 7L20 5L19 5L19 7L18 7L18 4L17 4L17 3ZM27 3L27 4L26 4L26 5L27 5L27 4L28 4L28 3ZM16 6L16 7L15 7L15 8L16 8L16 9L17 9L17 8L18 8L18 9L19 9L19 8L20 8L20 7L19 7L19 8L18 8L18 7L17 7L17 6ZM22 6L22 8L21 8L21 9L20 9L20 10L17 10L17 11L15 11L15 10L14 10L14 9L12 9L12 10L14 10L14 11L13 11L13 15L12 15L12 14L11 14L11 15L12 15L12 16L13 16L13 15L14 15L14 18L15 18L15 15L14 15L14 14L16 14L16 18L18 18L18 19L19 19L19 18L18 18L18 17L19 17L19 16L18 16L18 17L17 17L17 11L18 11L18 15L19 15L19 14L20 14L20 15L21 15L21 16L20 16L20 18L21 18L21 19L20 19L20 21L19 21L19 22L18 22L18 20L17 20L17 22L13 22L13 23L12 23L12 24L13 24L13 23L14 23L14 24L16 24L16 26L15 26L15 25L14 25L14 26L15 26L15 27L16 27L16 26L19 26L19 27L17 27L17 30L16 30L16 28L11 28L11 29L15 29L15 31L17 31L17 32L15 32L15 33L17 33L17 32L18 32L18 31L19 31L19 30L18 30L18 28L19 28L19 29L20 29L20 31L21 31L21 32L24 32L24 30L27 30L27 29L24 29L24 28L25 28L25 27L24 27L24 28L23 28L23 30L22 30L22 28L21 28L21 26L22 26L22 27L23 27L23 26L22 26L22 24L23 24L23 21L24 21L24 20L25 20L25 18L26 18L26 17L27 17L27 16L28 16L28 17L29 17L29 18L30 18L30 17L31 17L31 15L32 15L32 14L33 14L33 13L32 13L32 14L31 14L31 15L30 15L30 13L28 13L28 12L27 12L27 13L25 13L25 14L27 14L27 16L26 16L26 17L24 17L24 15L23 15L23 17L22 17L22 13L23 13L23 14L24 14L24 12L25 12L25 11L24 11L24 10L25 10L25 9L24 9L24 10L23 10L23 6ZM13 7L13 8L14 8L14 7ZM9 8L9 11L8 11L8 12L6 12L6 11L7 11L7 10L5 10L5 12L6 12L6 13L7 13L7 14L6 14L6 15L7 15L7 14L8 14L8 15L9 15L9 14L10 14L10 13L8 13L8 12L10 12L10 8ZM0 9L0 10L1 10L1 9ZM21 10L21 11L23 11L23 10ZM26 10L26 11L27 11L27 10ZM19 11L19 13L20 13L20 14L21 14L21 13L20 13L20 11ZM14 12L14 13L15 13L15 12ZM0 13L0 14L1 14L1 13ZM27 13L27 14L28 14L28 15L29 15L29 16L30 16L30 15L29 15L29 14L28 14L28 13ZM36 16L36 17L37 17L37 16ZM0 17L0 18L1 18L1 17ZM12 17L12 19L13 19L13 17ZM23 17L23 18L24 18L24 17ZM3 19L3 20L4 20L4 19ZM22 20L22 21L23 21L23 20ZM32 21L32 22L33 22L33 21ZM19 22L19 23L16 23L16 24L17 24L17 25L19 25L19 24L20 24L20 26L21 26L21 24L22 24L22 23L21 23L21 24L20 24L20 22ZM2 23L2 25L3 25L3 26L4 26L4 25L3 25L3 23ZM6 25L6 26L7 26L7 25ZM12 25L12 26L13 26L13 25ZM27 25L27 26L28 26L28 27L29 27L29 26L30 26L30 25ZM9 26L9 27L10 27L10 26ZM19 27L19 28L20 28L20 29L21 29L21 28L20 28L20 27ZM31 27L31 28L32 28L32 27ZM29 29L29 32L32 32L32 29ZM13 30L13 31L14 31L14 30ZM17 30L17 31L18 31L18 30ZM21 30L21 31L22 31L22 30ZM30 30L30 31L31 31L31 30ZM33 31L33 32L34 32L34 31ZM36 31L36 33L37 33L37 31ZM29 33L29 34L30 34L30 33ZM32 33L32 35L33 35L33 34L34 34L34 33ZM26 36L26 37L27 37L27 36ZM0 0L0 7L7 7L7 0ZM1 1L1 6L6 6L6 1ZM2 2L2 5L5 5L5 2ZM30 0L30 7L37 7L37 0ZM31 1L31 6L36 6L36 1ZM32 2L32 5L35 5L35 2ZM0 30L0 37L7 37L7 30ZM1 31L1 36L6 36L6 31ZM2 32L2 35L5 35L5 32Z" fill="#000000"/></g></g></svg>
