<?xml version="1.0" encoding="UTF-8"?>
<svg xmlns="http://www.w3.org/2000/svg" version="1.1" width="300" height="300" viewBox="0 0 300 300"><rect x="0" y="0" width="300" height="300" fill="#ffffff"/><g transform="scale(7.692)"><g transform="translate(1,1)"><path fill-rule="evenodd" d="M8 0L8 2L10 2L10 3L8 3L8 7L9 7L9 6L10 6L10 8L9 8L9 9L8 9L8 10L6 10L6 9L7 9L7 8L6 8L6 9L4 9L4 8L3 8L3 11L2 11L2 9L1 9L1 10L0 10L0 12L1 12L1 14L0 14L0 15L1 15L1 16L2 16L2 15L1 15L1 14L3 14L3 16L4 16L4 15L5 15L5 16L6 16L6 17L3 17L3 18L4 18L4 20L3 20L3 19L1 19L1 18L0 18L0 19L1 19L1 21L2 21L2 22L3 22L3 23L1 23L1 24L5 24L5 25L7 25L7 24L6 24L6 23L7 23L7 22L9 22L9 21L8 21L8 20L6 20L6 21L5 21L5 22L4 22L4 20L5 20L5 18L6 18L6 19L8 19L8 18L10 18L10 21L11 21L11 18L10 18L10 15L9 15L9 14L8 14L8 15L7 15L7 14L5 14L5 10L6 10L6 11L7 11L7 12L6 12L6 13L7 13L7 12L8 12L8 11L9 11L9 12L10 12L10 14L11 14L11 15L12 15L12 16L11 16L11 17L12 17L12 18L13 18L13 16L14 16L14 19L13 19L13 20L12 20L12 21L13 21L13 22L12 22L12 23L11 23L11 25L9 25L9 26L12 26L12 27L13 27L13 28L11 28L11 27L10 27L10 28L11 28L11 29L8 29L8 28L6 28L6 29L8 29L8 30L9 30L9 31L10 31L10 30L11 30L11 29L12 29L12 31L11 31L11 32L9 32L9 33L8 33L8 34L9 34L9 33L12 33L12 34L11 34L11 36L9 36L9 37L12 37L12 36L13 36L13 37L14 37L14 36L13 36L13 35L12 35L12 34L14 34L14 35L15 35L15 37L16 37L16 36L17 36L17 35L18 35L18 34L19 34L19 35L20 35L20 36L21 36L21 35L20 35L20 34L22 34L22 33L23 33L23 34L24 34L24 31L25 31L25 30L26 30L26 31L27 31L27 30L28 30L28 34L27 34L27 33L26 33L26 32L25 32L25 37L27 37L27 35L28 35L28 37L29 37L29 36L30 36L30 37L31 37L31 36L30 36L30 35L29 35L29 34L30 34L30 33L31 33L31 34L32 34L32 35L33 35L33 34L36 34L36 35L37 35L37 28L36 28L36 27L37 27L37 24L36 24L36 25L33 25L33 26L35 26L35 28L34 28L34 27L33 27L33 28L32 28L32 26L31 26L31 27L30 27L30 24L31 24L31 25L32 25L32 24L33 24L33 23L35 23L35 22L34 22L34 21L33 21L33 19L32 19L32 18L33 18L33 17L34 17L34 20L35 20L35 19L37 19L37 16L36 16L36 18L35 18L35 16L33 16L33 17L32 17L32 18L31 18L31 16L32 16L32 13L31 13L31 12L33 12L33 14L34 14L34 15L35 15L35 14L36 14L36 15L37 15L37 13L36 13L36 12L37 12L37 8L35 8L35 9L36 9L36 10L35 10L35 14L34 14L34 8L31 8L31 10L30 10L30 9L29 9L29 8L27 8L27 6L28 6L28 7L29 7L29 4L27 4L27 3L25 3L25 2L23 2L23 0L22 0L22 1L20 1L20 0L18 0L18 1L20 1L20 3L22 3L22 2L23 2L23 3L25 3L25 5L24 5L24 4L22 4L22 5L21 5L21 4L19 4L19 3L18 3L18 2L17 2L17 0L15 0L15 1L14 1L14 0L11 0L11 1L9 1L9 0ZM24 0L24 1L25 1L25 0ZM27 0L27 1L26 1L26 2L28 2L28 3L29 3L29 0ZM11 1L11 3L10 3L10 4L11 4L11 7L12 7L12 8L11 8L11 9L9 9L9 11L10 11L10 10L11 10L11 9L12 9L12 10L13 10L13 9L14 9L14 11L12 11L12 12L11 12L11 13L13 13L13 14L14 14L14 15L15 15L15 17L16 17L16 16L17 16L17 17L18 17L18 19L17 19L17 18L16 18L16 20L15 20L15 21L16 21L16 22L14 22L14 23L18 23L18 24L17 24L17 27L18 27L18 26L20 26L20 25L21 25L21 26L22 26L22 25L23 25L23 24L22 24L22 25L21 25L21 23L23 23L23 22L22 22L22 21L21 21L21 20L20 20L20 19L22 19L22 17L23 17L23 19L25 19L25 20L23 20L23 21L25 21L25 25L26 25L26 26L27 26L27 27L28 27L28 28L24 28L24 26L23 26L23 28L22 28L22 27L21 27L21 28L20 28L20 29L19 29L19 28L18 28L18 29L17 29L17 28L16 28L16 29L13 29L13 30L15 30L15 31L13 31L13 32L12 32L12 33L14 33L14 34L15 34L15 33L14 33L14 32L16 32L16 34L17 34L17 32L18 32L18 33L19 33L19 32L21 32L21 33L22 33L22 32L21 32L21 30L23 30L23 31L24 31L24 30L25 30L25 29L28 29L28 28L29 28L29 26L27 26L27 24L28 24L28 25L29 25L29 24L30 24L30 23L31 23L31 24L32 24L32 23L31 23L31 22L33 22L33 21L31 21L31 22L30 22L30 23L29 23L29 24L28 24L28 22L29 22L29 21L27 21L27 20L28 20L28 18L29 18L29 17L28 17L28 16L30 16L30 15L29 15L29 14L30 14L30 12L31 12L31 11L33 11L33 9L32 9L32 10L31 10L31 11L30 11L30 10L28 10L28 11L27 11L27 10L26 10L26 9L27 9L27 8L26 8L26 6L25 6L25 7L24 7L24 6L23 6L23 8L22 8L22 6L21 6L21 7L20 7L20 5L18 5L18 4L17 4L17 5L16 5L16 4L15 4L15 3L16 3L16 1L15 1L15 3L14 3L14 1L13 1L13 3L14 3L14 5L13 5L13 4L11 4L11 3L12 3L12 1ZM26 4L26 5L27 5L27 4ZM14 5L14 8L16 8L16 9L17 9L17 10L19 10L19 9L21 9L21 8L20 8L20 7L19 7L19 6L18 6L18 7L17 7L17 6L16 6L16 7L15 7L15 5ZM12 6L12 7L13 7L13 6ZM18 7L18 8L19 8L19 7ZM23 8L23 9L22 9L22 10L21 10L21 12L20 12L20 11L17 11L17 12L18 12L18 13L17 13L17 14L15 14L15 15L17 15L17 16L18 16L18 17L19 17L19 19L20 19L20 17L19 17L19 16L20 16L20 15L21 15L21 17L22 17L22 16L23 16L23 17L24 17L24 15L25 15L25 16L26 16L26 17L25 17L25 18L26 18L26 19L27 19L27 18L26 18L26 17L27 17L27 16L28 16L28 15L27 15L27 16L26 16L26 15L25 15L25 13L26 13L26 12L27 12L27 14L28 14L28 13L29 13L29 11L28 11L28 12L27 12L27 11L26 11L26 10L24 10L24 9L25 9L25 8ZM15 10L15 13L16 13L16 10ZM1 11L1 12L2 12L2 11ZM22 11L22 13L21 13L21 15L24 15L24 13L25 13L25 11ZM23 12L23 13L22 13L22 14L23 14L23 13L24 13L24 12ZM3 13L3 14L4 14L4 13ZM18 13L18 14L17 14L17 15L20 15L20 13ZM6 15L6 16L7 16L7 17L6 17L6 18L8 18L8 17L9 17L9 15L8 15L8 16L7 16L7 15ZM30 18L30 19L31 19L31 18ZM2 20L2 21L3 21L3 20ZM13 20L13 21L14 21L14 20ZM16 20L16 21L17 21L17 20ZM19 20L19 21L18 21L18 22L19 22L19 24L20 24L20 20ZM25 20L25 21L26 21L26 22L27 22L27 21L26 21L26 20ZM36 20L36 23L37 23L37 20ZM6 21L6 22L7 22L7 21ZM8 23L8 24L9 24L9 23ZM26 23L26 24L27 24L27 23ZM12 24L12 26L13 26L13 27L14 27L14 28L15 28L15 27L16 27L16 26L15 26L15 25L16 25L16 24L15 24L15 25L14 25L14 24ZM1 25L1 26L0 26L0 27L1 27L1 28L0 28L0 29L5 29L5 27L1 27L1 26L4 26L4 25ZM13 25L13 26L14 26L14 25ZM6 26L6 27L8 27L8 26ZM21 28L21 29L20 29L20 30L21 30L21 29L22 29L22 28ZM23 28L23 30L24 30L24 28ZM35 28L35 29L33 29L33 32L34 32L34 33L35 33L35 32L36 32L36 31L35 31L35 32L34 32L34 30L36 30L36 28ZM18 29L18 30L16 30L16 31L19 31L19 29ZM29 29L29 32L32 32L32 29ZM30 30L30 31L31 31L31 30ZM22 35L22 37L23 37L23 35ZM32 36L32 37L33 37L33 36ZM35 36L35 37L37 37L37 36ZM0 0L0 7L7 7L7 0ZM1 1L1 6L6 6L6 1ZM2 2L2 5L5 5L5 2ZM30 0L30 7L37 7L37 0ZM31 1L31 6L36 6L36 1ZM32 2L32 5L35 5L35 2ZM0 30L0 37L7 37L7 30ZM1 31L1 36L6 36L6 31ZM2 32L2 35L5 35L5 32Z" fill="#000000"/></g></g></svg>
