<?xml version="1.0" encoding="UTF-8"?>
<svg xmlns="http://www.w3.org/2000/svg" version="1.1" width="300" height="300" viewBox="0 0 300 300"><rect x="0" y="0" width="300" height="300" fill="#ffffff"/><g transform="scale(7.692)"><g transform="translate(1,1)"><path fill-rule="evenodd" d="M8 0L8 1L9 1L9 2L10 2L10 3L8 3L8 4L9 4L9 6L8 6L8 7L9 7L9 6L10 6L10 7L11 7L11 8L8 8L8 11L7 11L7 10L6 10L6 9L7 9L7 8L4 8L4 9L3 9L3 8L2 8L2 9L1 9L1 10L0 10L0 12L1 12L1 13L2 13L2 15L1 15L1 14L0 14L0 15L1 15L1 17L2 17L2 18L4 18L4 19L5 19L5 17L7 17L7 18L6 18L6 19L8 19L8 20L5 20L5 23L4 23L4 20L3 20L3 19L2 19L2 20L1 20L1 21L0 21L0 23L1 23L1 21L2 21L2 22L3 22L3 24L5 24L5 25L4 25L4 26L5 26L5 27L1 27L1 26L0 26L0 27L1 27L1 28L0 28L0 29L1 29L1 28L3 28L3 29L4 29L4 28L5 28L5 27L9 27L9 26L10 26L10 25L9 25L9 26L8 26L8 25L7 25L7 24L5 24L5 23L8 23L8 22L9 22L9 19L8 19L8 18L10 18L10 19L12 19L12 18L11 18L11 17L12 17L12 16L13 16L13 17L15 17L15 18L14 18L14 20L16 20L16 21L13 21L13 20L10 20L10 21L13 21L13 22L12 22L12 24L11 24L11 27L10 27L10 29L8 29L8 30L9 30L9 31L8 31L8 33L11 33L11 34L10 34L10 35L11 35L11 34L13 34L13 35L14 35L14 36L13 36L13 37L14 37L14 36L15 36L15 37L16 37L16 36L18 36L18 34L19 34L19 36L21 36L21 35L20 35L20 34L22 34L22 37L23 37L23 36L24 36L24 35L23 35L23 34L24 34L24 33L23 33L23 32L24 32L24 31L25 31L25 34L26 34L26 35L25 35L25 37L27 37L27 36L26 36L26 35L28 35L28 37L29 37L29 35L28 35L28 34L30 34L30 33L31 33L31 35L32 35L32 37L33 37L33 34L34 34L34 35L35 35L35 37L37 37L37 36L36 36L36 35L37 35L37 28L36 28L36 27L37 27L37 24L36 24L36 23L37 23L37 20L35 20L35 21L36 21L36 23L35 23L35 24L36 24L36 25L35 25L35 26L34 26L34 27L33 27L33 26L32 26L32 24L31 24L31 23L30 23L30 22L31 22L31 21L32 21L32 20L33 20L33 19L32 19L32 18L31 18L31 17L32 17L32 15L33 15L33 14L34 14L34 15L37 15L37 13L36 13L36 12L37 12L37 8L36 8L36 10L34 10L34 8L33 8L33 14L31 14L31 12L32 12L32 9L31 9L31 10L30 10L30 8L29 8L29 5L28 5L28 4L27 4L27 2L28 2L28 3L29 3L29 2L28 2L28 1L29 1L29 0L27 0L27 1L25 1L25 0L24 0L24 1L25 1L25 2L24 2L24 3L25 3L25 4L27 4L27 6L26 6L26 5L24 5L24 4L23 4L23 5L24 5L24 7L25 7L25 8L24 8L24 9L23 9L23 6L22 6L22 5L21 5L21 4L20 4L20 2L21 2L21 3L22 3L22 1L23 1L23 0L22 0L22 1L20 1L20 0L19 0L19 3L17 3L17 2L16 2L16 3L15 3L15 4L18 4L18 5L17 5L17 6L16 6L16 7L15 7L15 6L14 6L14 7L13 7L13 6L12 6L12 5L10 5L10 3L11 3L11 2L15 2L15 1L17 1L17 0L15 0L15 1L14 1L14 0L13 0L13 1L11 1L11 2L10 2L10 1L9 1L9 0ZM25 2L25 3L26 3L26 2ZM12 3L12 4L14 4L14 3ZM19 4L19 5L18 5L18 6L17 6L17 7L16 7L16 8L14 8L14 10L13 10L13 7L12 7L12 6L11 6L11 7L12 7L12 10L13 10L13 11L11 11L11 9L9 9L9 11L11 11L11 13L10 13L10 12L7 12L7 11L6 11L6 10L4 10L4 11L3 11L3 10L1 10L1 12L2 12L2 11L3 11L3 12L4 12L4 11L6 11L6 12L5 12L5 14L4 14L4 13L3 13L3 14L4 14L4 16L3 16L3 15L2 15L2 17L5 17L5 16L7 16L7 15L8 15L8 16L9 16L9 17L11 17L11 16L12 16L12 14L11 14L11 13L14 13L14 14L16 14L16 13L18 13L18 15L20 15L20 19L19 19L19 18L18 18L18 17L19 17L19 16L18 16L18 17L17 17L17 15L15 15L15 17L17 17L17 18L16 18L16 19L17 19L17 20L18 20L18 21L16 21L16 22L13 22L13 24L12 24L12 26L13 26L13 27L11 27L11 28L13 28L13 30L14 30L14 28L15 28L15 31L14 31L14 32L11 32L11 31L12 31L12 30L11 30L11 31L9 31L9 32L11 32L11 33L14 33L14 34L15 34L15 32L16 32L16 35L17 35L17 33L19 33L19 31L20 31L20 33L22 33L22 34L23 34L23 33L22 33L22 32L23 32L23 31L24 31L24 30L25 30L25 31L26 31L26 32L27 32L27 34L28 34L28 30L27 30L27 29L28 29L28 28L29 28L29 27L32 27L32 28L33 28L33 27L32 27L32 26L31 26L31 24L30 24L30 26L29 26L29 24L28 24L28 23L29 23L29 21L30 21L30 20L29 20L29 19L28 19L28 18L30 18L30 19L31 19L31 20L32 20L32 19L31 19L31 18L30 18L30 17L29 17L29 16L30 16L30 12L31 12L31 11L30 11L30 10L29 10L29 11L30 11L30 12L29 12L29 14L27 14L27 12L28 12L28 11L27 11L27 10L26 10L26 8L25 8L25 10L24 10L24 11L23 11L23 10L22 10L22 9L21 9L21 7L22 7L22 6L21 6L21 5L20 5L20 4ZM18 6L18 7L17 7L17 8L16 8L16 9L17 9L17 10L15 10L15 11L14 11L14 12L15 12L15 13L16 13L16 12L15 12L15 11L17 11L17 10L19 10L19 11L18 11L18 13L19 13L19 14L21 14L21 13L22 13L22 10L21 10L21 11L20 11L20 10L19 10L19 9L20 9L20 8L18 8L18 7L19 7L19 6ZM20 6L20 7L21 7L21 6ZM25 6L25 7L26 7L26 6ZM27 6L27 8L28 8L28 6ZM17 8L17 9L18 9L18 8ZM25 11L25 13L24 13L24 14L23 14L23 15L21 15L21 17L22 17L22 19L21 19L21 20L19 20L19 21L18 21L18 22L20 22L20 21L22 21L22 24L21 24L21 23L19 23L19 24L21 24L21 25L19 25L19 26L17 26L17 27L16 27L16 26L15 26L15 25L14 25L14 24L16 24L16 25L17 25L17 22L16 22L16 23L14 23L14 24L13 24L13 25L14 25L14 27L13 27L13 28L14 28L14 27L16 27L16 29L17 29L17 30L16 30L16 32L17 32L17 30L18 30L18 31L19 31L19 29L18 29L18 28L21 28L21 29L24 29L24 28L25 28L25 30L26 30L26 31L27 31L27 30L26 30L26 28L28 28L28 27L26 27L26 26L25 26L25 23L26 23L26 22L27 22L27 21L29 21L29 20L26 20L26 19L27 19L27 16L28 16L28 15L27 15L27 14L26 14L26 11ZM34 11L34 13L35 13L35 12L36 12L36 11ZM6 12L6 13L7 13L7 14L5 14L5 15L7 15L7 14L8 14L8 13L7 13L7 12ZM9 14L9 15L11 15L11 14ZM25 14L25 15L24 15L24 18L23 18L23 19L22 19L22 20L23 20L23 19L26 19L26 18L25 18L25 15L26 15L26 16L27 16L27 15L26 15L26 14ZM33 16L33 17L34 17L34 19L37 19L37 16L36 16L36 17L34 17L34 16ZM0 18L0 19L1 19L1 18ZM17 18L17 19L18 19L18 18ZM24 20L24 21L25 21L25 22L26 22L26 21L25 21L25 20ZM6 21L6 22L7 22L7 21ZM33 21L33 22L32 22L32 23L34 23L34 21ZM10 22L10 23L11 23L11 22ZM23 23L23 24L22 24L22 25L21 25L21 26L20 26L20 27L21 27L21 28L22 28L22 27L21 27L21 26L23 26L23 24L24 24L24 23ZM0 24L0 25L1 25L1 24ZM27 24L27 26L28 26L28 24ZM5 25L5 26L7 26L7 25ZM35 26L35 27L34 27L34 29L33 29L33 32L34 32L34 33L36 33L36 31L34 31L34 30L35 30L35 29L36 29L36 28L35 28L35 27L36 27L36 26ZM23 27L23 28L24 28L24 27ZM6 28L6 29L7 29L7 28ZM29 29L29 32L32 32L32 29ZM21 30L21 32L22 32L22 31L23 31L23 30ZM30 30L30 31L31 31L31 30ZM8 34L8 35L9 35L9 34ZM35 34L35 35L36 35L36 34ZM9 36L9 37L11 37L11 36ZM30 36L30 37L31 37L31 36ZM0 0L0 7L7 7L7 0ZM1 1L1 6L6 6L6 1ZM2 2L2 5L5 5L5 2ZM30 0L30 7L37 7L37 0ZM31 1L31 6L36 6L36 1ZM32 2L32 5L35 5L35 2ZM0 30L0 37L7 37L7 30ZM1 31L1 36L6 36L6 31ZM2 32L2 35L5 35L5 32Z" fill="#000000"/></g></g></svg>
