<?xml version="1.0" encoding="UTF-8"?>
<svg xmlns="http://www.w3.org/2000/svg" version="1.1" width="300" height="300" viewBox="0 0 300 300"><rect x="0" y="0" width="300" height="300" fill="#ffffff"/><g transform="scale(7.692)"><g transform="translate(1,1)"><path fill-rule="evenodd" d="M8 0L8 2L10 2L10 3L8 3L8 7L9 7L9 6L10 6L10 8L9 8L9 9L8 9L8 10L6 10L6 9L7 9L7 8L6 8L6 9L4 9L4 8L3 8L3 9L2 9L2 10L0 10L0 12L1 12L1 14L0 14L0 15L1 15L1 16L2 16L2 15L1 15L1 14L3 14L3 16L4 16L4 15L5 15L5 17L3 17L3 18L4 18L4 20L3 20L3 19L1 19L1 18L0 18L0 19L1 19L1 21L2 21L2 22L0 22L0 25L1 25L1 26L0 26L0 27L1 27L1 28L0 28L0 29L5 29L5 27L4 27L4 26L3 26L3 27L1 27L1 26L2 26L2 24L3 24L3 25L4 25L4 24L5 24L5 25L7 25L7 24L6 24L6 23L7 23L7 22L9 22L9 21L8 21L8 20L9 20L9 19L8 19L8 18L6 18L6 19L7 19L7 20L6 20L6 21L5 21L5 22L4 22L4 20L5 20L5 17L7 17L7 16L8 16L8 15L9 15L9 18L10 18L10 21L13 21L13 22L12 22L12 23L11 23L11 25L9 25L9 26L12 26L12 27L13 27L13 28L11 28L11 27L10 27L10 28L11 28L11 29L10 29L10 30L11 30L11 29L12 29L12 31L11 31L11 33L10 33L10 31L9 31L9 33L8 33L8 34L9 34L9 33L10 33L10 34L11 34L11 36L9 36L9 37L12 37L12 32L13 32L13 31L15 31L15 30L13 30L13 29L15 29L15 28L14 28L14 27L13 27L13 26L15 26L15 27L17 27L17 30L16 30L16 31L17 31L17 34L16 34L16 32L14 32L14 33L13 33L13 34L14 34L14 35L15 35L15 37L16 37L16 36L17 36L17 35L18 35L18 33L20 33L20 35L19 35L19 37L20 37L20 35L21 35L21 34L22 34L22 33L23 33L23 34L24 34L24 31L25 31L25 30L26 30L26 31L27 31L27 30L28 30L28 34L27 34L27 33L26 33L26 32L25 32L25 37L27 37L27 35L28 35L28 37L29 37L29 36L30 36L30 37L31 37L31 36L30 36L30 35L29 35L29 34L30 34L30 33L31 33L31 34L32 34L32 35L33 35L33 34L36 34L36 35L37 35L37 28L36 28L36 27L37 27L37 24L36 24L36 25L34 25L34 27L33 27L33 28L31 28L31 27L30 27L30 24L31 24L31 25L32 25L32 24L33 24L33 23L35 23L35 22L34 22L34 21L33 21L33 19L32 19L32 18L33 18L33 17L34 17L34 20L35 20L35 19L37 19L37 16L36 16L36 18L35 18L35 16L33 16L33 17L32 17L32 18L31 18L31 16L32 16L32 13L31 13L31 12L33 12L33 14L34 14L34 15L35 15L35 14L36 14L36 15L37 15L37 13L36 13L36 12L37 12L37 8L35 8L35 9L36 9L36 10L35 10L35 14L34 14L34 8L31 8L31 10L30 10L30 9L29 9L29 8L27 8L27 6L28 6L28 7L29 7L29 4L27 4L27 3L25 3L25 2L23 2L23 0L22 0L22 1L21 1L21 0L20 0L20 1L19 1L19 3L18 3L18 2L17 2L17 0L15 0L15 1L14 1L14 0L12 0L12 1L11 1L11 0L10 0L10 1L9 1L9 0ZM24 0L24 1L25 1L25 0ZM27 0L27 1L26 1L26 2L28 2L28 3L29 3L29 0ZM12 1L12 2L11 2L11 3L10 3L10 4L11 4L11 7L12 7L12 8L11 8L11 9L9 9L9 11L8 11L8 12L7 12L7 11L6 11L6 10L5 10L5 13L3 13L3 12L4 12L4 11L1 11L1 12L2 12L2 13L3 13L3 14L7 14L7 15L6 15L6 16L7 16L7 15L8 15L8 14L9 14L9 13L10 13L10 12L9 12L9 11L10 11L10 10L11 10L11 9L12 9L12 10L13 10L13 8L14 8L14 9L15 9L15 10L14 10L14 11L12 11L12 12L11 12L11 13L13 13L13 14L14 14L14 15L15 15L15 17L16 17L16 16L17 16L17 17L18 17L18 19L17 19L17 18L16 18L16 20L15 20L15 21L16 21L16 22L15 22L15 23L18 23L18 24L17 24L17 27L18 27L18 26L20 26L20 25L21 25L21 26L23 26L23 28L22 28L22 27L21 27L21 28L20 28L20 29L19 29L19 28L18 28L18 29L19 29L19 30L18 30L18 31L19 31L19 32L21 32L21 33L22 33L22 32L21 32L21 30L23 30L23 31L24 31L24 30L25 30L25 29L28 29L28 28L29 28L29 26L27 26L27 24L28 24L28 25L29 25L29 24L30 24L30 23L31 23L31 24L32 24L32 23L31 23L31 22L33 22L33 21L31 21L31 22L30 22L30 23L29 23L29 24L28 24L28 22L29 22L29 21L27 21L27 20L28 20L28 18L29 18L29 17L28 17L28 16L30 16L30 15L29 15L29 14L30 14L30 12L31 12L31 11L32 11L32 10L33 10L33 9L32 9L32 10L31 10L31 11L30 11L30 10L28 10L28 11L27 11L27 10L26 10L26 9L27 9L27 8L26 8L26 6L25 6L25 7L24 7L24 6L23 6L23 8L25 8L25 9L23 9L23 11L22 11L22 13L21 13L21 15L20 15L20 13L18 13L18 12L16 12L16 10L17 10L17 11L20 11L20 12L21 12L21 10L22 10L22 9L19 9L19 10L17 10L17 9L16 9L16 8L15 8L15 7L16 7L16 6L17 6L17 7L18 7L18 8L19 8L19 7L20 7L20 8L22 8L22 6L21 6L21 7L20 7L20 5L18 5L18 4L17 4L17 5L16 5L16 4L15 4L15 3L16 3L16 1L15 1L15 3L14 3L14 1ZM20 1L20 4L21 4L21 5L22 5L22 4L24 4L24 5L25 5L25 3L23 3L23 2L22 2L22 3L21 3L21 1ZM11 3L11 4L13 4L13 6L12 6L12 7L13 7L13 6L14 6L14 7L15 7L15 6L14 6L14 3ZM26 4L26 5L27 5L27 4ZM18 6L18 7L19 7L19 6ZM3 9L3 10L4 10L4 9ZM24 10L24 12L25 12L25 13L24 13L24 15L21 15L21 17L19 17L19 19L20 19L20 20L19 20L19 21L18 21L18 22L19 22L19 24L20 24L20 20L21 20L21 22L22 22L22 23L21 23L21 25L22 25L22 23L23 23L23 26L24 26L24 28L23 28L23 30L24 30L24 28L28 28L28 27L27 27L27 26L26 26L26 25L25 25L25 21L26 21L26 22L27 22L27 21L26 21L26 20L25 20L25 19L23 19L23 17L24 17L24 15L25 15L25 16L26 16L26 17L25 17L25 18L26 18L26 19L27 19L27 18L26 18L26 17L27 17L27 16L28 16L28 15L27 15L27 16L26 16L26 15L25 15L25 13L26 13L26 12L27 12L27 14L28 14L28 13L29 13L29 11L28 11L28 12L27 12L27 11L26 11L26 10ZM6 12L6 13L7 13L7 12ZM17 13L17 14L15 14L15 15L17 15L17 16L20 16L20 15L18 15L18 13ZM22 13L22 14L23 14L23 13ZM11 15L11 16L10 16L10 17L11 17L11 16L12 16L12 17L13 17L13 18L12 18L12 19L11 19L11 20L13 20L13 21L14 21L14 20L13 20L13 19L14 19L14 16L12 16L12 15ZM22 16L22 17L21 17L21 18L20 18L20 19L22 19L22 17L23 17L23 16ZM30 18L30 19L31 19L31 18ZM2 20L2 21L3 21L3 20ZM16 20L16 21L17 21L17 20ZM23 20L23 21L25 21L25 20ZM36 20L36 23L37 23L37 20ZM6 21L6 22L7 22L7 21ZM2 22L2 23L3 23L3 22ZM13 22L13 24L12 24L12 26L13 26L13 25L14 25L14 22ZM8 23L8 24L9 24L9 23ZM26 23L26 24L27 24L27 23ZM15 24L15 26L16 26L16 24ZM6 26L6 27L8 27L8 26ZM3 27L3 28L4 28L4 27ZM34 27L34 28L35 28L35 29L33 29L33 32L34 32L34 33L35 33L35 32L36 32L36 31L35 31L35 32L34 32L34 30L36 30L36 28L35 28L35 27ZM6 28L6 29L8 29L8 30L9 30L9 29L8 29L8 28ZM21 28L21 29L20 29L20 30L21 30L21 29L22 29L22 28ZM29 29L29 32L32 32L32 29ZM30 30L30 31L31 31L31 30ZM14 33L14 34L15 34L15 33ZM22 35L22 37L23 37L23 35ZM13 36L13 37L14 37L14 36ZM32 36L32 37L33 37L33 36ZM35 36L35 37L37 37L37 36ZM0 0L0 7L7 7L7 0ZM1 1L1 6L6 6L6 1ZM2 2L2 5L5 5L5 2ZM30 0L30 7L37 7L37 0ZM31 1L31 6L36 6L36 1ZM32 2L32 5L35 5L35 2ZM0 30L0 37L7 37L7 30ZM1 31L1 36L6 36L6 31ZM2 32L2 35L5 35L5 32Z" fill="#000000"/></g></g></svg>
