<?xml version="1.0" encoding="UTF-8"?>
<svg xmlns="http://www.w3.org/2000/svg" version="1.1" width="300" height="300" viewBox="0 0 300 300"><rect x="0" y="0" width="300" height="300" fill="#ffffff"/><g transform="scale(7.692)"><g transform="translate(1,1)"><path fill-rule="evenodd" d="M9 0L9 1L8 1L8 7L9 7L9 8L5 8L5 9L4 9L4 10L3 10L3 8L2 8L2 10L0 10L0 12L2 12L2 11L4 11L4 13L1 13L1 14L0 14L0 15L3 15L3 14L4 14L4 13L5 13L5 17L4 17L4 16L3 16L3 17L1 17L1 18L0 18L0 19L1 19L1 20L2 20L2 21L1 21L1 23L2 23L2 22L3 22L3 20L4 20L4 19L5 19L5 20L6 20L6 21L8 21L8 22L9 22L9 25L10 25L10 23L11 23L11 24L14 24L14 25L13 25L13 26L12 26L12 27L10 27L10 26L8 26L8 27L7 27L7 26L6 26L6 25L8 25L8 23L7 23L7 22L6 22L6 23L4 23L4 24L3 24L3 25L2 25L2 24L1 24L1 25L2 25L2 26L0 26L0 27L2 27L2 28L0 28L0 29L2 29L2 28L3 28L3 27L4 27L4 28L5 28L5 29L8 29L8 32L9 32L9 30L10 30L10 33L9 33L9 34L8 34L8 35L9 35L9 36L10 36L10 37L11 37L11 36L12 36L12 34L13 34L13 33L14 33L14 32L13 32L13 30L14 30L14 31L15 31L15 32L17 32L17 33L18 33L18 34L19 34L19 35L21 35L21 37L24 37L24 36L23 36L23 35L24 35L24 34L19 34L19 32L18 32L18 30L19 30L19 31L20 31L20 28L22 28L22 29L21 29L21 30L22 30L22 31L27 31L27 32L26 32L26 34L25 34L25 35L27 35L27 36L26 36L26 37L34 37L34 35L37 35L37 28L35 28L35 29L36 29L36 31L35 31L35 30L34 30L34 29L33 29L33 28L32 28L32 27L37 27L37 24L35 24L35 25L36 25L36 26L34 26L34 23L33 23L33 22L32 22L32 21L31 21L31 20L33 20L33 21L34 21L34 19L35 19L35 20L36 20L36 21L35 21L35 23L37 23L37 20L36 20L36 19L37 19L37 16L36 16L36 15L37 15L37 13L36 13L36 15L35 15L35 13L34 13L34 14L32 14L32 11L33 11L33 10L32 10L32 11L31 11L31 10L29 10L29 9L30 9L30 8L29 8L29 5L28 5L28 7L27 7L27 6L26 6L26 8L25 8L25 10L24 10L24 7L25 7L25 5L26 5L26 4L28 4L28 3L29 3L29 2L27 2L27 1L26 1L26 0L21 0L21 1L20 1L20 0L19 0L19 3L18 3L18 0L16 0L16 1L14 1L14 2L13 2L13 3L12 3L12 1L11 1L11 0ZM28 0L28 1L29 1L29 0ZM9 1L9 2L11 2L11 1ZM16 1L16 2L17 2L17 1ZM21 1L21 3L19 3L19 4L21 4L21 5L20 5L20 6L19 6L19 5L17 5L17 4L18 4L18 3L17 3L17 4L16 4L16 3L15 3L15 2L14 2L14 3L13 3L13 4L12 4L12 5L11 5L11 3L9 3L9 7L10 7L10 8L9 8L9 9L10 9L10 11L9 11L9 12L8 12L8 11L5 11L5 10L7 10L7 9L5 9L5 10L4 10L4 11L5 11L5 12L8 12L8 13L6 13L6 14L8 14L8 15L6 15L6 16L7 16L7 17L5 17L5 18L7 18L7 19L6 19L6 20L7 20L7 19L8 19L8 20L9 20L9 19L8 19L8 18L11 18L11 19L10 19L10 20L11 20L11 21L10 21L10 22L11 22L11 21L12 21L12 22L13 22L13 23L15 23L15 24L16 24L16 25L15 25L15 26L17 26L17 29L16 29L16 27L12 27L12 28L11 28L11 30L12 30L12 28L15 28L15 29L16 29L16 30L18 30L18 29L19 29L19 28L20 28L20 27L22 27L22 26L23 26L23 27L24 27L24 24L22 24L22 22L21 22L21 21L22 21L22 20L23 20L23 23L24 23L24 21L26 21L26 20L27 20L27 21L28 21L28 23L29 23L29 24L27 24L27 22L25 22L25 23L26 23L26 26L25 26L25 28L23 28L23 29L22 29L22 30L23 30L23 29L24 29L24 30L28 30L28 29L27 29L27 28L30 28L30 27L31 27L31 26L33 26L33 23L32 23L32 24L30 24L30 23L31 23L31 22L30 22L30 21L28 21L28 20L30 20L30 19L33 19L33 17L35 17L35 19L36 19L36 17L35 17L35 15L34 15L34 16L33 16L33 15L32 15L32 14L31 14L31 17L32 17L32 18L29 18L29 17L30 17L30 16L29 16L29 14L28 14L28 12L27 12L27 11L28 11L28 8L27 8L27 10L26 10L26 11L25 11L25 12L24 12L24 10L21 10L21 9L23 9L23 7L24 7L24 6L23 6L23 7L22 7L22 5L25 5L25 4L26 4L26 3L24 3L24 4L23 4L23 1ZM24 1L24 2L26 2L26 1ZM21 3L21 4L22 4L22 3ZM15 4L15 6L14 6L14 5L13 5L13 6L12 6L12 7L13 7L13 9L14 9L14 10L12 10L12 11L10 11L10 12L9 12L9 14L10 14L10 15L9 15L9 16L8 16L8 17L7 17L7 18L8 18L8 17L9 17L9 16L10 16L10 17L11 17L11 16L12 16L12 17L13 17L13 18L12 18L12 19L11 19L11 20L12 20L12 21L14 21L14 22L15 22L15 23L16 23L16 24L17 24L17 26L18 26L18 28L19 28L19 26L18 26L18 22L19 22L19 23L20 23L20 24L19 24L19 25L20 25L20 26L22 26L22 24L21 24L21 23L20 23L20 22L19 22L19 21L17 21L17 20L18 20L18 19L16 19L16 20L15 20L15 18L14 18L14 17L16 17L16 18L18 18L18 16L19 16L19 15L20 15L20 14L21 14L21 15L22 15L22 17L20 17L20 19L24 19L24 20L25 20L25 19L27 19L27 20L28 20L28 19L29 19L29 18L28 18L28 16L26 16L26 18L25 18L25 19L24 19L24 18L23 18L23 15L22 15L22 13L21 13L21 11L20 11L20 14L18 14L18 13L19 13L19 11L18 11L18 10L20 10L20 9L19 9L19 8L20 8L20 7L21 7L21 8L22 8L22 7L21 7L21 6L20 6L20 7L19 7L19 6L18 6L18 7L19 7L19 8L17 8L17 9L18 9L18 10L17 10L17 13L15 13L15 14L14 14L14 17L13 17L13 13L14 13L14 12L16 12L16 8L15 8L15 6L16 6L16 7L17 7L17 6L16 6L16 4ZM10 5L10 7L11 7L11 5ZM13 6L13 7L14 7L14 6ZM10 8L10 9L11 9L11 8ZM31 8L31 9L35 9L35 10L34 10L34 11L35 11L35 12L37 12L37 9L36 9L36 8ZM14 10L14 11L15 11L15 10ZM35 10L35 11L36 11L36 10ZM12 11L12 13L10 13L10 14L12 14L12 13L13 13L13 11ZM29 11L29 12L31 12L31 11ZM23 13L23 14L24 14L24 15L28 15L28 14L25 14L25 13ZM15 14L15 15L16 15L16 17L17 17L17 15L16 15L16 14ZM10 15L10 16L11 16L11 15ZM3 17L3 18L2 18L2 19L3 19L3 18L4 18L4 17ZM14 20L14 21L15 21L15 22L17 22L17 21L15 21L15 20ZM20 20L20 21L21 21L21 20ZM6 23L6 24L4 24L4 25L6 25L6 24L7 24L7 23ZM20 24L20 25L21 25L21 24ZM4 26L4 27L6 27L6 28L7 28L7 27L6 27L6 26ZM27 26L27 27L26 27L26 28L27 28L27 27L28 27L28 26ZM29 26L29 27L30 27L30 26ZM8 27L8 29L9 29L9 27ZM29 29L29 32L32 32L32 29ZM30 30L30 31L31 31L31 30ZM11 31L11 32L12 32L12 31ZM34 31L34 32L33 32L33 34L34 34L34 33L35 33L35 34L36 34L36 33L35 33L35 31ZM20 32L20 33L24 33L24 32ZM10 33L10 34L12 34L12 33ZM29 33L29 34L27 34L27 35L29 35L29 34L30 34L30 36L31 36L31 35L32 35L32 33ZM14 34L14 35L13 35L13 36L15 36L15 34ZM10 35L10 36L11 36L11 35ZM16 35L16 36L17 36L17 37L18 37L18 36L17 36L17 35ZM36 36L36 37L37 37L37 36ZM0 0L0 7L7 7L7 0ZM1 1L1 6L6 6L6 1ZM2 2L2 5L5 5L5 2ZM30 0L30 7L37 7L37 0ZM31 1L31 6L36 6L36 1ZM32 2L32 5L35 5L35 2ZM0 30L0 37L7 37L7 30ZM1 31L1 36L6 36L6 31ZM2 32L2 35L5 35L5 32Z" fill="#000000"/></g></g></svg>
