<?xml version="1.0" encoding="UTF-8"?>
<svg xmlns="http://www.w3.org/2000/svg" version="1.1" width="300" height="300" viewBox="0 0 300 300"><rect x="0" y="0" width="300" height="300" fill="#ffffff"/><g transform="scale(7.692)"><g transform="translate(1,1)"><path fill-rule="evenodd" d="M8 0L8 1L9 1L9 2L10 2L10 3L8 3L8 4L9 4L9 6L8 6L8 7L9 7L9 6L10 6L10 7L11 7L11 8L8 8L8 11L7 11L7 10L6 10L6 9L7 9L7 8L4 8L4 10L5 10L5 11L2 11L2 12L1 12L1 10L2 10L2 9L3 9L3 8L2 8L2 9L1 9L1 10L0 10L0 12L1 12L1 13L3 13L3 15L1 15L1 14L0 14L0 15L1 15L1 17L2 17L2 18L4 18L4 19L5 19L5 18L6 18L6 19L7 19L7 18L8 18L8 21L7 21L7 20L5 20L5 23L4 23L4 20L3 20L3 19L2 19L2 21L1 21L1 20L0 20L0 22L3 22L3 25L2 25L2 24L0 24L0 25L2 25L2 26L5 26L5 28L4 28L4 27L1 27L1 26L0 26L0 27L1 27L1 28L0 28L0 29L1 29L1 28L2 28L2 29L3 29L3 28L4 28L4 29L5 29L5 28L6 28L6 29L7 29L7 28L6 28L6 27L9 27L9 28L11 28L11 30L10 30L10 29L8 29L8 30L9 30L9 31L8 31L8 33L9 33L9 32L10 32L10 33L11 33L11 34L10 34L10 35L11 35L11 36L9 36L9 37L12 37L12 36L13 36L13 37L16 37L16 36L18 36L18 32L19 32L19 35L21 35L21 36L19 36L19 37L22 37L22 36L24 36L24 35L23 35L23 34L24 34L24 33L23 33L23 32L24 32L24 31L25 31L25 34L26 34L26 35L25 35L25 37L27 37L27 36L26 36L26 35L28 35L28 37L29 37L29 35L28 35L28 34L30 34L30 33L31 33L31 35L32 35L32 37L33 37L33 34L34 34L34 35L35 35L35 37L37 37L37 36L36 36L36 35L37 35L37 28L36 28L36 27L37 27L37 24L36 24L36 23L37 23L37 20L35 20L35 21L36 21L36 23L35 23L35 24L36 24L36 25L35 25L35 26L34 26L34 25L33 25L33 28L31 28L31 27L32 27L32 24L31 24L31 23L30 23L30 22L31 22L31 21L32 21L32 20L33 20L33 19L32 19L32 18L31 18L31 17L32 17L32 15L33 15L33 14L34 14L34 15L37 15L37 13L36 13L36 12L37 12L37 8L36 8L36 10L34 10L34 8L33 8L33 10L32 10L32 9L31 9L31 10L30 10L30 8L29 8L29 5L28 5L28 4L27 4L27 3L25 3L25 2L26 2L26 0L24 0L24 1L25 1L25 2L24 2L24 3L25 3L25 4L26 4L26 5L24 5L24 4L23 4L23 3L22 3L22 4L23 4L23 5L21 5L21 6L20 6L20 7L19 7L19 6L18 6L18 5L20 5L20 4L19 4L19 3L17 3L17 2L16 2L16 3L14 3L14 2L15 2L15 1L17 1L17 0L15 0L15 1L14 1L14 0L13 0L13 1L12 1L12 0L11 0L11 2L10 2L10 1L9 1L9 0ZM19 0L19 2L20 2L20 3L21 3L21 2L22 2L22 1L23 1L23 0L22 0L22 1L20 1L20 0ZM27 0L27 2L28 2L28 3L29 3L29 2L28 2L28 1L29 1L29 0ZM13 1L13 2L14 2L14 1ZM10 3L10 5L11 5L11 7L12 7L12 5L11 5L11 3ZM13 3L13 5L14 5L14 6L13 6L13 8L11 8L11 9L9 9L9 12L7 12L7 11L5 11L5 13L6 13L6 14L7 14L7 15L6 15L6 16L4 16L4 15L3 15L3 16L2 16L2 17L6 17L6 18L7 18L7 17L6 17L6 16L7 16L7 15L8 15L8 17L10 17L10 18L9 18L9 21L8 21L8 22L9 22L9 23L8 23L8 26L9 26L9 25L10 25L10 26L11 26L11 25L12 25L12 26L13 26L13 27L11 27L11 28L13 28L13 30L14 30L14 28L15 28L15 27L18 27L18 26L19 26L19 25L21 25L21 26L20 26L20 27L21 27L21 28L19 28L19 29L18 29L18 28L17 28L17 29L18 29L18 30L19 30L19 31L20 31L20 34L21 34L21 35L22 35L22 34L23 34L23 33L22 33L22 32L23 32L23 31L24 31L24 30L25 30L25 31L26 31L26 32L27 32L27 34L28 34L28 30L27 30L27 29L28 29L28 28L29 28L29 27L31 27L31 24L30 24L30 26L29 26L29 24L28 24L28 23L29 23L29 21L30 21L30 20L29 20L29 19L28 19L28 18L30 18L30 19L31 19L31 20L32 20L32 19L31 19L31 18L30 18L30 17L29 17L29 16L30 16L30 12L31 12L31 14L33 14L33 12L31 12L31 11L32 11L32 10L31 10L31 11L30 11L30 10L29 10L29 11L30 11L30 12L29 12L29 14L27 14L27 12L28 12L28 11L27 11L27 10L26 10L26 8L25 8L25 7L26 7L26 6L27 6L27 8L28 8L28 6L27 6L27 5L26 5L26 6L25 6L25 7L24 7L24 5L23 5L23 7L22 7L22 6L21 6L21 7L22 7L22 9L21 9L21 8L20 8L20 9L19 9L19 10L18 10L18 8L19 8L19 7L18 7L18 6L17 6L17 5L18 5L18 4L15 4L15 5L14 5L14 3ZM14 6L14 8L13 8L13 10L12 10L12 9L11 9L11 10L10 10L10 11L13 11L13 10L14 10L14 9L15 9L15 8L16 8L16 10L15 10L15 11L14 11L14 12L15 12L15 11L16 11L16 13L15 13L15 14L14 14L14 13L11 13L11 12L10 12L10 13L9 13L9 14L10 14L10 15L9 15L9 16L10 16L10 17L11 17L11 18L10 18L10 19L12 19L12 20L10 20L10 21L12 21L12 22L16 22L16 23L15 23L15 24L17 24L17 22L16 22L16 21L18 21L18 22L19 22L19 24L20 24L20 23L21 23L21 22L20 22L20 21L21 21L21 20L22 20L22 21L23 21L23 22L22 22L22 24L21 24L21 25L22 25L22 24L23 24L23 26L21 26L21 27L22 27L22 28L21 28L21 29L24 29L24 28L25 28L25 30L26 30L26 31L27 31L27 30L26 30L26 28L28 28L28 27L26 27L26 26L25 26L25 23L26 23L26 22L27 22L27 21L29 21L29 20L27 20L27 16L28 16L28 15L27 15L27 14L26 14L26 11L25 11L25 8L24 8L24 9L22 9L22 10L21 10L21 11L20 11L20 10L19 10L19 14L17 14L17 16L18 16L18 17L19 17L19 20L20 20L20 21L18 21L18 20L17 20L17 19L18 19L18 18L17 18L17 17L16 17L16 16L15 16L15 15L16 15L16 13L17 13L17 11L18 11L18 10L17 10L17 8L18 8L18 7L17 7L17 6L16 6L16 7L15 7L15 6ZM16 7L16 8L17 8L17 7ZM16 10L16 11L17 11L17 10ZM22 10L22 13L21 13L21 14L19 14L19 15L18 15L18 16L19 16L19 15L20 15L20 19L21 19L21 15L23 15L23 17L24 17L24 18L22 18L22 19L25 19L25 16L24 16L24 15L23 15L23 13L24 13L24 12L25 12L25 11L24 11L24 10ZM23 11L23 12L24 12L24 11ZM34 11L34 13L35 13L35 12L36 12L36 11ZM6 12L6 13L7 13L7 14L8 14L8 13L7 13L7 12ZM10 13L10 14L11 14L11 15L10 15L10 16L12 16L12 18L13 18L13 16L12 16L12 14L11 14L11 13ZM25 14L25 15L26 15L26 16L27 16L27 15L26 15L26 14ZM33 16L33 17L34 17L34 19L37 19L37 16L36 16L36 17L34 17L34 16ZM14 17L14 19L13 19L13 20L12 20L12 21L13 21L13 20L15 20L15 21L16 21L16 20L15 20L15 17ZM16 18L16 19L17 19L17 18ZM24 20L24 21L25 21L25 22L26 22L26 21L25 21L25 20ZM6 21L6 22L7 22L7 21ZM33 21L33 22L32 22L32 23L34 23L34 21ZM10 22L10 23L11 23L11 24L12 24L12 23L11 23L11 22ZM5 23L5 24L4 24L4 25L5 25L5 26L7 26L7 25L5 25L5 24L7 24L7 23ZM13 23L13 25L14 25L14 27L13 27L13 28L14 28L14 27L15 27L15 26L16 26L16 25L14 25L14 23ZM23 23L23 24L24 24L24 23ZM27 24L27 26L28 26L28 24ZM17 25L17 26L18 26L18 25ZM35 26L35 27L34 27L34 29L33 29L33 32L34 32L34 33L36 33L36 31L34 31L34 30L35 30L35 29L36 29L36 28L35 28L35 27L36 27L36 26ZM23 27L23 28L24 28L24 27ZM15 29L15 31L14 31L14 32L13 32L13 33L14 33L14 34L13 34L13 35L14 35L14 36L15 36L15 33L16 33L16 35L17 35L17 32L18 32L18 31L16 31L16 29ZM29 29L29 32L32 32L32 29ZM11 30L11 31L12 31L12 30ZM21 30L21 32L22 32L22 31L23 31L23 30ZM30 30L30 31L31 31L31 30ZM11 32L11 33L12 33L12 32ZM8 34L8 35L9 35L9 34ZM11 34L11 35L12 35L12 34ZM35 34L35 35L36 35L36 34ZM30 36L30 37L31 37L31 36ZM0 0L0 7L7 7L7 0ZM1 1L1 6L6 6L6 1ZM2 2L2 5L5 5L5 2ZM30 0L30 7L37 7L37 0ZM31 1L31 6L36 6L36 1ZM32 2L32 5L35 5L35 2ZM0 30L0 37L7 37L7 30ZM1 31L1 36L6 36L6 31ZM2 32L2 35L5 35L5 32Z" fill="#000000"/></g></g></svg>
