<?xml version="1.0" encoding="UTF-8"?>
<svg xmlns="http://www.w3.org/2000/svg" version="1.1" width="300" height="300" viewBox="0 0 300 300"><rect x="0" y="0" width="300" height="300" fill="#ffffff"/><g transform="scale(7.692)"><g transform="translate(1,1)"><path fill-rule="evenodd" d="M9 0L9 1L10 1L10 0ZM11 0L11 2L8 2L8 4L9 4L9 3L10 3L10 5L12 5L12 7L11 7L11 6L10 6L10 7L9 7L9 6L8 6L8 7L9 7L9 8L10 8L10 9L9 9L9 10L8 10L8 8L6 8L6 9L7 9L7 10L6 10L6 11L5 11L5 8L3 8L3 9L2 9L2 10L3 10L3 11L1 11L1 9L0 9L0 11L1 11L1 12L2 12L2 13L3 13L3 14L1 14L1 13L0 13L0 16L1 16L1 17L0 17L0 18L3 18L3 20L4 20L4 19L5 19L5 21L4 21L4 23L5 23L5 21L7 21L7 22L6 22L6 23L7 23L7 24L6 24L6 25L5 25L5 26L1 26L1 24L2 24L2 21L1 21L1 24L0 24L0 29L1 29L1 27L3 27L3 29L4 29L4 28L5 28L5 29L7 29L7 28L9 28L9 27L7 27L7 26L10 26L10 27L11 27L11 28L10 28L10 29L11 29L11 31L13 31L13 33L12 33L12 34L14 34L14 35L13 35L13 36L12 36L12 35L10 35L10 34L11 34L11 33L10 33L10 32L8 32L8 34L9 34L9 36L10 36L10 37L11 37L11 36L12 36L12 37L13 37L13 36L14 36L14 35L15 35L15 29L16 29L16 32L18 32L18 29L16 29L16 28L15 28L15 27L14 27L14 26L15 26L15 25L16 25L16 27L18 27L18 26L20 26L20 27L21 27L21 28L22 28L22 27L23 27L23 28L24 28L24 27L25 27L25 26L23 26L23 25L22 25L22 24L23 24L23 21L24 21L24 20L23 20L23 19L24 19L24 18L25 18L25 20L28 20L28 21L27 21L27 24L28 24L28 23L29 23L29 24L30 24L30 23L29 23L29 20L28 20L28 19L29 19L29 16L30 16L30 17L31 17L31 18L32 18L32 16L34 16L34 17L33 17L33 20L32 20L32 21L31 21L31 20L30 20L30 21L31 21L31 22L32 22L32 23L31 23L31 24L32 24L32 23L33 23L33 25L30 25L30 26L31 26L31 27L32 27L32 28L29 28L29 27L28 27L28 26L27 26L27 25L26 25L26 21L25 21L25 22L24 22L24 23L25 23L25 24L24 24L24 25L26 25L26 27L28 27L28 28L27 28L27 29L28 29L28 30L25 30L25 29L26 29L26 28L25 28L25 29L24 29L24 30L23 30L23 29L21 29L21 30L22 30L22 31L24 31L24 32L27 32L27 34L26 34L26 35L27 35L27 36L26 36L26 37L34 37L34 36L36 36L36 37L37 37L37 34L35 34L35 35L34 35L34 34L31 34L31 33L33 33L33 32L34 32L34 31L35 31L35 32L36 32L36 33L37 33L37 32L36 32L36 31L37 31L37 30L36 30L36 29L37 29L37 26L36 26L36 28L35 28L35 26L33 26L33 25L34 25L34 24L35 24L35 25L37 25L37 22L36 22L36 21L37 21L37 18L36 18L36 17L37 17L37 14L35 14L35 13L34 13L34 14L33 14L33 13L32 13L32 12L31 12L31 11L34 11L34 12L35 12L35 11L34 11L34 10L36 10L36 11L37 11L37 10L36 10L36 9L35 9L35 8L33 8L33 9L32 9L32 10L31 10L31 9L30 9L30 10L29 10L29 13L28 13L28 14L27 14L27 13L25 13L25 12L23 12L23 11L25 11L25 10L26 10L26 7L27 7L27 8L28 8L28 9L29 9L29 6L28 6L28 7L27 7L27 6L26 6L26 7L25 7L25 6L24 6L24 7L23 7L23 6L22 6L22 5L23 5L23 4L25 4L25 3L26 3L26 2L27 2L27 4L26 4L26 5L27 5L27 4L28 4L28 5L29 5L29 2L27 2L27 1L26 1L26 0L22 0L22 1L21 1L21 0L19 0L19 1L18 1L18 0L16 0L16 1L15 1L15 3L17 3L17 2L19 2L19 4L15 4L15 5L14 5L14 7L13 7L13 4L14 4L14 3L13 3L13 0ZM28 0L28 1L29 1L29 0ZM16 1L16 2L17 2L17 1ZM22 1L22 2L20 2L20 3L21 3L21 4L23 4L23 3L24 3L24 2L23 2L23 1ZM25 1L25 2L26 2L26 1ZM11 2L11 3L12 3L12 4L13 4L13 3L12 3L12 2ZM19 5L19 7L20 7L20 5ZM15 6L15 7L14 7L14 8L11 8L11 7L10 7L10 8L11 8L11 11L10 11L10 10L9 10L9 11L10 11L10 12L8 12L8 10L7 10L7 11L6 11L6 12L8 12L8 13L10 13L10 14L9 14L9 15L10 15L10 14L11 14L11 15L12 15L12 16L10 16L10 17L6 17L6 18L10 18L10 17L12 17L12 16L15 16L15 17L14 17L14 18L13 18L13 20L11 20L11 19L12 19L12 18L11 18L11 19L10 19L10 20L11 20L11 22L10 22L10 23L12 23L12 22L13 22L13 20L14 20L14 22L16 22L16 23L13 23L13 24L12 24L12 25L11 25L11 24L10 24L10 26L12 26L12 25L13 25L13 26L14 26L14 24L18 24L18 25L17 25L17 26L18 26L18 25L20 25L20 26L21 26L21 27L22 27L22 26L21 26L21 23L22 23L22 21L20 21L20 19L19 19L19 18L18 18L18 17L16 17L16 16L18 16L18 14L19 14L19 13L20 13L20 14L21 14L21 13L22 13L22 15L21 15L21 17L20 17L20 18L21 18L21 17L22 17L22 18L23 18L23 17L25 17L25 18L26 18L26 19L27 19L27 18L26 18L26 17L25 17L25 16L26 16L26 15L27 15L27 16L28 16L28 15L30 15L30 16L32 16L32 15L33 15L33 14L32 14L32 13L30 13L30 14L28 14L28 15L27 15L27 14L26 14L26 15L25 15L25 13L24 13L24 15L23 15L23 12L22 12L22 10L23 10L23 9L24 9L24 10L25 10L25 8L21 8L21 9L22 9L22 10L20 10L20 11L19 11L19 9L20 9L20 8L19 8L19 9L18 9L18 6L17 6L17 7L16 7L16 6ZM21 6L21 7L22 7L22 6ZM15 8L15 9L14 9L14 10L15 10L15 11L13 11L13 9L12 9L12 12L10 12L10 13L12 13L12 12L13 12L13 14L12 14L12 15L13 15L13 14L15 14L15 16L16 16L16 14L17 14L17 13L16 13L16 14L15 14L15 13L14 13L14 12L15 12L15 11L16 11L16 12L18 12L18 11L17 11L17 9L16 9L16 8ZM15 9L15 10L16 10L16 9ZM33 9L33 10L34 10L34 9ZM4 11L4 12L5 12L5 11ZM20 11L20 13L21 13L21 11ZM27 11L27 12L28 12L28 11ZM6 13L6 14L7 14L7 13ZM3 14L3 15L4 15L4 17L3 17L3 16L2 16L2 15L1 15L1 16L2 16L2 17L3 17L3 18L5 18L5 14ZM30 14L30 15L31 15L31 14ZM6 15L6 16L8 16L8 15ZM19 15L19 16L20 16L20 15ZM24 15L24 16L25 16L25 15ZM34 17L34 18L35 18L35 19L34 19L34 21L33 21L33 23L34 23L34 21L35 21L35 19L36 19L36 18L35 18L35 17ZM14 18L14 19L15 19L15 18ZM0 19L0 20L2 20L2 19ZM6 19L6 20L7 20L7 21L8 21L8 24L7 24L7 25L6 25L6 26L5 26L5 27L6 27L6 28L7 28L7 27L6 27L6 26L7 26L7 25L9 25L9 21L8 21L8 20L9 20L9 19L8 19L8 20L7 20L7 19ZM16 19L16 20L15 20L15 21L16 21L16 22L17 22L17 23L18 23L18 24L20 24L20 22L19 22L19 23L18 23L18 20L19 20L19 19ZM3 24L3 25L4 25L4 24ZM32 26L32 27L33 27L33 29L34 29L34 27L33 27L33 26ZM13 27L13 29L12 29L12 28L11 28L11 29L12 29L12 30L13 30L13 31L14 31L14 30L13 30L13 29L14 29L14 27ZM8 29L8 31L9 31L9 29ZM19 29L19 32L20 32L20 34L22 34L22 36L21 36L21 35L20 35L20 37L24 37L24 36L25 36L25 35L24 35L24 34L25 34L25 33L24 33L24 34L23 34L23 32L21 32L21 31L20 31L20 29ZM29 29L29 32L32 32L32 29ZM30 30L30 31L31 31L31 30ZM35 30L35 31L36 31L36 30ZM16 33L16 35L17 35L17 37L18 37L18 36L19 36L19 35L17 35L17 33ZM18 33L18 34L19 34L19 33ZM28 33L28 34L27 34L27 35L28 35L28 36L30 36L30 35L31 35L31 34L30 34L30 33ZM28 34L28 35L30 35L30 34ZM0 0L0 7L7 7L7 0ZM1 1L1 6L6 6L6 1ZM2 2L2 5L5 5L5 2ZM30 0L30 7L37 7L37 0ZM31 1L31 6L36 6L36 1ZM32 2L32 5L35 5L35 2ZM0 30L0 37L7 37L7 30ZM1 31L1 36L6 36L6 31ZM2 32L2 35L5 35L5 32Z" fill="#000000"/></g></g></svg>
