<?xml version="1.0" encoding="UTF-8"?>
<svg xmlns="http://www.w3.org/2000/svg" version="1.1" width="300" height="300" viewBox="0 0 300 300"><rect x="0" y="0" width="300" height="300" fill="#ffffff"/><g transform="scale(7.692)"><g transform="translate(1,1)"><path fill-rule="evenodd" d="M10 0L10 1L12 1L12 2L9 2L9 1L8 1L8 2L9 2L9 5L8 5L8 8L4 8L4 9L2 9L2 11L0 11L0 12L2 12L2 14L3 14L3 15L2 15L2 16L3 16L3 15L4 15L4 16L6 16L6 17L4 17L4 18L2 18L2 20L1 20L1 21L0 21L0 23L1 23L1 25L0 25L0 26L1 26L1 25L2 25L2 23L3 23L3 24L4 24L4 26L2 26L2 28L0 28L0 29L2 29L2 28L3 28L3 29L4 29L4 28L3 28L3 27L5 27L5 26L6 26L6 27L7 27L7 28L5 28L5 29L8 29L8 33L9 33L9 35L10 35L10 36L9 36L9 37L10 37L10 36L11 36L11 37L12 37L12 35L14 35L14 37L17 37L17 36L18 36L18 35L19 35L19 36L20 36L20 35L22 35L22 33L21 33L21 32L24 32L24 30L27 30L27 31L28 31L28 33L27 33L27 32L26 32L26 33L24 33L24 34L23 34L23 36L21 36L21 37L23 37L23 36L24 36L24 35L25 35L25 34L26 34L26 33L27 33L27 34L29 34L29 35L31 35L31 36L30 36L30 37L33 37L33 35L34 35L34 37L37 37L37 36L36 36L36 34L35 34L35 30L34 30L34 29L35 29L35 28L36 28L36 29L37 29L37 28L36 28L36 26L33 26L33 25L30 25L30 24L32 24L32 23L31 23L31 22L30 22L30 23L29 23L29 24L27 24L27 25L26 25L26 23L28 23L28 20L30 20L30 21L31 21L31 20L33 20L33 19L34 19L34 21L35 21L35 23L34 23L34 25L35 25L35 24L36 24L36 25L37 25L37 24L36 24L36 21L37 21L37 20L35 20L35 13L36 13L36 12L37 12L37 11L36 11L36 12L35 12L35 10L36 10L36 8L35 8L35 10L33 10L33 9L32 9L32 8L30 8L30 10L29 10L29 9L28 9L28 8L27 8L27 5L28 5L28 7L29 7L29 2L26 2L26 0L24 0L24 1L23 1L23 3L24 3L24 2L26 2L26 4L25 4L25 6L24 6L24 4L21 4L21 3L22 3L22 2L21 2L21 3L20 3L20 4L21 4L21 6L20 6L20 7L21 7L21 9L20 9L20 10L19 10L19 11L20 11L20 13L19 13L19 12L18 12L18 13L19 13L19 14L18 14L18 15L16 15L16 16L15 16L15 15L14 15L14 14L15 14L15 13L14 13L14 12L16 12L16 13L17 13L17 11L18 11L18 10L16 10L16 11L15 11L15 8L16 8L16 9L17 9L17 8L18 8L18 9L19 9L19 8L18 8L18 7L19 7L19 2L20 2L20 0L19 0L19 1L17 1L17 2L16 2L16 0L15 0L15 2L14 2L14 3L13 3L13 1L14 1L14 0ZM21 0L21 1L22 1L22 0ZM27 0L27 1L28 1L28 0ZM12 3L12 4L11 4L11 5L12 5L12 6L11 6L11 7L12 7L12 9L11 9L11 8L10 8L10 5L9 5L9 8L8 8L8 9L5 9L5 10L4 10L4 12L8 12L8 13L9 13L9 15L8 15L8 14L7 14L7 13L6 13L6 14L7 14L7 15L6 15L6 16L7 16L7 17L6 17L6 18L7 18L7 19L5 19L5 20L7 20L7 21L2 21L2 22L3 22L3 23L4 23L4 24L8 24L8 25L9 25L9 26L8 26L8 29L9 29L9 26L10 26L10 29L11 29L11 30L9 30L9 32L10 32L10 31L11 31L11 30L12 30L12 31L13 31L13 32L14 32L14 33L12 33L12 32L11 32L11 34L14 34L14 33L15 33L15 35L16 35L16 36L17 36L17 35L18 35L18 34L20 34L20 32L21 32L21 31L22 31L22 30L23 30L23 28L24 28L24 29L27 29L27 30L28 30L28 28L26 28L26 27L25 27L25 26L26 26L26 25L23 25L23 24L24 24L24 23L25 23L25 22L27 22L27 21L26 21L26 20L28 20L28 19L27 19L27 17L28 17L28 18L29 18L29 19L30 19L30 18L32 18L32 17L33 17L33 16L34 16L34 15L33 15L33 14L34 14L34 13L33 13L33 10L30 10L30 12L29 12L29 11L28 11L28 9L25 9L25 12L23 12L23 13L22 13L22 17L21 17L21 15L20 15L20 14L21 14L21 13L20 13L20 14L19 14L19 15L18 15L18 16L17 16L17 17L19 17L19 18L21 18L21 19L20 19L20 20L19 20L19 19L18 19L18 18L16 18L16 17L15 17L15 18L14 18L14 19L13 19L13 18L12 18L12 17L14 17L14 15L13 15L13 11L14 11L14 10L12 10L12 9L13 9L13 8L14 8L14 6L15 6L15 7L16 7L16 6L17 6L17 7L18 7L18 4L17 4L17 3L16 3L16 4L15 4L15 5L14 5L14 4L13 4L13 3ZM27 3L27 4L26 4L26 5L27 5L27 4L28 4L28 3ZM16 4L16 5L15 5L15 6L16 6L16 5L17 5L17 4ZM12 6L12 7L13 7L13 6ZM21 6L21 7L22 7L22 6ZM23 6L23 8L22 8L22 10L21 10L21 11L24 11L24 10L23 10L23 9L24 9L24 8L26 8L26 6L25 6L25 7L24 7L24 6ZM9 8L9 9L10 9L10 8ZM0 9L0 10L1 10L1 9ZM5 10L5 11L7 11L7 10ZM9 10L9 11L8 11L8 12L9 12L9 11L11 11L11 10ZM26 10L26 11L27 11L27 10ZM2 11L2 12L3 12L3 11ZM10 12L10 14L11 14L11 15L9 15L9 17L7 17L7 18L8 18L8 19L10 19L10 20L13 20L13 22L14 22L14 23L13 23L13 25L12 25L12 26L13 26L13 25L14 25L14 26L15 26L15 28L11 28L11 29L15 29L15 33L17 33L17 32L16 32L16 30L19 30L19 29L20 29L20 31L21 31L21 30L22 30L22 28L21 28L21 26L22 26L22 27L23 27L23 25L21 25L21 26L20 26L20 25L18 25L18 26L17 26L17 24L16 24L16 23L19 23L19 24L20 24L20 23L21 23L21 24L23 24L23 23L22 23L22 22L23 22L23 21L24 21L24 20L25 20L25 18L26 18L26 17L27 17L27 16L26 16L26 17L24 17L24 18L23 18L23 17L22 17L22 19L21 19L21 20L20 20L20 22L18 22L18 20L17 20L17 22L15 22L15 21L14 21L14 20L13 20L13 19L11 19L11 18L9 18L9 17L12 17L12 16L13 16L13 15L12 15L12 14L11 14L11 12ZM27 12L27 13L24 13L24 14L27 14L27 15L28 15L28 17L29 17L29 18L30 18L30 17L31 17L31 15L32 15L32 14L33 14L33 13L32 13L32 12L30 12L30 13L28 13L28 12ZM0 13L0 14L1 14L1 13ZM3 13L3 14L5 14L5 13ZM27 13L27 14L28 14L28 13ZM30 13L30 15L29 15L29 16L30 16L30 15L31 15L31 14L32 14L32 13ZM11 15L11 16L12 16L12 15ZM36 16L36 17L37 17L37 16ZM0 17L0 18L1 18L1 17ZM3 19L3 20L4 20L4 19ZM15 19L15 20L16 20L16 19ZM22 19L22 20L23 20L23 19ZM8 20L8 23L10 23L10 25L11 25L11 23L12 23L12 21L11 21L11 22L10 22L10 21L9 21L9 20ZM21 21L21 22L22 22L22 21ZM32 21L32 22L33 22L33 21ZM6 22L6 23L7 23L7 22ZM15 24L15 25L16 25L16 24ZM6 25L6 26L7 26L7 25ZM27 25L27 26L28 26L28 27L29 27L29 26L30 26L30 25ZM16 26L16 27L17 27L17 26ZM32 26L32 27L31 27L31 28L32 28L32 27L33 27L33 26ZM19 27L19 28L17 28L17 29L19 29L19 28L20 28L20 29L21 29L21 28L20 28L20 27ZM24 27L24 28L25 28L25 27ZM15 28L15 29L16 29L16 28ZM29 29L29 32L32 32L32 29ZM13 30L13 31L14 31L14 30ZM30 30L30 31L31 31L31 30ZM33 31L33 32L34 32L34 31ZM36 31L36 33L37 33L37 31ZM18 32L18 33L19 33L19 32ZM29 33L29 34L30 34L30 33ZM32 33L32 35L33 35L33 34L34 34L34 33ZM26 36L26 37L27 37L27 36ZM0 0L0 7L7 7L7 0ZM1 1L1 6L6 6L6 1ZM2 2L2 5L5 5L5 2ZM30 0L30 7L37 7L37 0ZM31 1L31 6L36 6L36 1ZM32 2L32 5L35 5L35 2ZM0 30L0 37L7 37L7 30ZM1 31L1 36L6 36L6 31ZM2 32L2 35L5 35L5 32Z" fill="#000000"/></g></g></svg>
