<?xml version="1.0" encoding="UTF-8"?>
<svg xmlns="http://www.w3.org/2000/svg" version="1.1" width="300" height="300" viewBox="0 0 300 300"><rect x="0" y="0" width="300" height="300" fill="#ffffff"/><g transform="scale(7.692)"><g transform="translate(1,1)"><path fill-rule="evenodd" d="M9 0L9 1L10 1L10 0ZM13 0L13 2L12 2L12 1L11 1L11 2L10 2L10 3L9 3L9 4L8 4L8 5L11 5L11 4L10 4L10 3L13 3L13 6L12 6L12 8L10 8L10 7L11 7L11 6L10 6L10 7L9 7L9 6L8 6L8 8L6 8L6 9L7 9L7 10L6 10L6 11L5 11L5 12L4 12L4 10L5 10L5 9L4 9L4 8L2 8L2 9L0 9L0 10L3 10L3 12L4 12L4 14L5 14L5 15L9 15L9 16L10 16L10 17L11 17L11 18L13 18L13 20L15 20L15 19L14 19L14 17L15 17L15 16L16 16L16 17L17 17L17 18L16 18L16 21L15 21L15 22L14 22L14 23L15 23L15 22L16 22L16 21L17 21L17 24L18 24L18 23L19 23L19 25L21 25L21 26L20 26L20 28L21 28L21 30L20 30L20 32L21 32L21 30L24 30L24 31L23 31L23 32L22 32L22 33L21 33L21 34L20 34L20 33L19 33L19 31L16 31L16 30L19 30L19 27L17 27L17 28L16 28L16 30L15 30L15 28L14 28L14 30L13 30L13 29L12 29L12 31L10 31L10 29L8 29L8 31L9 31L9 32L13 32L13 34L11 34L11 33L10 33L10 34L11 34L11 35L9 35L9 33L8 33L8 35L9 35L9 36L11 36L11 35L13 35L13 36L12 36L12 37L14 37L14 36L15 36L15 35L17 35L17 34L16 34L16 33L15 33L15 32L17 32L17 33L19 33L19 34L18 34L18 35L20 35L20 37L21 37L21 35L22 35L22 33L23 33L23 32L24 32L24 34L23 34L23 35L25 35L25 37L26 37L26 35L27 35L27 37L28 37L28 35L29 35L29 36L30 36L30 37L31 37L31 36L30 36L30 35L32 35L32 36L33 36L33 37L37 37L37 36L35 36L35 35L36 35L36 34L35 34L35 33L34 33L34 30L35 30L35 31L36 31L36 32L37 32L37 29L36 29L36 28L37 28L37 27L36 27L36 28L34 28L34 27L33 27L33 28L28 28L28 27L27 27L27 24L28 24L28 25L29 25L29 26L30 26L30 27L31 27L31 26L30 26L30 24L31 24L31 25L32 25L32 26L33 26L33 25L35 25L35 26L37 26L37 24L36 24L36 25L35 25L35 23L36 23L36 20L35 20L35 22L34 22L34 21L33 21L33 20L34 20L34 17L36 17L36 18L35 18L35 19L37 19L37 17L36 17L36 16L37 16L37 15L36 15L36 14L37 14L37 13L36 13L36 12L37 12L37 11L35 11L35 10L36 10L36 9L35 9L35 10L34 10L34 9L33 9L33 8L32 8L32 9L33 9L33 10L32 10L32 11L31 11L31 12L30 12L30 14L33 14L33 12L32 12L32 11L33 11L33 10L34 10L34 15L35 15L35 16L33 16L33 18L31 18L31 17L32 17L32 16L31 16L31 17L29 17L29 16L30 16L30 15L29 15L29 12L28 12L28 10L29 10L29 11L30 11L30 10L31 10L31 8L29 8L29 6L28 6L28 7L27 7L27 6L26 6L26 5L25 5L25 3L26 3L26 4L27 4L27 5L29 5L29 4L27 4L27 3L26 3L26 2L25 2L25 3L23 3L23 4L24 4L24 5L23 5L23 6L22 6L22 4L21 4L21 3L20 3L20 2L18 2L18 3L19 3L19 4L20 4L20 5L21 5L21 6L20 6L20 7L21 7L21 8L20 8L20 9L19 9L19 10L18 10L18 11L16 11L16 10L15 10L15 11L14 11L14 14L16 14L16 15L14 15L14 16L12 16L12 15L11 15L11 16L10 16L10 15L9 15L9 14L13 14L13 13L11 13L11 12L12 12L12 11L10 11L10 10L9 10L9 9L12 9L12 10L13 10L13 8L14 8L14 9L15 9L15 8L14 8L14 7L15 7L15 6L16 6L16 7L17 7L17 8L16 8L16 9L17 9L17 8L18 8L18 7L19 7L19 6L18 6L18 7L17 7L17 5L18 5L18 4L17 4L17 2L16 2L16 1L15 1L15 0ZM20 0L20 1L21 1L21 2L23 2L23 1L22 1L22 0ZM24 0L24 1L25 1L25 0ZM26 0L26 1L27 1L27 0ZM14 1L14 4L15 4L15 5L16 5L16 4L15 4L15 3L16 3L16 2L15 2L15 1ZM28 2L28 3L29 3L29 2ZM13 6L13 7L14 7L14 6ZM21 6L21 7L22 7L22 8L21 8L21 9L20 9L20 11L21 11L21 12L20 12L20 13L19 13L19 11L18 11L18 12L16 12L16 13L17 13L17 14L18 14L18 15L17 15L17 16L18 16L18 19L17 19L17 20L21 20L21 23L20 23L20 24L21 24L21 25L22 25L22 24L23 24L23 23L25 23L25 25L26 25L26 24L27 24L27 23L28 23L28 24L30 24L30 22L31 22L31 24L33 24L33 23L32 23L32 22L33 22L33 21L32 21L32 20L33 20L33 19L32 19L32 20L29 20L29 18L28 18L28 20L29 20L29 21L27 21L27 20L26 20L26 19L27 19L27 18L26 18L26 19L25 19L25 17L23 17L23 16L27 16L27 17L28 17L28 16L29 16L29 15L28 15L28 12L27 12L27 10L25 10L25 8L26 8L26 9L27 9L27 7L26 7L26 6L25 6L25 7L24 7L24 6L23 6L23 7L22 7L22 6ZM22 9L22 10L21 10L21 11L22 11L22 13L21 13L21 14L19 14L19 13L18 13L18 14L19 14L19 15L21 15L21 16L19 16L19 19L21 19L21 18L22 18L22 21L25 21L25 23L26 23L26 22L27 22L27 21L25 21L25 19L23 19L23 18L22 18L22 16L23 16L23 15L24 15L24 14L23 14L23 15L21 15L21 14L22 14L22 13L24 13L24 9ZM29 9L29 10L30 10L30 9ZM7 10L7 11L6 11L6 12L5 12L5 14L8 14L8 12L7 12L7 11L8 11L8 10ZM0 11L0 12L1 12L1 15L0 15L0 17L2 17L2 18L1 18L1 19L0 19L0 22L1 22L1 23L0 23L0 24L1 24L1 27L0 27L0 28L1 28L1 27L4 27L4 28L3 28L3 29L5 29L5 27L7 27L7 28L6 28L6 29L7 29L7 28L8 28L8 27L7 27L7 26L5 26L5 25L7 25L7 24L6 24L6 23L7 23L7 22L8 22L8 23L9 23L9 24L8 24L8 26L9 26L9 27L10 27L10 25L11 25L11 28L13 28L13 27L14 27L14 25L16 25L16 24L14 24L14 25L13 25L13 27L12 27L12 24L13 24L13 23L9 23L9 22L8 22L8 21L9 21L9 20L10 20L10 21L12 21L12 19L11 19L11 20L10 20L10 18L9 18L9 20L5 20L5 21L7 21L7 22L6 22L6 23L5 23L5 22L4 22L4 18L3 18L3 16L1 16L1 15L2 15L2 12L1 12L1 11ZM25 11L25 13L26 13L26 14L25 14L25 15L26 15L26 14L27 14L27 12L26 12L26 11ZM6 12L6 13L7 13L7 12ZM31 12L31 13L32 13L32 12ZM5 16L5 17L8 17L8 16ZM11 16L11 17L12 17L12 16ZM6 18L6 19L8 19L8 18ZM30 18L30 19L31 19L31 18ZM1 19L1 20L2 20L2 21L1 21L1 22L2 22L2 24L5 24L5 23L3 23L3 22L2 22L2 21L3 21L3 19ZM18 21L18 22L20 22L20 21ZM31 21L31 22L32 22L32 21ZM28 22L28 23L29 23L29 22ZM21 23L21 24L22 24L22 23ZM3 25L3 26L4 26L4 27L5 27L5 26L4 26L4 25ZM17 25L17 26L18 26L18 25ZM24 26L24 28L22 28L22 27L21 27L21 28L22 28L22 29L24 29L24 30L25 30L25 31L24 31L24 32L25 32L25 35L26 35L26 33L27 33L27 34L28 34L28 32L26 32L26 31L27 31L27 30L28 30L28 28L26 28L26 26ZM24 28L24 29L25 29L25 30L26 30L26 28ZM29 29L29 32L32 32L32 29ZM35 29L35 30L36 30L36 29ZM14 30L14 31L13 31L13 32L14 32L14 31L15 31L15 30ZM30 30L30 31L31 31L31 30ZM14 33L14 35L15 35L15 33ZM29 33L29 34L30 34L30 33ZM31 33L31 34L32 34L32 33ZM33 34L33 35L35 35L35 34ZM16 36L16 37L17 37L17 36ZM0 0L0 7L7 7L7 0ZM1 1L1 6L6 6L6 1ZM2 2L2 5L5 5L5 2ZM30 0L30 7L37 7L37 0ZM31 1L31 6L36 6L36 1ZM32 2L32 5L35 5L35 2ZM0 30L0 37L7 37L7 30ZM1 31L1 36L6 36L6 31ZM2 32L2 35L5 35L5 32Z" fill="#000000"/></g></g></svg>
