<?xml version="1.0" encoding="UTF-8"?>
<svg xmlns="http://www.w3.org/2000/svg" version="1.1" width="300" height="300" viewBox="0 0 300 300"><rect x="0" y="0" width="300" height="300" fill="#ffffff"/><g transform="scale(7.692)"><g transform="translate(1,1)"><path fill-rule="evenodd" d="M8 0L8 3L9 3L9 4L10 4L10 5L8 5L8 9L7 9L7 8L6 8L6 9L7 9L7 10L5 10L5 11L3 11L3 10L4 10L4 9L5 9L5 8L2 8L2 9L0 9L0 11L1 11L1 13L0 13L0 16L1 16L1 18L2 18L2 20L3 20L3 19L4 19L4 18L5 18L5 17L4 17L4 15L5 15L5 16L6 16L6 17L7 17L7 18L6 18L6 19L5 19L5 20L4 20L4 21L1 21L1 22L0 22L0 23L1 23L1 24L0 24L0 29L1 29L1 25L3 25L3 28L2 28L2 29L3 29L3 28L4 28L4 29L5 29L5 28L6 28L6 29L7 29L7 28L8 28L8 30L11 30L11 29L13 29L13 30L12 30L12 31L14 31L14 30L16 30L16 29L18 29L18 30L20 30L20 31L21 31L21 32L19 32L19 33L18 33L18 34L16 34L16 33L17 33L17 31L15 31L15 32L14 32L14 33L13 33L13 34L12 34L12 35L14 35L14 36L13 36L13 37L15 37L15 36L16 36L16 37L17 37L17 35L18 35L18 36L19 36L19 37L22 37L22 36L23 36L23 35L22 35L22 34L21 34L21 33L22 33L22 31L21 31L21 30L20 30L20 29L21 29L21 25L22 25L22 26L23 26L23 27L22 27L22 28L23 28L23 30L24 30L24 32L25 32L25 33L24 33L24 34L25 34L25 33L26 33L26 34L27 34L27 33L28 33L28 36L27 36L27 37L28 37L28 36L30 36L30 37L31 37L31 36L33 36L33 37L37 37L37 34L36 34L36 36L33 36L33 35L34 35L34 34L35 34L35 32L36 32L36 33L37 33L37 32L36 32L36 31L37 31L37 30L35 30L35 32L34 32L34 33L33 33L33 31L34 31L34 30L33 30L33 28L34 28L34 29L35 29L35 28L34 28L34 27L32 27L32 26L31 26L31 25L33 25L33 26L34 26L34 25L35 25L35 24L32 24L32 23L31 23L31 25L30 25L30 24L29 24L29 23L30 23L30 22L27 22L27 21L26 21L26 20L25 20L25 22L23 22L23 21L24 21L24 20L23 20L23 21L21 21L21 23L20 23L20 21L19 21L19 23L16 23L16 20L17 20L17 22L18 22L18 20L19 20L19 19L20 19L20 20L21 20L21 19L20 19L20 16L19 16L19 19L18 19L18 15L17 15L17 13L18 13L18 14L19 14L19 13L20 13L20 15L21 15L21 16L25 16L25 17L24 17L24 18L25 18L25 19L26 19L26 18L27 18L27 19L28 19L28 18L27 18L27 17L29 17L29 19L30 19L30 17L31 17L31 20L30 20L30 21L31 21L31 22L32 22L32 21L33 21L33 22L34 22L34 23L35 23L35 22L36 22L36 25L37 25L37 22L36 22L36 21L37 21L37 18L35 18L35 16L36 16L36 17L37 17L37 14L35 14L35 13L36 13L36 11L37 11L37 10L36 10L36 9L37 9L37 8L34 8L34 9L33 9L33 10L32 10L32 11L33 11L33 12L32 12L32 13L31 13L31 9L32 9L32 8L29 8L29 4L28 4L28 5L27 5L27 3L28 3L28 1L27 1L27 0L24 0L24 1L22 1L22 0L20 0L20 1L19 1L19 0L18 0L18 1L17 1L17 2L20 2L20 3L19 3L19 4L18 4L18 9L17 9L17 8L16 8L16 7L17 7L17 6L16 6L16 7L15 7L15 5L17 5L17 3L16 3L16 2L15 2L15 0ZM10 1L10 4L11 4L11 7L10 7L10 6L9 6L9 10L7 10L7 11L5 11L5 12L4 12L4 14L5 14L5 13L6 13L6 14L7 14L7 15L6 15L6 16L8 16L8 17L9 17L9 15L12 15L12 16L14 16L14 20L13 20L13 22L11 22L11 19L13 19L13 17L11 17L11 16L10 16L10 19L8 19L8 18L7 18L7 19L6 19L6 20L7 20L7 21L4 21L4 22L3 22L3 23L2 23L2 24L3 24L3 25L4 25L4 24L3 24L3 23L4 23L4 22L7 22L7 21L8 21L8 22L10 22L10 23L9 23L9 24L11 24L11 23L13 23L13 22L14 22L14 25L15 25L15 22L14 22L14 21L15 21L15 19L16 19L16 18L15 18L15 17L16 17L16 16L14 16L14 15L15 15L15 14L16 14L16 13L14 13L14 12L11 12L11 13L10 13L10 12L9 12L9 13L8 13L8 11L11 11L11 10L12 10L12 9L13 9L13 11L14 11L14 10L15 10L15 11L16 11L16 10L17 10L17 9L16 9L16 10L15 10L15 8L13 8L13 7L14 7L14 6L13 6L13 7L12 7L12 4L11 4L11 1ZM12 1L12 3L14 3L14 4L13 4L13 5L14 5L14 4L15 4L15 2L14 2L14 1ZM20 1L20 2L21 2L21 3L20 3L20 5L19 5L19 8L20 8L20 6L21 6L21 7L22 7L22 5L21 5L21 3L22 3L22 4L23 4L23 3L24 3L24 2L22 2L22 1ZM25 1L25 4L24 4L24 6L23 6L23 7L24 7L24 6L25 6L25 8L21 8L21 9L20 9L20 10L21 10L21 11L22 11L22 12L20 12L20 11L19 11L19 9L18 9L18 11L19 11L19 12L18 12L18 13L19 13L19 12L20 12L20 13L21 13L21 14L24 14L24 15L25 15L25 16L26 16L26 17L25 17L25 18L26 18L26 17L27 17L27 16L29 16L29 15L30 15L30 16L33 16L33 17L32 17L32 18L34 18L34 19L33 19L33 20L35 20L35 18L34 18L34 16L35 16L35 14L34 14L34 15L33 15L33 13L34 13L34 12L35 12L35 9L34 9L34 12L33 12L33 13L32 13L32 15L30 15L30 14L31 14L31 13L30 13L30 9L29 9L29 8L28 8L28 6L27 6L27 5L26 5L26 3L27 3L27 2L26 2L26 1ZM26 6L26 8L27 8L27 6ZM25 9L25 10L24 10L24 11L23 11L23 10L22 10L22 11L23 11L23 12L22 12L22 13L23 13L23 12L24 12L24 14L25 14L25 13L27 13L27 15L29 15L29 14L30 14L30 13L27 13L27 12L25 12L25 10L26 10L26 11L27 11L27 10L29 10L29 9ZM1 10L1 11L2 11L2 10ZM28 11L28 12L29 12L29 11ZM2 12L2 13L3 13L3 12ZM6 12L6 13L7 13L7 12ZM1 14L1 16L3 16L3 14ZM8 14L8 15L9 15L9 14ZM12 14L12 15L14 15L14 14ZM21 17L21 18L22 18L22 19L23 19L23 17ZM7 19L7 20L8 20L8 21L10 21L10 20L8 20L8 19ZM34 21L34 22L35 22L35 21ZM22 22L22 24L23 24L23 22ZM6 23L6 24L8 24L8 23ZM24 23L24 24L25 24L25 25L23 25L23 26L25 26L25 25L26 25L26 26L27 26L27 25L28 25L28 26L29 26L29 27L28 27L28 28L32 28L32 27L31 27L31 26L30 26L30 25L28 25L28 23L26 23L26 24L25 24L25 23ZM12 24L12 25L10 25L10 26L9 26L9 25L6 25L6 26L8 26L8 28L9 28L9 29L11 29L11 28L10 28L10 26L12 26L12 25L13 25L13 24ZM17 24L17 25L16 25L16 26L13 26L13 29L15 29L15 28L16 28L16 26L17 26L17 28L18 28L18 29L20 29L20 27L19 27L19 26L20 26L20 24ZM26 24L26 25L27 25L27 24ZM17 25L17 26L19 26L19 25ZM4 26L4 27L5 27L5 26ZM36 26L36 29L37 29L37 26ZM6 27L6 28L7 28L7 27ZM24 27L24 29L25 29L25 32L26 32L26 33L27 33L27 32L28 32L28 31L27 31L27 29L25 29L25 28L26 28L26 27ZM29 29L29 32L32 32L32 29ZM30 30L30 31L31 31L31 30ZM8 32L8 35L10 35L10 34L9 34L9 33L10 33L10 32ZM14 33L14 35L16 35L16 34L15 34L15 33ZM29 33L29 35L31 35L31 34L32 34L32 35L33 35L33 34L32 34L32 33L31 33L31 34L30 34L30 33ZM18 34L18 35L19 35L19 34ZM20 34L20 36L21 36L21 34ZM24 35L24 36L25 36L25 37L26 37L26 36L25 36L25 35ZM0 0L0 7L7 7L7 0ZM1 1L1 6L6 6L6 1ZM2 2L2 5L5 5L5 2ZM30 0L30 7L37 7L37 0ZM31 1L31 6L36 6L36 1ZM32 2L32 5L35 5L35 2ZM0 30L0 37L7 37L7 30ZM1 31L1 36L6 36L6 31ZM2 32L2 35L5 35L5 32Z" fill="#000000"/></g></g></svg>
