<?xml version="1.0" encoding="UTF-8"?>
<svg xmlns="http://www.w3.org/2000/svg" version="1.1" width="300" height="300" viewBox="0 0 300 300"><rect x="0" y="0" width="300" height="300" fill="#ffffff"/><g transform="scale(7.692)"><g transform="translate(1,1)"><path fill-rule="evenodd" d="M10 0L10 1L11 1L11 2L9 2L9 1L8 1L8 2L9 2L9 5L8 5L8 8L4 8L4 9L2 9L2 10L4 10L4 11L5 11L5 12L6 12L6 13L4 13L4 14L3 14L3 16L4 16L4 15L5 15L5 16L6 16L6 17L7 17L7 18L5 18L5 17L4 17L4 18L2 18L2 20L1 20L1 18L0 18L0 20L1 20L1 21L7 21L7 20L8 20L8 19L7 19L7 18L9 18L9 19L10 19L10 20L11 20L11 22L10 22L10 21L8 21L8 22L6 22L6 23L8 23L8 24L9 24L9 23L10 23L10 25L12 25L12 26L13 26L13 25L14 25L14 26L15 26L15 27L16 27L16 26L15 26L15 24L16 24L16 25L17 25L17 28L16 28L16 29L17 29L17 30L16 30L16 31L15 31L15 32L16 32L16 33L18 33L18 32L16 32L16 31L17 31L17 30L18 30L18 31L19 31L19 29L20 29L20 31L21 31L21 32L20 32L20 33L19 33L19 34L18 34L18 35L17 35L17 36L16 36L16 35L14 35L14 34L15 34L15 33L14 33L14 32L13 32L13 31L14 31L14 30L13 30L13 31L12 31L12 30L11 30L11 29L15 29L15 28L11 28L11 29L10 29L10 28L9 28L9 29L8 29L8 26L9 26L9 25L7 25L7 24L4 24L4 23L3 23L3 22L2 22L2 23L3 23L3 25L4 25L4 27L3 27L3 26L2 26L2 27L3 27L3 29L5 29L5 28L4 28L4 27L5 27L5 26L6 26L6 27L7 27L7 28L6 28L6 29L8 29L8 33L9 33L9 35L10 35L10 36L9 36L9 37L10 37L10 36L11 36L11 37L12 37L12 35L11 35L11 34L10 34L10 32L13 32L13 33L12 33L12 34L13 34L13 35L14 35L14 36L15 36L15 37L17 37L17 36L18 36L18 35L20 35L20 36L22 36L22 35L23 35L23 36L24 36L24 35L25 35L25 34L26 34L26 33L27 33L27 34L29 34L29 35L31 35L31 36L30 36L30 37L33 37L33 35L34 35L34 37L37 37L37 36L36 36L36 34L35 34L35 30L34 30L34 29L35 29L35 28L36 28L36 29L37 29L37 28L36 28L36 26L34 26L34 27L32 27L32 26L33 26L33 25L30 25L30 24L32 24L32 23L31 23L31 22L30 22L30 23L29 23L29 24L27 24L27 25L26 25L26 23L28 23L28 20L30 20L30 21L31 21L31 20L33 20L33 19L34 19L34 21L35 21L35 23L34 23L34 25L35 25L35 24L36 24L36 25L37 25L37 24L36 24L36 21L37 21L37 20L35 20L35 13L36 13L36 12L37 12L37 11L36 11L36 12L35 12L35 10L36 10L36 8L35 8L35 10L33 10L33 9L32 9L32 8L30 8L30 10L29 10L29 9L28 9L28 8L27 8L27 5L28 5L28 7L29 7L29 2L27 2L27 3L26 3L26 4L25 4L25 6L24 6L24 4L23 4L23 3L24 3L24 2L26 2L26 1L25 1L25 0L24 0L24 1L21 1L21 0L20 0L20 1L21 1L21 2L20 2L20 3L19 3L19 1L17 1L17 2L16 2L16 0L15 0L15 4L16 4L16 5L14 5L14 8L13 8L13 4L14 4L14 3L13 3L13 4L12 4L12 2L14 2L14 1L13 1L13 0L12 0L12 1L11 1L11 0ZM27 0L27 1L28 1L28 0ZM21 2L21 3L20 3L20 4L19 4L19 5L20 5L20 4L21 4L21 7L22 7L22 8L20 8L20 6L19 6L19 7L18 7L18 4L17 4L17 3L16 3L16 4L17 4L17 5L16 5L16 6L15 6L15 7L16 7L16 6L17 6L17 7L18 7L18 8L14 8L14 10L12 10L12 9L13 9L13 8L10 8L10 5L9 5L9 8L8 8L8 9L4 9L4 10L5 10L5 11L6 11L6 12L8 12L8 13L9 13L9 14L12 14L12 15L10 15L10 17L9 17L9 18L10 18L10 17L11 17L11 20L13 20L13 18L14 18L14 20L15 20L15 21L13 21L13 23L11 23L11 24L12 24L12 25L13 25L13 23L15 23L15 22L17 22L17 20L18 20L18 22L20 22L20 23L21 23L21 22L22 22L22 21L23 21L23 24L24 24L24 23L25 23L25 22L27 22L27 21L26 21L26 20L28 20L28 19L27 19L27 17L28 17L28 18L29 18L29 19L30 19L30 18L32 18L32 17L33 17L33 16L34 16L34 15L33 15L33 14L34 14L34 13L33 13L33 10L32 10L32 11L31 11L31 10L30 10L30 12L29 12L29 11L28 11L28 9L25 9L25 10L21 10L21 11L24 11L24 12L25 12L25 13L27 13L27 14L25 14L25 15L24 15L24 13L22 13L22 17L21 17L21 15L20 15L20 14L21 14L21 13L20 13L20 11L18 11L18 10L20 10L20 9L24 9L24 8L26 8L26 6L25 6L25 7L24 7L24 6L23 6L23 5L22 5L22 4L21 4L21 3L22 3L22 2ZM27 3L27 4L26 4L26 5L27 5L27 4L28 4L28 3ZM11 4L11 7L12 7L12 4ZM22 6L22 7L23 7L23 6ZM9 8L9 10L10 10L10 11L8 11L8 12L9 12L9 13L11 13L11 12L10 12L10 11L11 11L11 10L10 10L10 8ZM18 8L18 9L17 9L17 10L14 10L14 11L13 11L13 15L12 15L12 16L11 16L11 17L12 17L12 16L13 16L13 15L14 15L14 18L15 18L15 17L16 17L16 18L18 18L18 19L19 19L19 21L20 21L20 22L21 22L21 21L22 21L22 20L23 20L23 21L24 21L24 20L25 20L25 19L26 19L26 17L27 17L27 16L26 16L26 17L24 17L24 18L23 18L23 17L22 17L22 18L23 18L23 19L22 19L22 20L21 20L21 18L20 18L20 17L19 17L19 16L18 16L18 17L17 17L17 16L16 16L16 14L17 14L17 15L18 15L18 14L20 14L20 13L18 13L18 12L16 12L16 11L17 11L17 10L18 10L18 9L19 9L19 8ZM0 9L0 10L1 10L1 9ZM6 10L6 11L7 11L7 10ZM26 10L26 11L27 11L27 10ZM0 11L0 12L2 12L2 11ZM14 12L14 13L15 13L15 12ZM27 12L27 13L28 13L28 14L27 14L27 15L28 15L28 17L29 17L29 18L30 18L30 17L31 17L31 15L32 15L32 14L33 14L33 13L32 13L32 12L30 12L30 13L28 13L28 12ZM0 13L0 14L1 14L1 13ZM6 13L6 14L7 14L7 15L6 15L6 16L7 16L7 17L8 17L8 16L9 16L9 15L8 15L8 14L7 14L7 13ZM17 13L17 14L18 14L18 13ZM30 13L30 15L29 15L29 14L28 14L28 15L29 15L29 16L30 16L30 15L31 15L31 14L32 14L32 13ZM14 14L14 15L15 15L15 14ZM36 16L36 17L37 17L37 16ZM18 17L18 18L19 18L19 19L20 19L20 18L19 18L19 17ZM3 19L3 20L4 20L4 19ZM5 19L5 20L7 20L7 19ZM15 19L15 20L16 20L16 19ZM32 21L32 22L33 22L33 21ZM16 23L16 24L17 24L17 25L19 25L19 23ZM20 24L20 26L21 26L21 28L20 28L20 27L19 27L19 28L18 28L18 29L19 29L19 28L20 28L20 29L21 29L21 28L22 28L22 30L21 30L21 31L22 31L22 30L23 30L23 28L24 28L24 29L27 29L27 30L24 30L24 32L21 32L21 33L20 33L20 34L21 34L21 33L22 33L22 34L24 34L24 33L26 33L26 32L27 32L27 33L28 33L28 31L27 31L27 30L28 30L28 28L26 28L26 27L25 27L25 26L26 26L26 25L23 25L23 27L22 27L22 26L21 26L21 24ZM0 25L0 26L1 26L1 25ZM6 25L6 26L7 26L7 25ZM27 25L27 26L28 26L28 27L29 27L29 26L30 26L30 25ZM24 27L24 28L25 28L25 27ZM31 27L31 28L32 28L32 27ZM0 28L0 29L2 29L2 28ZM29 29L29 32L32 32L32 29ZM10 30L10 31L9 31L9 32L10 32L10 31L11 31L11 30ZM30 30L30 31L31 31L31 30ZM33 31L33 32L34 32L34 31ZM36 31L36 33L37 33L37 31ZM13 33L13 34L14 34L14 33ZM29 33L29 34L30 34L30 33ZM32 33L32 35L33 35L33 34L34 34L34 33ZM26 36L26 37L27 37L27 36ZM0 0L0 7L7 7L7 0ZM1 1L1 6L6 6L6 1ZM2 2L2 5L5 5L5 2ZM30 0L30 7L37 7L37 0ZM31 1L31 6L36 6L36 1ZM32 2L32 5L35 5L35 2ZM0 30L0 37L7 37L7 30ZM1 31L1 36L6 36L6 31ZM2 32L2 35L5 35L5 32Z" fill="#000000"/></g></g></svg>
