<?xml version="1.0" encoding="UTF-8"?>
<svg xmlns="http://www.w3.org/2000/svg" version="1.1" width="300" height="300" viewBox="0 0 300 300"><rect x="0" y="0" width="300" height="300" fill="#ffffff"/><g transform="scale(7.692)"><g transform="translate(1,1)"><path fill-rule="evenodd" d="M8 0L8 3L9 3L9 4L10 4L10 5L8 5L8 9L7 9L7 8L6 8L6 9L7 9L7 10L5 10L5 11L4 11L4 10L3 10L3 9L5 9L5 8L2 8L2 9L0 9L0 11L1 11L1 13L0 13L0 16L1 16L1 18L2 18L2 20L3 20L3 19L4 19L4 18L6 18L6 19L5 19L5 20L4 20L4 21L0 21L0 29L1 29L1 26L3 26L3 27L2 27L2 28L3 28L3 27L4 27L4 29L5 29L5 28L6 28L6 29L7 29L7 28L8 28L8 30L9 30L9 32L8 32L8 35L10 35L10 34L9 34L9 33L11 33L11 31L10 31L10 30L11 30L11 29L13 29L13 30L12 30L12 31L14 31L14 30L16 30L16 29L17 29L17 30L18 30L18 32L17 32L17 31L15 31L15 32L14 32L14 33L13 33L13 34L11 34L11 35L14 35L14 36L13 36L13 37L15 37L15 36L16 36L16 37L17 37L17 35L18 35L18 36L19 36L19 35L18 35L18 34L21 34L21 36L20 36L20 37L22 37L22 36L23 36L23 35L22 35L22 34L21 34L21 33L22 33L22 31L21 31L21 30L20 30L20 29L21 29L21 24L23 24L23 25L25 25L25 26L23 26L23 27L22 27L22 28L23 28L23 30L24 30L24 32L25 32L25 33L24 33L24 34L25 34L25 33L26 33L26 34L27 34L27 33L28 33L28 36L27 36L27 37L28 37L28 36L30 36L30 37L31 37L31 36L33 36L33 37L37 37L37 34L36 34L36 36L33 36L33 35L34 35L34 34L35 34L35 32L36 32L36 33L37 33L37 32L36 32L36 31L37 31L37 30L35 30L35 32L34 32L34 33L33 33L33 31L34 31L34 30L33 30L33 28L34 28L34 29L35 29L35 28L34 28L34 27L32 27L32 26L31 26L31 25L33 25L33 26L34 26L34 25L35 25L35 24L32 24L32 23L31 23L31 25L30 25L30 24L29 24L29 23L30 23L30 22L27 22L27 21L26 21L26 20L25 20L25 22L23 22L23 21L24 21L24 20L23 20L23 21L22 21L22 23L20 23L20 21L19 21L19 23L16 23L16 20L17 20L17 22L18 22L18 20L21 20L21 19L18 19L18 17L20 17L20 16L18 16L18 15L19 15L19 13L20 13L20 15L21 15L21 16L25 16L25 17L24 17L24 18L25 18L25 19L26 19L26 18L27 18L27 19L28 19L28 18L27 18L27 17L29 17L29 19L30 19L30 17L31 17L31 20L30 20L30 21L31 21L31 22L32 22L32 21L33 21L33 22L34 22L34 23L35 23L35 22L36 22L36 25L37 25L37 22L36 22L36 21L37 21L37 18L35 18L35 16L36 16L36 17L37 17L37 14L35 14L35 13L36 13L36 11L37 11L37 10L36 10L36 9L37 9L37 8L34 8L34 9L33 9L33 12L32 12L32 13L31 13L31 9L32 9L32 8L29 8L29 4L28 4L28 5L27 5L27 3L28 3L28 1L27 1L27 0L24 0L24 1L22 1L22 0L18 0L18 1L17 1L17 2L19 2L19 1L20 1L20 3L19 3L19 4L18 4L18 9L17 9L17 8L16 8L16 7L17 7L17 6L16 6L16 7L15 7L15 6L14 6L14 7L15 7L15 8L14 8L14 11L13 11L13 9L12 9L12 10L11 10L11 11L8 11L8 13L9 13L9 14L8 14L8 15L9 15L9 16L11 16L11 17L12 17L12 18L13 18L13 20L12 20L12 21L11 21L11 22L13 22L13 20L14 20L14 16L16 16L16 17L15 17L15 18L16 18L16 19L15 19L15 21L14 21L14 22L15 22L15 25L16 25L16 24L20 24L20 26L19 26L19 25L17 25L17 26L19 26L19 27L20 27L20 29L18 29L18 28L16 28L16 26L15 26L15 28L16 28L16 29L13 29L13 26L14 26L14 24L13 24L13 23L11 23L11 24L9 24L9 23L10 23L10 22L8 22L8 21L10 21L10 20L9 20L9 19L10 19L10 17L9 17L9 18L8 18L8 16L6 16L6 17L5 17L5 14L6 14L6 15L7 15L7 14L6 14L6 13L7 13L7 12L6 12L6 13L5 13L5 14L4 14L4 12L5 12L5 11L7 11L7 10L9 10L9 6L10 6L10 7L11 7L11 4L12 4L12 7L13 7L13 4L14 4L14 5L17 5L17 3L16 3L16 2L15 2L15 0L13 0L13 1L11 1L11 4L10 4L10 0ZM13 1L13 3L14 3L14 4L15 4L15 2L14 2L14 1ZM21 1L21 3L20 3L20 5L19 5L19 8L20 8L20 6L21 6L21 7L22 7L22 6L23 6L23 7L24 7L24 6L25 6L25 8L22 8L22 9L20 9L20 10L21 10L21 11L22 11L22 12L20 12L20 11L19 11L19 9L18 9L18 11L19 11L19 12L18 12L18 13L17 13L17 14L18 14L18 13L19 13L19 12L20 12L20 13L21 13L21 14L24 14L24 15L25 15L25 16L26 16L26 17L25 17L25 18L26 18L26 17L27 17L27 16L29 16L29 15L30 15L30 16L33 16L33 17L32 17L32 18L34 18L34 19L33 19L33 20L35 20L35 18L34 18L34 16L35 16L35 14L34 14L34 15L33 15L33 13L34 13L34 12L35 12L35 9L34 9L34 12L33 12L33 13L32 13L32 15L30 15L30 14L31 14L31 13L30 13L30 9L29 9L29 8L28 8L28 6L27 6L27 5L26 5L26 3L27 3L27 2L26 2L26 1L25 1L25 4L24 4L24 6L23 6L23 5L21 5L21 3L22 3L22 4L23 4L23 3L24 3L24 2L22 2L22 1ZM26 6L26 8L27 8L27 6ZM15 9L15 10L16 10L16 9ZM23 9L23 10L22 10L22 11L23 11L23 12L22 12L22 13L24 13L24 14L25 14L25 13L27 13L27 15L29 15L29 14L30 14L30 13L27 13L27 12L24 12L24 11L25 11L25 10L26 10L26 11L27 11L27 10L29 10L29 9L25 9L25 10L24 10L24 9ZM1 10L1 11L2 11L2 12L3 12L3 11L2 11L2 10ZM15 11L15 13L14 13L14 12L11 12L11 13L10 13L10 12L9 12L9 13L10 13L10 14L9 14L9 15L10 15L10 14L11 14L11 15L12 15L12 17L13 17L13 16L14 16L14 15L15 15L15 14L16 14L16 12L17 12L17 11ZM28 11L28 12L29 12L29 11ZM1 14L1 16L3 16L3 14ZM12 14L12 15L14 15L14 14ZM6 17L6 18L7 18L7 19L6 19L6 20L8 20L8 18L7 18L7 17ZM21 17L21 18L22 18L22 19L23 19L23 17ZM4 21L4 22L3 22L3 23L1 23L1 24L3 24L3 23L4 23L4 22L7 22L7 21ZM34 21L34 22L35 22L35 21ZM6 23L6 24L8 24L8 23ZM24 23L24 24L25 24L25 25L26 25L26 26L27 26L27 25L28 25L28 26L29 26L29 27L28 27L28 28L32 28L32 27L31 27L31 26L30 26L30 25L28 25L28 23L26 23L26 24L25 24L25 23ZM12 24L12 25L10 25L10 26L9 26L9 25L6 25L6 26L8 26L8 28L9 28L9 30L10 30L10 29L11 29L11 28L10 28L10 26L12 26L12 25L13 25L13 24ZM26 24L26 25L27 25L27 24ZM3 25L3 26L4 26L4 27L5 27L5 26L4 26L4 25ZM36 26L36 29L37 29L37 26ZM6 27L6 28L7 28L7 27ZM24 27L24 29L25 29L25 32L26 32L26 33L27 33L27 32L28 32L28 31L27 31L27 29L25 29L25 28L26 28L26 27ZM29 29L29 32L32 32L32 29ZM19 30L19 32L18 32L18 33L16 33L16 34L15 34L15 33L14 33L14 35L16 35L16 34L18 34L18 33L19 33L19 32L20 32L20 33L21 33L21 31L20 31L20 30ZM30 30L30 31L31 31L31 30ZM29 33L29 35L31 35L31 34L32 34L32 35L33 35L33 34L32 34L32 33L31 33L31 34L30 34L30 33ZM24 35L24 36L25 36L25 37L26 37L26 36L25 36L25 35ZM11 36L11 37L12 37L12 36ZM0 0L0 7L7 7L7 0ZM1 1L1 6L6 6L6 1ZM2 2L2 5L5 5L5 2ZM30 0L30 7L37 7L37 0ZM31 1L31 6L36 6L36 1ZM32 2L32 5L35 5L35 2ZM0 30L0 37L7 37L7 30ZM1 31L1 36L6 36L6 31ZM2 32L2 35L5 35L5 32Z" fill="#000000"/></g></g></svg>
