<?xml version="1.0" encoding="UTF-8"?>
<svg xmlns="http://www.w3.org/2000/svg" version="1.1" width="300" height="300" viewBox="0 0 300 300"><rect x="0" y="0" width="300" height="300" fill="#ffffff"/><g transform="scale(7.692)"><g transform="translate(1,1)"><path fill-rule="evenodd" d="M8 0L8 1L9 1L9 2L10 2L10 3L8 3L8 4L9 4L9 6L8 6L8 7L9 7L9 6L10 6L10 7L11 7L11 6L12 6L12 7L13 7L13 10L12 10L12 8L8 8L8 11L7 11L7 10L6 10L6 9L7 9L7 8L4 8L4 10L3 10L3 11L2 11L2 12L1 12L1 10L2 10L2 9L3 9L3 8L2 8L2 9L1 9L1 10L0 10L0 12L1 12L1 13L4 13L4 14L2 14L2 15L1 15L1 14L0 14L0 15L1 15L1 17L0 17L0 19L1 19L1 20L2 20L2 22L0 22L0 23L1 23L1 25L2 25L2 22L3 22L3 27L1 27L1 26L0 26L0 27L1 27L1 28L0 28L0 29L1 29L1 28L2 28L2 29L7 29L7 28L6 28L6 27L9 27L9 28L10 28L10 27L13 27L13 28L11 28L11 30L9 30L9 29L8 29L8 30L9 30L9 31L8 31L8 33L9 33L9 32L10 32L10 35L11 35L11 36L9 36L9 37L12 37L12 35L13 35L13 36L14 36L14 35L15 35L15 37L16 37L16 36L18 36L18 33L20 33L20 34L19 34L19 35L20 35L20 36L19 36L19 37L22 37L22 36L21 36L21 35L20 35L20 34L22 34L22 35L23 35L23 36L24 36L24 35L23 35L23 34L24 34L24 33L23 33L23 32L24 32L24 31L25 31L25 34L26 34L26 35L25 35L25 37L27 37L27 36L26 36L26 35L28 35L28 37L29 37L29 35L28 35L28 34L30 34L30 33L31 33L31 35L32 35L32 37L33 37L33 34L34 34L34 35L35 35L35 37L37 37L37 36L36 36L36 35L37 35L37 28L36 28L36 27L37 27L37 24L36 24L36 23L37 23L37 20L35 20L35 21L36 21L36 23L35 23L35 24L36 24L36 25L35 25L35 26L34 26L34 25L33 25L33 28L32 28L32 27L29 27L29 28L28 28L28 27L26 27L26 26L25 26L25 23L26 23L26 22L27 22L27 21L29 21L29 23L28 23L28 24L27 24L27 26L28 26L28 24L29 24L29 26L30 26L30 24L31 24L31 26L32 26L32 24L31 24L31 23L30 23L30 22L31 22L31 21L32 21L32 20L33 20L33 19L32 19L32 18L31 18L31 17L32 17L32 15L33 15L33 14L34 14L34 15L37 15L37 13L36 13L36 12L37 12L37 8L36 8L36 10L34 10L34 8L33 8L33 10L32 10L32 9L31 9L31 10L30 10L30 8L29 8L29 5L28 5L28 4L27 4L27 2L28 2L28 3L29 3L29 2L28 2L28 1L29 1L29 0L27 0L27 1L26 1L26 0L24 0L24 1L25 1L25 2L24 2L24 3L25 3L25 4L27 4L27 6L26 6L26 5L24 5L24 4L23 4L23 2L22 2L22 3L21 3L21 4L20 4L20 1L21 1L21 0L20 0L20 1L19 1L19 0L18 0L18 1L19 1L19 3L17 3L17 2L16 2L16 3L15 3L15 4L18 4L18 5L17 5L17 6L16 6L16 7L15 7L15 6L14 6L14 7L13 7L13 5L14 5L14 4L12 4L12 3L14 3L14 0L13 0L13 1L12 1L12 0L11 0L11 2L10 2L10 1L9 1L9 0ZM15 0L15 1L17 1L17 0ZM22 0L22 1L23 1L23 0ZM11 2L11 3L10 3L10 5L11 5L11 3L12 3L12 2ZM25 2L25 3L26 3L26 2ZM22 4L22 5L21 5L21 7L20 7L20 5L18 5L18 6L17 6L17 7L16 7L16 8L15 8L15 7L14 7L14 8L15 8L15 9L16 9L16 8L17 8L17 9L18 9L18 8L19 8L19 10L20 10L20 11L21 11L21 10L22 10L22 13L21 13L21 14L19 14L19 13L16 13L16 12L19 12L19 11L18 11L18 10L13 10L13 11L11 11L11 12L10 12L10 10L11 10L11 9L10 9L10 10L9 10L9 12L7 12L7 11L3 11L3 12L4 12L4 13L5 13L5 14L7 14L7 15L6 15L6 16L7 16L7 15L8 15L8 16L9 16L9 15L10 15L10 13L14 13L14 14L15 14L15 13L16 13L16 15L15 15L15 17L14 17L14 20L13 20L13 19L12 19L12 20L13 20L13 21L12 21L12 22L13 22L13 23L10 23L10 22L11 22L11 21L10 21L10 20L11 20L11 19L10 19L10 18L12 18L12 17L10 17L10 18L8 18L8 17L6 17L6 18L5 18L5 19L4 19L4 18L2 18L2 17L5 17L5 15L4 15L4 16L3 16L3 15L2 15L2 17L1 17L1 18L2 18L2 19L3 19L3 20L4 20L4 23L5 23L5 24L4 24L4 26L5 26L5 27L3 27L3 28L5 28L5 27L6 27L6 26L7 26L7 25L8 25L8 26L11 26L11 25L12 25L12 26L13 26L13 27L14 27L14 28L13 28L13 30L14 30L14 28L15 28L15 31L14 31L14 32L13 32L13 33L12 33L12 32L11 32L11 35L12 35L12 34L15 34L15 31L16 31L16 35L17 35L17 32L19 32L19 31L20 31L20 32L21 32L21 33L22 33L22 34L23 34L23 33L22 33L22 32L23 32L23 31L24 31L24 30L25 30L25 31L26 31L26 32L27 32L27 34L28 34L28 30L27 30L27 29L28 29L28 28L26 28L26 30L25 30L25 28L24 28L24 27L23 27L23 28L24 28L24 29L21 29L21 28L22 28L22 27L21 27L21 26L22 26L22 24L24 24L24 23L23 23L23 22L22 22L22 21L21 21L21 20L22 20L22 19L26 19L26 20L29 20L29 21L30 21L30 20L29 20L29 19L28 19L28 18L30 18L30 19L31 19L31 20L32 20L32 19L31 19L31 18L30 18L30 17L29 17L29 16L30 16L30 12L31 12L31 14L33 14L33 11L34 11L34 13L35 13L35 12L36 12L36 11L34 11L34 10L33 10L33 11L32 11L32 12L31 12L31 11L30 11L30 10L29 10L29 11L30 11L30 12L29 12L29 14L27 14L27 12L28 12L28 11L27 11L27 10L26 10L26 8L25 8L25 7L26 7L26 6L25 6L25 7L24 7L24 5L23 5L23 4ZM18 6L18 7L17 7L17 8L18 8L18 7L19 7L19 6ZM22 6L22 7L21 7L21 8L22 8L22 9L23 9L23 13L24 13L24 15L21 15L21 16L20 16L20 15L18 15L18 14L17 14L17 15L16 15L16 16L17 16L17 17L15 17L15 20L16 20L16 21L13 21L13 22L16 22L16 23L14 23L14 27L15 27L15 28L16 28L16 31L18 31L18 30L17 30L17 29L19 29L19 28L21 28L21 27L20 27L20 26L21 26L21 25L19 25L19 26L18 26L18 25L17 25L17 22L16 22L16 21L18 21L18 22L19 22L19 23L20 23L20 24L21 24L21 23L20 23L20 21L18 21L18 20L17 20L17 19L18 19L18 18L17 18L17 17L19 17L19 20L21 20L21 19L22 19L22 18L24 18L24 15L25 15L25 18L27 18L27 16L26 16L26 15L27 15L27 14L26 14L26 11L25 11L25 10L24 10L24 9L25 9L25 8L24 8L24 9L23 9L23 8L22 8L22 7L23 7L23 6ZM27 6L27 8L28 8L28 6ZM14 11L14 12L15 12L15 11ZM24 11L24 13L25 13L25 11ZM5 12L5 13L7 13L7 14L8 14L8 13L7 13L7 12ZM9 12L9 13L10 13L10 12ZM11 14L11 16L12 16L12 14ZM25 14L25 15L26 15L26 14ZM33 16L33 17L34 17L34 19L37 19L37 16L36 16L36 17L34 17L34 16ZM20 17L20 19L21 19L21 18L22 18L22 17ZM6 18L6 19L8 19L8 20L9 20L9 19L8 19L8 18ZM16 18L16 19L17 19L17 18ZM5 20L5 23L7 23L7 24L5 24L5 25L7 25L7 24L9 24L9 22L6 22L6 21L7 21L7 20ZM24 20L24 21L25 21L25 22L26 22L26 21L25 21L25 20ZM33 21L33 22L32 22L32 23L34 23L34 21ZM15 24L15 27L16 27L16 28L17 28L17 27L18 27L18 26L17 26L17 25L16 25L16 24ZM16 26L16 27L17 27L17 26ZM35 26L35 27L34 27L34 29L33 29L33 32L34 32L34 33L36 33L36 31L34 31L34 30L35 30L35 29L36 29L36 28L35 28L35 27L36 27L36 26ZM29 29L29 32L32 32L32 29ZM11 30L11 31L12 31L12 30ZM21 30L21 32L22 32L22 31L23 31L23 30ZM26 30L26 31L27 31L27 30ZM30 30L30 31L31 31L31 30ZM8 34L8 35L9 35L9 34ZM35 34L35 35L36 35L36 34ZM30 36L30 37L31 37L31 36ZM0 0L0 7L7 7L7 0ZM1 1L1 6L6 6L6 1ZM2 2L2 5L5 5L5 2ZM30 0L30 7L37 7L37 0ZM31 1L31 6L36 6L36 1ZM32 2L32 5L35 5L35 2ZM0 30L0 37L7 37L7 30ZM1 31L1 36L6 36L6 31ZM2 32L2 35L5 35L5 32Z" fill="#000000"/></g></g></svg>
