<?xml version="1.0" encoding="UTF-8"?>
<svg xmlns="http://www.w3.org/2000/svg" version="1.1" width="300" height="300" viewBox="0 0 300 300"><rect x="0" y="0" width="300" height="300" fill="#ffffff"/><g transform="scale(7.692)"><g transform="translate(1,1)"><path fill-rule="evenodd" d="M10 0L10 1L11 1L11 0ZM12 0L12 1L13 1L13 4L12 4L12 2L9 2L9 1L8 1L8 2L9 2L9 5L8 5L8 8L4 8L4 9L2 9L2 10L4 10L4 12L3 12L3 11L0 11L0 12L3 12L3 13L2 13L2 14L4 14L4 13L5 13L5 15L7 15L7 14L8 14L8 15L9 15L9 16L8 16L8 17L7 17L7 16L5 16L5 17L4 17L4 18L1 18L1 19L2 19L2 20L1 20L1 21L8 21L8 22L6 22L6 23L8 23L8 24L4 24L4 23L3 23L3 22L1 22L1 23L0 23L0 24L2 24L2 23L3 23L3 25L0 25L0 26L3 26L3 28L0 28L0 29L4 29L4 28L5 28L5 29L8 29L8 33L9 33L9 35L10 35L10 36L9 36L9 37L10 37L10 36L11 36L11 37L12 37L12 36L13 36L13 37L14 37L14 36L13 36L13 35L14 35L14 34L15 34L15 33L19 33L19 34L18 34L18 35L17 35L17 36L16 36L16 35L15 35L15 37L17 37L17 36L18 36L18 35L19 35L19 34L21 34L21 35L22 35L22 36L20 36L20 37L23 37L23 36L24 36L24 35L25 35L25 34L26 34L26 33L27 33L27 34L29 34L29 35L31 35L31 36L30 36L30 37L33 37L33 35L34 35L34 37L37 37L37 36L36 36L36 34L35 34L35 30L34 30L34 29L35 29L35 28L36 28L36 29L37 29L37 28L36 28L36 26L34 26L34 27L33 27L33 25L30 25L30 24L32 24L32 23L31 23L31 22L30 22L30 23L29 23L29 24L27 24L27 25L26 25L26 23L28 23L28 20L30 20L30 21L31 21L31 20L33 20L33 19L34 19L34 21L35 21L35 23L34 23L34 25L35 25L35 24L36 24L36 25L37 25L37 24L36 24L36 21L37 21L37 20L35 20L35 13L36 13L36 12L37 12L37 11L36 11L36 12L35 12L35 10L36 10L36 8L35 8L35 10L33 10L33 9L32 9L32 8L30 8L30 10L29 10L29 9L28 9L28 8L27 8L27 5L28 5L28 7L29 7L29 2L27 2L27 3L26 3L26 4L25 4L25 6L24 6L24 4L22 4L22 3L24 3L24 2L26 2L26 1L25 1L25 0L24 0L24 1L23 1L23 2L22 2L22 1L21 1L21 0L19 0L19 1L17 1L17 2L16 2L16 0L15 0L15 1L13 1L13 0ZM27 0L27 1L28 1L28 0ZM19 2L19 7L18 7L18 4L17 4L17 3L16 3L16 4L15 4L15 3L14 3L14 4L13 4L13 5L11 5L11 8L10 8L10 5L9 5L9 8L8 8L8 9L5 9L5 12L8 12L8 13L9 13L9 12L11 12L11 14L12 14L12 15L11 15L11 16L9 16L9 17L8 17L8 18L12 18L12 19L11 19L11 20L10 20L10 19L9 19L9 20L8 20L8 19L5 19L5 20L8 20L8 21L10 21L10 22L11 22L11 25L10 25L10 23L9 23L9 22L8 22L8 23L9 23L9 24L8 24L8 25L10 25L10 26L8 26L8 29L9 29L9 31L11 31L11 30L12 30L12 31L13 31L13 32L14 32L14 33L13 33L13 34L14 34L14 33L15 33L15 29L10 29L10 28L9 28L9 27L10 27L10 26L11 26L11 28L15 28L15 26L16 26L16 27L17 27L17 26L18 26L18 27L19 27L19 28L20 28L20 29L19 29L19 31L18 31L18 32L19 32L19 33L21 33L21 34L24 34L24 33L26 33L26 32L27 32L27 33L28 33L28 31L27 31L27 30L28 30L28 28L26 28L26 27L25 27L25 26L26 26L26 25L23 25L23 24L24 24L24 23L25 23L25 22L27 22L27 21L26 21L26 20L28 20L28 19L26 19L26 18L27 18L27 17L28 17L28 18L29 18L29 19L30 19L30 18L32 18L32 17L33 17L33 16L34 16L34 15L33 15L33 14L34 14L34 13L33 13L33 12L32 12L32 11L33 11L33 10L30 10L30 12L29 12L29 11L28 11L28 9L24 9L24 8L26 8L26 6L25 6L25 7L24 7L24 6L23 6L23 5L20 5L20 4L21 4L21 3L20 3L20 2ZM27 3L27 4L26 4L26 5L27 5L27 4L28 4L28 3ZM16 4L16 5L15 5L15 6L14 6L14 9L12 9L12 8L11 8L11 9L12 9L12 10L14 10L14 11L13 11L13 15L12 15L12 16L11 16L11 17L12 17L12 18L13 18L13 19L15 19L15 20L16 20L16 19L15 19L15 15L14 15L14 14L15 14L15 13L16 13L16 12L15 12L15 10L16 10L16 11L18 11L18 10L16 10L16 9L15 9L15 8L18 8L18 9L20 9L20 10L19 10L19 11L20 11L20 13L19 13L19 12L17 12L17 13L18 13L18 14L17 14L17 15L18 15L18 14L20 14L20 15L21 15L21 18L23 18L23 21L22 21L22 20L21 20L21 21L19 21L19 22L18 22L18 20L17 20L17 22L15 22L15 23L14 23L14 20L11 20L11 21L12 21L12 22L13 22L13 25L12 25L12 26L13 26L13 25L14 25L14 26L15 26L15 24L16 24L16 25L17 25L17 24L16 24L16 23L19 23L19 25L18 25L18 26L19 26L19 27L20 27L20 28L21 28L21 29L20 29L20 31L21 31L21 32L24 32L24 30L27 30L27 29L24 29L24 28L25 28L25 27L24 27L24 28L23 28L23 30L22 30L22 28L21 28L21 26L22 26L22 27L23 27L23 25L21 25L21 26L20 26L20 24L21 24L21 22L23 22L23 21L24 21L24 20L25 20L25 18L26 18L26 17L27 17L27 16L26 16L26 17L24 17L24 13L23 13L23 12L25 12L25 10L24 10L24 9L23 9L23 6L22 6L22 8L21 8L21 9L20 9L20 7L21 7L21 6L20 6L20 7L19 7L19 8L18 8L18 7L17 7L17 6L16 6L16 5L17 5L17 4ZM12 6L12 7L13 7L13 6ZM15 6L15 7L16 7L16 6ZM9 8L9 9L10 9L10 8ZM0 9L0 10L1 10L1 9ZM22 9L22 10L21 10L21 11L23 11L23 9ZM6 10L6 11L7 11L7 10ZM9 10L9 11L8 11L8 12L9 12L9 11L11 11L11 10ZM26 10L26 11L27 11L27 10ZM14 12L14 13L15 13L15 12ZM27 12L27 13L25 13L25 14L27 14L27 15L28 15L28 17L29 17L29 18L30 18L30 17L31 17L31 15L32 15L32 14L33 14L33 13L32 13L32 12L30 12L30 13L28 13L28 12ZM0 13L0 14L1 14L1 13ZM6 13L6 14L7 14L7 13ZM20 13L20 14L21 14L21 13ZM22 13L22 17L23 17L23 18L24 18L24 17L23 17L23 13ZM27 13L27 14L28 14L28 15L29 15L29 16L30 16L30 15L31 15L31 14L32 14L32 13L30 13L30 15L29 15L29 14L28 14L28 13ZM3 15L3 16L4 16L4 15ZM13 15L13 17L14 17L14 15ZM16 16L16 18L18 18L18 19L19 19L19 20L20 20L20 18L19 18L19 16ZM36 16L36 17L37 17L37 16ZM5 17L5 18L7 18L7 17ZM3 19L3 20L4 20L4 19ZM32 21L32 22L33 22L33 21ZM22 23L22 24L23 24L23 23ZM3 25L3 26L5 26L5 25ZM6 25L6 26L7 26L7 25ZM27 25L27 26L28 26L28 27L29 27L29 26L30 26L30 25ZM31 26L31 27L32 27L32 28L33 28L33 27L32 27L32 26ZM6 27L6 28L7 28L7 27ZM16 28L16 29L17 29L17 28ZM29 29L29 32L32 32L32 29ZM13 30L13 31L14 31L14 30ZM21 30L21 31L22 31L22 30ZM30 30L30 31L31 31L31 30ZM33 31L33 32L34 32L34 31ZM36 31L36 33L37 33L37 31ZM9 32L9 33L10 33L10 34L11 34L11 35L12 35L12 32L11 32L11 33L10 33L10 32ZM29 33L29 34L30 34L30 33ZM32 33L32 35L33 35L33 34L34 34L34 33ZM26 36L26 37L27 37L27 36ZM0 0L0 7L7 7L7 0ZM1 1L1 6L6 6L6 1ZM2 2L2 5L5 5L5 2ZM30 0L30 7L37 7L37 0ZM31 1L31 6L36 6L36 1ZM32 2L32 5L35 5L35 2ZM0 30L0 37L7 37L7 30ZM1 31L1 36L6 36L6 31ZM2 32L2 35L5 35L5 32Z" fill="#000000"/></g></g></svg>
