<?xml version="1.0" encoding="UTF-8"?>
<svg xmlns="http://www.w3.org/2000/svg" version="1.1" width="300" height="300" viewBox="0 0 300 300"><rect x="0" y="0" width="300" height="300" fill="#ffffff"/><g transform="scale(7.692)"><g transform="translate(1,1)"><path fill-rule="evenodd" d="M8 0L8 3L9 3L9 4L10 4L10 5L8 5L8 9L7 9L7 8L6 8L6 9L7 9L7 10L5 10L5 8L2 8L2 9L3 9L3 10L2 10L2 11L1 11L1 9L0 9L0 11L1 11L1 13L0 13L0 16L1 16L1 18L0 18L0 20L1 20L1 19L2 19L2 20L3 20L3 19L4 19L4 18L6 18L6 19L5 19L5 20L4 20L4 21L0 21L0 23L1 23L1 24L0 24L0 29L1 29L1 24L2 24L2 25L3 25L3 24L4 24L4 25L5 25L5 26L6 26L6 27L7 27L7 28L5 28L5 29L7 29L7 28L8 28L8 30L10 30L10 29L13 29L13 30L12 30L12 31L14 31L14 30L15 30L15 32L14 32L14 33L13 33L13 32L12 32L12 36L13 36L13 35L14 35L14 33L15 33L15 34L16 34L16 35L15 35L15 36L14 36L14 37L15 37L15 36L16 36L16 37L17 37L17 35L18 35L18 36L19 36L19 37L20 37L20 35L22 35L22 31L21 31L21 30L20 30L20 29L21 29L21 25L22 25L22 26L23 26L23 27L22 27L22 28L23 28L23 30L24 30L24 32L25 32L25 33L24 33L24 34L25 34L25 33L26 33L26 34L27 34L27 33L28 33L28 36L27 36L27 37L28 37L28 36L30 36L30 37L31 37L31 36L33 36L33 37L37 37L37 34L36 34L36 36L33 36L33 35L34 35L34 34L35 34L35 32L36 32L36 33L37 33L37 32L36 32L36 31L37 31L37 30L35 30L35 32L34 32L34 33L33 33L33 31L34 31L34 30L33 30L33 28L34 28L34 29L35 29L35 28L34 28L34 27L32 27L32 28L28 28L28 27L29 27L29 26L28 26L28 25L30 25L30 26L31 26L31 25L33 25L33 26L34 26L34 25L35 25L35 24L32 24L32 23L31 23L31 25L30 25L30 24L29 24L29 23L30 23L30 22L27 22L27 21L26 21L26 20L25 20L25 22L23 22L23 21L24 21L24 20L23 20L23 17L24 17L24 18L25 18L25 17L26 17L26 19L28 19L28 18L27 18L27 17L29 17L29 19L30 19L30 17L31 17L31 20L30 20L30 21L31 21L31 22L32 22L32 21L33 21L33 22L34 22L34 23L35 23L35 22L36 22L36 25L37 25L37 22L36 22L36 21L37 21L37 18L35 18L35 16L36 16L36 17L37 17L37 14L35 14L35 13L36 13L36 11L37 11L37 10L36 10L36 9L37 9L37 8L34 8L34 9L33 9L33 10L31 10L31 9L32 9L32 8L29 8L29 4L28 4L28 5L27 5L27 3L28 3L28 1L27 1L27 0L24 0L24 1L23 1L23 2L24 2L24 3L22 3L22 2L21 2L21 1L22 1L22 0L21 0L21 1L20 1L20 3L19 3L19 4L18 4L18 9L19 9L19 10L18 10L18 11L17 11L17 14L16 14L16 13L15 13L15 10L17 10L17 8L16 8L16 7L17 7L17 6L16 6L16 7L15 7L15 5L17 5L17 3L16 3L16 2L13 2L13 1L15 1L15 0L12 0L12 1L11 1L11 4L10 4L10 0ZM18 0L18 1L17 1L17 2L19 2L19 0ZM25 1L25 4L24 4L24 6L23 6L23 7L24 7L24 6L25 6L25 8L22 8L22 6L21 6L21 7L20 7L20 6L19 6L19 7L20 7L20 8L19 8L19 9L20 9L20 10L21 10L21 11L22 11L22 12L20 12L20 11L19 11L19 12L20 12L20 13L19 13L19 15L17 15L17 17L18 17L18 19L19 19L19 20L18 20L18 22L17 22L17 20L16 20L16 23L19 23L19 22L21 22L21 23L22 23L22 22L21 22L21 21L23 21L23 20L22 20L22 17L23 17L23 16L24 16L24 17L25 17L25 16L26 16L26 17L27 17L27 16L29 16L29 15L30 15L30 16L33 16L33 17L32 17L32 18L34 18L34 19L33 19L33 20L35 20L35 18L34 18L34 16L35 16L35 14L34 14L34 15L33 15L33 13L34 13L34 12L35 12L35 9L34 9L34 12L33 12L33 11L31 11L31 13L30 13L30 9L29 9L29 8L28 8L28 6L27 6L27 5L26 5L26 3L27 3L27 2L26 2L26 1ZM12 2L12 3L13 3L13 2ZM14 3L14 4L15 4L15 3ZM20 3L20 5L22 5L22 4L21 4L21 3ZM11 5L11 7L10 7L10 6L9 6L9 9L10 9L10 11L9 11L9 10L7 10L7 11L6 11L6 12L7 12L7 13L6 13L6 14L7 14L7 15L6 15L6 16L4 16L4 17L6 17L6 18L7 18L7 19L6 19L6 20L7 20L7 19L8 19L8 20L10 20L10 21L8 21L8 23L6 23L6 24L7 24L7 25L6 25L6 26L8 26L8 28L9 28L9 27L10 27L10 28L11 28L11 26L12 26L12 25L13 25L13 24L11 24L11 22L12 22L12 19L13 19L13 22L14 22L14 20L15 20L15 19L16 19L16 18L15 18L15 16L16 16L16 14L15 14L15 13L14 13L14 12L11 12L11 15L10 15L10 16L9 16L9 15L8 15L8 14L10 14L10 11L11 11L11 10L12 10L12 9L13 9L13 11L14 11L14 10L15 10L15 7L14 7L14 5ZM12 6L12 7L11 7L11 9L12 9L12 8L13 8L13 9L14 9L14 7L13 7L13 6ZM26 6L26 8L27 8L27 6ZM20 8L20 9L21 9L21 8ZM22 9L22 11L23 11L23 12L22 12L22 13L23 13L23 14L21 14L21 13L20 13L20 15L21 15L21 16L19 16L19 18L20 18L20 17L21 17L21 16L23 16L23 14L24 14L24 16L25 16L25 14L24 14L24 13L23 13L23 12L24 12L24 11L25 11L25 10L26 10L26 11L27 11L27 10L29 10L29 9L25 9L25 10L23 10L23 9ZM4 10L4 12L2 12L2 14L1 14L1 16L3 16L3 15L5 15L5 14L4 14L4 12L5 12L5 10ZM8 11L8 13L9 13L9 11ZM28 11L28 12L29 12L29 11ZM25 12L25 13L27 13L27 15L29 15L29 14L30 14L30 15L32 15L32 13L33 13L33 12L32 12L32 13L31 13L31 14L30 14L30 13L27 13L27 12ZM12 14L12 15L11 15L11 16L10 16L10 17L8 17L8 16L6 16L6 17L8 17L8 19L10 19L10 17L11 17L11 18L12 18L12 15L14 15L14 16L13 16L13 17L14 17L14 16L15 16L15 15L14 15L14 14ZM13 18L13 19L15 19L15 18ZM20 19L20 20L19 20L19 21L21 21L21 19ZM4 21L4 22L3 22L3 23L2 23L2 24L3 24L3 23L4 23L4 22L7 22L7 21ZM34 21L34 22L35 22L35 21ZM9 22L9 23L8 23L8 25L11 25L11 24L9 24L9 23L10 23L10 22ZM14 23L14 24L15 24L15 23ZM24 23L24 24L25 24L25 25L23 25L23 26L25 26L25 25L26 25L26 26L27 26L27 25L28 25L28 23L26 23L26 24L25 24L25 23ZM17 24L17 25L16 25L16 26L13 26L13 29L15 29L15 30L16 30L16 32L15 32L15 33L16 33L16 34L18 34L18 35L20 35L20 34L21 34L21 31L20 31L20 30L18 30L18 33L16 33L16 32L17 32L17 30L16 30L16 29L17 29L17 28L19 28L19 29L20 29L20 27L18 27L18 25L19 25L19 26L20 26L20 24ZM26 24L26 25L27 25L27 24ZM2 26L2 29L3 29L3 26ZM36 26L36 29L37 29L37 26ZM16 27L16 28L15 28L15 29L16 29L16 28L17 28L17 27ZM24 27L24 29L25 29L25 32L26 32L26 33L27 33L27 32L28 32L28 31L27 31L27 29L25 29L25 28L26 28L26 27ZM29 29L29 32L32 32L32 29ZM30 30L30 31L31 31L31 30ZM9 31L9 32L8 32L8 35L10 35L10 34L11 34L11 33L10 33L10 31ZM19 32L19 34L20 34L20 32ZM9 33L9 34L10 34L10 33ZM29 33L29 35L31 35L31 34L32 34L32 35L33 35L33 34L32 34L32 33L31 33L31 34L30 34L30 33ZM24 35L24 36L25 36L25 37L26 37L26 36L25 36L25 35ZM22 36L22 37L23 37L23 36ZM0 0L0 7L7 7L7 0ZM1 1L1 6L6 6L6 1ZM2 2L2 5L5 5L5 2ZM30 0L30 7L37 7L37 0ZM31 1L31 6L36 6L36 1ZM32 2L32 5L35 5L35 2ZM0 30L0 37L7 37L7 30ZM1 31L1 36L6 36L6 31ZM2 32L2 35L5 35L5 32Z" fill="#000000"/></g></g></svg>
