<?xml version="1.0" encoding="UTF-8"?>
<svg xmlns="http://www.w3.org/2000/svg" version="1.1" width="300" height="300" viewBox="0 0 300 300"><rect x="0" y="0" width="300" height="300" fill="#ffffff"/><g transform="scale(7.692)"><g transform="translate(1,1)"><path fill-rule="evenodd" d="M8 0L8 1L9 1L9 2L10 2L10 3L8 3L8 4L9 4L9 6L8 6L8 7L9 7L9 6L10 6L10 7L11 7L11 8L8 8L8 11L7 11L7 10L6 10L6 9L7 9L7 8L4 8L4 9L3 9L3 8L2 8L2 9L3 9L3 10L6 10L6 11L4 11L4 13L3 13L3 11L2 11L2 12L1 12L1 10L0 10L0 12L1 12L1 13L3 13L3 14L4 14L4 13L5 13L5 12L6 12L6 13L7 13L7 14L5 14L5 15L4 15L4 17L3 17L3 15L1 15L1 14L0 14L0 15L1 15L1 17L2 17L2 18L4 18L4 19L5 19L5 18L6 18L6 19L7 19L7 20L5 20L5 23L4 23L4 20L3 20L3 19L1 19L1 18L0 18L0 20L1 20L1 21L0 21L0 23L1 23L1 21L2 21L2 22L3 22L3 24L5 24L5 25L4 25L4 26L5 26L5 27L9 27L9 26L10 26L10 25L9 25L9 26L8 26L8 24L9 24L9 23L8 23L8 24L5 24L5 23L7 23L7 22L6 22L6 21L7 21L7 20L8 20L8 22L9 22L9 20L8 20L8 19L9 19L9 18L10 18L10 19L11 19L11 20L10 20L10 21L12 21L12 20L13 20L13 18L12 18L12 16L13 16L13 17L15 17L15 18L14 18L14 20L16 20L16 21L13 21L13 22L10 22L10 23L13 23L13 24L14 24L14 27L13 27L13 26L12 26L12 24L11 24L11 27L13 27L13 28L10 28L10 29L8 29L8 30L10 30L10 31L8 31L8 33L10 33L10 35L11 35L11 36L9 36L9 37L13 37L13 36L14 36L14 37L16 37L16 36L18 36L18 33L21 33L21 34L20 34L20 37L22 37L22 36L24 36L24 35L23 35L23 34L24 34L24 33L23 33L23 32L24 32L24 31L25 31L25 34L26 34L26 35L25 35L25 37L27 37L27 36L26 36L26 35L28 35L28 37L29 37L29 35L28 35L28 34L30 34L30 33L31 33L31 35L32 35L32 37L33 37L33 34L34 34L34 35L35 35L35 37L37 37L37 36L36 36L36 35L37 35L37 28L36 28L36 27L37 27L37 24L36 24L36 23L37 23L37 20L35 20L35 21L36 21L36 23L35 23L35 24L36 24L36 25L35 25L35 26L34 26L34 25L33 25L33 26L32 26L32 24L31 24L31 23L30 23L30 22L31 22L31 21L32 21L32 20L33 20L33 19L32 19L32 18L31 18L31 17L32 17L32 15L33 15L33 14L34 14L34 15L37 15L37 13L36 13L36 12L37 12L37 8L36 8L36 10L34 10L34 8L33 8L33 10L32 10L32 9L31 9L31 10L30 10L30 8L29 8L29 5L28 5L28 4L27 4L27 2L28 2L28 3L29 3L29 2L28 2L28 1L29 1L29 0L27 0L27 1L26 1L26 0L24 0L24 1L26 1L26 3L25 3L25 2L24 2L24 3L25 3L25 4L27 4L27 6L26 6L26 5L24 5L24 4L22 4L22 7L23 7L23 5L24 5L24 7L25 7L25 8L26 8L26 10L27 10L27 11L28 11L28 12L27 12L27 14L26 14L26 11L24 11L24 12L25 12L25 13L23 13L23 15L21 15L21 16L20 16L20 15L16 15L16 16L17 16L17 17L15 17L15 14L16 14L16 13L17 13L17 14L21 14L21 13L22 13L22 10L23 10L23 8L22 8L22 10L21 10L21 11L20 11L20 10L19 10L19 8L21 8L21 6L20 6L20 5L19 5L19 3L20 3L20 1L23 1L23 0L20 0L20 1L19 1L19 0L18 0L18 1L19 1L19 3L17 3L17 2L16 2L16 3L15 3L15 1L17 1L17 0L15 0L15 1L14 1L14 0L11 0L11 2L10 2L10 1L9 1L9 0ZM12 2L12 3L13 3L13 4L14 4L14 5L13 5L13 7L12 7L12 5L11 5L11 3L10 3L10 5L11 5L11 7L12 7L12 10L13 10L13 11L11 11L11 9L10 9L10 10L9 10L9 12L7 12L7 11L6 11L6 12L7 12L7 13L8 13L8 14L7 14L7 15L6 15L6 16L7 16L7 15L8 15L8 16L10 16L10 15L11 15L11 16L12 16L12 14L10 14L10 15L9 15L9 13L14 13L14 14L15 14L15 12L16 12L16 10L15 10L15 9L18 9L18 8L19 8L19 7L20 7L20 6L19 6L19 5L18 5L18 4L14 4L14 3L13 3L13 2ZM17 5L17 6L16 6L16 7L15 7L15 6L14 6L14 7L13 7L13 10L14 10L14 9L15 9L15 8L16 8L16 7L17 7L17 8L18 8L18 7L19 7L19 6L18 6L18 5ZM17 6L17 7L18 7L18 6ZM25 6L25 7L26 7L26 6ZM27 6L27 8L28 8L28 6ZM14 7L14 8L15 8L15 7ZM24 9L24 10L25 10L25 9ZM17 10L17 12L19 12L19 10ZM29 10L29 11L30 11L30 12L29 12L29 14L27 14L27 15L26 15L26 14L25 14L25 15L24 15L24 18L22 18L22 17L20 17L20 18L18 18L18 17L19 17L19 16L18 16L18 17L17 17L17 18L16 18L16 19L17 19L17 20L18 20L18 21L16 21L16 22L14 22L14 23L16 23L16 22L17 22L17 24L15 24L15 26L16 26L16 25L18 25L18 26L19 26L19 23L21 23L21 22L18 22L18 21L20 21L20 20L21 20L21 21L22 21L22 20L23 20L23 19L25 19L25 15L26 15L26 16L27 16L27 18L26 18L26 20L29 20L29 21L27 21L27 22L26 22L26 21L25 21L25 20L24 20L24 21L25 21L25 22L26 22L26 23L25 23L25 26L26 26L26 27L28 27L28 28L26 28L26 30L25 30L25 28L24 28L24 27L23 27L23 28L24 28L24 29L21 29L21 28L22 28L22 27L21 27L21 26L22 26L22 25L23 25L23 24L24 24L24 23L23 23L23 24L20 24L20 25L21 25L21 26L20 26L20 27L21 27L21 28L19 28L19 27L17 27L17 28L18 28L18 29L19 29L19 31L18 31L18 30L17 30L17 31L14 31L14 32L10 32L10 33L12 33L12 34L11 34L11 35L14 35L14 34L15 34L15 33L16 33L16 35L17 35L17 33L18 33L18 32L19 32L19 31L20 31L20 32L21 32L21 33L22 33L22 34L21 34L21 35L22 35L22 34L23 34L23 33L22 33L22 32L23 32L23 31L24 31L24 30L25 30L25 31L26 31L26 32L27 32L27 34L28 34L28 30L27 30L27 29L28 29L28 28L29 28L29 27L31 27L31 28L33 28L33 27L34 27L34 29L33 29L33 32L34 32L34 33L36 33L36 31L34 31L34 30L35 30L35 29L36 29L36 28L35 28L35 27L36 27L36 26L35 26L35 27L34 27L34 26L33 26L33 27L31 27L31 24L30 24L30 26L29 26L29 24L28 24L28 23L29 23L29 21L30 21L30 20L29 20L29 19L28 19L28 18L30 18L30 19L31 19L31 20L32 20L32 19L31 19L31 18L30 18L30 17L29 17L29 16L30 16L30 12L31 12L31 14L33 14L33 11L34 11L34 13L35 13L35 12L36 12L36 11L34 11L34 10L33 10L33 11L30 11L30 10ZM10 11L10 12L11 12L11 11ZM14 11L14 12L15 12L15 11ZM33 16L33 17L34 17L34 19L37 19L37 16L36 16L36 17L34 17L34 16ZM6 17L6 18L7 18L7 19L8 19L8 18L9 18L9 17ZM10 17L10 18L11 18L11 19L12 19L12 18L11 18L11 17ZM17 18L17 19L18 19L18 18ZM20 18L20 19L22 19L22 18ZM33 21L33 22L32 22L32 23L34 23L34 21ZM0 24L0 25L1 25L1 24ZM27 24L27 26L28 26L28 24ZM2 25L2 27L1 27L1 26L0 26L0 27L1 27L1 28L0 28L0 29L1 29L1 28L2 28L2 27L3 27L3 28L4 28L4 27L3 27L3 25ZM5 25L5 26L7 26L7 25ZM14 27L14 28L13 28L13 30L14 30L14 28L16 28L16 27ZM6 28L6 29L7 29L7 28ZM10 29L10 30L11 30L11 31L12 31L12 30L11 30L11 29ZM15 29L15 30L16 30L16 29ZM29 29L29 32L32 32L32 29ZM21 30L21 32L22 32L22 31L23 31L23 30ZM26 30L26 31L27 31L27 30ZM30 30L30 31L31 31L31 30ZM8 34L8 35L9 35L9 34ZM35 34L35 35L36 35L36 34ZM30 36L30 37L31 37L31 36ZM0 0L0 7L7 7L7 0ZM1 1L1 6L6 6L6 1ZM2 2L2 5L5 5L5 2ZM30 0L30 7L37 7L37 0ZM31 1L31 6L36 6L36 1ZM32 2L32 5L35 5L35 2ZM0 30L0 37L7 37L7 30ZM1 31L1 36L6 36L6 31ZM2 32L2 35L5 35L5 32Z" fill="#000000"/></g></g></svg>
