<?xml version="1.0" encoding="UTF-8"?>
<svg xmlns="http://www.w3.org/2000/svg" version="1.1" width="300" height="300" viewBox="0 0 300 300"><rect x="0" y="0" width="300" height="300" fill="#ffffff"/><g transform="scale(7.692)"><g transform="translate(1,1)"><path fill-rule="evenodd" d="M10 0L10 1L11 1L11 0ZM12 0L12 2L9 2L9 1L8 1L8 2L9 2L9 5L8 5L8 8L4 8L4 9L3 9L3 10L2 10L2 9L0 9L0 10L2 10L2 11L0 11L0 12L2 12L2 14L3 14L3 10L4 10L4 9L8 9L8 8L9 8L9 9L10 9L10 8L11 8L11 9L12 9L12 10L14 10L14 11L13 11L13 15L12 15L12 14L11 14L11 12L10 12L10 11L11 11L11 10L10 10L10 11L8 11L8 12L5 12L5 11L7 11L7 10L5 10L5 11L4 11L4 12L5 12L5 13L4 13L4 16L5 16L5 17L4 17L4 18L1 18L1 17L0 17L0 18L1 18L1 19L0 19L0 22L1 22L1 23L3 23L3 24L4 24L4 25L5 25L5 27L4 27L4 26L3 26L3 27L4 27L4 28L3 28L3 29L4 29L4 28L6 28L6 29L8 29L8 33L9 33L9 35L10 35L10 36L9 36L9 37L10 37L10 36L11 36L11 34L10 34L10 32L12 32L12 35L14 35L14 34L15 34L15 33L14 33L14 32L13 32L13 31L14 31L14 30L13 30L13 31L12 31L12 30L11 30L11 29L15 29L15 28L11 28L11 26L10 26L10 27L9 27L9 29L8 29L8 26L9 26L9 25L8 25L8 24L9 24L9 23L10 23L10 25L11 25L11 24L13 24L13 25L12 25L12 26L13 26L13 25L14 25L14 24L13 24L13 23L14 23L14 22L15 22L15 24L16 24L16 26L15 26L15 27L16 27L16 30L15 30L15 31L16 31L16 30L17 30L17 31L18 31L18 32L19 32L19 31L18 31L18 28L19 28L19 29L20 29L20 31L21 31L21 32L24 32L24 30L27 30L27 31L28 31L28 33L27 33L27 32L26 32L26 33L24 33L24 34L23 34L23 35L22 35L22 36L24 36L24 35L25 35L25 34L26 34L26 33L27 33L27 34L29 34L29 35L31 35L31 36L30 36L30 37L33 37L33 35L34 35L34 37L37 37L37 36L36 36L36 34L35 34L35 30L34 30L34 29L35 29L35 28L36 28L36 29L37 29L37 28L36 28L36 26L35 26L35 24L36 24L36 25L37 25L37 24L36 24L36 21L37 21L37 20L35 20L35 13L36 13L36 12L37 12L37 11L36 11L36 12L35 12L35 10L36 10L36 8L35 8L35 10L33 10L33 9L32 9L32 8L30 8L30 10L29 10L29 9L28 9L28 8L27 8L27 5L28 5L28 7L29 7L29 2L27 2L27 1L28 1L28 0L27 0L27 1L26 1L26 0L24 0L24 1L23 1L23 2L21 2L21 3L24 3L24 2L27 2L27 3L26 3L26 4L25 4L25 6L24 6L24 4L22 4L22 7L21 7L21 5L20 5L20 4L19 4L19 0L18 0L18 1L17 1L17 2L16 2L16 0L15 0L15 1L14 1L14 3L12 3L12 2L13 2L13 0ZM11 3L11 5L12 5L12 6L11 6L11 8L12 8L12 9L13 9L13 8L14 8L14 6L13 6L13 4L12 4L12 3ZM14 3L14 5L16 5L16 6L15 6L15 7L16 7L16 6L17 6L17 7L18 7L18 8L15 8L15 11L17 11L17 9L18 9L18 10L20 10L20 9L21 9L21 7L20 7L20 6L19 6L19 7L18 7L18 4L17 4L17 3L16 3L16 4L15 4L15 3ZM27 3L27 4L26 4L26 5L27 5L27 4L28 4L28 3ZM16 4L16 5L17 5L17 4ZM9 5L9 8L10 8L10 5ZM12 6L12 8L13 8L13 6ZM23 6L23 7L22 7L22 9L23 9L23 10L21 10L21 11L24 11L24 13L22 13L22 17L21 17L21 15L20 15L20 14L21 14L21 13L20 13L20 11L19 11L19 13L20 13L20 14L18 14L18 13L17 13L17 14L16 14L16 13L15 13L15 12L14 12L14 13L15 13L15 14L14 14L14 15L13 15L13 18L14 18L14 15L15 15L15 14L16 14L16 15L17 15L17 14L18 14L18 15L19 15L19 19L18 19L18 18L16 18L16 17L15 17L15 19L16 19L16 20L14 20L14 21L12 21L12 20L13 20L13 19L12 19L12 18L11 18L11 20L10 20L10 19L9 19L9 18L10 18L10 16L12 16L12 15L11 15L11 14L10 14L10 15L8 15L8 14L7 14L7 13L6 13L6 14L7 14L7 15L5 15L5 16L7 16L7 17L5 17L5 18L8 18L8 19L5 19L5 20L9 20L9 21L2 21L2 20L1 20L1 21L2 21L2 22L3 22L3 23L4 23L4 24L8 24L8 23L9 23L9 21L10 21L10 22L11 22L11 23L12 23L12 22L14 22L14 21L15 21L15 22L17 22L17 20L18 20L18 22L19 22L19 23L16 23L16 24L17 24L17 27L18 27L18 25L20 25L20 26L21 26L21 28L20 28L20 27L19 27L19 28L20 28L20 29L21 29L21 28L22 28L22 30L21 30L21 31L22 31L22 30L23 30L23 28L24 28L24 29L27 29L27 30L28 30L28 28L26 28L26 27L25 27L25 26L26 26L26 25L27 25L27 26L28 26L28 27L29 27L29 26L30 26L30 25L33 25L33 27L31 27L31 28L33 28L33 27L34 27L34 23L35 23L35 21L34 21L34 19L33 19L33 20L31 20L31 21L30 21L30 20L28 20L28 19L27 19L27 20L28 20L28 23L26 23L26 25L23 25L23 24L24 24L24 23L25 23L25 22L27 22L27 21L26 21L26 18L27 18L27 17L28 17L28 18L29 18L29 19L30 19L30 18L32 18L32 17L33 17L33 16L34 16L34 15L33 15L33 14L34 14L34 13L33 13L33 10L30 10L30 12L29 12L29 11L28 11L28 9L25 9L25 10L24 10L24 8L26 8L26 6L25 6L25 7L24 7L24 6ZM18 8L18 9L20 9L20 8ZM26 10L26 11L27 11L27 10ZM31 11L31 12L30 12L30 13L29 13L29 12L27 12L27 13L24 13L24 14L23 14L23 15L24 15L24 14L27 14L27 15L28 15L28 17L29 17L29 18L30 18L30 17L31 17L31 15L32 15L32 14L33 14L33 13L32 13L32 11ZM8 12L8 13L9 13L9 12ZM0 13L0 14L1 14L1 13ZM27 13L27 14L28 14L28 15L29 15L29 16L30 16L30 15L31 15L31 14L32 14L32 13L30 13L30 15L29 15L29 14L28 14L28 13ZM26 16L26 17L24 17L24 18L23 18L23 17L22 17L22 18L21 18L21 17L20 17L20 19L19 19L19 21L20 21L20 22L22 22L22 23L23 23L23 22L22 22L22 21L24 21L24 20L25 20L25 18L26 18L26 17L27 17L27 16ZM36 16L36 17L37 17L37 16ZM8 17L8 18L9 18L9 17ZM3 19L3 20L4 20L4 19ZM20 19L20 21L22 21L22 20L23 20L23 19L22 19L22 20L21 20L21 19ZM11 21L11 22L12 22L12 21ZM32 21L32 22L33 22L33 21ZM6 22L6 23L8 23L8 22ZM30 22L30 23L29 23L29 24L27 24L27 25L30 25L30 24L32 24L32 23L31 23L31 22ZM0 24L0 26L1 26L1 25L2 25L2 24ZM21 24L21 26L22 26L22 27L23 27L23 25L22 25L22 24ZM6 25L6 26L7 26L7 25ZM6 27L6 28L7 28L7 27ZM24 27L24 28L25 28L25 27ZM0 28L0 29L2 29L2 28ZM9 29L9 31L10 31L10 29ZM29 29L29 32L32 32L32 29ZM30 30L30 31L31 31L31 30ZM33 31L33 32L34 32L34 31ZM36 31L36 33L37 33L37 31ZM16 32L16 33L17 33L17 32ZM13 33L13 34L14 34L14 33ZM19 33L19 34L18 34L18 35L17 35L17 36L16 36L16 35L15 35L15 37L17 37L17 36L18 36L18 35L19 35L19 37L21 37L21 36L20 36L20 35L19 35L19 34L20 34L20 33ZM21 33L21 34L22 34L22 33ZM29 33L29 34L30 34L30 33ZM32 33L32 35L33 35L33 34L34 34L34 33ZM12 36L12 37L14 37L14 36ZM26 36L26 37L27 37L27 36ZM0 0L0 7L7 7L7 0ZM1 1L1 6L6 6L6 1ZM2 2L2 5L5 5L5 2ZM30 0L30 7L37 7L37 0ZM31 1L31 6L36 6L36 1ZM32 2L32 5L35 5L35 2ZM0 30L0 37L7 37L7 30ZM1 31L1 36L6 36L6 31ZM2 32L2 35L5 35L5 32Z" fill="#000000"/></g></g></svg>
