<?xml version="1.0" encoding="UTF-8"?>
<svg xmlns="http://www.w3.org/2000/svg" version="1.1" width="300" height="300" viewBox="0 0 300 300"><rect x="0" y="0" width="300" height="300" fill="#ffffff"/><g transform="scale(7.692)"><g transform="translate(1,1)"><path fill-rule="evenodd" d="M8 0L8 1L9 1L9 2L10 2L10 3L8 3L8 4L9 4L9 6L8 6L8 7L9 7L9 6L10 6L10 7L11 7L11 5L10 5L10 3L11 3L11 4L12 4L12 5L14 5L14 7L15 7L15 8L16 8L16 9L15 9L15 11L14 11L14 12L16 12L16 14L14 14L14 13L10 13L10 14L9 14L9 15L11 15L11 14L12 14L12 16L11 16L11 18L10 18L10 17L9 17L9 16L8 16L8 15L7 15L7 14L8 14L8 13L7 13L7 12L10 12L10 10L9 10L9 9L11 9L11 11L13 11L13 10L14 10L14 9L13 9L13 10L12 10L12 8L8 8L8 11L7 11L7 10L6 10L6 9L7 9L7 8L4 8L4 10L2 10L2 9L3 9L3 8L2 8L2 9L1 9L1 10L0 10L0 12L1 12L1 13L2 13L2 12L1 12L1 10L2 10L2 11L4 11L4 10L5 10L5 13L7 13L7 14L5 14L5 15L4 15L4 14L2 14L2 15L1 15L1 14L0 14L0 15L1 15L1 17L0 17L0 20L1 20L1 17L2 17L2 18L4 18L4 19L5 19L5 17L7 17L7 18L6 18L6 19L7 19L7 20L5 20L5 23L4 23L4 20L3 20L3 19L2 19L2 21L0 21L0 22L1 22L1 23L2 23L2 22L3 22L3 25L1 25L1 24L0 24L0 25L1 25L1 26L0 26L0 27L1 27L1 28L0 28L0 29L1 29L1 28L5 28L5 29L7 29L7 28L5 28L5 27L9 27L9 26L8 26L8 25L7 25L7 24L5 24L5 23L8 23L8 22L9 22L9 19L8 19L8 17L9 17L9 18L10 18L10 19L11 19L11 20L10 20L10 21L11 21L11 20L13 20L13 21L12 21L12 24L13 24L13 22L14 22L14 25L15 25L15 26L14 26L14 27L13 27L13 26L12 26L12 25L11 25L11 26L10 26L10 27L13 27L13 28L11 28L11 30L10 30L10 31L8 31L8 33L11 33L11 32L12 32L12 33L13 33L13 32L14 32L14 31L15 31L15 28L14 28L14 27L17 27L17 28L18 28L18 29L17 29L17 30L19 30L19 28L21 28L21 29L24 29L24 28L25 28L25 30L24 30L24 31L23 31L23 30L21 30L21 32L20 32L20 31L19 31L19 32L18 32L18 31L16 31L16 32L15 32L15 37L16 37L16 36L18 36L18 34L20 34L20 36L21 36L21 37L23 37L23 36L24 36L24 35L23 35L23 36L21 36L21 35L22 35L22 34L21 34L21 32L22 32L22 33L23 33L23 34L24 34L24 33L23 33L23 32L24 32L24 31L25 31L25 34L26 34L26 35L25 35L25 37L27 37L27 36L26 36L26 35L28 35L28 37L29 37L29 35L28 35L28 34L30 34L30 33L31 33L31 35L32 35L32 37L33 37L33 34L34 34L34 35L35 35L35 37L37 37L37 36L36 36L36 35L37 35L37 28L36 28L36 27L37 27L37 24L36 24L36 23L37 23L37 20L35 20L35 21L36 21L36 23L35 23L35 24L36 24L36 25L35 25L35 26L34 26L34 25L33 25L33 26L34 26L34 27L33 27L33 28L31 28L31 27L32 27L32 24L31 24L31 23L30 23L30 22L31 22L31 21L32 21L32 20L33 20L33 19L32 19L32 18L31 18L31 17L32 17L32 15L33 15L33 14L34 14L34 15L37 15L37 13L36 13L36 12L37 12L37 8L36 8L36 10L34 10L34 8L33 8L33 10L32 10L32 9L31 9L31 10L30 10L30 8L29 8L29 5L28 5L28 4L27 4L27 2L28 2L28 3L29 3L29 2L28 2L28 1L29 1L29 0L27 0L27 1L26 1L26 3L25 3L25 2L24 2L24 3L25 3L25 4L27 4L27 6L26 6L26 5L24 5L24 4L23 4L23 2L22 2L22 1L23 1L23 0L22 0L22 1L21 1L21 0L19 0L19 1L20 1L20 2L19 2L19 3L17 3L17 2L16 2L16 3L15 3L15 4L14 4L14 2L15 2L15 1L17 1L17 0L15 0L15 1L14 1L14 0L12 0L12 1L14 1L14 2L12 2L12 3L11 3L11 2L10 2L10 1L9 1L9 0ZM24 0L24 1L25 1L25 0ZM20 2L20 3L19 3L19 5L18 5L18 4L15 4L15 7L16 7L16 8L17 8L17 9L16 9L16 10L17 10L17 12L18 12L18 11L19 11L19 10L20 10L20 11L21 11L21 10L22 10L22 13L21 13L21 14L19 14L19 15L18 15L18 14L16 14L16 17L17 17L17 18L16 18L16 19L17 19L17 20L18 20L18 21L16 21L16 20L15 20L15 19L14 19L14 18L15 18L15 17L14 17L14 18L11 18L11 19L14 19L14 21L16 21L16 22L15 22L15 23L16 23L16 22L17 22L17 25L18 25L18 26L19 26L19 25L21 25L21 26L20 26L20 27L21 27L21 28L22 28L22 27L21 27L21 26L23 26L23 24L24 24L24 23L22 23L22 24L21 24L21 23L20 23L20 21L21 21L21 20L23 20L23 19L26 19L26 20L29 20L29 21L27 21L27 22L26 22L26 21L25 21L25 20L24 20L24 21L25 21L25 22L26 22L26 23L25 23L25 26L26 26L26 27L28 27L28 28L26 28L26 30L25 30L25 31L26 31L26 32L27 32L27 34L28 34L28 30L27 30L27 29L28 29L28 28L29 28L29 27L31 27L31 24L30 24L30 26L29 26L29 24L28 24L28 23L29 23L29 21L30 21L30 20L29 20L29 19L28 19L28 18L30 18L30 19L31 19L31 20L32 20L32 19L31 19L31 18L30 18L30 17L29 17L29 16L30 16L30 12L31 12L31 14L33 14L33 11L34 11L34 13L35 13L35 12L36 12L36 11L34 11L34 10L33 10L33 11L32 11L32 10L31 10L31 11L30 11L30 10L29 10L29 11L30 11L30 12L28 12L28 11L27 11L27 10L26 10L26 8L25 8L25 7L26 7L26 6L25 6L25 7L24 7L24 5L23 5L23 7L22 7L22 6L21 6L21 5L20 5L20 3L21 3L21 4L22 4L22 2ZM12 3L12 4L13 4L13 3ZM17 5L17 6L16 6L16 7L17 7L17 8L18 8L18 10L19 10L19 9L20 9L20 8L18 8L18 7L19 7L19 6L20 6L20 7L21 7L21 8L22 8L22 10L24 10L24 11L23 11L23 13L24 13L24 14L23 14L23 15L21 15L21 16L20 16L20 15L19 15L19 16L18 16L18 15L17 15L17 16L18 16L18 17L19 17L19 18L20 18L20 19L19 19L19 20L21 20L21 17L22 17L22 19L23 19L23 18L24 18L24 16L25 16L25 18L27 18L27 16L26 16L26 15L27 15L27 14L29 14L29 13L28 13L28 12L27 12L27 14L26 14L26 11L25 11L25 10L24 10L24 9L23 9L23 8L22 8L22 7L21 7L21 6L20 6L20 5L19 5L19 6L18 6L18 5ZM12 6L12 7L13 7L13 6ZM17 6L17 7L18 7L18 6ZM27 6L27 8L28 8L28 6ZM6 11L6 12L7 12L7 11ZM31 11L31 12L32 12L32 11ZM3 12L3 13L4 13L4 12ZM24 12L24 13L25 13L25 12ZM25 14L25 15L26 15L26 14ZM2 15L2 16L3 16L3 17L4 17L4 15ZM6 15L6 16L7 16L7 15ZM33 16L33 17L34 17L34 19L37 19L37 16L36 16L36 17L34 17L34 16ZM17 18L17 19L18 19L18 18ZM7 20L7 21L6 21L6 22L7 22L7 21L8 21L8 20ZM18 21L18 22L19 22L19 21ZM22 21L22 22L23 22L23 21ZM33 21L33 22L32 22L32 23L34 23L34 21ZM10 22L10 23L11 23L11 22ZM19 23L19 24L20 24L20 23ZM4 24L4 25L3 25L3 26L4 26L4 25L5 25L5 26L7 26L7 25L5 25L5 24ZM15 24L15 25L16 25L16 24ZM27 24L27 26L28 26L28 24ZM1 26L1 27L2 27L2 26ZM35 26L35 27L34 27L34 29L33 29L33 32L34 32L34 33L36 33L36 31L34 31L34 30L35 30L35 29L36 29L36 28L35 28L35 27L36 27L36 26ZM18 27L18 28L19 28L19 27ZM23 27L23 28L24 28L24 27ZM9 28L9 29L8 29L8 30L9 30L9 29L10 29L10 28ZM13 28L13 30L14 30L14 28ZM29 29L29 32L32 32L32 29ZM11 30L11 31L10 31L10 32L11 32L11 31L12 31L12 30ZM26 30L26 31L27 31L27 30ZM30 30L30 31L31 31L31 30ZM22 31L22 32L23 32L23 31ZM16 32L16 35L17 35L17 33L18 33L18 32ZM8 34L8 35L9 35L9 34ZM10 34L10 35L11 35L11 36L9 36L9 37L14 37L14 36L12 36L12 34ZM13 34L13 35L14 35L14 34ZM35 34L35 35L36 35L36 34ZM30 36L30 37L31 37L31 36ZM0 0L0 7L7 7L7 0ZM1 1L1 6L6 6L6 1ZM2 2L2 5L5 5L5 2ZM30 0L30 7L37 7L37 0ZM31 1L31 6L36 6L36 1ZM32 2L32 5L35 5L35 2ZM0 30L0 37L7 37L7 30ZM1 31L1 36L6 36L6 31ZM2 32L2 35L5 35L5 32Z" fill="#000000"/></g></g></svg>
