<?xml version="1.0" encoding="UTF-8"?>
<svg xmlns="http://www.w3.org/2000/svg" version="1.1" width="300" height="300" viewBox="0 0 300 300"><rect x="0" y="0" width="300" height="300" fill="#ffffff"/><g transform="scale(7.692)"><g transform="translate(1,1)"><path fill-rule="evenodd" d="M8 0L8 3L9 3L9 4L10 4L10 5L8 5L8 9L7 9L7 8L6 8L6 9L7 9L7 10L5 10L5 8L2 8L2 10L3 10L3 9L4 9L4 11L3 11L3 12L2 12L2 11L1 11L1 9L0 9L0 11L1 11L1 13L0 13L0 16L1 16L1 18L0 18L0 19L1 19L1 20L3 20L3 19L4 19L4 18L6 18L6 19L5 19L5 20L4 20L4 21L2 21L2 23L1 23L1 21L0 21L0 23L1 23L1 24L0 24L0 29L1 29L1 26L3 26L3 27L4 27L4 28L2 28L2 29L7 29L7 28L8 28L8 30L10 30L10 32L11 32L11 30L10 30L10 29L13 29L13 30L12 30L12 31L14 31L14 30L15 30L15 31L16 31L16 33L15 33L15 32L14 32L14 33L13 33L13 32L12 32L12 34L11 34L11 33L10 33L10 34L9 34L9 32L8 32L8 35L10 35L10 34L11 34L11 35L12 35L12 36L11 36L11 37L15 37L15 36L16 36L16 37L17 37L17 35L18 35L18 36L20 36L20 37L21 37L21 35L18 35L18 34L16 34L16 33L17 33L17 30L18 30L18 32L19 32L19 33L20 33L20 32L19 32L19 30L20 30L20 31L21 31L21 33L22 33L22 31L21 31L21 30L20 30L20 29L21 29L21 24L23 24L23 25L25 25L25 26L23 26L23 27L22 27L22 28L23 28L23 30L24 30L24 32L25 32L25 33L24 33L24 34L25 34L25 33L26 33L26 34L27 34L27 33L28 33L28 36L27 36L27 37L28 37L28 36L30 36L30 37L31 37L31 36L33 36L33 37L37 37L37 34L36 34L36 36L33 36L33 35L34 35L34 34L35 34L35 32L36 32L36 33L37 33L37 32L36 32L36 31L37 31L37 30L35 30L35 32L34 32L34 33L33 33L33 31L34 31L34 30L33 30L33 28L34 28L34 29L35 29L35 28L34 28L34 27L33 27L33 26L34 26L34 25L35 25L35 24L32 24L32 23L31 23L31 25L30 25L30 24L29 24L29 23L30 23L30 22L27 22L27 21L26 21L26 20L25 20L25 22L23 22L23 23L21 23L21 24L20 24L20 26L19 26L19 25L18 25L18 26L17 26L17 27L15 27L15 28L16 28L16 29L17 29L17 30L15 30L15 29L13 29L13 26L16 26L16 25L17 25L17 24L19 24L19 23L16 23L16 20L17 20L17 22L18 22L18 20L19 20L19 22L22 22L22 21L21 21L21 19L22 19L22 18L23 18L23 17L24 17L24 18L25 18L25 17L26 17L26 19L28 19L28 18L27 18L27 17L29 17L29 19L30 19L30 17L31 17L31 20L30 20L30 21L31 21L31 22L32 22L32 21L33 21L33 22L34 22L34 23L35 23L35 22L36 22L36 25L37 25L37 22L36 22L36 21L37 21L37 18L35 18L35 16L36 16L36 17L37 17L37 14L35 14L35 13L36 13L36 11L37 11L37 10L36 10L36 9L37 9L37 8L34 8L34 9L33 9L33 11L32 11L32 10L31 10L31 9L32 9L32 8L29 8L29 4L28 4L28 5L27 5L27 3L28 3L28 1L27 1L27 0L26 0L26 1L25 1L25 0L24 0L24 1L23 1L23 2L24 2L24 3L22 3L22 0L21 0L21 3L20 3L20 4L21 4L21 3L22 3L22 4L23 4L23 6L22 6L22 7L21 7L21 6L20 6L20 7L19 7L19 4L18 4L18 9L17 9L17 8L16 8L16 7L17 7L17 6L16 6L16 7L15 7L15 5L17 5L17 3L16 3L16 2L15 2L15 0L13 0L13 3L12 3L12 5L11 5L11 4L10 4L10 0ZM11 0L11 1L12 1L12 0ZM18 0L18 1L17 1L17 2L20 2L20 1L19 1L19 0ZM25 2L25 4L24 4L24 6L23 6L23 7L24 7L24 6L25 6L25 8L23 8L23 9L24 9L24 10L23 10L23 11L22 11L22 9L20 9L20 10L21 10L21 11L22 11L22 12L20 12L20 11L19 11L19 9L18 9L18 10L17 10L17 9L15 9L15 7L14 7L14 5L15 5L15 3L13 3L13 7L14 7L14 9L13 9L13 8L12 8L12 9L11 9L11 7L12 7L12 6L11 6L11 7L10 7L10 6L9 6L9 10L7 10L7 11L4 11L4 12L3 12L3 13L2 13L2 14L1 14L1 16L2 16L2 17L3 17L3 16L5 16L5 15L6 15L6 16L10 16L10 15L12 15L12 17L11 17L11 18L10 18L10 19L9 19L9 17L6 17L6 18L8 18L8 19L6 19L6 20L8 20L8 21L4 21L4 22L3 22L3 23L2 23L2 24L1 24L1 25L2 25L2 24L3 24L3 23L4 23L4 22L8 22L8 21L9 21L9 22L10 22L10 23L8 23L8 24L7 24L7 23L6 23L6 24L7 24L7 25L6 25L6 26L8 26L8 28L9 28L9 29L10 29L10 28L11 28L11 26L12 26L12 25L14 25L14 24L13 24L13 23L12 23L12 22L13 22L13 20L15 20L15 19L16 19L16 18L15 18L15 17L16 17L16 16L17 16L17 15L16 15L16 13L17 13L17 14L18 14L18 19L20 19L20 18L22 18L22 17L23 17L23 16L24 16L24 17L25 17L25 16L26 16L26 17L27 17L27 16L29 16L29 15L30 15L30 16L33 16L33 17L32 17L32 18L34 18L34 19L33 19L33 20L35 20L35 18L34 18L34 16L35 16L35 14L34 14L34 15L33 15L33 13L34 13L34 12L35 12L35 9L34 9L34 12L33 12L33 13L32 13L32 11L31 11L31 13L30 13L30 9L29 9L29 8L28 8L28 6L27 6L27 5L26 5L26 3L27 3L27 2ZM26 6L26 8L27 8L27 6ZM20 7L20 8L21 8L21 7ZM12 9L12 10L10 10L10 11L8 11L8 13L10 13L10 14L11 14L11 12L14 12L14 13L15 13L15 10L14 10L14 11L13 11L13 9ZM25 9L25 10L24 10L24 12L22 12L22 13L23 13L23 14L21 14L21 13L20 13L20 12L18 12L18 11L17 11L17 13L20 13L20 15L21 15L21 16L23 16L23 15L25 15L25 14L24 14L24 12L25 12L25 13L27 13L27 15L29 15L29 14L30 14L30 15L32 15L32 13L31 13L31 14L30 14L30 13L29 13L29 11L28 11L28 13L27 13L27 12L25 12L25 10L26 10L26 11L27 11L27 10L29 10L29 9ZM10 11L10 12L11 12L11 11ZM4 12L4 15L5 15L5 14L6 14L6 15L7 15L7 14L6 14L6 13L7 13L7 12ZM8 14L8 15L9 15L9 14ZM12 14L12 15L14 15L14 16L13 16L13 17L14 17L14 16L16 16L16 15L14 15L14 14ZM19 16L19 17L20 17L20 16ZM1 18L1 19L2 19L2 18ZM11 18L11 20L13 20L13 19L12 19L12 18ZM8 19L8 20L9 20L9 21L10 21L10 20L9 20L9 19ZM23 20L23 21L24 21L24 20ZM11 21L11 22L12 22L12 21ZM34 21L34 22L35 22L35 21ZM11 23L11 24L8 24L8 25L11 25L11 24L12 24L12 23ZM24 23L24 24L25 24L25 25L26 25L26 26L27 26L27 25L28 25L28 26L29 26L29 27L28 27L28 28L33 28L33 27L32 27L32 26L33 26L33 25L31 25L31 26L30 26L30 25L28 25L28 23L26 23L26 24L25 24L25 23ZM26 24L26 25L27 25L27 24ZM4 26L4 27L5 27L5 26ZM9 26L9 27L10 27L10 26ZM36 26L36 29L37 29L37 26ZM6 27L6 28L7 28L7 27ZM17 27L17 29L18 29L18 30L19 30L19 29L20 29L20 27L19 27L19 29L18 29L18 27ZM24 27L24 29L25 29L25 32L26 32L26 33L27 33L27 32L28 32L28 31L27 31L27 29L25 29L25 28L26 28L26 27ZM29 29L29 32L32 32L32 29ZM30 30L30 31L31 31L31 30ZM14 33L14 34L15 34L15 35L14 35L14 36L15 36L15 35L16 35L16 34L15 34L15 33ZM29 33L29 35L31 35L31 34L32 34L32 35L33 35L33 34L32 34L32 33L31 33L31 34L30 34L30 33ZM12 34L12 35L13 35L13 34ZM22 34L22 35L23 35L23 34ZM24 35L24 36L25 36L25 37L26 37L26 36L25 36L25 35ZM0 0L0 7L7 7L7 0ZM1 1L1 6L6 6L6 1ZM2 2L2 5L5 5L5 2ZM30 0L30 7L37 7L37 0ZM31 1L31 6L36 6L36 1ZM32 2L32 5L35 5L35 2ZM0 30L0 37L7 37L7 30ZM1 31L1 36L6 36L6 31ZM2 32L2 35L5 35L5 32Z" fill="#000000"/></g></g></svg>
