<?xml version="1.0" encoding="UTF-8"?>
<svg xmlns="http://www.w3.org/2000/svg" version="1.1" width="300" height="300" viewBox="0 0 300 300"><rect x="0" y="0" width="300" height="300" fill="#ffffff"/><g transform="scale(7.692)"><g transform="translate(1,1)"><path fill-rule="evenodd" d="M11 0L11 1L12 1L12 2L9 2L9 1L8 1L8 2L9 2L9 5L8 5L8 8L4 8L4 9L0 9L0 10L3 10L3 11L0 11L0 12L3 12L3 11L4 11L4 13L5 13L5 14L4 14L4 15L2 15L2 16L4 16L4 18L2 18L2 19L0 19L0 22L2 22L2 23L3 23L3 26L2 26L2 27L3 27L3 26L4 26L4 25L5 25L5 26L6 26L6 27L7 27L7 28L6 28L6 29L8 29L8 33L9 33L9 35L10 35L10 36L9 36L9 37L10 37L10 36L12 36L12 37L13 37L13 36L15 36L15 37L17 37L17 36L18 36L18 35L19 35L19 36L24 36L24 35L25 35L25 34L26 34L26 33L27 33L27 34L29 34L29 35L31 35L31 36L30 36L30 37L33 37L33 35L34 35L34 37L37 37L37 36L36 36L36 34L35 34L35 30L34 30L34 29L35 29L35 28L36 28L36 29L37 29L37 28L36 28L36 26L33 26L33 25L30 25L30 24L32 24L32 23L31 23L31 22L30 22L30 23L29 23L29 24L27 24L27 25L26 25L26 23L28 23L28 20L30 20L30 21L31 21L31 20L33 20L33 19L34 19L34 21L35 21L35 23L34 23L34 25L35 25L35 24L36 24L36 25L37 25L37 24L36 24L36 21L37 21L37 20L35 20L35 13L36 13L36 12L37 12L37 11L36 11L36 12L35 12L35 10L36 10L36 8L35 8L35 10L33 10L33 9L32 9L32 8L30 8L30 10L29 10L29 9L28 9L28 8L27 8L27 5L28 5L28 7L29 7L29 2L27 2L27 1L28 1L28 0L27 0L27 1L26 1L26 0L24 0L24 1L22 1L22 0L21 0L21 2L23 2L23 3L21 3L21 4L20 4L20 2L19 2L19 0L18 0L18 1L17 1L17 2L16 2L16 0L15 0L15 3L13 3L13 2L14 2L14 0L13 0L13 1L12 1L12 0ZM25 1L25 2L24 2L24 3L23 3L23 4L21 4L21 5L20 5L20 4L19 4L19 5L20 5L20 6L19 6L19 7L18 7L18 4L17 4L17 3L16 3L16 4L13 4L13 3L11 3L11 7L12 7L12 6L13 6L13 8L12 8L12 9L11 9L11 8L10 8L10 5L9 5L9 8L8 8L8 9L4 9L4 11L5 11L5 10L7 10L7 11L6 11L6 12L8 12L8 13L9 13L9 12L8 12L8 11L9 11L9 8L10 8L10 12L11 12L11 14L9 14L9 15L8 15L8 14L7 14L7 13L6 13L6 14L7 14L7 15L4 15L4 16L7 16L7 17L6 17L6 18L7 18L7 19L5 19L5 20L9 20L9 21L8 21L8 22L7 22L7 21L2 21L2 22L3 22L3 23L4 23L4 24L7 24L7 23L8 23L8 25L10 25L10 26L8 26L8 29L10 29L10 28L16 28L16 27L17 27L17 29L16 29L16 30L17 30L17 31L15 31L15 29L11 29L11 30L9 30L9 32L10 32L10 34L11 34L11 35L12 35L12 34L13 34L13 35L14 35L14 33L15 33L15 35L16 35L16 36L17 36L17 35L18 35L18 34L19 34L19 35L20 35L20 34L19 34L19 33L20 33L20 32L21 32L21 33L22 33L22 34L21 34L21 35L22 35L22 34L24 34L24 33L26 33L26 32L27 32L27 33L28 33L28 31L27 31L27 30L28 30L28 28L26 28L26 27L25 27L25 26L26 26L26 25L22 25L22 23L23 23L23 24L24 24L24 23L25 23L25 22L27 22L27 21L26 21L26 19L27 19L27 20L28 20L28 19L27 19L27 17L28 17L28 18L29 18L29 19L30 19L30 18L32 18L32 17L33 17L33 16L34 16L34 15L33 15L33 14L34 14L34 13L33 13L33 11L32 11L32 13L30 13L30 12L31 12L31 10L30 10L30 12L29 12L29 11L28 11L28 9L25 9L25 8L26 8L26 6L25 6L25 4L26 4L26 3L27 3L27 4L28 4L28 3L27 3L27 2L26 2L26 1ZM16 4L16 5L15 5L15 6L14 6L14 5L13 5L13 6L14 6L14 8L16 8L16 10L17 10L17 11L16 11L16 13L14 13L14 12L15 12L15 10L14 10L14 9L12 9L12 10L14 10L14 11L13 11L13 15L12 15L12 14L11 14L11 15L9 15L9 16L10 16L10 17L12 17L12 16L13 16L13 15L14 15L14 17L13 17L13 19L12 19L12 18L9 18L9 17L7 17L7 18L9 18L9 19L10 19L10 20L14 20L14 21L11 21L11 22L10 22L10 21L9 21L9 22L8 22L8 23L10 23L10 25L11 25L11 23L12 23L12 24L13 24L13 22L15 22L15 24L16 24L16 25L15 25L15 26L17 26L17 27L18 27L18 28L19 28L19 29L17 29L17 30L18 30L18 31L17 31L17 32L15 32L15 33L17 33L17 32L19 32L19 29L20 29L20 31L21 31L21 32L24 32L24 30L27 30L27 29L24 29L24 28L25 28L25 27L24 27L24 28L23 28L23 30L22 30L22 28L21 28L21 26L22 26L22 27L23 27L23 26L22 26L22 25L21 25L21 26L20 26L20 25L17 25L17 24L16 24L16 23L19 23L19 24L20 24L20 23L19 23L19 22L20 22L20 20L21 20L21 19L20 19L20 20L19 20L19 22L18 22L18 20L17 20L17 22L15 22L15 20L16 20L16 19L15 19L15 15L14 15L14 14L17 14L17 13L18 13L18 15L16 15L16 18L18 18L18 19L19 19L19 18L23 18L23 21L21 21L21 22L23 22L23 21L24 21L24 20L25 20L25 19L26 19L26 18L25 18L25 17L24 17L24 16L23 16L23 17L22 17L22 13L23 13L23 15L25 15L25 14L27 14L27 16L26 16L26 17L27 17L27 16L28 16L28 17L29 17L29 18L30 18L30 17L31 17L31 15L32 15L32 14L33 14L33 13L32 13L32 14L31 14L31 15L30 15L30 13L28 13L28 12L27 12L27 13L23 13L23 12L24 12L24 11L21 11L21 10L23 10L23 9L20 9L20 8L22 8L22 7L23 7L23 6L24 6L24 7L25 7L25 6L24 6L24 4L23 4L23 6L22 6L22 5L21 5L21 6L20 6L20 7L19 7L19 8L18 8L18 7L17 7L17 6L16 6L16 5L17 5L17 4ZM15 6L15 7L16 7L16 6ZM21 6L21 7L22 7L22 6ZM17 8L17 10L18 10L18 13L20 13L20 14L19 14L19 16L17 16L17 17L20 17L20 16L21 16L21 15L20 15L20 14L21 14L21 13L20 13L20 11L19 11L19 10L20 10L20 9L18 9L18 8ZM24 9L24 10L25 10L25 9ZM26 10L26 11L27 11L27 10ZM0 13L0 14L1 14L1 13ZM2 13L2 14L3 14L3 13ZM27 13L27 14L28 14L28 13ZM11 15L11 16L12 16L12 15ZM28 15L28 16L30 16L30 15ZM36 16L36 17L37 17L37 16ZM0 17L0 18L1 18L1 17ZM23 17L23 18L24 18L24 17ZM3 19L3 20L4 20L4 19ZM32 21L32 22L33 22L33 21ZM6 22L6 23L7 23L7 22ZM0 23L0 26L1 26L1 23ZM6 25L6 26L7 26L7 25ZM12 25L12 26L13 26L13 25ZM27 25L27 26L28 26L28 27L29 27L29 26L30 26L30 25ZM10 26L10 27L11 27L11 26ZM32 26L32 27L31 27L31 28L33 28L33 26ZM4 27L4 28L0 28L0 29L4 29L4 28L5 28L5 27ZM19 27L19 28L20 28L20 29L21 29L21 28L20 28L20 27ZM29 29L29 32L32 32L32 29ZM11 30L11 31L10 31L10 32L13 32L13 33L14 33L14 32L13 32L13 31L14 31L14 30L13 30L13 31L12 31L12 30ZM21 30L21 31L22 31L22 30ZM30 30L30 31L31 31L31 30ZM33 31L33 32L34 32L34 31ZM36 31L36 33L37 33L37 31ZM29 33L29 34L30 34L30 33ZM32 33L32 35L33 35L33 34L34 34L34 33ZM26 36L26 37L27 37L27 36ZM0 0L0 7L7 7L7 0ZM1 1L1 6L6 6L6 1ZM2 2L2 5L5 5L5 2ZM30 0L30 7L37 7L37 0ZM31 1L31 6L36 6L36 1ZM32 2L32 5L35 5L35 2ZM0 30L0 37L7 37L7 30ZM1 31L1 36L6 36L6 31ZM2 32L2 35L5 35L5 32Z" fill="#000000"/></g></g></svg>
