<?xml version="1.0" encoding="UTF-8"?>
<svg xmlns="http://www.w3.org/2000/svg" version="1.1" width="300" height="300" viewBox="0 0 300 300"><rect x="0" y="0" width="300" height="300" fill="#ffffff"/><g transform="scale(7.692)"><g transform="translate(1,1)"><path fill-rule="evenodd" d="M12 0L12 1L13 1L13 0ZM15 0L15 2L12 2L12 3L11 3L11 2L9 2L9 1L8 1L8 2L9 2L9 5L8 5L8 8L4 8L4 9L2 9L2 11L0 11L0 12L4 12L4 11L5 11L5 12L6 12L6 13L5 13L5 14L4 14L4 13L3 13L3 14L2 14L2 17L3 17L3 16L5 16L5 17L4 17L4 18L2 18L2 20L0 20L0 22L1 22L1 23L0 23L0 24L1 24L1 25L0 25L0 26L1 26L1 25L2 25L2 24L1 24L1 23L3 23L3 24L4 24L4 25L3 25L3 26L2 26L2 27L3 27L3 26L4 26L4 28L3 28L3 29L8 29L8 33L9 33L9 35L10 35L10 36L9 36L9 37L10 37L10 36L13 36L13 37L17 37L17 36L18 36L18 35L19 35L19 37L20 37L20 35L21 35L21 37L22 37L22 36L24 36L24 35L25 35L25 34L26 34L26 33L27 33L27 34L29 34L29 35L31 35L31 36L30 36L30 37L33 37L33 35L34 35L34 37L37 37L37 36L36 36L36 34L35 34L35 30L34 30L34 29L35 29L35 28L36 28L36 29L37 29L37 28L36 28L36 26L33 26L33 25L30 25L30 24L32 24L32 23L31 23L31 22L30 22L30 23L29 23L29 24L27 24L27 25L26 25L26 23L28 23L28 20L30 20L30 21L31 21L31 20L33 20L33 19L34 19L34 21L35 21L35 23L34 23L34 25L35 25L35 24L36 24L36 25L37 25L37 24L36 24L36 21L37 21L37 20L35 20L35 13L36 13L36 12L37 12L37 11L36 11L36 12L35 12L35 10L36 10L36 8L35 8L35 10L33 10L33 9L32 9L32 8L30 8L30 10L29 10L29 9L28 9L28 8L27 8L27 5L28 5L28 7L29 7L29 2L26 2L26 1L25 1L25 0L24 0L24 1L23 1L23 2L22 2L22 0L21 0L21 1L20 1L20 2L19 2L19 1L17 1L17 2L16 2L16 0ZM27 0L27 1L28 1L28 0ZM20 2L20 3L22 3L22 6L21 6L21 8L20 8L20 5L19 5L19 7L18 7L18 4L17 4L17 3L16 3L16 4L13 4L13 3L12 3L12 5L11 5L11 7L12 7L12 9L11 9L11 8L10 8L10 5L9 5L9 8L8 8L8 9L5 9L5 10L7 10L7 11L6 11L6 12L8 12L8 13L9 13L9 12L10 12L10 14L9 14L9 15L8 15L8 14L7 14L7 13L6 13L6 14L7 14L7 15L5 15L5 16L7 16L7 17L6 17L6 18L7 18L7 19L5 19L5 20L7 20L7 21L2 21L2 22L3 22L3 23L4 23L4 24L8 24L8 25L10 25L10 26L11 26L11 28L10 28L10 30L9 30L9 33L10 33L10 32L11 32L11 35L12 35L12 34L13 34L13 35L16 35L16 36L17 36L17 35L18 35L18 34L19 34L19 35L20 35L20 34L22 34L22 35L23 35L23 34L24 34L24 33L26 33L26 32L27 32L27 33L28 33L28 31L27 31L27 30L28 30L28 28L26 28L26 27L25 27L25 26L26 26L26 25L23 25L23 24L24 24L24 23L25 23L25 22L27 22L27 21L26 21L26 20L28 20L28 19L27 19L27 17L28 17L28 18L29 18L29 19L30 19L30 18L32 18L32 17L33 17L33 16L34 16L34 15L33 15L33 14L34 14L34 13L33 13L33 11L32 11L32 13L30 13L30 12L31 12L31 10L30 10L30 12L29 12L29 11L28 11L28 9L24 9L24 8L26 8L26 6L25 6L25 4L26 4L26 5L27 5L27 4L28 4L28 3L27 3L27 4L26 4L26 2L24 2L24 3L22 3L22 2ZM16 4L16 5L15 5L15 6L14 6L14 5L12 5L12 7L13 7L13 6L14 6L14 8L13 8L13 9L12 9L12 10L14 10L14 11L13 11L13 15L12 15L12 14L11 14L11 15L12 15L12 16L11 16L11 17L10 17L10 15L9 15L9 17L7 17L7 18L8 18L8 19L7 19L7 20L9 20L9 19L10 19L10 20L12 20L12 19L14 19L14 20L13 20L13 21L11 21L11 22L10 22L10 21L9 21L9 23L8 23L8 21L7 21L7 22L6 22L6 23L8 23L8 24L9 24L9 23L10 23L10 25L11 25L11 23L12 23L12 24L13 24L13 25L12 25L12 26L13 26L13 25L15 25L15 24L16 24L16 23L19 23L19 24L20 24L20 22L21 22L21 18L20 18L20 17L22 17L22 18L23 18L23 19L22 19L22 20L23 20L23 21L24 21L24 20L25 20L25 17L24 17L24 16L25 16L25 15L24 15L24 14L23 14L23 17L22 17L22 13L23 13L23 11L24 11L24 10L23 10L23 9L20 9L20 10L19 10L19 11L20 11L20 13L19 13L19 14L20 14L20 15L21 15L21 16L20 16L20 17L17 17L17 16L16 16L16 15L17 15L17 14L18 14L18 12L17 12L17 11L16 11L16 12L15 12L15 10L18 10L18 9L19 9L19 8L18 8L18 7L17 7L17 6L16 6L16 5L17 5L17 4ZM23 4L23 6L22 6L22 7L23 7L23 6L24 6L24 7L25 7L25 6L24 6L24 4ZM15 6L15 7L16 7L16 6ZM9 8L9 10L10 10L10 12L11 12L11 10L10 10L10 8ZM14 8L14 10L15 10L15 9L18 9L18 8ZM0 9L0 10L1 10L1 9ZM21 10L21 11L23 11L23 10ZM26 10L26 11L27 11L27 10ZM8 11L8 12L9 12L9 11ZM14 12L14 13L15 13L15 14L14 14L14 15L13 15L13 17L14 17L14 15L15 15L15 14L16 14L16 13L15 13L15 12ZM24 12L24 13L25 13L25 14L27 14L27 16L26 16L26 17L27 17L27 16L28 16L28 17L29 17L29 18L30 18L30 17L31 17L31 15L32 15L32 14L33 14L33 13L32 13L32 14L31 14L31 15L30 15L30 13L28 13L28 12L27 12L27 13L25 13L25 12ZM0 13L0 14L1 14L1 13ZM20 13L20 14L21 14L21 13ZM27 13L27 14L28 14L28 13ZM28 15L28 16L30 16L30 15ZM36 16L36 17L37 17L37 16ZM0 17L0 19L1 19L1 17ZM9 17L9 18L10 18L10 17ZM15 17L15 18L14 18L14 19L16 19L16 20L15 20L15 22L17 22L17 20L18 20L18 22L20 22L20 19L18 19L18 18L16 18L16 17ZM23 17L23 18L24 18L24 17ZM11 18L11 19L12 19L12 18ZM3 19L3 20L4 20L4 19ZM13 21L13 23L14 23L14 21ZM32 21L32 22L33 22L33 21ZM22 23L22 24L23 24L23 23ZM6 25L6 26L5 26L5 28L7 28L7 27L6 27L6 26L7 26L7 25ZM16 25L16 26L18 26L18 27L17 27L17 28L18 28L18 29L20 29L20 31L21 31L21 32L24 32L24 30L27 30L27 29L24 29L24 28L25 28L25 27L24 27L24 28L23 28L23 30L22 30L22 28L21 28L21 26L22 26L22 27L23 27L23 25L21 25L21 26L20 26L20 25ZM27 25L27 26L28 26L28 27L29 27L29 26L30 26L30 25ZM8 26L8 29L9 29L9 26ZM31 26L31 28L33 28L33 26ZM15 27L15 28L11 28L11 29L15 29L15 30L16 30L16 31L15 31L15 33L14 33L14 32L13 32L13 31L14 31L14 30L13 30L13 31L12 31L12 30L10 30L10 31L11 31L11 32L12 32L12 33L14 33L14 34L15 34L15 33L18 33L18 32L19 32L19 31L17 31L17 30L16 30L16 29L15 29L15 28L16 28L16 27ZM19 27L19 28L20 28L20 29L21 29L21 28L20 28L20 27ZM0 28L0 29L2 29L2 28ZM29 29L29 32L32 32L32 29ZM21 30L21 31L22 31L22 30ZM30 30L30 31L31 31L31 30ZM16 31L16 32L17 32L17 31ZM33 31L33 32L34 32L34 31ZM36 31L36 33L37 33L37 31ZM29 33L29 34L30 34L30 33ZM32 33L32 35L33 35L33 34L34 34L34 33ZM26 36L26 37L27 37L27 36ZM0 0L0 7L7 7L7 0ZM1 1L1 6L6 6L6 1ZM2 2L2 5L5 5L5 2ZM30 0L30 7L37 7L37 0ZM31 1L31 6L36 6L36 1ZM32 2L32 5L35 5L35 2ZM0 30L0 37L7 37L7 30ZM1 31L1 36L6 36L6 31ZM2 32L2 35L5 35L5 32Z" fill="#000000"/></g></g></svg>
