<?xml version="1.0" encoding="UTF-8"?>
<svg xmlns="http://www.w3.org/2000/svg" version="1.1" width="300" height="300" viewBox="0 0 300 300"><rect x="0" y="0" width="300" height="300" fill="#ffffff"/><g transform="scale(7.692)"><g transform="translate(1,1)"><path fill-rule="evenodd" d="M9 0L9 1L8 1L8 7L9 7L9 8L5 8L5 9L7 9L7 10L6 10L6 11L8 11L8 12L6 12L6 13L5 13L5 10L4 10L4 9L3 9L3 8L2 8L2 9L3 9L3 10L0 10L0 12L2 12L2 11L4 11L4 12L3 12L3 13L1 13L1 14L0 14L0 15L2 15L2 14L3 14L3 13L5 13L5 14L4 14L4 15L8 15L8 14L6 14L6 13L8 13L8 12L9 12L9 15L10 15L10 16L8 16L8 17L10 17L10 18L8 18L8 19L7 19L7 18L6 18L6 17L7 17L7 16L5 16L5 17L4 17L4 16L2 16L2 17L1 17L1 19L0 19L0 20L1 20L1 19L2 19L2 22L3 22L3 20L4 20L4 19L5 19L5 20L6 20L6 21L7 21L7 22L6 22L6 23L4 23L4 24L6 24L6 25L5 25L5 27L3 27L3 25L2 25L2 26L0 26L0 27L2 27L2 28L0 28L0 29L3 29L3 28L6 28L6 29L8 29L8 32L9 32L9 34L8 34L8 35L9 35L9 36L10 36L10 37L14 37L14 36L10 36L10 35L13 35L13 34L14 34L14 35L15 35L15 34L14 34L14 32L13 32L13 30L14 30L14 31L16 31L16 32L18 32L18 31L20 31L20 28L22 28L22 29L21 29L21 30L22 30L22 31L27 31L27 32L26 32L26 34L25 34L25 35L27 35L27 36L26 36L26 37L34 37L34 35L37 35L37 28L35 28L35 29L36 29L36 31L35 31L35 30L34 30L34 29L33 29L33 28L32 28L32 26L31 26L31 27L30 27L30 26L29 26L29 27L30 27L30 28L27 28L27 27L28 27L28 26L27 26L27 27L26 27L26 28L27 28L27 29L28 29L28 30L24 30L24 29L23 29L23 28L25 28L25 26L26 26L26 23L25 23L25 22L27 22L27 24L29 24L29 23L28 23L28 21L30 21L30 22L31 22L31 23L30 23L30 24L32 24L32 23L33 23L33 25L34 25L34 23L33 23L33 22L32 22L32 21L31 21L31 20L33 20L33 21L34 21L34 19L35 19L35 20L36 20L36 21L35 21L35 23L37 23L37 20L36 20L36 19L37 19L37 16L36 16L36 15L37 15L37 13L36 13L36 15L35 15L35 13L34 13L34 14L32 14L32 11L31 11L31 10L29 10L29 9L30 9L30 8L29 8L29 5L28 5L28 7L27 7L27 6L26 6L26 8L25 8L25 9L24 9L24 7L25 7L25 5L27 5L27 4L28 4L28 3L29 3L29 2L26 2L26 0L20 0L20 1L19 1L19 0L16 0L16 1L15 1L15 2L14 2L14 1L13 1L13 2L12 2L12 0ZM28 0L28 1L29 1L29 0ZM9 1L9 2L11 2L11 1ZM16 1L16 2L17 2L17 1ZM18 1L18 3L17 3L17 4L16 4L16 3L15 3L15 4L16 4L16 6L15 6L15 5L14 5L14 6L13 6L13 7L12 7L12 6L11 6L11 7L10 7L10 5L13 5L13 3L9 3L9 7L10 7L10 8L9 8L9 9L10 9L10 10L9 10L9 11L12 11L12 13L11 13L11 12L10 12L10 13L11 13L11 14L12 14L12 13L13 13L13 16L10 16L10 17L11 17L11 19L10 19L10 20L11 20L11 21L10 21L10 22L13 22L13 23L15 23L15 24L14 24L14 25L15 25L15 27L12 27L12 26L13 26L13 24L12 24L12 25L11 25L11 23L10 23L10 25L9 25L9 24L8 24L8 23L9 23L9 19L8 19L8 20L7 20L7 19L6 19L6 20L7 20L7 21L8 21L8 23L6 23L6 24L7 24L7 25L6 25L6 26L7 26L7 27L6 27L6 28L7 28L7 27L8 27L8 29L9 29L9 31L10 31L10 32L12 32L12 34L13 34L13 32L12 32L12 31L10 31L10 29L11 29L11 30L12 30L12 28L15 28L15 29L16 29L16 28L17 28L17 24L16 24L16 23L15 23L15 22L17 22L17 21L19 21L19 22L18 22L18 27L19 27L19 28L20 28L20 27L22 27L22 26L20 26L20 25L22 25L22 24L23 24L23 27L24 27L24 24L23 24L23 23L24 23L24 21L26 21L26 20L27 20L27 21L28 21L28 20L30 20L30 19L33 19L33 17L35 17L35 19L36 19L36 17L35 17L35 15L34 15L34 16L33 16L33 15L32 15L32 14L31 14L31 17L32 17L32 18L29 18L29 17L30 17L30 16L29 16L29 15L25 15L25 16L24 16L24 14L28 14L28 12L27 12L27 11L28 11L28 8L27 8L27 10L26 10L26 11L25 11L25 10L23 10L23 8L22 8L22 10L21 10L21 7L22 7L22 6L21 6L21 4L23 4L23 5L25 5L25 4L26 4L26 3L24 3L24 4L23 4L23 3L22 3L22 2L23 2L23 1L22 1L22 2L21 2L21 1L20 1L20 2L21 2L21 4L20 4L20 3L19 3L19 1ZM24 1L24 2L25 2L25 1ZM18 3L18 4L17 4L17 5L19 5L19 6L18 6L18 7L19 7L19 6L20 6L20 7L21 7L21 6L20 6L20 4L19 4L19 3ZM14 6L14 7L13 7L13 9L14 9L14 7L15 7L15 6ZM16 6L16 7L17 7L17 6ZM23 6L23 7L24 7L24 6ZM11 7L11 8L10 8L10 9L12 9L12 7ZM15 8L15 9L16 9L16 11L14 11L14 10L12 10L12 11L13 11L13 13L14 13L14 12L15 12L15 13L16 13L16 11L17 11L17 10L20 10L20 9L19 9L19 8L17 8L17 9L16 9L16 8ZM31 8L31 9L35 9L35 10L33 10L33 11L35 11L35 12L37 12L37 9L36 9L36 8ZM35 10L35 11L36 11L36 10ZM18 11L18 14L17 14L17 15L16 15L16 14L14 14L14 17L15 17L15 16L17 16L17 17L16 17L16 18L19 18L19 15L20 15L20 14L21 14L21 15L22 15L22 18L21 18L21 16L20 16L20 19L19 19L19 21L21 21L21 22L23 22L23 21L21 21L21 20L22 20L22 19L24 19L24 20L25 20L25 19L24 19L24 18L23 18L23 17L24 17L24 16L23 16L23 15L22 15L22 13L21 13L21 11L20 11L20 14L19 14L19 11ZM23 11L23 14L24 14L24 13L25 13L25 11ZM29 11L29 12L31 12L31 11ZM26 16L26 17L25 17L25 18L27 18L27 20L28 20L28 19L29 19L29 18L28 18L28 17L27 17L27 16ZM3 17L3 18L2 18L2 19L3 19L3 18L4 18L4 17ZM12 17L12 18L13 18L13 17ZM12 19L12 21L13 21L13 20L14 20L14 22L15 22L15 21L17 21L17 20L18 20L18 19L16 19L16 20L14 20L14 19ZM0 21L0 22L1 22L1 21ZM19 22L19 23L20 23L20 22ZM1 23L1 24L0 24L0 25L1 25L1 24L2 24L2 23ZM15 24L15 25L16 25L16 24ZM19 24L19 25L20 25L20 24ZM35 24L35 25L36 25L36 26L34 26L34 27L37 27L37 24ZM8 26L8 27L9 27L9 28L10 28L10 27L11 27L11 28L12 28L12 27L11 27L11 26ZM15 27L15 28L16 28L16 27ZM18 29L18 30L16 30L16 31L18 31L18 30L19 30L19 29ZM22 29L22 30L23 30L23 29ZM29 29L29 32L32 32L32 29ZM30 30L30 31L31 31L31 30ZM34 31L34 32L33 32L33 34L34 34L34 33L35 33L35 34L36 34L36 33L35 33L35 31ZM21 32L21 33L24 33L24 32ZM19 33L19 37L21 37L21 36L22 36L22 37L24 37L24 36L23 36L23 35L24 35L24 34L20 34L20 33ZM29 33L29 34L27 34L27 35L29 35L29 34L30 34L30 36L31 36L31 35L32 35L32 33ZM16 35L16 36L17 36L17 37L18 37L18 36L17 36L17 35ZM20 35L20 36L21 36L21 35ZM36 36L36 37L37 37L37 36ZM0 0L0 7L7 7L7 0ZM1 1L1 6L6 6L6 1ZM2 2L2 5L5 5L5 2ZM30 0L30 7L37 7L37 0ZM31 1L31 6L36 6L36 1ZM32 2L32 5L35 5L35 2ZM0 30L0 37L7 37L7 30ZM1 31L1 36L6 36L6 31ZM2 32L2 35L5 35L5 32Z" fill="#000000"/></g></g></svg>
