<?xml version="1.0" encoding="UTF-8"?>
<svg xmlns="http://www.w3.org/2000/svg" version="1.1" width="300" height="300" viewBox="0 0 300 300"><rect x="0" y="0" width="300" height="300" fill="#ffffff"/><g transform="scale(7.692)"><g transform="translate(1,1)"><path fill-rule="evenodd" d="M9 0L9 1L8 1L8 7L9 7L9 8L5 8L5 9L7 9L7 10L6 10L6 11L8 11L8 12L6 12L6 13L5 13L5 10L4 10L4 9L3 9L3 8L2 8L2 9L1 9L1 10L0 10L0 12L3 12L3 13L1 13L1 14L0 14L0 15L2 15L2 14L3 14L3 13L4 13L4 16L2 16L2 17L1 17L1 19L0 19L0 20L1 20L1 19L2 19L2 22L0 22L0 25L1 25L1 24L2 24L2 22L3 22L3 20L4 20L4 19L5 19L5 20L6 20L6 21L7 21L7 22L6 22L6 23L4 23L4 24L3 24L3 26L4 26L4 24L6 24L6 25L5 25L5 27L2 27L2 26L0 26L0 27L2 27L2 28L0 28L0 29L2 29L2 28L6 28L6 29L8 29L8 32L10 32L10 33L9 33L9 34L8 34L8 35L9 35L9 36L10 36L10 37L11 37L11 36L10 36L10 35L11 35L11 34L10 34L10 33L12 33L12 34L14 34L14 35L15 35L15 34L14 34L14 32L13 32L13 30L14 30L14 31L16 31L16 32L18 32L18 33L19 33L19 34L20 34L20 33L19 33L19 32L18 32L18 31L20 31L20 28L22 28L22 29L21 29L21 30L22 30L22 31L27 31L27 32L26 32L26 34L25 34L25 35L27 35L27 36L26 36L26 37L34 37L34 35L37 35L37 28L35 28L35 29L36 29L36 31L35 31L35 30L34 30L34 29L33 29L33 28L32 28L32 26L31 26L31 27L30 27L30 26L29 26L29 27L30 27L30 28L27 28L27 27L28 27L28 26L27 26L27 27L26 27L26 28L27 28L27 29L28 29L28 30L24 30L24 29L23 29L23 28L25 28L25 26L26 26L26 23L25 23L25 22L27 22L27 24L29 24L29 23L28 23L28 21L30 21L30 22L31 22L31 23L30 23L30 24L32 24L32 23L33 23L33 25L34 25L34 23L33 23L33 22L32 22L32 21L31 21L31 20L33 20L33 21L34 21L34 19L35 19L35 20L36 20L36 21L35 21L35 23L37 23L37 20L36 20L36 19L37 19L37 16L36 16L36 15L37 15L37 13L36 13L36 15L35 15L35 13L34 13L34 14L32 14L32 12L33 12L33 11L35 11L35 12L37 12L37 9L36 9L36 8L31 8L31 9L35 9L35 10L32 10L32 12L29 12L29 11L31 11L31 10L29 10L29 9L30 9L30 8L29 8L29 5L28 5L28 7L27 7L27 6L26 6L26 8L25 8L25 11L26 11L26 10L27 10L27 8L28 8L28 11L27 11L27 12L28 12L28 14L24 14L24 13L25 13L25 12L24 12L24 7L25 7L25 5L27 5L27 4L28 4L28 3L29 3L29 2L26 2L26 0L21 0L21 2L22 2L22 3L23 3L23 4L22 4L22 5L21 5L21 6L20 6L20 4L21 4L21 3L20 3L20 0L16 0L16 1L15 1L15 2L14 2L14 1L12 1L12 0ZM28 0L28 1L29 1L29 0ZM9 1L9 2L11 2L11 3L9 3L9 7L10 7L10 8L9 8L9 9L10 9L10 10L9 10L9 11L12 11L12 13L11 13L11 12L10 12L10 13L11 13L11 14L9 14L9 12L8 12L8 13L6 13L6 14L8 14L8 15L6 15L6 16L4 16L4 17L3 17L3 18L2 18L2 19L3 19L3 18L4 18L4 17L6 17L6 18L7 18L7 19L6 19L6 20L7 20L7 19L8 19L8 23L6 23L6 24L7 24L7 25L6 25L6 26L7 26L7 27L6 27L6 28L7 28L7 27L8 27L8 29L9 29L9 31L10 31L10 29L11 29L11 30L12 30L12 28L15 28L15 27L12 27L12 26L13 26L13 25L14 25L14 26L15 26L15 25L14 25L14 24L16 24L16 23L14 23L14 22L13 22L13 21L14 21L14 20L16 20L16 19L18 19L18 20L17 20L17 21L15 21L15 22L17 22L17 21L19 21L19 22L18 22L18 27L19 27L19 28L20 28L20 27L22 27L22 26L23 26L23 27L24 27L24 24L22 24L22 26L20 26L20 25L21 25L21 22L22 22L22 21L23 21L23 23L24 23L24 21L26 21L26 20L27 20L27 21L28 21L28 20L30 20L30 19L33 19L33 17L35 17L35 19L36 19L36 17L35 17L35 15L34 15L34 16L33 16L33 15L32 15L32 14L31 14L31 17L32 17L32 18L29 18L29 17L30 17L30 16L29 16L29 15L25 15L25 16L24 16L24 14L23 14L23 10L21 10L21 9L23 9L23 7L24 7L24 6L23 6L23 5L25 5L25 4L26 4L26 3L24 3L24 4L23 4L23 5L22 5L22 6L21 6L21 7L20 7L20 6L19 6L19 5L17 5L17 4L18 4L18 3L19 3L19 4L20 4L20 3L19 3L19 1L18 1L18 3L17 3L17 4L16 4L16 3L15 3L15 4L16 4L16 6L15 6L15 7L14 7L14 5L13 5L13 3L12 3L12 1ZM16 1L16 2L17 2L17 1ZM22 1L22 2L23 2L23 1ZM24 1L24 2L25 2L25 1ZM11 3L11 4L12 4L12 3ZM10 5L10 7L11 7L11 8L10 8L10 9L12 9L12 7L13 7L13 5ZM11 6L11 7L12 7L12 6ZM16 6L16 7L17 7L17 6ZM18 6L18 7L19 7L19 6ZM22 6L22 7L21 7L21 8L22 8L22 7L23 7L23 6ZM14 8L14 9L16 9L16 10L20 10L20 9L19 9L19 8L17 8L17 9L16 9L16 8ZM2 10L2 11L3 11L3 12L4 12L4 11L3 11L3 10ZM12 10L12 11L13 11L13 13L12 13L12 14L11 14L11 16L8 16L8 17L7 17L7 16L6 16L6 17L7 17L7 18L8 18L8 19L9 19L9 23L8 23L8 24L9 24L9 25L10 25L10 23L11 23L11 25L12 25L12 24L13 24L13 22L10 22L10 21L13 21L13 20L14 20L14 19L12 19L12 20L10 20L10 19L11 19L11 16L12 16L12 18L13 18L13 13L14 13L14 12L15 12L15 11L14 11L14 10ZM35 10L35 11L36 11L36 10ZM18 11L18 15L16 15L16 14L14 14L14 17L15 17L15 16L17 16L17 17L16 17L16 18L18 18L18 17L19 17L19 18L20 18L20 17L21 17L21 16L20 16L20 17L19 17L19 15L20 15L20 14L21 14L21 15L22 15L22 18L21 18L21 20L20 20L20 19L19 19L19 20L20 20L20 21L21 21L21 20L22 20L22 19L24 19L24 20L25 20L25 19L24 19L24 18L23 18L23 17L24 17L24 16L23 16L23 15L22 15L22 13L21 13L21 11L20 11L20 14L19 14L19 11ZM26 16L26 17L25 17L25 18L27 18L27 20L28 20L28 19L29 19L29 18L28 18L28 17L27 17L27 16ZM9 17L9 18L10 18L10 17ZM19 22L19 23L20 23L20 22ZM19 24L19 25L20 25L20 24ZM35 24L35 25L36 25L36 26L34 26L34 27L37 27L37 24ZM16 25L16 26L17 26L17 25ZM8 26L8 27L9 27L9 28L10 28L10 27L11 27L11 28L12 28L12 27L11 27L11 26ZM18 29L18 30L16 30L16 31L18 31L18 30L19 30L19 29ZM22 29L22 30L23 30L23 29ZM29 29L29 32L32 32L32 29ZM30 30L30 31L31 31L31 30ZM11 31L11 32L12 32L12 31ZM34 31L34 32L33 32L33 34L34 34L34 33L35 33L35 34L36 34L36 33L35 33L35 31ZM21 32L21 33L24 33L24 32ZM29 33L29 34L27 34L27 35L29 35L29 34L30 34L30 36L31 36L31 35L32 35L32 33ZM21 34L21 35L20 35L20 36L19 36L19 37L21 37L21 36L22 36L22 37L24 37L24 36L23 36L23 35L24 35L24 34ZM16 35L16 36L17 36L17 37L18 37L18 36L17 36L17 35ZM12 36L12 37L14 37L14 36ZM36 36L36 37L37 37L37 36ZM0 0L0 7L7 7L7 0ZM1 1L1 6L6 6L6 1ZM2 2L2 5L5 5L5 2ZM30 0L30 7L37 7L37 0ZM31 1L31 6L36 6L36 1ZM32 2L32 5L35 5L35 2ZM0 30L0 37L7 37L7 30ZM1 31L1 36L6 36L6 31ZM2 32L2 35L5 35L5 32Z" fill="#000000"/></g></g></svg>
