<?xml version="1.0" encoding="UTF-8"?>
<svg xmlns="http://www.w3.org/2000/svg" version="1.1" width="300" height="300" viewBox="0 0 300 300"><rect x="0" y="0" width="300" height="300" fill="#ffffff"/><g transform="scale(7.692)"><g transform="translate(1,1)"><path fill-rule="evenodd" d="M9 0L9 1L11 1L11 0ZM13 0L13 1L12 1L12 2L14 2L14 1L15 1L15 2L16 2L16 3L15 3L15 4L14 4L14 3L12 3L12 4L10 4L10 3L11 3L11 2L10 2L10 3L9 3L9 4L8 4L8 5L11 5L11 6L10 6L10 7L9 7L9 6L8 6L8 8L6 8L6 9L7 9L7 10L6 10L6 11L7 11L7 12L4 12L4 11L5 11L5 9L4 9L4 8L2 8L2 9L0 9L0 10L2 10L2 11L3 11L3 12L1 12L1 11L0 11L0 12L1 12L1 15L0 15L0 18L1 18L1 17L2 17L2 19L1 19L1 20L0 20L0 22L3 22L3 23L5 23L5 24L2 24L2 23L0 23L0 25L1 25L1 24L2 24L2 26L1 26L1 27L0 27L0 28L1 28L1 27L3 27L3 28L2 28L2 29L3 29L3 28L4 28L4 29L7 29L7 28L8 28L8 27L7 27L7 26L6 26L6 27L5 27L5 25L7 25L7 24L6 24L6 23L7 23L7 22L6 22L6 23L5 23L5 22L4 22L4 18L3 18L3 16L4 16L4 17L5 17L5 18L6 18L6 19L7 19L7 20L5 20L5 21L7 21L7 20L10 20L10 21L12 21L12 22L11 22L11 23L9 23L9 24L8 24L8 26L10 26L10 27L9 27L9 28L10 28L10 29L11 29L11 28L13 28L13 27L14 27L14 25L16 25L16 24L15 24L15 22L16 22L16 21L17 21L17 24L18 24L18 23L19 23L19 25L21 25L21 26L20 26L20 28L21 28L21 30L20 30L20 34L19 34L19 33L18 33L18 35L19 35L19 36L20 36L20 37L22 37L22 36L20 36L20 34L22 34L22 33L23 33L23 32L24 32L24 34L23 34L23 35L25 35L25 37L26 37L26 35L27 35L27 37L28 37L28 35L29 35L29 36L30 36L30 37L31 37L31 36L30 36L30 35L32 35L32 36L33 36L33 37L37 37L37 36L35 36L35 35L36 35L36 34L35 34L35 33L34 33L34 30L35 30L35 31L36 31L36 32L37 32L37 29L36 29L36 28L37 28L37 27L36 27L36 28L34 28L34 27L33 27L33 28L28 28L28 27L27 27L27 24L28 24L28 25L29 25L29 26L30 26L30 27L32 27L32 26L33 26L33 25L35 25L35 26L37 26L37 24L36 24L36 25L35 25L35 23L36 23L36 20L35 20L35 22L34 22L34 21L33 21L33 20L34 20L34 17L36 17L36 18L35 18L35 19L37 19L37 17L36 17L36 16L37 16L37 15L36 15L36 14L37 14L37 13L36 13L36 12L37 12L37 11L34 11L34 15L35 15L35 16L33 16L33 18L31 18L31 17L32 17L32 16L31 16L31 17L29 17L29 16L30 16L30 15L29 15L29 13L28 13L28 15L27 15L27 16L25 16L25 15L26 15L26 14L27 14L27 12L28 12L28 10L29 10L29 11L30 11L30 10L31 10L31 12L30 12L30 14L33 14L33 12L32 12L32 10L31 10L31 8L29 8L29 6L28 6L28 7L27 7L27 6L26 6L26 5L29 5L29 4L27 4L27 3L26 3L26 2L25 2L25 3L21 3L21 4L19 4L19 6L18 6L18 7L17 7L17 5L18 5L18 4L17 4L17 2L16 2L16 1L15 1L15 0ZM18 0L18 1L19 1L19 0ZM21 0L21 1L20 1L20 2L18 2L18 3L20 3L20 2L21 2L21 1L22 1L22 0ZM24 0L24 1L25 1L25 0ZM26 0L26 1L27 1L27 0ZM28 2L28 3L29 3L29 2ZM25 3L25 5L26 5L26 3ZM15 4L15 5L16 5L16 4ZM22 4L22 5L20 5L20 6L19 6L19 7L18 7L18 8L17 8L17 7L16 7L16 6L15 6L15 7L14 7L14 6L13 6L13 7L12 7L12 6L11 6L11 7L10 7L10 8L13 8L13 7L14 7L14 9L13 9L13 10L12 10L12 9L10 9L10 10L11 10L11 11L9 11L9 12L11 12L11 13L9 13L9 15L6 15L6 16L5 16L5 14L3 14L3 13L2 13L2 14L3 14L3 15L4 15L4 16L5 16L5 17L6 17L6 18L7 18L7 19L9 19L9 18L10 18L10 20L12 20L12 19L13 19L13 18L15 18L15 19L14 19L14 20L13 20L13 22L14 22L14 21L16 21L16 18L17 18L17 17L18 17L18 19L17 19L17 20L19 20L19 18L20 18L20 19L21 19L21 20L20 20L20 21L18 21L18 22L20 22L20 23L21 23L21 24L22 24L22 25L23 25L23 24L22 24L22 23L21 23L21 22L23 22L23 23L25 23L25 25L26 25L26 24L27 24L27 23L28 23L28 24L30 24L30 26L32 26L32 25L31 25L31 24L33 24L33 23L32 23L32 22L33 22L33 21L32 21L32 20L33 20L33 19L32 19L32 20L29 20L29 18L28 18L28 20L29 20L29 21L27 21L27 20L26 20L26 18L25 18L25 17L23 17L23 16L22 16L22 17L21 17L21 15L24 15L24 13L25 13L25 14L26 14L26 13L25 13L25 12L24 12L24 10L23 10L23 9L25 9L25 8L26 8L26 9L27 9L27 7L26 7L26 6L25 6L25 7L24 7L24 6L23 6L23 7L22 7L22 5L24 5L24 4ZM20 6L20 7L19 7L19 8L20 8L20 9L19 9L19 10L18 10L18 9L17 9L17 8L16 8L16 10L15 10L15 11L14 11L14 14L15 14L15 15L14 15L14 16L12 16L12 15L11 15L11 16L12 16L12 18L11 18L11 17L10 17L10 15L9 15L9 16L6 16L6 17L10 17L10 18L11 18L11 19L12 19L12 18L13 18L13 17L17 17L17 16L18 16L18 15L21 15L21 14L22 14L22 13L24 13L24 12L23 12L23 10L21 10L21 11L20 11L20 9L21 9L21 8L20 8L20 7L21 7L21 6ZM32 8L32 9L33 9L33 10L34 10L34 9L33 9L33 8ZM2 9L2 10L3 10L3 11L4 11L4 10L3 10L3 9ZM29 9L29 10L30 10L30 9ZM35 9L35 10L36 10L36 9ZM7 10L7 11L8 11L8 10ZM17 10L17 12L16 12L16 11L15 11L15 12L16 12L16 14L17 14L17 15L15 15L15 16L17 16L17 15L18 15L18 13L19 13L19 14L21 14L21 13L22 13L22 11L21 11L21 12L20 12L20 13L19 13L19 11L18 11L18 10ZM25 10L25 11L26 11L26 12L27 12L27 10ZM11 11L11 12L12 12L12 11ZM7 12L7 13L6 13L6 14L8 14L8 12ZM31 12L31 13L32 13L32 12ZM11 13L11 14L13 14L13 13ZM1 15L1 16L2 16L2 15ZM28 15L28 16L29 16L29 15ZM19 16L19 17L20 17L20 16ZM21 18L21 19L22 19L22 18ZM30 18L30 19L31 19L31 18ZM2 19L2 20L1 20L1 21L3 21L3 19ZM23 19L23 21L25 21L25 23L26 23L26 22L27 22L27 21L25 21L25 19ZM8 21L8 22L9 22L9 21ZM20 21L20 22L21 22L21 21ZM31 21L31 22L30 22L30 24L31 24L31 22L32 22L32 21ZM28 22L28 23L29 23L29 22ZM11 23L11 24L12 24L12 27L13 27L13 24L14 24L14 23L13 23L13 24L12 24L12 23ZM3 25L3 27L4 27L4 25ZM10 25L10 26L11 26L11 25ZM17 25L17 26L16 26L16 27L15 27L15 28L14 28L14 30L13 30L13 29L12 29L12 31L11 31L11 32L12 32L12 33L11 33L11 35L9 35L9 33L10 33L10 31L9 31L9 29L8 29L8 31L9 31L9 33L8 33L8 35L9 35L9 36L11 36L11 37L12 37L12 36L13 36L13 37L15 37L15 35L17 35L17 34L16 34L16 31L17 31L17 32L19 32L19 31L17 31L17 30L18 30L18 29L16 29L16 27L17 27L17 28L19 28L19 27L17 27L17 26L18 26L18 25ZM24 26L24 28L22 28L22 27L21 27L21 28L22 28L22 29L24 29L24 30L21 30L21 33L22 33L22 32L23 32L23 31L24 31L24 32L25 32L25 35L26 35L26 33L27 33L27 34L28 34L28 32L26 32L26 31L27 31L27 30L28 30L28 28L26 28L26 26ZM6 27L6 28L7 28L7 27ZM10 27L10 28L11 28L11 27ZM24 28L24 29L25 29L25 30L24 30L24 31L25 31L25 30L26 30L26 28ZM15 29L15 30L14 30L14 31L13 31L13 32L14 32L14 31L15 31L15 30L16 30L16 29ZM29 29L29 32L32 32L32 29ZM35 29L35 30L36 30L36 29ZM30 30L30 31L31 31L31 30ZM14 33L14 34L12 34L12 35L13 35L13 36L14 36L14 35L15 35L15 33ZM29 33L29 34L30 34L30 33ZM31 33L31 34L32 34L32 33ZM33 34L33 35L35 35L35 34ZM16 36L16 37L17 37L17 36ZM0 0L0 7L7 7L7 0ZM1 1L1 6L6 6L6 1ZM2 2L2 5L5 5L5 2ZM30 0L30 7L37 7L37 0ZM31 1L31 6L36 6L36 1ZM32 2L32 5L35 5L35 2ZM0 30L0 37L7 37L7 30ZM1 31L1 36L6 36L6 31ZM2 32L2 35L5 35L5 32Z" fill="#000000"/></g></g></svg>
