<?xml version="1.0" encoding="UTF-8"?>
<svg xmlns="http://www.w3.org/2000/svg" version="1.1" width="300" height="300" viewBox="0 0 300 300"><rect x="0" y="0" width="300" height="300" fill="#ffffff"/><g transform="scale(7.692)"><g transform="translate(1,1)"><path fill-rule="evenodd" d="M9 0L9 1L8 1L8 7L9 7L9 8L5 8L5 9L4 9L4 10L5 10L5 9L7 9L7 10L6 10L6 11L8 11L8 12L6 12L6 13L8 13L8 12L9 12L9 13L10 13L10 12L11 12L11 13L12 13L12 14L10 14L10 15L11 15L11 16L10 16L10 18L9 18L9 19L8 19L8 18L5 18L5 16L6 16L6 17L7 17L7 16L6 16L6 15L8 15L8 14L6 14L6 15L5 15L5 14L4 14L4 12L5 12L5 11L4 11L4 12L3 12L3 13L1 13L1 14L0 14L0 15L2 15L2 17L0 17L0 18L1 18L1 20L2 20L2 21L0 21L0 24L1 24L1 25L2 25L2 24L1 24L1 22L3 22L3 20L4 20L4 19L5 19L5 20L6 20L6 21L7 21L7 20L6 20L6 19L8 19L8 22L6 22L6 23L4 23L4 24L6 24L6 25L3 25L3 26L0 26L0 27L2 27L2 28L0 28L0 29L2 29L2 28L3 28L3 29L4 29L4 28L5 28L5 29L8 29L8 32L9 32L9 34L8 34L8 35L9 35L9 36L10 36L10 37L11 37L11 36L12 36L12 35L13 35L13 36L15 36L15 35L14 35L14 32L13 32L13 30L14 30L14 31L15 31L15 32L16 32L16 30L15 30L15 29L17 29L17 30L18 30L18 31L17 31L17 33L18 33L18 34L19 34L19 35L20 35L20 36L21 36L21 37L24 37L24 36L23 36L23 35L24 35L24 34L21 34L21 33L24 33L24 32L21 32L21 33L19 33L19 31L20 31L20 28L22 28L22 29L21 29L21 30L22 30L22 31L27 31L27 32L26 32L26 34L25 34L25 35L27 35L27 36L26 36L26 37L34 37L34 35L37 35L37 28L35 28L35 29L36 29L36 31L35 31L35 30L34 30L34 29L33 29L33 28L31 28L31 27L34 27L34 26L31 26L31 27L30 27L30 26L29 26L29 27L30 27L30 28L27 28L27 27L28 27L28 26L27 26L27 27L26 27L26 28L27 28L27 29L28 29L28 30L24 30L24 29L23 29L23 28L25 28L25 26L26 26L26 23L25 23L25 22L27 22L27 24L29 24L29 23L28 23L28 21L30 21L30 22L31 22L31 23L30 23L30 24L32 24L32 23L33 23L33 25L34 25L34 23L33 23L33 22L32 22L32 21L31 21L31 20L33 20L33 21L34 21L34 19L35 19L35 20L36 20L36 21L35 21L35 23L37 23L37 20L36 20L36 19L37 19L37 16L36 16L36 15L37 15L37 13L36 13L36 15L35 15L35 13L34 13L34 14L32 14L32 12L29 12L29 11L32 11L32 10L29 10L29 9L30 9L30 8L29 8L29 5L28 5L28 7L27 7L27 6L26 6L26 8L25 8L25 9L24 9L24 7L25 7L25 5L27 5L27 4L28 4L28 3L29 3L29 2L27 2L27 1L26 1L26 0L21 0L21 1L23 1L23 3L22 3L22 2L20 2L20 0L19 0L19 3L18 3L18 0L16 0L16 1L13 1L13 0ZM28 0L28 1L29 1L29 0ZM9 1L9 2L11 2L11 3L9 3L9 7L10 7L10 8L9 8L9 12L10 12L10 11L12 11L12 13L13 13L13 16L11 16L11 18L13 18L13 19L10 19L10 20L12 20L12 21L10 21L10 22L12 22L12 23L10 23L10 26L11 26L11 27L8 27L8 26L9 26L9 22L8 22L8 25L6 25L6 26L7 26L7 27L6 27L6 28L7 28L7 27L8 27L8 29L9 29L9 32L10 32L10 31L11 31L11 32L12 32L12 33L13 33L13 32L12 32L12 31L11 31L11 30L12 30L12 28L15 28L15 27L12 27L12 26L13 26L13 24L14 24L14 25L15 25L15 24L16 24L16 27L17 27L17 26L19 26L19 27L18 27L18 28L17 28L17 29L18 29L18 30L19 30L19 29L18 29L18 28L20 28L20 27L22 27L22 26L23 26L23 27L24 27L24 24L22 24L22 23L21 23L21 22L23 22L23 23L24 23L24 21L26 21L26 20L27 20L27 21L28 21L28 20L30 20L30 19L33 19L33 17L35 17L35 19L36 19L36 17L35 17L35 15L34 15L34 16L33 16L33 15L32 15L32 14L31 14L31 17L32 17L32 18L29 18L29 17L30 17L30 16L29 16L29 15L25 15L25 14L28 14L28 12L27 12L27 11L28 11L28 8L27 8L27 10L26 10L26 11L25 11L25 10L21 10L21 8L22 8L22 9L23 9L23 7L24 7L24 6L23 6L23 5L25 5L25 4L26 4L26 3L24 3L24 4L23 4L23 5L22 5L22 3L19 3L19 5L17 5L17 4L18 4L18 3L17 3L17 4L16 4L16 3L14 3L14 2L13 2L13 3L12 3L12 2L11 2L11 1ZM16 1L16 2L17 2L17 1ZM24 1L24 2L26 2L26 1ZM11 3L11 5L10 5L10 7L11 7L11 8L10 8L10 9L11 9L11 8L12 8L12 7L13 7L13 9L16 9L16 8L14 8L14 7L15 7L15 6L16 6L16 7L17 7L17 6L16 6L16 4L14 4L14 3L13 3L13 5L12 5L12 3ZM20 4L20 5L21 5L21 6L20 6L20 7L19 7L19 6L18 6L18 7L19 7L19 8L17 8L17 10L16 10L16 11L14 11L14 10L12 10L12 11L13 11L13 13L14 13L14 12L15 12L15 14L14 14L14 17L13 17L13 18L14 18L14 17L15 17L15 16L16 16L16 15L17 15L17 17L16 17L16 18L18 18L18 17L19 17L19 18L21 18L21 19L24 19L24 20L25 20L25 19L26 19L26 18L27 18L27 20L28 20L28 19L29 19L29 18L28 18L28 17L27 17L27 16L26 16L26 18L25 18L25 19L24 19L24 18L23 18L23 17L24 17L24 14L25 14L25 13L23 13L23 15L22 15L22 13L21 13L21 11L20 11L20 14L19 14L19 13L18 13L18 12L17 12L17 10L20 10L20 9L19 9L19 8L21 8L21 6L22 6L22 7L23 7L23 6L22 6L22 5L21 5L21 4ZM11 6L11 7L12 7L12 6ZM13 6L13 7L14 7L14 6ZM2 8L2 9L1 9L1 10L0 10L0 12L2 12L2 10L3 10L3 8ZM31 8L31 9L35 9L35 10L33 10L33 11L35 11L35 12L37 12L37 9L36 9L36 8ZM35 10L35 11L36 11L36 10ZM23 11L23 12L24 12L24 11ZM16 13L16 14L15 14L15 15L16 15L16 14L17 14L17 15L18 15L18 16L19 16L19 17L20 17L20 16L21 16L21 18L22 18L22 15L21 15L21 14L20 14L20 15L19 15L19 14L17 14L17 13ZM2 14L2 15L3 15L3 16L5 16L5 15L3 15L3 14ZM8 16L8 17L9 17L9 16ZM3 17L3 18L2 18L2 19L3 19L3 18L4 18L4 17ZM13 19L13 20L14 20L14 21L13 21L13 22L14 22L14 23L16 23L16 24L17 24L17 25L18 25L18 22L19 22L19 21L20 21L20 22L21 22L21 21L22 21L22 20L20 20L20 19L19 19L19 21L17 21L17 20L18 20L18 19L16 19L16 20L15 20L15 19ZM15 21L15 22L17 22L17 21ZM6 23L6 24L7 24L7 23ZM12 23L12 24L13 24L13 23ZM20 23L20 24L21 24L21 25L20 25L20 26L22 26L22 24L21 24L21 23ZM35 24L35 25L36 25L36 26L35 26L35 27L37 27L37 24ZM3 26L3 27L4 27L4 26ZM11 27L11 28L12 28L12 27ZM9 28L9 29L10 29L10 30L11 30L11 29L10 29L10 28ZM22 29L22 30L23 30L23 29ZM29 29L29 32L32 32L32 29ZM30 30L30 31L31 31L31 30ZM34 31L34 32L33 32L33 34L34 34L34 33L35 33L35 34L36 34L36 33L35 33L35 31ZM10 33L10 34L11 34L11 33ZM29 33L29 34L27 34L27 35L29 35L29 34L30 34L30 36L31 36L31 35L32 35L32 33ZM10 35L10 36L11 36L11 35ZM16 35L16 36L17 36L17 37L18 37L18 36L17 36L17 35ZM21 35L21 36L22 36L22 35ZM36 36L36 37L37 37L37 36ZM0 0L0 7L7 7L7 0ZM1 1L1 6L6 6L6 1ZM2 2L2 5L5 5L5 2ZM30 0L30 7L37 7L37 0ZM31 1L31 6L36 6L36 1ZM32 2L32 5L35 5L35 2ZM0 30L0 37L7 37L7 30ZM1 31L1 36L6 36L6 31ZM2 32L2 35L5 35L5 32Z" fill="#000000"/></g></g></svg>
