<?xml version="1.0" encoding="UTF-8"?>
<svg xmlns="http://www.w3.org/2000/svg" version="1.1" width="300" height="300" viewBox="0 0 300 300"><rect x="0" y="0" width="300" height="300" fill="#ffffff"/><g transform="scale(7.692)"><g transform="translate(1,1)"><path fill-rule="evenodd" d="M10 0L10 1L11 1L11 2L9 2L9 1L8 1L8 2L9 2L9 5L8 5L8 8L4 8L4 9L3 9L3 10L2 10L2 9L0 9L0 10L2 10L2 11L0 11L0 12L3 12L3 13L2 13L2 16L4 16L4 18L1 18L1 19L0 19L0 23L1 23L1 24L0 24L0 26L1 26L1 24L2 24L2 23L3 23L3 25L2 25L2 26L3 26L3 25L5 25L5 26L4 26L4 27L2 27L2 28L0 28L0 29L5 29L5 28L6 28L6 29L8 29L8 33L9 33L9 35L10 35L10 36L9 36L9 37L10 37L10 36L15 36L15 37L17 37L17 36L18 36L18 35L19 35L19 34L20 34L20 33L19 33L19 32L17 32L17 31L16 31L16 32L15 32L15 33L14 33L14 32L13 32L13 31L14 31L14 30L13 30L13 31L12 31L12 30L11 30L11 31L9 31L9 29L8 29L8 26L10 26L10 27L9 27L9 28L10 28L10 27L11 27L11 26L10 26L10 25L11 25L11 23L12 23L12 24L13 24L13 23L15 23L15 24L16 24L16 23L19 23L19 24L20 24L20 23L19 23L19 22L22 22L22 23L23 23L23 21L24 21L24 20L25 20L25 18L26 18L26 17L27 17L27 19L28 19L28 20L26 20L26 21L27 21L27 22L25 22L25 23L24 23L24 24L22 24L22 25L21 25L21 26L20 26L20 25L17 25L17 26L16 26L16 25L14 25L14 26L15 26L15 28L11 28L11 29L15 29L15 30L16 30L16 29L18 29L18 30L19 30L19 29L20 29L20 31L21 31L21 32L24 32L24 30L27 30L27 31L28 31L28 33L27 33L27 32L26 32L26 33L24 33L24 34L23 34L23 36L19 36L19 37L23 37L23 36L24 36L24 35L25 35L25 34L26 34L26 33L27 33L27 34L29 34L29 35L31 35L31 36L30 36L30 37L33 37L33 35L34 35L34 37L37 37L37 36L36 36L36 34L35 34L35 30L34 30L34 29L35 29L35 28L36 28L36 29L37 29L37 28L36 28L36 26L34 26L34 27L33 27L33 25L30 25L30 24L32 24L32 23L31 23L31 22L30 22L30 23L29 23L29 24L27 24L27 25L26 25L26 23L28 23L28 20L30 20L30 21L31 21L31 20L33 20L33 19L34 19L34 21L35 21L35 23L34 23L34 25L35 25L35 24L36 24L36 25L37 25L37 24L36 24L36 21L37 21L37 20L35 20L35 13L36 13L36 12L37 12L37 11L36 11L36 12L35 12L35 10L36 10L36 8L35 8L35 10L33 10L33 9L32 9L32 8L30 8L30 10L29 10L29 9L28 9L28 8L27 8L27 5L28 5L28 7L29 7L29 2L27 2L27 3L26 3L26 4L25 4L25 6L24 6L24 4L23 4L23 5L22 5L22 3L21 3L21 2L20 2L20 1L21 1L21 0L20 0L20 1L19 1L19 0L18 0L18 1L17 1L17 2L16 2L16 0L15 0L15 4L14 4L14 3L13 3L13 2L12 2L12 1L11 1L11 0ZM24 0L24 1L22 1L22 2L23 2L23 3L24 3L24 2L26 2L26 0ZM27 0L27 1L28 1L28 0ZM11 2L11 7L12 7L12 8L10 8L10 5L9 5L9 8L8 8L8 9L4 9L4 11L5 11L5 10L7 10L7 11L6 11L6 12L8 12L8 13L9 13L9 12L10 12L10 14L9 14L9 15L8 15L8 14L7 14L7 13L5 13L5 14L7 14L7 15L6 15L6 16L5 16L5 18L7 18L7 17L8 17L8 19L5 19L5 20L7 20L7 21L2 21L2 20L1 20L1 21L2 21L2 22L3 22L3 23L4 23L4 24L8 24L8 25L10 25L10 23L9 23L9 24L8 24L8 22L9 22L9 21L10 21L10 22L13 22L13 21L14 21L14 19L16 19L16 20L15 20L15 22L17 22L17 20L18 20L18 22L19 22L19 21L20 21L20 20L23 20L23 19L22 19L22 17L23 17L23 18L24 18L24 17L26 17L26 16L27 16L27 14L28 14L28 13L30 13L30 15L29 15L29 16L30 16L30 15L31 15L31 17L30 17L30 18L29 18L29 17L28 17L28 18L29 18L29 19L30 19L30 18L32 18L32 17L33 17L33 16L34 16L34 15L33 15L33 14L34 14L34 13L33 13L33 11L32 11L32 10L30 10L30 12L29 12L29 11L28 11L28 9L25 9L25 8L26 8L26 6L25 6L25 7L24 7L24 6L23 6L23 9L25 9L25 10L24 10L24 13L22 13L22 17L21 17L21 15L20 15L20 14L21 14L21 13L20 13L20 11L19 11L19 12L17 12L17 11L16 11L16 10L15 10L15 12L14 12L14 13L15 13L15 14L14 14L14 15L13 15L13 11L14 11L14 10L12 10L12 9L16 9L16 8L14 8L14 6L13 6L13 7L12 7L12 5L14 5L14 4L12 4L12 2ZM19 2L19 5L20 5L20 6L19 6L19 7L18 7L18 4L17 4L17 3L16 3L16 4L15 4L15 5L16 5L16 6L15 6L15 7L16 7L16 6L17 6L17 7L18 7L18 8L17 8L17 10L20 10L20 9L21 9L21 8L22 8L22 5L21 5L21 4L20 4L20 2ZM27 3L27 4L26 4L26 5L27 5L27 4L28 4L28 3ZM16 4L16 5L17 5L17 4ZM20 6L20 7L19 7L19 8L18 8L18 9L19 9L19 8L20 8L20 7L21 7L21 6ZM9 8L9 9L10 9L10 8ZM21 10L21 11L23 11L23 10ZM26 10L26 11L27 11L27 10ZM8 11L8 12L9 12L9 11ZM31 11L31 12L30 12L30 13L32 13L32 14L31 14L31 15L32 15L32 14L33 14L33 13L32 13L32 11ZM15 12L15 13L16 13L16 14L15 14L15 15L14 15L14 17L13 17L13 18L12 18L12 16L13 16L13 15L12 15L12 14L10 14L10 15L12 15L12 16L9 16L9 17L10 17L10 18L9 18L9 19L8 19L8 21L7 21L7 22L6 22L6 23L7 23L7 22L8 22L8 21L9 21L9 19L10 19L10 20L12 20L12 19L13 19L13 18L15 18L15 17L16 17L16 18L18 18L18 19L19 19L19 20L20 20L20 18L19 18L19 17L17 17L17 16L19 16L19 15L17 15L17 14L18 14L18 13L17 13L17 12ZM27 12L27 13L24 13L24 14L23 14L23 15L25 15L25 14L27 14L27 13L28 13L28 12ZM0 13L0 14L1 14L1 13ZM19 13L19 14L20 14L20 13ZM3 14L3 15L4 15L4 14ZM15 15L15 16L17 16L17 15ZM6 16L6 17L7 17L7 16ZM36 16L36 17L37 17L37 16ZM11 18L11 19L12 19L12 18ZM3 19L3 20L4 20L4 19ZM32 21L32 22L33 22L33 21ZM6 25L6 26L7 26L7 25ZM12 25L12 26L13 26L13 25ZM23 25L23 27L22 27L22 26L21 26L21 28L20 28L20 27L18 27L18 26L17 26L17 27L18 27L18 28L20 28L20 29L21 29L21 28L22 28L22 30L21 30L21 31L22 31L22 30L23 30L23 28L24 28L24 29L27 29L27 30L28 30L28 28L26 28L26 27L25 27L25 26L26 26L26 25ZM27 25L27 26L28 26L28 27L29 27L29 26L30 26L30 25ZM6 27L6 28L7 28L7 27ZM24 27L24 28L25 28L25 27ZM31 27L31 28L33 28L33 27ZM15 28L15 29L16 29L16 28ZM29 29L29 32L32 32L32 29ZM30 30L30 31L31 31L31 30ZM33 31L33 32L34 32L34 31ZM36 31L36 33L37 33L37 31ZM9 32L9 33L12 33L12 32ZM13 33L13 34L12 34L12 35L13 35L13 34L14 34L14 35L16 35L16 36L17 36L17 35L18 35L18 33L15 33L15 34L14 34L14 33ZM29 33L29 34L30 34L30 33ZM32 33L32 35L33 35L33 34L34 34L34 33ZM26 36L26 37L27 37L27 36ZM0 0L0 7L7 7L7 0ZM1 1L1 6L6 6L6 1ZM2 2L2 5L5 5L5 2ZM30 0L30 7L37 7L37 0ZM31 1L31 6L36 6L36 1ZM32 2L32 5L35 5L35 2ZM0 30L0 37L7 37L7 30ZM1 31L1 36L6 36L6 31ZM2 32L2 35L5 35L5 32Z" fill="#000000"/></g></g></svg>
