<?xml version="1.0" encoding="UTF-8"?>
<svg xmlns="http://www.w3.org/2000/svg" version="1.1" width="300" height="300" viewBox="0 0 300 300"><rect x="0" y="0" width="300" height="300" fill="#ffffff"/><g transform="scale(7.692)"><g transform="translate(1,1)"><path fill-rule="evenodd" d="M8 0L8 1L9 1L9 2L10 2L10 3L8 3L8 4L9 4L9 6L8 6L8 7L9 7L9 6L10 6L10 7L11 7L11 8L8 8L8 11L7 11L7 10L6 10L6 9L7 9L7 8L4 8L4 9L5 9L5 10L6 10L6 11L5 11L5 13L4 13L4 12L3 12L3 13L4 13L4 14L3 14L3 15L1 15L1 14L0 14L0 15L1 15L1 17L0 17L0 24L1 24L1 26L0 26L0 27L1 27L1 28L0 28L0 29L1 29L1 28L2 28L2 29L4 29L4 28L2 28L2 27L1 27L1 26L2 26L2 22L3 22L3 24L5 24L5 25L7 25L7 26L6 26L6 27L5 27L5 26L4 26L4 25L3 25L3 27L5 27L5 28L6 28L6 29L7 29L7 28L6 28L6 27L9 27L9 28L10 28L10 29L8 29L8 30L10 30L10 29L11 29L11 30L12 30L12 31L10 31L10 32L9 32L9 31L8 31L8 33L10 33L10 32L12 32L12 33L11 33L11 34L10 34L10 35L11 35L11 36L9 36L9 37L12 37L12 35L14 35L14 36L13 36L13 37L14 37L14 36L15 36L15 37L16 37L16 36L18 36L18 33L17 33L17 35L16 35L16 32L15 32L15 34L13 34L13 32L14 32L14 31L16 31L16 30L15 30L15 28L14 28L14 27L15 27L15 25L14 25L14 23L15 23L15 24L16 24L16 25L17 25L17 22L16 22L16 21L18 21L18 22L20 22L20 23L21 23L21 24L22 24L22 25L23 25L23 26L21 26L21 25L20 25L20 24L19 24L19 28L18 28L18 26L17 26L17 27L16 27L16 28L17 28L17 30L18 30L18 29L19 29L19 28L21 28L21 29L24 29L24 28L25 28L25 30L24 30L24 31L23 31L23 30L21 30L21 32L20 32L20 31L18 31L18 32L19 32L19 33L20 33L20 34L21 34L21 35L19 35L19 36L20 36L20 37L22 37L22 36L24 36L24 35L22 35L22 33L23 33L23 34L24 34L24 33L23 33L23 32L24 32L24 31L25 31L25 34L26 34L26 35L25 35L25 37L27 37L27 36L26 36L26 35L28 35L28 37L29 37L29 35L28 35L28 34L30 34L30 33L31 33L31 35L32 35L32 37L33 37L33 34L34 34L34 35L35 35L35 37L37 37L37 36L36 36L36 35L37 35L37 28L36 28L36 27L37 27L37 24L36 24L36 23L37 23L37 20L35 20L35 21L36 21L36 23L35 23L35 24L36 24L36 25L35 25L35 26L34 26L34 25L33 25L33 26L32 26L32 24L31 24L31 23L30 23L30 22L31 22L31 21L32 21L32 20L33 20L33 19L32 19L32 18L31 18L31 17L32 17L32 15L33 15L33 14L34 14L34 15L37 15L37 13L36 13L36 12L37 12L37 8L36 8L36 10L34 10L34 8L33 8L33 10L32 10L32 9L31 9L31 10L30 10L30 8L29 8L29 5L28 5L28 4L27 4L27 2L28 2L28 3L29 3L29 2L28 2L28 1L29 1L29 0L27 0L27 1L25 1L25 0L24 0L24 1L25 1L25 2L24 2L24 3L25 3L25 4L27 4L27 6L26 6L26 5L24 5L24 4L23 4L23 3L22 3L22 2L23 2L23 0L22 0L22 1L21 1L21 2L20 2L20 0L18 0L18 1L19 1L19 2L20 2L20 3L17 3L17 2L16 2L16 3L15 3L15 1L17 1L17 0L15 0L15 1L14 1L14 0L13 0L13 1L14 1L14 3L15 3L15 4L13 4L13 2L12 2L12 1L11 1L11 0L10 0L10 1L9 1L9 0ZM10 1L10 2L11 2L11 3L10 3L10 5L12 5L12 6L11 6L11 7L12 7L12 8L11 8L11 9L10 9L10 11L9 11L9 12L7 12L7 11L6 11L6 12L7 12L7 13L6 13L6 14L7 14L7 15L5 15L5 14L4 14L4 15L5 15L5 16L2 16L2 17L1 17L1 18L2 18L2 19L1 19L1 20L2 20L2 19L3 19L3 20L4 20L4 23L5 23L5 24L7 24L7 25L8 25L8 26L11 26L11 25L12 25L12 26L13 26L13 27L11 27L11 28L13 28L13 30L14 30L14 28L13 28L13 27L14 27L14 25L13 25L13 24L12 24L12 23L13 23L13 22L15 22L15 23L16 23L16 22L15 22L15 21L16 21L16 20L15 20L15 21L13 21L13 20L11 20L11 19L14 19L14 18L15 18L15 17L14 17L14 18L13 18L13 16L12 16L12 14L11 14L11 13L14 13L14 14L15 14L15 16L16 16L16 17L17 17L17 18L16 18L16 19L17 19L17 20L18 20L18 21L20 21L20 22L22 22L22 23L23 23L23 24L24 24L24 23L23 23L23 22L22 22L22 21L23 21L23 20L22 20L22 19L21 19L21 18L20 18L20 17L21 17L21 15L23 15L23 17L24 17L24 18L23 18L23 19L26 19L26 20L29 20L29 21L27 21L27 22L26 22L26 21L25 21L25 20L24 20L24 21L25 21L25 22L26 22L26 23L25 23L25 26L26 26L26 27L28 27L28 28L26 28L26 30L25 30L25 31L26 31L26 32L27 32L27 34L28 34L28 30L27 30L27 29L28 29L28 28L29 28L29 27L31 27L31 28L33 28L33 27L32 27L32 26L31 26L31 24L30 24L30 26L29 26L29 24L28 24L28 23L29 23L29 21L30 21L30 20L29 20L29 19L28 19L28 18L30 18L30 19L31 19L31 20L32 20L32 19L31 19L31 18L30 18L30 17L29 17L29 16L30 16L30 12L31 12L31 14L33 14L33 11L34 11L34 13L35 13L35 12L36 12L36 11L34 11L34 10L33 10L33 11L32 11L32 12L31 12L31 11L30 11L30 10L29 10L29 11L30 11L30 12L29 12L29 15L28 15L28 14L27 14L27 12L28 12L28 11L27 11L27 10L26 10L26 8L25 8L25 7L26 7L26 6L25 6L25 7L24 7L24 5L21 5L21 4L20 4L20 5L21 5L21 7L20 7L20 6L19 6L19 5L18 5L18 4L15 4L15 5L13 5L13 4L12 4L12 2L11 2L11 1ZM25 2L25 3L26 3L26 2ZM17 5L17 6L16 6L16 7L15 7L15 6L14 6L14 7L15 7L15 8L16 8L16 7L17 7L17 8L18 8L18 9L17 9L17 10L19 10L19 11L17 11L17 12L19 12L19 13L15 13L15 14L16 14L16 16L17 16L17 14L18 14L18 17L20 17L20 15L19 15L19 14L21 14L21 13L22 13L22 10L23 10L23 9L22 9L22 8L23 8L23 6L22 6L22 7L21 7L21 9L22 9L22 10L21 10L21 11L20 11L20 10L19 10L19 9L20 9L20 8L18 8L18 7L19 7L19 6L18 6L18 5ZM12 6L12 7L13 7L13 6ZM17 6L17 7L18 7L18 6ZM27 6L27 8L28 8L28 6ZM2 8L2 11L4 11L4 10L3 10L3 8ZM13 8L13 10L12 10L12 9L11 9L11 11L10 11L10 12L9 12L9 13L11 13L11 11L13 11L13 10L15 10L15 11L14 11L14 12L16 12L16 9L14 9L14 8ZM24 8L24 12L25 12L25 14L26 14L26 15L25 15L25 18L26 18L26 19L27 19L27 17L28 17L28 15L27 15L27 14L26 14L26 11L25 11L25 8ZM0 10L0 12L1 12L1 13L2 13L2 12L1 12L1 10ZM7 13L7 14L8 14L8 13ZM23 13L23 14L24 14L24 13ZM9 14L9 16L8 16L8 15L7 15L7 16L6 16L6 17L2 17L2 18L4 18L4 19L5 19L5 18L6 18L6 19L7 19L7 18L8 18L8 21L7 21L7 20L5 20L5 23L7 23L7 24L9 24L9 23L7 23L7 22L9 22L9 18L10 18L10 19L11 19L11 18L12 18L12 16L10 16L10 14ZM26 15L26 16L27 16L27 15ZM9 16L9 17L10 17L10 18L11 18L11 17L10 17L10 16ZM33 16L33 17L34 17L34 19L37 19L37 16L36 16L36 17L34 17L34 16ZM6 17L6 18L7 18L7 17ZM17 18L17 19L18 19L18 18ZM10 20L10 21L11 21L11 22L10 22L10 23L11 23L11 22L13 22L13 21L11 21L11 20ZM20 20L20 21L22 21L22 20ZM6 21L6 22L7 22L7 21ZM33 21L33 22L32 22L32 23L34 23L34 21ZM27 24L27 26L28 26L28 24ZM20 26L20 27L21 27L21 28L22 28L22 27L21 27L21 26ZM35 26L35 27L34 27L34 29L33 29L33 32L34 32L34 33L36 33L36 31L34 31L34 30L35 30L35 29L36 29L36 28L35 28L35 27L36 27L36 26ZM23 27L23 28L24 28L24 27ZM29 29L29 32L32 32L32 29ZM26 30L26 31L27 31L27 30ZM30 30L30 31L31 31L31 30ZM22 31L22 32L21 32L21 33L22 33L22 32L23 32L23 31ZM8 34L8 35L9 35L9 34ZM11 34L11 35L12 35L12 34ZM35 34L35 35L36 35L36 34ZM21 35L21 36L22 36L22 35ZM30 36L30 37L31 37L31 36ZM0 0L0 7L7 7L7 0ZM1 1L1 6L6 6L6 1ZM2 2L2 5L5 5L5 2ZM30 0L30 7L37 7L37 0ZM31 1L31 6L36 6L36 1ZM32 2L32 5L35 5L35 2ZM0 30L0 37L7 37L7 30ZM1 31L1 36L6 36L6 31ZM2 32L2 35L5 35L5 32Z" fill="#000000"/></g></g></svg>
