<?xml version="1.0" encoding="UTF-8"?>
<svg xmlns="http://www.w3.org/2000/svg" version="1.1" width="300" height="300" viewBox="0 0 300 300"><rect x="0" y="0" width="300" height="300" fill="#ffffff"/><g transform="scale(7.692)"><g transform="translate(1,1)"><path fill-rule="evenodd" d="M11 0L11 2L9 2L9 1L8 1L8 2L9 2L9 5L8 5L8 8L4 8L4 9L2 9L2 11L0 11L0 12L2 12L2 11L4 11L4 12L3 12L3 13L2 13L2 16L4 16L4 15L5 15L5 16L6 16L6 17L4 17L4 18L1 18L1 19L0 19L0 21L1 21L1 22L0 22L0 23L1 23L1 25L0 25L0 26L2 26L2 23L3 23L3 24L4 24L4 25L5 25L5 26L4 26L4 28L3 28L3 27L2 27L2 28L0 28L0 29L2 29L2 28L3 28L3 29L5 29L5 28L6 28L6 29L8 29L8 33L9 33L9 35L10 35L10 36L9 36L9 37L10 37L10 36L12 36L12 34L13 34L13 36L15 36L15 37L17 37L17 36L18 36L18 35L19 35L19 36L20 36L20 37L23 37L23 36L24 36L24 35L25 35L25 34L26 34L26 33L27 33L27 34L29 34L29 35L31 35L31 36L30 36L30 37L33 37L33 35L34 35L34 37L37 37L37 36L36 36L36 34L35 34L35 30L34 30L34 29L35 29L35 28L36 28L36 29L37 29L37 28L36 28L36 26L34 26L34 27L33 27L33 25L30 25L30 24L32 24L32 23L31 23L31 22L30 22L30 23L29 23L29 24L27 24L27 25L26 25L26 23L28 23L28 20L30 20L30 21L31 21L31 20L33 20L33 19L34 19L34 21L35 21L35 23L34 23L34 25L35 25L35 24L36 24L36 25L37 25L37 24L36 24L36 21L37 21L37 20L35 20L35 13L36 13L36 12L37 12L37 11L36 11L36 12L35 12L35 10L36 10L36 8L35 8L35 10L33 10L33 9L32 9L32 8L30 8L30 10L29 10L29 9L28 9L28 8L27 8L27 5L28 5L28 7L29 7L29 2L27 2L27 3L26 3L26 4L25 4L25 6L24 6L24 4L23 4L23 5L22 5L22 3L20 3L20 4L21 4L21 6L20 6L20 5L19 5L19 1L17 1L17 2L16 2L16 0L15 0L15 4L14 4L14 3L12 3L12 4L13 4L13 5L12 5L12 7L11 7L11 2L12 2L12 1L13 1L13 0ZM20 0L20 1L21 1L21 0ZM24 0L24 1L22 1L22 2L23 2L23 3L24 3L24 2L26 2L26 0ZM27 0L27 1L28 1L28 0ZM16 3L16 4L15 4L15 5L16 5L16 6L15 6L15 7L14 7L14 5L13 5L13 7L12 7L12 8L10 8L10 5L9 5L9 8L8 8L8 9L4 9L4 11L5 11L5 10L7 10L7 11L6 11L6 12L8 12L8 13L9 13L9 12L10 12L10 14L12 14L12 15L11 15L11 16L10 16L10 17L9 17L9 18L11 18L11 16L12 16L12 15L13 15L13 17L14 17L14 15L15 15L15 16L17 16L17 17L18 17L18 18L16 18L16 17L15 17L15 18L12 18L12 21L11 21L11 20L10 20L10 19L9 19L9 21L8 21L8 22L7 22L7 21L2 21L2 20L1 20L1 21L2 21L2 22L1 22L1 23L2 23L2 22L3 22L3 23L4 23L4 24L8 24L8 25L10 25L10 26L8 26L8 29L9 29L9 32L11 32L11 33L10 33L10 34L11 34L11 33L12 33L12 32L11 32L11 30L12 30L12 31L13 31L13 32L14 32L14 33L13 33L13 34L14 34L14 35L16 35L16 36L17 36L17 35L18 35L18 33L20 33L20 34L19 34L19 35L21 35L21 36L23 36L23 34L24 34L24 33L26 33L26 32L27 32L27 33L28 33L28 31L27 31L27 30L28 30L28 28L26 28L26 27L25 27L25 26L26 26L26 25L22 25L22 26L21 26L21 23L23 23L23 24L24 24L24 23L25 23L25 22L27 22L27 21L26 21L26 20L28 20L28 19L27 19L27 17L26 17L26 16L27 16L27 14L28 14L28 13L30 13L30 15L29 15L29 16L30 16L30 15L31 15L31 17L30 17L30 18L29 18L29 17L28 17L28 18L29 18L29 19L30 19L30 18L32 18L32 17L33 17L33 16L34 16L34 15L33 15L33 14L34 14L34 13L33 13L33 11L32 11L32 13L30 13L30 12L31 12L31 10L30 10L30 12L29 12L29 11L28 11L28 9L25 9L25 12L23 12L23 13L22 13L22 17L21 17L21 20L23 20L23 19L22 19L22 17L23 17L23 18L24 18L24 17L26 17L26 18L25 18L25 20L24 20L24 21L23 21L23 22L22 22L22 21L21 21L21 22L19 22L19 21L20 21L20 20L19 20L19 19L20 19L20 18L19 18L19 17L20 17L20 16L21 16L21 15L20 15L20 14L21 14L21 13L20 13L20 11L19 11L19 12L17 12L17 13L18 13L18 14L19 14L19 15L18 15L18 16L17 16L17 15L15 15L15 14L16 14L16 13L15 13L15 12L16 12L16 10L15 10L15 12L14 12L14 13L15 13L15 14L14 14L14 15L13 15L13 11L14 11L14 10L12 10L12 9L17 9L17 10L20 10L20 9L22 9L22 10L21 10L21 11L23 11L23 9L24 9L24 8L26 8L26 6L25 6L25 7L24 7L24 6L23 6L23 7L22 7L22 6L21 6L21 7L20 7L20 6L19 6L19 7L18 7L18 4L17 4L17 3ZM27 3L27 4L26 4L26 5L27 5L27 4L28 4L28 3ZM16 4L16 5L17 5L17 4ZM16 6L16 7L15 7L15 8L18 8L18 9L19 9L19 8L20 8L20 7L19 7L19 8L18 8L18 7L17 7L17 6ZM13 7L13 8L14 8L14 7ZM21 7L21 8L22 8L22 9L23 9L23 8L22 8L22 7ZM9 8L9 9L10 9L10 8ZM0 9L0 10L1 10L1 9ZM26 10L26 11L27 11L27 10ZM8 11L8 12L9 12L9 11ZM27 12L27 13L24 13L24 14L23 14L23 15L25 15L25 14L27 14L27 13L28 13L28 12ZM0 13L0 14L1 14L1 13ZM4 13L4 14L3 14L3 15L4 15L4 14L7 14L7 15L6 15L6 16L7 16L7 17L6 17L6 18L7 18L7 17L8 17L8 16L9 16L9 15L8 15L8 14L7 14L7 13ZM19 13L19 14L20 14L20 13ZM32 13L32 14L31 14L31 15L32 15L32 14L33 14L33 13ZM18 16L18 17L19 17L19 16ZM36 16L36 17L37 17L37 16ZM18 18L18 19L19 19L19 18ZM3 19L3 20L4 20L4 19ZM5 19L5 20L8 20L8 19ZM14 19L14 22L10 22L10 21L9 21L9 22L8 22L8 24L9 24L9 23L10 23L10 25L11 25L11 23L12 23L12 24L13 24L13 23L14 23L14 22L15 22L15 24L14 24L14 25L15 25L15 26L16 26L16 25L15 25L15 24L16 24L16 23L19 23L19 24L20 24L20 23L19 23L19 22L18 22L18 20L17 20L17 22L15 22L15 20L16 20L16 19ZM32 21L32 22L33 22L33 21ZM6 22L6 23L7 23L7 22ZM6 25L6 26L7 26L7 25ZM12 25L12 26L13 26L13 25ZM17 25L17 26L18 26L18 27L17 27L17 28L16 28L16 27L15 27L15 28L11 28L11 29L15 29L15 30L16 30L16 29L18 29L18 31L19 31L19 29L20 29L20 31L21 31L21 32L20 32L20 33L21 33L21 32L24 32L24 30L27 30L27 29L24 29L24 28L25 28L25 27L24 27L24 28L23 28L23 30L22 30L22 28L21 28L21 26L20 26L20 25ZM27 25L27 26L28 26L28 27L29 27L29 26L30 26L30 25ZM10 26L10 27L9 27L9 28L10 28L10 27L11 27L11 26ZM22 26L22 27L23 27L23 26ZM6 27L6 28L7 28L7 27ZM18 27L18 28L20 28L20 29L21 29L21 28L20 28L20 27ZM32 27L32 28L33 28L33 27ZM15 28L15 29L16 29L16 28ZM29 29L29 32L32 32L32 29ZM13 30L13 31L14 31L14 30ZM21 30L21 31L22 31L22 30ZM30 30L30 31L31 31L31 30ZM16 31L16 32L15 32L15 33L14 33L14 34L15 34L15 33L17 33L17 31ZM33 31L33 32L34 32L34 31ZM36 31L36 33L37 33L37 31ZM29 33L29 34L30 34L30 33ZM32 33L32 35L33 35L33 34L34 34L34 33ZM26 36L26 37L27 37L27 36ZM0 0L0 7L7 7L7 0ZM1 1L1 6L6 6L6 1ZM2 2L2 5L5 5L5 2ZM30 0L30 7L37 7L37 0ZM31 1L31 6L36 6L36 1ZM32 2L32 5L35 5L35 2ZM0 30L0 37L7 37L7 30ZM1 31L1 36L6 36L6 31ZM2 32L2 35L5 35L5 32Z" fill="#000000"/></g></g></svg>
