<?xml version="1.0" encoding="UTF-8"?>
<svg xmlns="http://www.w3.org/2000/svg" version="1.1" width="300" height="300" viewBox="0 0 300 300"><rect x="0" y="0" width="300" height="300" fill="#ffffff"/><g transform="scale(7.692)"><g transform="translate(1,1)"><path fill-rule="evenodd" d="M9 0L9 1L11 1L11 2L8 2L8 4L9 4L9 3L10 3L10 5L11 5L11 6L10 6L10 7L9 7L9 6L8 6L8 7L9 7L9 8L10 8L10 11L9 11L9 10L8 10L8 8L6 8L6 9L7 9L7 10L5 10L5 8L3 8L3 9L2 9L2 11L1 11L1 9L0 9L0 11L1 11L1 12L2 12L2 11L4 11L4 12L6 12L6 13L7 13L7 14L6 14L6 15L8 15L8 16L5 16L5 14L4 14L4 13L2 13L2 14L1 14L1 13L0 13L0 16L1 16L1 18L0 18L0 19L1 19L1 18L3 18L3 20L4 20L4 19L5 19L5 21L4 21L4 23L5 23L5 21L7 21L7 20L6 20L6 19L7 19L7 18L3 18L3 17L11 17L11 18L8 18L8 20L9 20L9 23L8 23L8 24L6 24L6 25L5 25L5 26L4 26L4 27L3 27L3 28L2 28L2 29L3 29L3 28L4 28L4 29L7 29L7 28L9 28L9 29L8 29L8 31L9 31L9 32L8 32L8 34L9 34L9 36L10 36L10 37L12 37L12 36L15 36L15 32L16 32L16 31L15 31L15 30L17 30L17 27L18 27L18 31L17 31L17 33L16 33L16 35L17 35L17 37L18 37L18 36L19 36L19 37L21 37L21 36L22 36L22 35L23 35L23 37L24 37L24 36L25 36L25 35L24 35L24 34L25 34L25 33L24 33L24 34L23 34L23 32L21 32L21 31L20 31L20 29L19 29L19 27L18 27L18 26L20 26L20 27L21 27L21 28L22 28L22 27L23 27L23 28L24 28L24 27L25 27L25 26L23 26L23 22L22 22L22 21L20 21L20 20L19 20L19 19L16 19L16 20L15 20L15 21L14 21L14 22L13 22L13 25L12 25L12 24L11 24L11 23L12 23L12 22L11 22L11 21L12 21L12 20L10 20L10 19L11 19L11 18L12 18L12 17L11 17L11 16L12 16L12 15L13 15L13 14L15 14L15 16L13 16L13 17L15 17L15 16L16 16L16 17L20 17L20 19L21 19L21 20L23 20L23 21L24 21L24 20L23 20L23 19L24 19L24 18L25 18L25 20L28 20L28 21L27 21L27 24L28 24L28 23L29 23L29 24L30 24L30 23L29 23L29 20L28 20L28 19L29 19L29 16L30 16L30 17L31 17L31 18L32 18L32 16L34 16L34 17L33 17L33 20L32 20L32 21L31 21L31 20L30 20L30 21L31 21L31 22L32 22L32 23L31 23L31 24L32 24L32 23L33 23L33 25L30 25L30 26L31 26L31 28L29 28L29 27L28 27L28 26L27 26L27 25L26 25L26 21L25 21L25 22L24 22L24 23L25 23L25 24L24 24L24 25L26 25L26 27L28 27L28 28L27 28L27 29L28 29L28 30L25 30L25 29L26 29L26 28L25 28L25 29L24 29L24 30L23 30L23 29L21 29L21 30L22 30L22 31L24 31L24 32L27 32L27 34L26 34L26 35L27 35L27 36L26 36L26 37L34 37L34 36L36 36L36 37L37 37L37 34L35 34L35 35L34 35L34 34L31 34L31 33L33 33L33 32L34 32L34 31L35 31L35 32L36 32L36 33L37 33L37 32L36 32L36 31L37 31L37 30L36 30L36 29L37 29L37 26L36 26L36 28L35 28L35 26L34 26L34 29L33 29L33 25L34 25L34 24L35 24L35 25L37 25L37 22L36 22L36 21L37 21L37 18L36 18L36 17L37 17L37 14L35 14L35 13L34 13L34 14L33 14L33 13L32 13L32 10L33 10L33 11L34 11L34 12L35 12L35 11L34 11L34 10L36 10L36 11L37 11L37 10L36 10L36 9L35 9L35 8L33 8L33 9L32 9L32 10L31 10L31 9L30 9L30 10L29 10L29 12L28 12L28 11L27 11L27 12L28 12L28 14L27 14L27 13L24 13L24 12L23 12L23 10L24 10L24 9L22 9L22 8L25 8L25 10L26 10L26 7L27 7L27 8L28 8L28 9L29 9L29 6L28 6L28 7L27 7L27 6L26 6L26 7L25 7L25 6L24 6L24 7L23 7L23 6L22 6L22 4L21 4L21 5L20 5L20 4L15 4L15 3L17 3L17 2L19 2L19 3L20 3L20 2L21 2L21 1L22 1L22 2L24 2L24 3L23 3L23 4L25 4L25 3L26 3L26 0L20 0L20 2L19 2L19 0L16 0L16 1L15 1L15 3L14 3L14 2L13 2L13 1L12 1L12 0ZM28 0L28 1L29 1L29 0ZM16 1L16 2L17 2L17 1ZM11 2L11 4L12 4L12 5L14 5L14 6L13 6L13 8L12 8L12 6L11 6L11 7L10 7L10 8L11 8L11 11L10 11L10 12L8 12L8 10L7 10L7 11L6 11L6 12L8 12L8 13L10 13L10 14L11 14L11 15L9 15L9 16L11 16L11 15L12 15L12 14L13 14L13 12L12 12L12 9L13 9L13 11L17 11L17 10L18 10L18 13L17 13L17 12L16 12L16 13L15 13L15 12L14 12L14 13L15 13L15 14L16 14L16 13L17 13L17 15L16 15L16 16L17 16L17 15L18 15L18 16L20 16L20 15L18 15L18 14L19 14L19 13L20 13L20 14L21 14L21 13L22 13L22 15L21 15L21 19L22 19L22 18L23 18L23 15L25 15L25 16L24 16L24 17L25 17L25 18L26 18L26 17L25 17L25 16L26 16L26 15L27 15L27 17L28 17L28 15L27 15L27 14L26 14L26 15L25 15L25 14L24 14L24 13L23 13L23 12L22 12L22 10L20 10L20 11L19 11L19 9L20 9L20 5L19 5L19 9L18 9L18 6L17 6L17 7L16 7L16 6L15 6L15 5L14 5L14 4L13 4L13 3L12 3L12 2ZM27 2L27 4L28 4L28 5L29 5L29 2ZM14 6L14 8L13 8L13 9L14 9L14 10L15 10L15 9L16 9L16 8L15 8L15 6ZM21 6L21 7L22 7L22 6ZM33 9L33 10L34 10L34 9ZM20 11L20 13L21 13L21 11ZM10 12L10 13L12 13L12 12ZM30 13L30 14L29 14L29 15L30 15L30 16L32 16L32 15L33 15L33 14L32 14L32 13ZM3 14L3 15L1 15L1 16L2 16L2 17L3 17L3 16L4 16L4 14ZM30 14L30 15L31 15L31 14ZM34 17L34 18L35 18L35 19L34 19L34 21L33 21L33 23L34 23L34 21L35 21L35 19L36 19L36 18L35 18L35 17ZM13 18L13 20L14 20L14 19L15 19L15 18ZM0 20L0 21L1 21L1 20ZM18 20L18 23L17 23L17 22L16 22L16 21L15 21L15 22L14 22L14 23L15 23L15 24L14 24L14 25L13 25L13 26L14 26L14 27L13 27L13 29L12 29L12 28L11 28L11 27L10 27L10 26L12 26L12 25L11 25L11 24L10 24L10 26L7 26L7 25L6 25L6 26L5 26L5 28L7 28L7 27L9 27L9 28L10 28L10 29L9 29L9 31L10 31L10 32L11 32L11 33L10 33L10 35L11 35L11 33L13 33L13 31L14 31L14 30L13 30L13 29L14 29L14 27L17 27L17 24L18 24L18 25L20 25L20 26L21 26L21 27L22 27L22 26L21 26L21 25L22 25L22 22L21 22L21 23L20 23L20 21L19 21L19 20ZM1 22L1 23L0 23L0 29L1 29L1 27L2 27L2 25L1 25L1 24L2 24L2 22ZM6 22L6 23L7 23L7 22ZM10 22L10 23L11 23L11 22ZM15 22L15 23L16 23L16 22ZM18 23L18 24L20 24L20 23ZM8 24L8 25L9 25L9 24ZM15 24L15 25L16 25L16 24ZM6 26L6 27L7 27L7 26ZM15 28L15 29L16 29L16 28ZM10 29L10 31L13 31L13 30L12 30L12 29ZM29 29L29 32L32 32L32 29ZM30 30L30 31L31 31L31 30ZM35 30L35 31L36 31L36 30ZM18 32L18 33L17 33L17 35L20 35L20 36L21 36L21 35L22 35L22 33L21 33L21 35L20 35L20 34L18 34L18 33L20 33L20 32ZM28 33L28 34L27 34L27 35L28 35L28 36L30 36L30 35L31 35L31 34L30 34L30 33ZM28 34L28 35L30 35L30 34ZM0 0L0 7L7 7L7 0ZM1 1L1 6L6 6L6 1ZM2 2L2 5L5 5L5 2ZM30 0L30 7L37 7L37 0ZM31 1L31 6L36 6L36 1ZM32 2L32 5L35 5L35 2ZM0 30L0 37L7 37L7 30ZM1 31L1 36L6 36L6 31ZM2 32L2 35L5 35L5 32Z" fill="#000000"/></g></g></svg>
