<?xml version="1.0" encoding="UTF-8"?>
<svg xmlns="http://www.w3.org/2000/svg" version="1.1" width="300" height="300" viewBox="0 0 300 300"><rect x="0" y="0" width="300" height="300" fill="#ffffff"/><g transform="scale(7.692)"><g transform="translate(1,1)"><path fill-rule="evenodd" d="M8 0L8 3L9 3L9 4L10 4L10 5L8 5L8 9L7 9L7 8L6 8L6 9L7 9L7 10L4 10L4 11L3 11L3 10L2 10L2 9L5 9L5 8L2 8L2 9L0 9L0 11L1 11L1 13L0 13L0 16L1 16L1 19L2 19L2 20L3 20L3 19L4 19L4 18L6 18L6 19L5 19L5 20L4 20L4 21L2 21L2 22L1 22L1 23L0 23L0 29L1 29L1 26L2 26L2 27L4 27L4 28L3 28L3 29L4 29L4 28L5 28L5 29L7 29L7 28L8 28L8 30L10 30L10 31L11 31L11 29L13 29L13 30L12 30L12 31L14 31L14 30L15 30L15 32L14 32L14 33L13 33L13 34L12 34L12 33L11 33L11 34L12 34L12 37L15 37L15 36L16 36L16 37L17 37L17 35L18 35L18 36L19 36L19 35L21 35L21 34L19 34L19 35L18 35L18 34L16 34L16 33L17 33L17 30L18 30L18 33L20 33L20 32L19 32L19 30L20 30L20 31L21 31L21 33L22 33L22 31L21 31L21 30L20 30L20 29L21 29L21 25L22 25L22 26L23 26L23 27L22 27L22 28L23 28L23 30L24 30L24 32L25 32L25 33L24 33L24 34L25 34L25 33L26 33L26 34L27 34L27 33L28 33L28 36L27 36L27 37L28 37L28 36L30 36L30 37L31 37L31 36L33 36L33 37L37 37L37 34L36 34L36 36L33 36L33 35L34 35L34 34L35 34L35 32L36 32L36 33L37 33L37 32L36 32L36 31L37 31L37 30L35 30L35 32L34 32L34 33L33 33L33 31L34 31L34 30L33 30L33 28L34 28L34 29L35 29L35 28L34 28L34 27L33 27L33 26L34 26L34 25L35 25L35 24L32 24L32 23L31 23L31 25L30 25L30 24L29 24L29 23L30 23L30 22L27 22L27 21L26 21L26 20L27 20L27 19L28 19L28 18L27 18L27 17L26 17L26 16L25 16L25 17L24 17L24 15L25 15L25 13L27 13L27 16L28 16L28 17L29 17L29 19L30 19L30 17L31 17L31 20L30 20L30 21L31 21L31 22L32 22L32 21L33 21L33 22L34 22L34 23L35 23L35 22L36 22L36 25L37 25L37 22L36 22L36 21L37 21L37 18L35 18L35 16L36 16L36 17L37 17L37 14L35 14L35 13L36 13L36 11L37 11L37 10L36 10L36 9L37 9L37 8L34 8L34 9L33 9L33 10L31 10L31 9L32 9L32 8L29 8L29 4L28 4L28 5L27 5L27 3L28 3L28 1L27 1L27 0L26 0L26 2L27 2L27 3L26 3L26 5L27 5L27 6L26 6L26 8L27 8L27 6L28 6L28 8L29 8L29 9L23 9L23 8L25 8L25 6L24 6L24 4L25 4L25 0L24 0L24 1L22 1L22 0L18 0L18 1L17 1L17 2L20 2L20 4L18 4L18 9L19 9L19 10L16 10L16 11L15 11L15 10L14 10L14 11L13 11L13 9L12 9L12 10L11 10L11 12L14 12L14 13L15 13L15 14L16 14L16 15L17 15L17 16L15 16L15 15L14 15L14 14L12 14L12 15L11 15L11 14L8 14L8 15L11 15L11 17L10 17L10 16L6 16L6 17L5 17L5 14L6 14L6 15L7 15L7 14L6 14L6 13L7 13L7 12L6 12L6 13L5 13L5 14L4 14L4 12L5 12L5 11L7 11L7 10L9 10L9 6L10 6L10 7L11 7L11 8L12 8L12 7L13 7L13 6L14 6L14 7L15 7L15 8L14 8L14 9L17 9L17 8L16 8L16 7L17 7L17 6L16 6L16 7L15 7L15 6L14 6L14 5L13 5L13 6L12 6L12 5L11 5L11 4L15 4L15 5L17 5L17 3L16 3L16 2L15 2L15 0L13 0L13 1L12 1L12 0L11 0L11 4L10 4L10 0ZM13 1L13 2L12 2L12 3L13 3L13 2L14 2L14 3L15 3L15 2L14 2L14 1ZM20 1L20 2L21 2L21 4L20 4L20 6L19 6L19 8L20 8L20 6L21 6L21 7L22 7L22 8L21 8L21 9L20 9L20 10L21 10L21 11L22 11L22 12L20 12L20 11L19 11L19 12L18 12L18 11L16 11L16 13L17 13L17 15L18 15L18 17L19 17L19 16L20 16L20 17L23 17L23 20L24 20L24 21L23 21L23 22L25 22L25 20L26 20L26 19L27 19L27 18L26 18L26 17L25 17L25 18L24 18L24 17L23 17L23 16L21 16L21 15L20 15L20 13L21 13L21 14L23 14L23 15L24 15L24 13L22 13L22 12L27 12L27 13L30 13L30 14L28 14L28 16L29 16L29 15L30 15L30 16L33 16L33 17L32 17L32 18L34 18L34 19L33 19L33 20L35 20L35 18L34 18L34 16L35 16L35 14L34 14L34 15L33 15L33 13L34 13L34 12L35 12L35 9L34 9L34 12L33 12L33 11L32 11L32 12L31 12L31 13L30 13L30 9L29 9L29 10L27 10L27 11L26 11L26 10L25 10L25 11L22 11L22 10L23 10L23 9L22 9L22 8L23 8L23 7L24 7L24 6L23 6L23 7L22 7L22 5L23 5L23 3L24 3L24 2L23 2L23 3L22 3L22 1ZM21 4L21 5L22 5L22 4ZM11 6L11 7L12 7L12 6ZM1 10L1 11L2 11L2 10ZM8 11L8 13L10 13L10 11ZM28 11L28 12L29 12L29 11ZM17 12L17 13L18 13L18 12ZM19 12L19 13L20 13L20 12ZM32 12L32 13L31 13L31 14L30 14L30 15L32 15L32 13L33 13L33 12ZM2 13L2 14L1 14L1 16L2 16L2 17L3 17L3 16L2 16L2 14L3 14L3 15L4 15L4 14L3 14L3 13ZM12 15L12 16L14 16L14 17L11 17L11 18L10 18L10 19L9 19L9 18L8 18L8 19L6 19L6 20L7 20L7 21L4 21L4 22L3 22L3 23L2 23L2 24L1 24L1 25L2 25L2 26L5 26L5 25L4 25L4 24L3 24L3 23L4 23L4 22L8 22L8 21L9 21L9 22L10 22L10 23L6 23L6 24L7 24L7 25L6 25L6 26L8 26L8 28L9 28L9 25L8 25L8 24L11 24L11 25L10 25L10 26L12 26L12 25L13 25L13 24L14 24L14 26L13 26L13 29L15 29L15 30L17 30L17 29L18 29L18 26L17 26L17 25L19 25L19 26L20 26L20 24L23 24L23 23L21 23L21 22L22 22L22 20L21 20L21 19L22 19L22 18L18 18L18 19L20 19L20 20L18 20L18 22L17 22L17 20L16 20L16 23L20 23L20 24L16 24L16 25L15 25L15 21L14 21L14 19L13 19L13 18L15 18L15 19L16 19L16 18L15 18L15 16L14 16L14 15ZM6 17L6 18L7 18L7 17ZM11 18L11 21L12 21L12 22L11 22L11 24L13 24L13 23L14 23L14 22L13 22L13 19L12 19L12 18ZM25 18L25 19L26 19L26 18ZM8 19L8 20L9 20L9 21L10 21L10 20L9 20L9 19ZM0 20L0 21L1 21L1 20ZM20 20L20 21L19 21L19 22L21 22L21 20ZM34 21L34 22L35 22L35 21ZM12 22L12 23L13 23L13 22ZM24 23L24 24L25 24L25 25L23 25L23 26L25 26L25 25L26 25L26 26L27 26L27 25L28 25L28 26L29 26L29 27L28 27L28 28L33 28L33 27L32 27L32 26L33 26L33 25L31 25L31 26L30 26L30 25L28 25L28 23L26 23L26 24L25 24L25 23ZM2 24L2 25L3 25L3 24ZM26 24L26 25L27 25L27 24ZM15 26L15 29L16 29L16 27L17 27L17 26ZM36 26L36 29L37 29L37 26ZM5 27L5 28L7 28L7 27ZM19 27L19 29L20 29L20 27ZM24 27L24 29L25 29L25 32L26 32L26 33L27 33L27 32L28 32L28 31L27 31L27 29L25 29L25 28L26 28L26 27ZM10 28L10 29L11 29L11 28ZM29 29L29 32L32 32L32 29ZM30 30L30 31L31 31L31 30ZM8 32L8 35L10 35L10 34L9 34L9 33L10 33L10 32ZM14 33L14 35L13 35L13 36L14 36L14 35L16 35L16 34L15 34L15 33ZM29 33L29 35L31 35L31 34L32 34L32 35L33 35L33 34L32 34L32 33L31 33L31 34L30 34L30 33ZM22 35L22 37L23 37L23 35ZM24 35L24 36L25 36L25 37L26 37L26 36L25 36L25 35ZM20 36L20 37L21 37L21 36ZM0 0L0 7L7 7L7 0ZM1 1L1 6L6 6L6 1ZM2 2L2 5L5 5L5 2ZM30 0L30 7L37 7L37 0ZM31 1L31 6L36 6L36 1ZM32 2L32 5L35 5L35 2ZM0 30L0 37L7 37L7 30ZM1 31L1 36L6 36L6 31ZM2 32L2 35L5 35L5 32Z" fill="#000000"/></g></g></svg>
