<?xml version="1.0" encoding="UTF-8"?>
<svg xmlns="http://www.w3.org/2000/svg" version="1.1" width="300" height="300" viewBox="0 0 300 300"><rect x="0" y="0" width="300" height="300" fill="#ffffff"/><g transform="scale(7.692)"><g transform="translate(1,1)"><path fill-rule="evenodd" d="M9 0L9 1L8 1L8 7L9 7L9 8L5 8L5 9L7 9L7 10L6 10L6 11L8 11L8 12L5 12L5 11L4 11L4 10L3 10L3 11L4 11L4 12L2 12L2 9L3 9L3 8L2 8L2 9L1 9L1 10L0 10L0 12L2 12L2 13L1 13L1 14L0 14L0 15L2 15L2 17L0 17L0 18L3 18L3 19L2 19L2 20L1 20L1 19L0 19L0 21L2 21L2 22L3 22L3 20L4 20L4 19L5 19L5 20L6 20L6 21L7 21L7 20L8 20L8 22L9 22L9 25L10 25L10 23L11 23L11 25L12 25L12 23L11 23L11 22L10 22L10 21L14 21L14 20L15 20L15 21L17 21L17 22L13 22L13 24L14 24L14 25L13 25L13 26L12 26L12 27L10 27L10 26L8 26L8 27L7 27L7 26L6 26L6 25L8 25L8 24L6 24L6 23L7 23L7 22L6 22L6 23L4 23L4 24L3 24L3 25L2 25L2 24L1 24L1 23L0 23L0 25L2 25L2 26L0 26L0 27L2 27L2 28L0 28L0 29L2 29L2 28L3 28L3 29L5 29L5 27L4 27L4 26L3 26L3 25L4 25L4 24L6 24L6 25L5 25L5 26L6 26L6 27L7 27L7 28L6 28L6 29L8 29L8 32L9 32L9 34L8 34L8 35L9 35L9 36L10 36L10 37L11 37L11 36L10 36L10 35L11 35L11 34L12 34L12 35L13 35L13 34L14 34L14 36L15 36L15 34L14 34L14 32L13 32L13 30L14 30L14 31L16 31L16 32L15 32L15 33L16 33L16 32L17 32L17 31L18 31L18 34L19 34L19 36L20 36L20 34L19 34L19 31L20 31L20 28L22 28L22 29L21 29L21 30L22 30L22 31L27 31L27 32L26 32L26 34L25 34L25 35L27 35L27 36L26 36L26 37L34 37L34 35L37 35L37 28L35 28L35 29L36 29L36 31L35 31L35 30L34 30L34 29L33 29L33 28L31 28L31 27L32 27L32 26L31 26L31 27L30 27L30 26L29 26L29 27L30 27L30 28L27 28L27 27L28 27L28 26L27 26L27 27L26 27L26 28L27 28L27 29L28 29L28 30L24 30L24 29L23 29L23 28L25 28L25 26L26 26L26 23L25 23L25 22L27 22L27 24L29 24L29 23L28 23L28 21L30 21L30 22L31 22L31 23L30 23L30 24L32 24L32 23L33 23L33 25L34 25L34 23L33 23L33 22L32 22L32 21L31 21L31 20L33 20L33 21L34 21L34 19L35 19L35 20L36 20L36 21L35 21L35 23L37 23L37 20L36 20L36 19L37 19L37 16L36 16L36 15L37 15L37 13L36 13L36 15L35 15L35 13L34 13L34 14L32 14L32 11L35 11L35 12L37 12L37 9L36 9L36 8L31 8L31 9L35 9L35 10L32 10L32 11L31 11L31 10L29 10L29 9L30 9L30 8L29 8L29 5L28 5L28 7L27 7L27 6L26 6L26 8L25 8L25 10L23 10L23 11L26 11L26 10L27 10L27 8L28 8L28 11L27 11L27 12L28 12L28 14L23 14L23 15L22 15L22 13L21 13L21 11L20 11L20 14L19 14L19 13L18 13L18 15L17 15L17 16L18 16L18 17L16 17L16 15L15 15L15 14L14 14L14 17L16 17L16 18L18 18L18 17L19 17L19 15L20 15L20 14L21 14L21 15L22 15L22 18L23 18L23 19L22 19L22 20L23 20L23 19L24 19L24 20L25 20L25 19L24 19L24 18L23 18L23 16L25 16L25 15L29 15L29 16L30 16L30 17L29 17L29 18L28 18L28 17L27 17L27 16L26 16L26 21L24 21L24 23L23 23L23 21L22 21L22 23L21 23L21 21L20 21L20 20L19 20L19 21L17 21L17 20L18 20L18 19L16 19L16 20L15 20L15 19L14 19L14 20L13 20L13 19L12 19L12 20L10 20L10 19L11 19L11 16L13 16L13 13L14 13L14 12L16 12L16 14L17 14L17 11L16 11L16 10L17 10L17 9L18 9L18 11L19 11L19 10L20 10L20 9L19 9L19 8L17 8L17 9L16 9L16 8L15 8L15 6L16 6L16 7L17 7L17 6L16 6L16 4L17 4L17 5L19 5L19 6L18 6L18 7L19 7L19 6L20 6L20 8L21 8L21 10L22 10L22 8L21 8L21 6L22 6L22 7L23 7L23 9L24 9L24 7L25 7L25 5L26 5L26 4L28 4L28 3L29 3L29 2L27 2L27 1L26 1L26 0L21 0L21 1L20 1L20 0L16 0L16 1L14 1L14 3L13 3L13 0L11 0L11 2L9 2L9 1L10 1L10 0ZM28 0L28 1L29 1L29 0ZM16 1L16 2L17 2L17 1ZM18 1L18 3L17 3L17 4L18 4L18 3L19 3L19 5L20 5L20 6L21 6L21 5L20 5L20 3L22 3L22 4L23 4L23 5L22 5L22 6L23 6L23 7L24 7L24 6L23 6L23 5L25 5L25 4L26 4L26 3L24 3L24 4L23 4L23 2L20 2L20 1ZM24 1L24 2L26 2L26 1ZM11 2L11 3L9 3L9 7L10 7L10 8L9 8L9 9L10 9L10 10L9 10L9 12L8 12L8 13L6 13L6 14L5 14L5 13L2 13L2 15L3 15L3 16L5 16L5 15L6 15L6 16L7 16L7 17L5 17L5 18L7 18L7 19L6 19L6 20L7 20L7 19L8 19L8 20L9 20L9 19L8 19L8 18L10 18L10 16L11 16L11 15L10 15L10 16L9 16L9 14L12 14L12 13L13 13L13 11L12 11L12 10L14 10L14 11L15 11L15 10L16 10L16 9L15 9L15 10L14 10L14 9L13 9L13 8L12 8L12 9L10 9L10 8L11 8L11 7L12 7L12 6L11 6L11 7L10 7L10 5L11 5L11 3L12 3L12 5L13 5L13 7L14 7L14 5L13 5L13 3L12 3L12 2ZM19 2L19 3L20 3L20 2ZM15 3L15 4L16 4L16 3ZM10 10L10 11L11 11L11 12L9 12L9 13L12 13L12 11L11 11L11 10ZM35 10L35 11L36 11L36 10ZM29 11L29 12L31 12L31 11ZM23 12L23 13L25 13L25 12ZM6 14L6 15L8 15L8 14ZM31 14L31 17L32 17L32 18L29 18L29 19L28 19L28 20L27 20L27 21L28 21L28 20L30 20L30 19L33 19L33 17L35 17L35 19L36 19L36 17L35 17L35 15L34 15L34 16L33 16L33 15L32 15L32 14ZM20 16L20 19L21 19L21 16ZM3 17L3 18L4 18L4 17ZM7 17L7 18L8 18L8 17ZM18 22L18 26L19 26L19 27L17 27L17 28L20 28L20 27L22 27L22 26L23 26L23 27L24 27L24 24L23 24L23 25L22 25L22 24L21 24L21 23L20 23L20 25L19 25L19 22ZM14 23L14 24L16 24L16 25L15 25L15 27L12 27L12 28L11 28L11 30L10 30L10 31L9 31L9 32L10 32L10 34L11 34L11 32L12 32L12 33L13 33L13 32L12 32L12 31L11 31L11 30L12 30L12 28L15 28L15 29L16 29L16 31L17 31L17 30L18 30L18 31L19 31L19 29L16 29L16 28L15 28L15 27L16 27L16 26L17 26L17 24L16 24L16 23ZM35 24L35 25L36 25L36 26L34 26L34 27L37 27L37 24ZM20 25L20 26L22 26L22 25ZM2 26L2 27L3 27L3 28L4 28L4 27L3 27L3 26ZM8 27L8 29L9 29L9 28L10 28L10 27ZM22 29L22 30L23 30L23 29ZM29 29L29 32L32 32L32 29ZM30 30L30 31L31 31L31 30ZM10 31L10 32L11 32L11 31ZM34 31L34 32L33 32L33 34L34 34L34 33L35 33L35 34L36 34L36 33L35 33L35 31ZM21 32L21 34L22 34L22 35L21 35L21 36L23 36L23 37L24 37L24 36L23 36L23 35L24 35L24 34L22 34L22 33L24 33L24 32ZM29 33L29 34L27 34L27 35L29 35L29 34L30 34L30 36L31 36L31 35L32 35L32 33ZM16 35L16 36L17 36L17 37L18 37L18 36L17 36L17 35ZM12 36L12 37L13 37L13 36ZM36 36L36 37L37 37L37 36ZM0 0L0 7L7 7L7 0ZM1 1L1 6L6 6L6 1ZM2 2L2 5L5 5L5 2ZM30 0L30 7L37 7L37 0ZM31 1L31 6L36 6L36 1ZM32 2L32 5L35 5L35 2ZM0 30L0 37L7 37L7 30ZM1 31L1 36L6 36L6 31ZM2 32L2 35L5 35L5 32Z" fill="#000000"/></g></g></svg>
