<?xml version="1.0" encoding="UTF-8"?>
<svg xmlns="http://www.w3.org/2000/svg" version="1.1" width="300" height="300" viewBox="0 0 300 300"><rect x="0" y="0" width="300" height="300" fill="#ffffff"/><g transform="scale(7.692)"><g transform="translate(1,1)"><path fill-rule="evenodd" d="M9 0L9 1L8 1L8 7L9 7L9 8L5 8L5 9L3 9L3 8L2 8L2 9L1 9L1 10L0 10L0 12L2 12L2 13L1 13L1 14L0 14L0 15L2 15L2 17L1 17L1 18L0 18L0 20L1 20L1 21L0 21L0 23L1 23L1 26L0 26L0 27L2 27L2 23L1 23L1 22L3 22L3 20L4 20L4 19L5 19L5 20L6 20L6 21L7 21L7 22L6 22L6 23L4 23L4 24L3 24L3 26L4 26L4 24L6 24L6 25L5 25L5 27L3 27L3 28L0 28L0 29L4 29L4 28L5 28L5 29L8 29L8 32L9 32L9 31L12 31L12 32L10 32L10 33L9 33L9 34L8 34L8 35L9 35L9 36L10 36L10 37L11 37L11 36L10 36L10 35L11 35L11 34L12 34L12 32L13 32L13 33L14 33L14 32L13 32L13 30L14 30L14 31L15 31L15 33L16 33L16 30L15 30L15 28L16 28L16 29L17 29L17 32L19 32L19 31L20 31L20 28L22 28L22 29L21 29L21 30L22 30L22 31L27 31L27 32L26 32L26 34L25 34L25 35L27 35L27 36L26 36L26 37L34 37L34 35L37 35L37 28L35 28L35 29L36 29L36 31L35 31L35 30L34 30L34 29L33 29L33 28L31 28L31 27L30 27L30 26L29 26L29 27L30 27L30 28L27 28L27 27L28 27L28 26L27 26L27 27L26 27L26 28L27 28L27 29L28 29L28 30L24 30L24 29L23 29L23 28L25 28L25 26L26 26L26 23L25 23L25 22L27 22L27 24L29 24L29 23L28 23L28 21L30 21L30 22L31 22L31 23L30 23L30 24L32 24L32 23L33 23L33 25L34 25L34 23L33 23L33 22L32 22L32 21L31 21L31 20L33 20L33 21L34 21L34 19L35 19L35 20L36 20L36 21L35 21L35 23L37 23L37 20L36 20L36 19L37 19L37 16L36 16L36 15L37 15L37 13L36 13L36 15L35 15L35 13L34 13L34 14L32 14L32 12L33 12L33 11L35 11L35 12L37 12L37 9L36 9L36 8L31 8L31 9L35 9L35 10L32 10L32 12L29 12L29 11L31 11L31 10L29 10L29 9L30 9L30 8L29 8L29 5L28 5L28 7L27 7L27 6L26 6L26 8L24 8L24 7L25 7L25 5L27 5L27 4L28 4L28 3L29 3L29 2L24 2L24 1L26 1L26 0L20 0L20 1L19 1L19 2L20 2L20 4L19 4L19 3L18 3L18 0L16 0L16 1L15 1L15 2L14 2L14 1L13 1L13 0L11 0L11 1L12 1L12 2L9 2L9 1L10 1L10 0ZM28 0L28 1L29 1L29 0ZM16 1L16 2L17 2L17 1ZM22 2L22 3L23 3L23 2ZM9 3L9 7L10 7L10 8L9 8L9 9L10 9L10 10L11 10L11 11L12 11L12 13L11 13L11 14L12 14L12 13L13 13L13 17L14 17L14 19L13 19L13 18L12 18L12 16L11 16L11 15L9 15L9 13L10 13L10 11L9 11L9 12L8 12L8 11L5 11L5 10L7 10L7 9L5 9L5 10L4 10L4 12L3 12L3 9L2 9L2 12L3 12L3 13L2 13L2 15L3 15L3 16L4 16L4 15L5 15L5 16L7 16L7 17L6 17L6 18L8 18L8 16L10 16L10 17L9 17L9 18L11 18L11 19L10 19L10 20L11 20L11 21L10 21L10 22L11 22L11 23L10 23L10 25L9 25L9 22L8 22L8 24L7 24L7 23L6 23L6 24L7 24L7 25L6 25L6 26L7 26L7 27L5 27L5 28L7 28L7 27L8 27L8 29L9 29L9 28L10 28L10 27L12 27L12 28L11 28L11 29L10 29L10 30L12 30L12 28L15 28L15 27L12 27L12 26L13 26L13 25L14 25L14 26L16 26L16 27L19 27L19 28L20 28L20 27L22 27L22 26L23 26L23 27L24 27L24 24L23 24L23 23L24 23L24 21L26 21L26 20L27 20L27 21L28 21L28 20L30 20L30 19L33 19L33 17L35 17L35 19L36 19L36 17L35 17L35 15L34 15L34 16L33 16L33 15L32 15L32 14L31 14L31 17L32 17L32 18L29 18L29 17L30 17L30 16L29 16L29 15L25 15L25 16L24 16L24 17L23 17L23 18L21 18L21 17L22 17L22 15L24 15L24 14L28 14L28 13L29 13L29 12L27 12L27 11L28 11L28 8L27 8L27 10L26 10L26 11L25 11L25 9L22 9L22 10L21 10L21 8L22 8L22 6L23 6L23 7L24 7L24 6L23 6L23 5L25 5L25 4L26 4L26 3L24 3L24 4L23 4L23 5L22 5L22 6L21 6L21 4L20 4L20 5L17 5L17 4L18 4L18 3L17 3L17 4L16 4L16 3L14 3L14 5L13 5L13 3L12 3L12 4L11 4L11 3ZM15 4L15 5L14 5L14 7L13 7L13 6L12 6L12 5L10 5L10 7L11 7L11 8L10 8L10 9L12 9L12 7L13 7L13 9L14 9L14 7L15 7L15 6L16 6L16 7L17 7L17 6L16 6L16 4ZM11 6L11 7L12 7L12 6ZM18 6L18 7L19 7L19 6ZM20 6L20 8L17 8L17 9L18 9L18 10L17 10L17 11L18 11L18 12L19 12L19 11L18 11L18 10L20 10L20 8L21 8L21 6ZM15 8L15 11L14 11L14 10L12 10L12 11L13 11L13 13L14 13L14 12L15 12L15 14L14 14L14 17L15 17L15 16L16 16L16 15L15 15L15 14L17 14L17 16L18 16L18 17L16 17L16 18L18 18L18 17L19 17L19 16L18 16L18 15L20 15L20 14L21 14L21 15L22 15L22 13L21 13L21 11L20 11L20 14L17 14L17 12L16 12L16 8ZM23 10L23 12L24 12L24 13L25 13L25 11L24 11L24 10ZM35 10L35 11L36 11L36 10ZM6 12L6 13L8 13L8 12ZM3 13L3 14L5 14L5 15L8 15L8 14L5 14L5 13ZM26 16L26 17L25 17L25 18L27 18L27 20L28 20L28 19L29 19L29 18L28 18L28 17L27 17L27 16ZM3 17L3 18L2 18L2 19L1 19L1 20L2 20L2 19L3 19L3 18L4 18L4 17ZM20 18L20 20L19 20L19 21L17 21L17 20L18 20L18 19L16 19L16 20L14 20L14 21L13 21L13 19L12 19L12 22L13 22L13 23L12 23L12 24L13 24L13 23L16 23L16 24L14 24L14 25L16 25L16 24L17 24L17 26L18 26L18 22L20 22L20 23L19 23L19 25L20 25L20 26L22 26L22 25L23 25L23 24L21 24L21 25L20 25L20 23L21 23L21 22L22 22L22 23L23 23L23 20L22 20L22 19L21 19L21 18ZM23 18L23 19L24 19L24 20L25 20L25 19L24 19L24 18ZM6 19L6 20L7 20L7 21L9 21L9 20L8 20L8 19ZM20 20L20 21L22 21L22 20ZM15 21L15 22L17 22L17 21ZM35 24L35 25L36 25L36 26L34 26L34 27L37 27L37 24ZM8 26L8 27L9 27L9 26ZM32 26L32 27L33 27L33 26ZM22 29L22 30L23 30L23 29ZM29 29L29 32L32 32L32 29ZM18 30L18 31L19 31L19 30ZM30 30L30 31L31 31L31 30ZM34 31L34 32L33 32L33 34L34 34L34 33L35 33L35 34L36 34L36 33L35 33L35 31ZM20 32L20 34L19 34L19 37L21 37L21 36L20 36L20 34L21 34L21 35L22 35L22 36L23 36L23 37L24 37L24 36L23 36L23 35L24 35L24 34L23 34L23 35L22 35L22 34L21 34L21 33L24 33L24 32ZM10 33L10 34L11 34L11 33ZM29 33L29 34L27 34L27 35L29 35L29 34L30 34L30 36L31 36L31 35L32 35L32 33ZM13 34L13 35L15 35L15 34ZM16 35L16 36L17 36L17 37L18 37L18 36L17 36L17 35ZM14 36L14 37L15 37L15 36ZM36 36L36 37L37 37L37 36ZM0 0L0 7L7 7L7 0ZM1 1L1 6L6 6L6 1ZM2 2L2 5L5 5L5 2ZM30 0L30 7L37 7L37 0ZM31 1L31 6L36 6L36 1ZM32 2L32 5L35 5L35 2ZM0 30L0 37L7 37L7 30ZM1 31L1 36L6 36L6 31ZM2 32L2 35L5 35L5 32Z" fill="#000000"/></g></g></svg>
