<?xml version="1.0" encoding="UTF-8"?>
<svg xmlns="http://www.w3.org/2000/svg" version="1.1" width="300" height="300" viewBox="0 0 300 300"><rect x="0" y="0" width="300" height="300" fill="#ffffff"/><g transform="scale(7.692)"><g transform="translate(1,1)"><path fill-rule="evenodd" d="M9 0L9 1L13 1L13 2L12 2L12 3L11 3L11 2L10 2L10 3L9 3L9 4L8 4L8 5L11 5L11 4L12 4L12 5L13 5L13 4L14 4L14 3L13 3L13 2L14 2L14 1L15 1L15 2L16 2L16 3L15 3L15 4L16 4L16 5L15 5L15 6L14 6L14 7L13 7L13 6L12 6L12 7L11 7L11 6L10 6L10 7L9 7L9 6L8 6L8 8L6 8L6 9L7 9L7 10L5 10L5 9L4 9L4 8L2 8L2 9L0 9L0 10L3 10L3 12L4 12L4 13L5 13L5 14L4 14L4 16L6 16L6 17L5 17L5 18L6 18L6 19L7 19L7 20L5 20L5 21L7 21L7 22L6 22L6 23L5 23L5 22L4 22L4 18L3 18L3 14L2 14L2 12L1 12L1 11L0 11L0 12L1 12L1 15L0 15L0 17L2 17L2 19L3 19L3 21L2 21L2 20L0 20L0 24L1 24L1 25L2 25L2 26L1 26L1 27L0 27L0 28L1 28L1 27L2 27L2 28L3 28L3 29L7 29L7 28L8 28L8 27L7 27L7 26L6 26L6 27L5 27L5 26L4 26L4 25L7 25L7 24L6 24L6 23L8 23L8 26L10 26L10 25L11 25L11 27L10 27L10 28L9 28L9 29L8 29L8 31L10 31L10 33L11 33L11 32L13 32L13 33L12 33L12 34L11 34L11 35L9 35L9 33L8 33L8 35L9 35L9 36L11 36L11 35L12 35L12 34L13 34L13 33L15 33L15 34L14 34L14 36L13 36L13 37L14 37L14 36L15 36L15 35L17 35L17 34L16 34L16 32L18 32L18 33L19 33L19 34L18 34L18 35L19 35L19 34L21 34L21 35L20 35L20 36L21 36L21 37L23 37L23 35L25 35L25 37L26 37L26 35L27 35L27 37L28 37L28 35L29 35L29 36L30 36L30 37L31 37L31 36L30 36L30 35L32 35L32 36L33 36L33 37L37 37L37 36L35 36L35 35L36 35L36 34L35 34L35 33L34 33L34 30L35 30L35 31L36 31L36 32L37 32L37 29L36 29L36 28L37 28L37 27L36 27L36 28L34 28L34 27L35 27L35 26L37 26L37 24L36 24L36 25L35 25L35 23L36 23L36 20L35 20L35 22L34 22L34 21L33 21L33 20L34 20L34 17L36 17L36 18L35 18L35 19L37 19L37 17L36 17L36 16L37 16L37 15L36 15L36 14L37 14L37 13L36 13L36 12L37 12L37 11L34 11L34 15L35 15L35 16L33 16L33 18L31 18L31 17L32 17L32 16L31 16L31 17L29 17L29 16L30 16L30 15L29 15L29 12L28 12L28 10L29 10L29 11L30 11L30 10L31 10L31 11L32 11L32 10L31 10L31 8L29 8L29 6L28 6L28 7L27 7L27 6L26 6L26 5L29 5L29 4L27 4L27 3L26 3L26 2L27 2L27 0L26 0L26 1L25 1L25 0L24 0L24 1L25 1L25 3L22 3L22 2L23 2L23 1L22 1L22 0L21 0L21 1L22 1L22 2L21 2L21 3L22 3L22 4L19 4L19 5L21 5L21 6L20 6L20 7L19 7L19 6L18 6L18 7L17 7L17 5L18 5L18 4L17 4L17 2L16 2L16 1L15 1L15 0L14 0L14 1L13 1L13 0ZM19 1L19 2L18 2L18 3L19 3L19 2L20 2L20 1ZM28 2L28 3L29 3L29 2ZM10 3L10 4L11 4L11 3ZM12 3L12 4L13 4L13 3ZM25 3L25 5L26 5L26 3ZM23 4L23 5L22 5L22 6L21 6L21 7L22 7L22 6L23 6L23 13L22 13L22 11L21 11L21 10L22 10L22 8L21 8L21 9L20 9L20 8L19 8L19 7L18 7L18 8L17 8L17 7L16 7L16 6L15 6L15 8L13 8L13 7L12 7L12 8L13 8L13 10L12 10L12 9L10 9L10 10L9 10L9 12L10 12L10 10L11 10L11 11L12 11L12 12L11 12L11 13L10 13L10 14L11 14L11 15L6 15L6 14L8 14L8 12L7 12L7 11L8 11L8 10L7 10L7 11L6 11L6 12L7 12L7 13L6 13L6 14L5 14L5 15L6 15L6 16L8 16L8 17L9 17L9 18L7 18L7 17L6 17L6 18L7 18L7 19L9 19L9 18L10 18L10 20L9 20L9 22L8 22L8 23L12 23L12 24L11 24L11 25L12 25L12 27L13 27L13 28L11 28L11 31L12 31L12 29L13 29L13 30L14 30L14 31L13 31L13 32L14 32L14 31L15 31L15 30L14 30L14 28L15 28L15 27L16 27L16 29L19 29L19 30L18 30L18 31L19 31L19 33L20 33L20 30L21 30L21 34L22 34L22 35L23 35L23 34L24 34L24 32L25 32L25 35L26 35L26 33L27 33L27 34L28 34L28 32L26 32L26 31L27 31L27 30L28 30L28 28L31 28L31 27L32 27L32 28L33 28L33 26L35 26L35 25L33 25L33 26L32 26L32 25L31 25L31 24L33 24L33 23L32 23L32 22L33 22L33 21L32 21L32 20L33 20L33 19L32 19L32 20L29 20L29 18L28 18L28 20L29 20L29 21L27 21L27 18L26 18L26 19L25 19L25 17L24 17L24 16L27 16L27 15L28 15L28 16L29 16L29 15L28 15L28 12L27 12L27 10L24 10L24 9L25 9L25 8L26 8L26 9L27 9L27 7L26 7L26 6L25 6L25 7L24 7L24 6L23 6L23 5L24 5L24 4ZM10 7L10 8L11 8L11 7ZM32 8L32 9L33 9L33 10L34 10L34 9L33 9L33 8ZM3 9L3 10L4 10L4 9ZM15 9L15 10L16 10L16 11L14 11L14 14L15 14L15 15L14 15L14 16L13 16L13 17L12 17L12 18L11 18L11 16L12 16L12 15L11 15L11 16L10 16L10 18L11 18L11 19L12 19L12 18L13 18L13 17L15 17L15 15L17 15L17 16L16 16L16 17L17 17L17 18L16 18L16 21L15 21L15 22L14 22L14 23L13 23L13 21L14 21L14 19L15 19L15 18L14 18L14 19L13 19L13 20L12 20L12 21L11 21L11 20L10 20L10 21L11 21L11 22L12 22L12 23L13 23L13 27L14 27L14 26L15 26L15 25L17 25L17 26L16 26L16 27L18 27L18 25L17 25L17 24L18 24L18 23L19 23L19 22L20 22L20 23L23 23L23 25L22 25L22 24L20 24L20 25L21 25L21 26L20 26L20 28L21 28L21 30L24 30L24 31L23 31L23 32L22 32L22 33L23 33L23 32L24 32L24 31L25 31L25 30L26 30L26 28L28 28L28 27L27 27L27 24L28 24L28 25L29 25L29 26L30 26L30 27L31 27L31 26L30 26L30 24L31 24L31 22L32 22L32 21L31 21L31 22L30 22L30 24L28 24L28 23L29 23L29 22L28 22L28 23L27 23L27 24L26 24L26 25L25 25L25 23L26 23L26 22L27 22L27 21L25 21L25 19L23 19L23 21L25 21L25 23L23 23L23 22L22 22L22 21L21 21L21 20L22 20L22 16L23 16L23 15L21 15L21 14L22 14L22 13L21 13L21 14L18 14L18 13L20 13L20 12L21 12L21 11L20 11L20 9L19 9L19 11L18 11L18 13L16 13L16 14L15 14L15 12L17 12L17 10L18 10L18 9ZM29 9L29 10L30 10L30 9ZM35 9L35 10L36 10L36 9ZM25 11L25 12L24 12L24 13L23 13L23 14L24 14L24 15L26 15L26 14L27 14L27 12L26 12L26 11ZM30 12L30 14L33 14L33 12L32 12L32 13L31 13L31 12ZM11 13L11 14L13 14L13 13ZM24 13L24 14L26 14L26 13ZM1 15L1 16L2 16L2 15ZM19 15L19 16L20 16L20 17L21 17L21 15ZM18 17L18 19L17 19L17 20L19 20L19 21L18 21L18 22L19 22L19 21L20 21L20 22L21 22L21 21L20 21L20 20L21 20L21 19L20 19L20 18L19 18L19 17ZM30 18L30 19L31 19L31 18ZM7 20L7 21L8 21L8 20ZM16 21L16 22L15 22L15 23L14 23L14 25L15 25L15 24L17 24L17 21ZM1 22L1 24L3 24L3 25L4 25L4 24L5 24L5 23L3 23L3 22ZM3 26L3 28L5 28L5 27L4 27L4 26ZM24 26L24 28L22 28L22 27L21 27L21 28L22 28L22 29L24 29L24 30L25 30L25 29L24 29L24 28L26 28L26 26ZM6 27L6 28L7 28L7 27ZM29 29L29 32L32 32L32 29ZM35 29L35 30L36 30L36 29ZM30 30L30 31L31 31L31 30ZM29 33L29 34L30 34L30 33ZM31 33L31 34L32 34L32 33ZM33 34L33 35L35 35L35 34ZM16 36L16 37L17 37L17 36ZM0 0L0 7L7 7L7 0ZM1 1L1 6L6 6L6 1ZM2 2L2 5L5 5L5 2ZM30 0L30 7L37 7L37 0ZM31 1L31 6L36 6L36 1ZM32 2L32 5L35 5L35 2ZM0 30L0 37L7 37L7 30ZM1 31L1 36L6 36L6 31ZM2 32L2 35L5 35L5 32Z" fill="#000000"/></g></g></svg>
