<?xml version="1.0" encoding="UTF-8"?>
<svg xmlns="http://www.w3.org/2000/svg" version="1.1" width="300" height="300" viewBox="0 0 300 300"><rect x="0" y="0" width="300" height="300" fill="#ffffff"/><g transform="scale(7.692)"><g transform="translate(1,1)"><path fill-rule="evenodd" d="M12 0L12 1L13 1L13 2L12 2L12 3L11 3L11 2L9 2L9 1L8 1L8 2L9 2L9 5L8 5L8 8L4 8L4 9L2 9L2 11L0 11L0 12L3 12L3 13L2 13L2 14L4 14L4 16L5 16L5 17L4 17L4 18L2 18L2 19L1 19L1 17L0 17L0 19L1 19L1 20L0 20L0 22L1 22L1 23L0 23L0 24L1 24L1 25L0 25L0 26L1 26L1 25L2 25L2 24L1 24L1 23L3 23L3 24L4 24L4 25L3 25L3 26L2 26L2 27L3 27L3 26L4 26L4 28L3 28L3 29L8 29L8 33L9 33L9 35L10 35L10 36L9 36L9 37L10 37L10 36L12 36L12 37L17 37L17 36L18 36L18 35L19 35L19 37L21 37L21 36L24 36L24 35L25 35L25 34L26 34L26 33L27 33L27 34L29 34L29 35L31 35L31 36L30 36L30 37L33 37L33 35L34 35L34 37L37 37L37 36L36 36L36 34L35 34L35 30L34 30L34 29L35 29L35 28L36 28L36 29L37 29L37 28L36 28L36 26L33 26L33 25L30 25L30 24L32 24L32 23L31 23L31 22L30 22L30 23L29 23L29 24L27 24L27 25L26 25L26 23L28 23L28 20L30 20L30 21L31 21L31 20L33 20L33 19L34 19L34 21L35 21L35 23L34 23L34 25L35 25L35 24L36 24L36 25L37 25L37 24L36 24L36 21L37 21L37 20L35 20L35 13L36 13L36 12L37 12L37 11L36 11L36 12L35 12L35 10L36 10L36 8L35 8L35 10L33 10L33 9L32 9L32 8L30 8L30 10L29 10L29 9L28 9L28 8L27 8L27 5L28 5L28 7L29 7L29 2L27 2L27 1L28 1L28 0L27 0L27 1L26 1L26 0L24 0L24 1L22 1L22 0L21 0L21 1L20 1L20 2L19 2L19 1L17 1L17 2L16 2L16 0L15 0L15 1L13 1L13 0ZM21 1L21 2L20 2L20 3L21 3L21 4L20 4L20 5L19 5L19 7L18 7L18 4L17 4L17 3L16 3L16 4L15 4L15 5L14 5L14 4L13 4L13 3L12 3L12 4L11 4L11 7L12 7L12 8L10 8L10 5L9 5L9 8L8 8L8 9L4 9L4 10L5 10L5 11L6 11L6 12L8 12L8 13L11 13L11 14L9 14L9 15L8 15L8 14L7 14L7 13L5 13L5 12L4 12L4 14L7 14L7 15L5 15L5 16L7 16L7 17L6 17L6 18L7 18L7 19L5 19L5 20L7 20L7 21L2 21L2 20L1 20L1 21L2 21L2 22L3 22L3 23L4 23L4 24L8 24L8 25L10 25L10 26L8 26L8 29L9 29L9 27L11 27L11 28L15 28L15 29L10 29L10 30L9 30L9 33L10 33L10 32L11 32L11 35L12 35L12 34L13 34L13 36L15 36L15 35L16 35L16 36L17 36L17 35L18 35L18 34L19 34L19 35L20 35L20 36L21 36L21 35L20 35L20 34L21 34L21 33L22 33L22 35L23 35L23 34L24 34L24 33L26 33L26 32L27 32L27 33L28 33L28 31L27 31L27 30L28 30L28 28L26 28L26 27L25 27L25 26L26 26L26 25L23 25L23 24L24 24L24 23L25 23L25 22L27 22L27 21L26 21L26 20L28 20L28 19L26 19L26 18L27 18L27 17L26 17L26 16L27 16L27 14L28 14L28 15L29 15L29 16L30 16L30 15L31 15L31 17L30 17L30 18L29 18L29 17L28 17L28 18L29 18L29 19L30 19L30 18L32 18L32 17L33 17L33 16L34 16L34 15L33 15L33 14L34 14L34 13L33 13L33 11L32 11L32 13L30 13L30 12L31 12L31 10L30 10L30 12L29 12L29 11L28 11L28 9L24 9L24 8L26 8L26 6L25 6L25 4L26 4L26 3L27 3L27 4L28 4L28 3L27 3L27 2L24 2L24 3L23 3L23 4L22 4L22 3L21 3L21 2L22 2L22 1ZM12 4L12 5L13 5L13 6L12 6L12 7L13 7L13 6L14 6L14 8L13 8L13 9L12 9L12 10L14 10L14 11L13 11L13 15L12 15L12 14L11 14L11 15L12 15L12 16L11 16L11 17L10 17L10 15L9 15L9 17L7 17L7 18L8 18L8 19L7 19L7 20L8 20L8 21L7 21L7 22L6 22L6 23L8 23L8 24L9 24L9 23L10 23L10 25L12 25L12 26L13 26L13 25L15 25L15 24L16 24L16 23L19 23L19 22L20 22L20 24L21 24L21 22L20 22L20 21L24 21L24 20L25 20L25 18L26 18L26 17L24 17L24 18L23 18L23 17L22 17L22 13L23 13L23 14L24 14L24 15L23 15L23 16L24 16L24 15L25 15L25 14L27 14L27 13L28 13L28 14L29 14L29 15L30 15L30 13L29 13L29 12L27 12L27 13L23 13L23 11L24 11L24 10L23 10L23 9L20 9L20 8L18 8L18 7L17 7L17 6L16 6L16 5L17 5L17 4L16 4L16 5L15 5L15 6L14 6L14 5L13 5L13 4ZM21 4L21 6L20 6L20 7L21 7L21 6L22 6L22 7L23 7L23 6L24 6L24 7L25 7L25 6L24 6L24 4L23 4L23 6L22 6L22 4ZM15 6L15 7L16 7L16 6ZM9 8L9 10L10 10L10 11L8 11L8 12L10 12L10 11L11 11L11 10L10 10L10 8ZM14 8L14 10L15 10L15 12L14 12L14 13L15 13L15 14L14 14L14 15L13 15L13 19L12 19L12 18L11 18L11 19L12 19L12 20L10 20L10 19L9 19L9 21L10 21L10 22L11 22L11 23L12 23L12 25L13 25L13 23L14 23L14 22L17 22L17 20L18 20L18 22L19 22L19 21L20 21L20 19L18 19L18 18L16 18L16 16L17 16L17 17L20 17L20 18L21 18L21 17L20 17L20 16L21 16L21 15L20 15L20 14L21 14L21 13L20 13L20 11L19 11L19 10L20 10L20 9L18 9L18 8ZM0 9L0 10L1 10L1 9ZM15 9L15 10L17 10L17 9ZM6 10L6 11L7 11L7 10ZM21 10L21 11L23 11L23 10ZM26 10L26 11L27 11L27 10ZM16 11L16 12L15 12L15 13L16 13L16 12L17 12L17 11ZM18 12L18 13L17 13L17 14L16 14L16 15L14 15L14 20L16 20L16 19L15 19L15 16L16 16L16 15L17 15L17 14L20 14L20 13L19 13L19 12ZM0 13L0 14L1 14L1 13ZM32 13L32 14L31 14L31 15L32 15L32 14L33 14L33 13ZM2 15L2 16L3 16L3 15ZM36 16L36 17L37 17L37 16ZM9 17L9 18L10 18L10 17ZM22 18L22 19L21 19L21 20L22 20L22 19L23 19L23 18ZM3 19L3 20L4 20L4 19ZM11 21L11 22L13 22L13 21ZM32 21L32 22L33 22L33 21ZM22 23L22 24L23 24L23 23ZM4 25L4 26L5 26L5 25ZM6 25L6 26L7 26L7 25ZM16 25L16 26L17 26L17 27L20 27L20 28L17 28L17 29L16 29L16 31L15 31L15 33L14 33L14 32L13 32L13 31L14 31L14 30L13 30L13 31L12 31L12 30L10 30L10 31L11 31L11 32L12 32L12 33L13 33L13 34L15 34L15 33L18 33L18 32L19 32L19 31L17 31L17 29L18 29L18 30L19 30L19 29L20 29L20 31L21 31L21 32L24 32L24 30L27 30L27 29L24 29L24 28L25 28L25 27L24 27L24 28L23 28L23 30L22 30L22 28L21 28L21 26L22 26L22 27L23 27L23 25L21 25L21 26L20 26L20 25ZM27 25L27 26L28 26L28 27L29 27L29 26L30 26L30 25ZM31 26L31 28L33 28L33 26ZM6 27L6 28L7 28L7 27ZM15 27L15 28L16 28L16 27ZM0 28L0 29L2 29L2 28ZM20 28L20 29L21 29L21 28ZM29 29L29 32L32 32L32 29ZM21 30L21 31L22 31L22 30ZM30 30L30 31L31 31L31 30ZM16 31L16 32L17 32L17 31ZM33 31L33 32L34 32L34 31ZM36 31L36 33L37 33L37 31ZM29 33L29 34L30 34L30 33ZM32 33L32 35L33 35L33 34L34 34L34 33ZM26 36L26 37L27 37L27 36ZM0 0L0 7L7 7L7 0ZM1 1L1 6L6 6L6 1ZM2 2L2 5L5 5L5 2ZM30 0L30 7L37 7L37 0ZM31 1L31 6L36 6L36 1ZM32 2L32 5L35 5L35 2ZM0 30L0 37L7 37L7 30ZM1 31L1 36L6 36L6 31ZM2 32L2 35L5 35L5 32Z" fill="#000000"/></g></g></svg>
