<?xml version="1.0" encoding="UTF-8"?>
<svg xmlns="http://www.w3.org/2000/svg" version="1.1" width="300" height="300" viewBox="0 0 300 300"><rect x="0" y="0" width="300" height="300" fill="#ffffff"/><g transform="scale(7.692)"><g transform="translate(1,1)"><path fill-rule="evenodd" d="M10 0L10 1L12 1L12 3L13 3L13 4L14 4L14 7L15 7L15 8L16 8L16 9L12 9L12 8L13 8L13 5L12 5L12 7L11 7L11 2L9 2L9 1L8 1L8 2L9 2L9 5L8 5L8 8L4 8L4 9L3 9L3 10L2 10L2 11L0 11L0 12L3 12L3 10L4 10L4 11L5 11L5 12L4 12L4 13L5 13L5 12L6 12L6 13L7 13L7 14L5 14L5 16L6 16L6 17L4 17L4 18L2 18L2 19L1 19L1 18L0 18L0 19L1 19L1 21L0 21L0 22L1 22L1 23L0 23L0 26L1 26L1 25L2 25L2 26L3 26L3 27L2 27L2 28L0 28L0 29L2 29L2 28L3 28L3 29L5 29L5 28L6 28L6 29L8 29L8 33L9 33L9 35L10 35L10 36L9 36L9 37L10 37L10 36L11 36L11 34L12 34L12 36L13 36L13 34L15 34L15 33L14 33L14 32L13 32L13 31L14 31L14 30L13 30L13 31L12 31L12 30L10 30L10 29L16 29L16 30L15 30L15 32L16 32L16 33L18 33L18 32L17 32L17 31L16 31L16 30L18 30L18 29L17 29L17 28L11 28L11 26L10 26L10 25L12 25L12 26L13 26L13 25L14 25L14 26L16 26L16 27L18 27L18 28L19 28L19 29L20 29L20 31L21 31L21 32L24 32L24 30L27 30L27 31L28 31L28 33L27 33L27 32L26 32L26 33L24 33L24 34L21 34L21 33L20 33L20 34L18 34L18 35L17 35L17 36L16 36L16 35L15 35L15 37L17 37L17 36L18 36L18 35L19 35L19 36L20 36L20 37L22 37L22 36L20 36L20 34L21 34L21 35L23 35L23 36L24 36L24 35L25 35L25 34L26 34L26 33L27 33L27 34L29 34L29 35L31 35L31 36L30 36L30 37L33 37L33 35L34 35L34 37L37 37L37 36L36 36L36 34L35 34L35 30L34 30L34 29L35 29L35 28L36 28L36 29L37 29L37 28L36 28L36 26L35 26L35 24L36 24L36 25L37 25L37 24L36 24L36 21L37 21L37 20L35 20L35 13L36 13L36 12L37 12L37 11L36 11L36 12L35 12L35 10L36 10L36 8L35 8L35 10L33 10L33 9L32 9L32 8L30 8L30 10L29 10L29 9L28 9L28 8L27 8L27 5L28 5L28 7L29 7L29 2L27 2L27 1L28 1L28 0L27 0L27 1L25 1L25 0L24 0L24 1L23 1L23 3L24 3L24 2L26 2L26 4L25 4L25 6L24 6L24 4L21 4L21 5L20 5L20 4L19 4L19 3L20 3L20 2L21 2L21 0L18 0L18 1L17 1L17 2L16 2L16 0L15 0L15 2L14 2L14 1L13 1L13 0ZM13 2L13 3L14 3L14 4L15 4L15 5L16 5L16 6L15 6L15 7L16 7L16 6L17 6L17 7L18 7L18 8L17 8L17 9L18 9L18 10L16 10L16 11L15 11L15 12L14 12L14 13L16 13L16 14L18 14L18 13L20 13L20 14L19 14L19 16L17 16L17 15L16 15L16 16L17 16L17 17L18 17L18 18L16 18L16 17L15 17L15 18L14 18L14 19L13 19L13 17L14 17L14 15L15 15L15 14L14 14L14 15L13 15L13 11L14 11L14 10L12 10L12 9L11 9L11 8L10 8L10 5L9 5L9 8L8 8L8 9L4 9L4 10L5 10L5 11L6 11L6 12L8 12L8 13L10 13L10 12L8 12L8 11L9 11L9 8L10 8L10 10L11 10L11 14L12 14L12 15L11 15L11 16L12 16L12 19L11 19L11 20L10 20L10 19L9 19L9 20L8 20L8 21L2 21L2 22L3 22L3 23L1 23L1 24L2 24L2 25L3 25L3 26L4 26L4 27L6 27L6 28L7 28L7 27L6 27L6 26L7 26L7 25L10 25L10 23L8 23L8 22L9 22L9 21L10 21L10 22L11 22L11 21L13 21L13 20L14 20L14 22L12 22L12 23L13 23L13 24L12 24L12 25L13 25L13 24L15 24L15 25L20 25L20 26L21 26L21 28L20 28L20 27L19 27L19 26L18 26L18 27L19 27L19 28L20 28L20 29L21 29L21 28L22 28L22 30L21 30L21 31L22 31L22 30L23 30L23 28L24 28L24 29L27 29L27 30L28 30L28 28L26 28L26 27L25 27L25 26L26 26L26 25L27 25L27 26L28 26L28 27L29 27L29 26L30 26L30 25L33 25L33 26L31 26L31 28L33 28L33 27L34 27L34 23L35 23L35 21L34 21L34 19L33 19L33 20L31 20L31 21L30 21L30 20L28 20L28 19L27 19L27 17L26 17L26 16L28 16L28 15L29 15L29 16L30 16L30 15L31 15L31 17L30 17L30 18L29 18L29 17L28 17L28 18L29 18L29 19L30 19L30 18L32 18L32 17L33 17L33 16L34 16L34 15L33 15L33 14L34 14L34 13L33 13L33 10L32 10L32 13L30 13L30 12L31 12L31 10L30 10L30 12L29 12L29 11L28 11L28 9L25 9L25 11L24 11L24 10L21 10L21 11L24 11L24 15L25 15L25 16L24 16L24 17L23 17L23 13L22 13L22 17L23 17L23 18L21 18L21 15L20 15L20 14L21 14L21 13L20 13L20 11L19 11L19 10L20 10L20 9L21 9L21 8L20 8L20 5L19 5L19 7L18 7L18 4L17 4L17 3L16 3L16 4L15 4L15 3L14 3L14 2ZM27 3L27 4L28 4L28 3ZM16 4L16 5L17 5L17 4ZM21 6L21 7L22 7L22 8L23 8L23 9L24 9L24 8L26 8L26 6L25 6L25 7L24 7L24 6L23 6L23 7L22 7L22 6ZM18 8L18 9L19 9L19 8ZM0 9L0 10L1 10L1 9ZM6 10L6 11L7 11L7 10ZM26 10L26 11L27 11L27 10ZM17 11L17 13L18 13L18 11ZM27 12L27 13L25 13L25 14L27 14L27 15L28 15L28 14L29 14L29 15L30 15L30 13L29 13L29 12ZM0 13L0 14L1 14L1 13ZM27 13L27 14L28 14L28 13ZM32 13L32 14L31 14L31 15L32 15L32 14L33 14L33 13ZM3 14L3 16L4 16L4 14ZM7 14L7 15L6 15L6 16L7 16L7 17L6 17L6 18L7 18L7 19L5 19L5 20L7 20L7 19L8 19L8 18L10 18L10 16L9 16L9 15L8 15L8 14ZM12 15L12 16L13 16L13 15ZM8 16L8 17L7 17L7 18L8 18L8 17L9 17L9 16ZM36 16L36 17L37 17L37 16ZM24 17L24 18L23 18L23 20L22 20L22 19L21 19L21 18L18 18L18 19L21 19L21 20L20 20L20 22L21 22L21 23L22 23L22 22L23 22L23 21L24 21L24 20L25 20L25 19L26 19L26 17ZM3 19L3 20L4 20L4 19ZM14 19L14 20L16 20L16 19ZM17 20L17 22L14 22L14 23L15 23L15 24L16 24L16 23L19 23L19 24L20 24L20 23L19 23L19 22L18 22L18 20ZM26 20L26 21L27 21L27 22L25 22L25 23L24 23L24 24L22 24L22 25L21 25L21 26L22 26L22 27L23 27L23 26L22 26L22 25L26 25L26 23L28 23L28 20ZM32 21L32 22L33 22L33 21ZM6 22L6 23L7 23L7 24L4 24L4 23L3 23L3 25L5 25L5 26L6 26L6 25L7 25L7 24L8 24L8 23L7 23L7 22ZM30 22L30 23L29 23L29 24L27 24L27 25L30 25L30 24L32 24L32 23L31 23L31 22ZM8 26L8 29L10 29L10 27L9 27L9 26ZM24 27L24 28L25 28L25 27ZM29 29L29 32L32 32L32 29ZM30 30L30 31L31 31L31 30ZM33 31L33 32L34 32L34 31ZM36 31L36 33L37 33L37 31ZM9 32L9 33L10 33L10 32ZM11 32L11 33L12 33L12 34L13 34L13 32ZM29 33L29 34L30 34L30 33ZM32 33L32 35L33 35L33 34L34 34L34 33ZM26 36L26 37L27 37L27 36ZM0 0L0 7L7 7L7 0ZM1 1L1 6L6 6L6 1ZM2 2L2 5L5 5L5 2ZM30 0L30 7L37 7L37 0ZM31 1L31 6L36 6L36 1ZM32 2L32 5L35 5L35 2ZM0 30L0 37L7 37L7 30ZM1 31L1 36L6 36L6 31ZM2 32L2 35L5 35L5 32Z" fill="#000000"/></g></g></svg>
