<?xml version="1.0" encoding="UTF-8"?>
<svg xmlns="http://www.w3.org/2000/svg" version="1.1" width="300" height="300" viewBox="0 0 300 300"><rect x="0" y="0" width="300" height="300" fill="#ffffff"/><g transform="scale(7.692)"><g transform="translate(1,1)"><path fill-rule="evenodd" d="M8 0L8 1L10 1L10 0ZM11 0L11 1L12 1L12 0ZM16 0L16 1L14 1L14 3L12 3L12 2L11 2L11 3L10 3L10 2L8 2L8 3L10 3L10 7L9 7L9 6L8 6L8 8L10 8L10 7L11 7L11 3L12 3L12 4L15 4L15 5L12 5L12 7L13 7L13 9L12 9L12 8L11 8L11 9L9 9L9 11L8 11L8 12L5 12L5 11L7 11L7 10L8 10L8 9L7 9L7 8L5 8L5 9L2 9L2 10L3 10L3 11L4 11L4 12L2 12L2 11L1 11L1 9L0 9L0 11L1 11L1 12L2 12L2 13L0 13L0 16L1 16L1 19L0 19L0 20L4 20L4 24L3 24L3 27L2 27L2 28L4 28L4 29L5 29L5 27L7 27L7 28L6 28L6 29L7 29L7 28L8 28L8 30L9 30L9 31L8 31L8 32L9 32L9 36L10 36L10 37L11 37L11 36L12 36L12 35L13 35L13 32L12 32L12 35L11 35L11 36L10 36L10 32L9 32L9 31L10 31L10 29L13 29L13 30L11 30L11 31L13 31L13 30L14 30L14 31L16 31L16 30L18 30L18 29L17 29L17 28L18 28L18 27L21 27L21 28L20 28L20 29L19 29L19 31L20 31L20 29L21 29L21 30L22 30L22 31L24 31L24 32L25 32L25 33L24 33L24 34L25 34L25 33L26 33L26 32L25 32L25 31L27 31L27 34L28 34L28 35L27 35L27 36L26 36L26 37L34 37L34 34L33 34L33 35L32 35L32 34L31 34L31 33L33 33L33 32L34 32L34 33L35 33L35 32L36 32L36 33L37 33L37 32L36 32L36 31L37 31L37 30L36 30L36 31L35 31L35 30L34 30L34 29L35 29L35 27L34 27L34 26L35 26L35 25L37 25L37 22L36 22L36 21L37 21L37 18L36 18L36 19L35 19L35 16L36 16L36 17L37 17L37 14L35 14L35 13L34 13L34 14L33 14L33 15L32 15L32 12L31 12L31 8L30 8L30 12L29 12L29 11L27 11L27 10L26 10L26 9L25 9L25 6L24 6L24 4L25 4L25 0L21 0L21 1L20 1L20 2L19 2L19 1L18 1L18 0ZM28 0L28 1L29 1L29 0ZM16 1L16 3L15 3L15 4L17 4L17 5L16 5L16 6L15 6L15 7L14 7L14 6L13 6L13 7L14 7L14 9L13 9L13 11L14 11L14 9L15 9L15 8L17 8L17 9L16 9L16 10L15 10L15 11L16 11L16 12L17 12L17 13L16 13L16 15L15 15L15 12L14 12L14 13L13 13L13 12L12 12L12 13L11 13L11 10L12 10L12 9L11 9L11 10L10 10L10 11L9 11L9 12L8 12L8 13L5 13L5 12L4 12L4 13L3 13L3 14L1 14L1 16L2 16L2 15L3 15L3 16L5 16L5 17L6 17L6 18L7 18L7 19L6 19L6 20L9 20L9 18L12 18L12 20L11 20L11 19L10 19L10 21L14 21L14 22L13 22L13 23L12 23L12 22L10 22L10 27L11 27L11 26L12 26L12 25L14 25L14 24L13 24L13 23L14 23L14 22L16 22L16 23L15 23L15 24L16 24L16 26L13 26L13 29L15 29L15 30L16 30L16 29L15 29L15 28L16 28L16 27L18 27L18 26L17 26L17 24L16 24L16 23L20 23L20 24L18 24L18 25L19 25L19 26L20 26L20 25L22 25L22 26L21 26L21 27L22 27L22 28L21 28L21 29L22 29L22 30L23 30L23 26L25 26L25 25L24 25L24 24L25 24L25 23L24 23L24 24L23 24L23 22L25 22L25 20L26 20L26 22L27 22L27 21L29 21L29 22L30 22L30 23L29 23L29 24L27 24L27 23L26 23L26 26L29 26L29 28L31 28L31 26L34 26L34 25L35 25L35 24L36 24L36 22L35 22L35 23L34 23L34 21L33 21L33 22L31 22L31 21L30 21L30 20L31 20L31 19L33 19L33 17L34 17L34 16L33 16L33 17L32 17L32 18L31 18L31 17L30 17L30 18L29 18L29 17L28 17L28 16L26 16L26 15L27 15L27 14L28 14L28 13L29 13L29 12L27 12L27 11L26 11L26 10L25 10L25 11L22 11L22 10L23 10L23 9L24 9L24 8L23 8L23 9L22 9L22 10L21 10L21 13L22 13L22 14L23 14L23 15L21 15L21 16L20 16L20 11L19 11L19 12L18 12L18 11L16 11L16 10L17 10L17 9L18 9L18 10L19 10L19 9L18 9L18 4L19 4L19 5L20 5L20 6L19 6L19 8L20 8L20 6L21 6L21 7L22 7L22 5L20 5L20 4L19 4L19 2L17 2L17 1ZM21 1L21 2L20 2L20 3L22 3L22 4L23 4L23 3L24 3L24 2L23 2L23 1ZM22 2L22 3L23 3L23 2ZM26 2L26 3L27 3L27 4L28 4L28 7L27 7L27 6L26 6L26 8L29 8L29 3L28 3L28 2ZM8 4L8 5L9 5L9 4ZM16 6L16 7L17 7L17 6ZM23 6L23 7L24 7L24 6ZM32 8L32 11L34 11L34 10L35 10L35 12L36 12L36 11L37 11L37 10L36 10L36 9L37 9L37 8L36 8L36 9L35 9L35 8L34 8L34 10L33 10L33 8ZM5 9L5 10L4 10L4 11L5 11L5 10L7 10L7 9ZM9 12L9 14L8 14L8 16L6 16L6 15L7 15L7 14L3 14L3 15L5 15L5 16L6 16L6 17L7 17L7 18L9 18L9 17L8 17L8 16L10 16L10 17L12 17L12 18L13 18L13 17L14 17L14 16L13 16L13 17L12 17L12 15L14 15L14 14L12 14L12 15L11 15L11 13L10 13L10 12ZM17 13L17 15L18 15L18 16L16 16L16 18L19 18L19 17L20 17L20 16L19 16L19 13ZM23 13L23 14L24 14L24 15L25 15L25 14L24 14L24 13ZM30 13L30 14L29 14L29 15L30 15L30 16L32 16L32 15L30 15L30 14L31 14L31 13ZM34 14L34 15L35 15L35 14ZM18 16L18 17L19 17L19 16ZM23 16L23 17L21 17L21 18L23 18L23 19L22 19L22 21L24 21L24 20L23 20L23 19L24 19L24 18L25 18L25 17L26 17L26 19L27 19L27 20L28 20L28 19L29 19L29 18L28 18L28 17L26 17L26 16L25 16L25 17L24 17L24 16ZM3 17L3 18L2 18L2 19L3 19L3 18L4 18L4 17ZM23 17L23 18L24 18L24 17ZM14 18L14 21L16 21L16 22L18 22L18 20L19 20L19 22L21 22L21 21L20 21L20 20L21 20L21 19L20 19L20 20L19 20L19 19L16 19L16 20L15 20L15 18ZM4 19L4 20L5 20L5 19ZM34 19L34 20L35 20L35 19ZM16 20L16 21L17 21L17 20ZM5 21L5 22L7 22L7 23L6 23L6 24L4 24L4 26L5 26L5 25L6 25L6 26L8 26L8 27L9 27L9 23L8 23L8 22L9 22L9 21L8 21L8 22L7 22L7 21ZM0 22L0 29L1 29L1 23L3 23L3 22ZM7 23L7 24L6 24L6 25L7 25L7 24L8 24L8 23ZM31 23L31 24L32 24L32 23ZM33 23L33 25L34 25L34 23ZM22 24L22 25L23 25L23 24ZM30 25L30 26L31 26L31 25ZM36 26L36 29L37 29L37 26ZM14 27L14 28L15 28L15 27ZM24 27L24 29L25 29L25 30L28 30L28 29L25 29L25 28L28 28L28 27ZM33 27L33 29L34 29L34 27ZM29 29L29 32L32 32L32 29ZM30 30L30 31L31 31L31 30ZM34 31L34 32L35 32L35 31ZM14 32L14 34L15 34L15 33L16 33L16 36L17 36L17 37L18 37L18 36L19 36L19 37L21 37L21 36L22 36L22 37L24 37L24 36L25 36L25 35L24 35L24 36L23 36L23 35L22 35L22 34L23 34L23 33L22 33L22 32L21 32L21 33L22 33L22 34L21 34L21 35L20 35L20 36L19 36L19 35L18 35L18 34L19 34L19 33L20 33L20 32L19 32L19 33L18 33L18 32ZM17 33L17 34L18 34L18 33ZM28 33L28 34L29 34L29 35L31 35L31 34L30 34L30 33ZM36 34L36 37L37 37L37 34ZM17 35L17 36L18 36L18 35ZM0 0L0 7L7 7L7 0ZM1 1L1 6L6 6L6 1ZM2 2L2 5L5 5L5 2ZM30 0L30 7L37 7L37 0ZM31 1L31 6L36 6L36 1ZM32 2L32 5L35 5L35 2ZM0 30L0 37L7 37L7 30ZM1 31L1 36L6 36L6 31ZM2 32L2 35L5 35L5 32Z" fill="#000000"/></g></g></svg>
