<?xml version="1.0" encoding="UTF-8"?>
<svg xmlns="http://www.w3.org/2000/svg" version="1.1" width="300" height="300" viewBox="0 0 300 300"><rect x="0" y="0" width="300" height="300" fill="#ffffff"/><g transform="scale(7.692)"><g transform="translate(1,1)"><path fill-rule="evenodd" d="M9 0L9 1L10 1L10 0ZM13 0L13 1L11 1L11 2L10 2L10 3L9 3L9 4L8 4L8 5L13 5L13 6L12 6L12 7L11 7L11 6L10 6L10 7L9 7L9 6L8 6L8 8L6 8L6 9L7 9L7 10L6 10L6 11L7 11L7 12L6 12L6 13L5 13L5 12L4 12L4 8L2 8L2 9L0 9L0 10L2 10L2 9L3 9L3 11L2 11L2 12L1 12L1 11L0 11L0 12L1 12L1 15L0 15L0 18L1 18L1 17L2 17L2 19L1 19L1 20L0 20L0 22L1 22L1 21L2 21L2 22L3 22L3 23L5 23L5 24L2 24L2 25L1 25L1 27L0 27L0 28L1 28L1 27L2 27L2 29L7 29L7 28L8 28L8 27L7 27L7 26L5 26L5 27L7 27L7 28L4 28L4 27L2 27L2 25L8 25L8 26L10 26L10 27L11 27L11 28L10 28L10 30L11 30L11 28L13 28L13 27L14 27L14 26L16 26L16 25L17 25L17 24L18 24L18 23L19 23L19 22L20 22L20 23L21 23L21 22L22 22L22 23L23 23L23 26L22 26L22 24L19 24L19 25L21 25L21 26L20 26L20 28L21 28L21 30L20 30L20 32L21 32L21 30L24 30L24 31L23 31L23 32L22 32L22 33L21 33L21 34L20 34L20 33L19 33L19 32L18 32L18 30L19 30L19 28L18 28L18 27L17 27L17 28L16 28L16 27L15 27L15 28L14 28L14 30L13 30L13 29L12 29L12 31L11 31L11 32L10 32L10 31L9 31L9 29L8 29L8 31L9 31L9 33L8 33L8 35L9 35L9 36L13 36L13 37L15 37L15 36L14 36L14 35L17 35L17 34L16 34L16 33L15 33L15 31L17 31L17 33L18 33L18 35L21 35L21 36L22 36L22 35L21 35L21 34L22 34L22 33L23 33L23 32L24 32L24 34L23 34L23 35L25 35L25 37L26 37L26 35L27 35L27 37L28 37L28 35L29 35L29 36L30 36L30 37L31 37L31 36L30 36L30 35L32 35L32 36L33 36L33 37L37 37L37 36L35 36L35 35L36 35L36 34L35 34L35 33L34 33L34 30L35 30L35 31L36 31L36 32L37 32L37 29L36 29L36 28L37 28L37 27L36 27L36 28L34 28L34 27L35 27L35 26L37 26L37 24L36 24L36 25L35 25L35 23L36 23L36 20L35 20L35 22L34 22L34 21L33 21L33 20L34 20L34 17L36 17L36 18L35 18L35 19L37 19L37 17L36 17L36 16L37 16L37 15L36 15L36 14L37 14L37 13L36 13L36 12L37 12L37 11L34 11L34 15L35 15L35 16L33 16L33 18L31 18L31 17L32 17L32 16L31 16L31 17L29 17L29 16L30 16L30 15L29 15L29 16L24 16L24 17L25 17L25 19L23 19L23 18L22 18L22 16L23 16L23 15L21 15L21 14L22 14L22 13L23 13L23 12L24 12L24 11L23 11L23 9L22 9L22 8L23 8L23 6L24 6L24 7L25 7L25 6L26 6L26 7L27 7L27 9L26 9L26 8L24 8L24 9L25 9L25 10L27 10L27 12L26 12L26 11L25 11L25 13L24 13L24 14L25 14L25 15L26 15L26 14L27 14L27 12L28 12L28 14L29 14L29 12L28 12L28 10L29 10L29 11L30 11L30 10L31 10L31 8L29 8L29 6L28 6L28 7L27 7L27 6L26 6L26 5L29 5L29 4L27 4L27 0L24 0L24 1L26 1L26 2L25 2L25 3L22 3L22 2L21 2L21 3L22 3L22 4L21 4L21 5L22 5L22 8L20 8L20 9L19 9L19 13L20 13L20 12L21 12L21 11L22 11L22 13L21 13L21 14L19 14L19 15L21 15L21 16L19 16L19 17L20 17L20 18L19 18L19 20L17 20L17 19L18 19L18 17L17 17L17 16L18 16L18 15L17 15L17 14L18 14L18 12L17 12L17 14L16 14L16 12L15 12L15 11L14 11L14 14L16 14L16 15L14 15L14 16L12 16L12 15L11 15L11 14L13 14L13 13L11 13L11 12L12 12L12 11L10 11L10 12L9 12L9 9L12 9L12 10L13 10L13 9L14 9L14 10L15 10L15 8L13 8L13 6L14 6L14 7L15 7L15 6L16 6L16 7L17 7L17 8L16 8L16 9L17 9L17 10L16 10L16 11L17 11L17 10L18 10L18 9L17 9L17 8L18 8L18 7L19 7L19 6L18 6L18 7L17 7L17 5L18 5L18 4L17 4L17 2L16 2L16 1L15 1L15 0ZM18 0L18 1L19 1L19 2L18 2L18 3L19 3L19 4L20 4L20 3L19 3L19 2L20 2L20 1L22 1L22 0L20 0L20 1L19 1L19 0ZM13 1L13 2L11 2L11 3L10 3L10 4L11 4L11 3L13 3L13 2L15 2L15 3L14 3L14 4L13 4L13 5L14 5L14 6L15 6L15 5L16 5L16 4L15 4L15 3L16 3L16 2L15 2L15 1ZM28 2L28 3L29 3L29 2ZM25 3L25 5L26 5L26 3ZM14 4L14 5L15 5L15 4ZM23 4L23 5L24 5L24 4ZM20 6L20 7L21 7L21 6ZM10 7L10 8L11 8L11 7ZM32 8L32 9L33 9L33 10L32 10L32 11L31 11L31 12L30 12L30 14L33 14L33 12L32 12L32 11L33 11L33 10L34 10L34 9L33 9L33 8ZM20 9L20 11L21 11L21 10L22 10L22 9ZM29 9L29 10L30 10L30 9ZM35 9L35 10L36 10L36 9ZM7 10L7 11L8 11L8 10ZM7 12L7 13L6 13L6 14L5 14L5 13L2 13L2 15L1 15L1 16L2 16L2 17L3 17L3 18L4 18L4 22L5 22L5 23L6 23L6 24L9 24L9 23L11 23L11 24L12 24L12 27L13 27L13 25L14 25L14 24L17 24L17 21L16 21L16 18L17 18L17 17L14 17L14 19L13 19L13 20L15 20L15 21L16 21L16 22L15 22L15 23L13 23L13 22L14 22L14 21L13 21L13 22L12 22L12 23L11 23L11 21L10 21L10 20L11 20L11 17L12 17L12 18L13 18L13 17L12 17L12 16L10 16L10 13L9 13L9 15L6 15L6 14L8 14L8 12ZM31 12L31 13L32 13L32 12ZM25 13L25 14L26 14L26 13ZM3 15L3 16L4 16L4 17L10 17L10 16L5 16L5 15ZM6 18L6 19L8 19L8 21L7 21L7 20L5 20L5 21L7 21L7 22L6 22L6 23L7 23L7 22L9 22L9 20L10 20L10 18L9 18L9 19L8 19L8 18ZM20 18L20 22L21 22L21 20L22 20L22 21L23 21L23 23L25 23L25 25L26 25L26 24L27 24L27 27L28 27L28 28L26 28L26 26L24 26L24 28L22 28L22 27L21 27L21 28L22 28L22 29L24 29L24 30L25 30L25 31L24 31L24 32L25 32L25 35L26 35L26 33L27 33L27 34L28 34L28 32L26 32L26 31L27 31L27 30L28 30L28 28L31 28L31 27L30 27L30 26L32 26L32 25L31 25L31 24L33 24L33 23L32 23L32 22L33 22L33 21L32 21L32 20L33 20L33 19L32 19L32 20L29 20L29 18L28 18L28 20L29 20L29 21L27 21L27 20L26 20L26 19L27 19L27 18L26 18L26 19L25 19L25 21L23 21L23 20L22 20L22 18ZM30 18L30 19L31 19L31 18ZM2 19L2 21L3 21L3 19ZM18 21L18 22L19 22L19 21ZM25 21L25 23L26 23L26 22L27 22L27 21ZM31 21L31 22L30 22L30 24L28 24L28 23L29 23L29 22L28 22L28 23L27 23L27 24L28 24L28 25L29 25L29 26L30 26L30 24L31 24L31 22L32 22L32 21ZM0 23L0 24L1 24L1 23ZM12 23L12 24L13 24L13 23ZM10 25L10 26L11 26L11 25ZM33 25L33 27L32 27L32 28L33 28L33 27L34 27L34 25ZM15 28L15 30L14 30L14 31L13 31L13 32L14 32L14 31L15 31L15 30L17 30L17 29L16 29L16 28ZM24 28L24 29L25 29L25 30L26 30L26 28ZM29 29L29 32L32 32L32 29ZM35 29L35 30L36 30L36 29ZM30 30L30 31L31 31L31 30ZM11 32L11 33L9 33L9 35L14 35L14 34L15 34L15 33L13 33L13 34L12 34L12 32ZM29 33L29 34L30 34L30 33ZM31 33L31 34L32 34L32 33ZM33 34L33 35L35 35L35 34ZM16 36L16 37L17 37L17 36ZM0 0L0 7L7 7L7 0ZM1 1L1 6L6 6L6 1ZM2 2L2 5L5 5L5 2ZM30 0L30 7L37 7L37 0ZM31 1L31 6L36 6L36 1ZM32 2L32 5L35 5L35 2ZM0 30L0 37L7 37L7 30ZM1 31L1 36L6 36L6 31ZM2 32L2 35L5 35L5 32Z" fill="#000000"/></g></g></svg>
