<?xml version="1.0" encoding="UTF-8"?>
<svg xmlns="http://www.w3.org/2000/svg" version="1.1" width="300" height="300" viewBox="0 0 300 300"><rect x="0" y="0" width="300" height="300" fill="#ffffff"/><g transform="scale(7.692)"><g transform="translate(1,1)"><path fill-rule="evenodd" d="M8 0L8 3L9 3L9 4L10 4L10 5L8 5L8 9L7 9L7 8L6 8L6 9L7 9L7 10L5 10L5 11L4 11L4 9L5 9L5 8L2 8L2 9L3 9L3 13L2 13L2 11L1 11L1 9L0 9L0 11L1 11L1 13L0 13L0 16L1 16L1 18L2 18L2 19L0 19L0 20L3 20L3 19L4 19L4 18L5 18L5 16L6 16L6 17L7 17L7 18L6 18L6 19L5 19L5 20L4 20L4 21L2 21L2 22L0 22L0 29L1 29L1 26L2 26L2 25L3 25L3 24L4 24L4 25L5 25L5 26L3 26L3 27L2 27L2 29L3 29L3 27L7 27L7 28L6 28L6 29L7 29L7 28L8 28L8 30L9 30L9 29L13 29L13 30L12 30L12 31L14 31L14 30L15 30L15 32L14 32L14 33L15 33L15 34L16 34L16 35L15 35L15 36L13 36L13 35L11 35L11 36L13 36L13 37L15 37L15 36L16 36L16 37L17 37L17 35L18 35L18 36L19 36L19 37L20 37L20 34L19 34L19 33L21 33L21 35L22 35L22 36L23 36L23 35L22 35L22 31L21 31L21 30L20 30L20 29L21 29L21 24L20 24L20 23L16 23L16 20L17 20L17 22L18 22L18 20L19 20L19 19L20 19L20 20L22 20L22 22L21 22L21 23L22 23L22 24L23 24L23 25L22 25L22 26L23 26L23 27L22 27L22 28L23 28L23 30L24 30L24 32L25 32L25 33L24 33L24 34L25 34L25 33L26 33L26 34L27 34L27 33L28 33L28 36L27 36L27 37L28 37L28 36L30 36L30 37L31 37L31 36L33 36L33 37L37 37L37 34L36 34L36 36L33 36L33 35L34 35L34 34L35 34L35 32L36 32L36 33L37 33L37 32L36 32L36 31L37 31L37 30L35 30L35 32L34 32L34 33L33 33L33 31L34 31L34 30L33 30L33 28L34 28L34 29L35 29L35 28L34 28L34 26L35 26L35 24L32 24L32 23L31 23L31 25L30 25L30 24L29 24L29 23L30 23L30 22L27 22L27 21L26 21L26 20L25 20L25 22L23 22L23 21L24 21L24 20L23 20L23 17L24 17L24 18L25 18L25 19L26 19L26 18L27 18L27 19L28 19L28 18L27 18L27 17L26 17L26 16L25 16L25 17L24 17L24 16L23 16L23 14L24 14L24 15L25 15L25 14L24 14L24 13L23 13L23 12L24 12L24 11L25 11L25 10L26 10L26 11L27 11L27 10L29 10L29 9L30 9L30 13L29 13L29 11L28 11L28 13L27 13L27 12L25 12L25 13L27 13L27 15L29 15L29 16L28 16L28 17L29 17L29 19L30 19L30 17L31 17L31 20L30 20L30 21L31 21L31 22L32 22L32 21L33 21L33 22L34 22L34 23L35 23L35 22L36 22L36 25L37 25L37 22L36 22L36 21L37 21L37 18L35 18L35 16L36 16L36 17L37 17L37 14L35 14L35 13L36 13L36 11L37 11L37 10L36 10L36 9L37 9L37 8L34 8L34 9L33 9L33 11L32 11L32 10L31 10L31 9L32 9L32 8L29 8L29 4L28 4L28 5L27 5L27 6L26 6L26 8L27 8L27 6L28 6L28 8L29 8L29 9L25 9L25 6L24 6L24 4L25 4L25 1L27 1L27 2L26 2L26 4L27 4L27 3L28 3L28 1L27 1L27 0L24 0L24 1L23 1L23 2L22 2L22 0L21 0L21 2L20 2L20 1L19 1L19 0L18 0L18 1L17 1L17 2L20 2L20 3L19 3L19 4L18 4L18 9L17 9L17 8L16 8L16 7L17 7L17 6L16 6L16 7L15 7L15 5L17 5L17 3L16 3L16 2L15 2L15 0L13 0L13 1L12 1L12 0L11 0L11 1L12 1L12 2L13 2L13 1L14 1L14 3L11 3L11 4L10 4L10 0ZM21 2L21 3L20 3L20 4L19 4L19 5L20 5L20 6L19 6L19 8L20 8L20 6L21 6L21 9L20 9L20 10L21 10L21 11L22 11L22 12L20 12L20 11L19 11L19 12L18 12L18 11L16 11L16 10L17 10L17 9L16 9L16 10L15 10L15 9L13 9L13 7L14 7L14 8L15 8L15 7L14 7L14 5L15 5L15 3L14 3L14 4L11 4L11 7L10 7L10 6L9 6L9 10L7 10L7 11L5 11L5 14L7 14L7 15L6 15L6 16L9 16L9 17L10 17L10 19L8 19L8 20L10 20L10 21L9 21L9 22L10 22L10 23L8 23L8 22L7 22L7 21L4 21L4 22L3 22L3 23L1 23L1 25L2 25L2 24L3 24L3 23L4 23L4 22L7 22L7 23L6 23L6 24L7 24L7 23L8 23L8 24L12 24L12 25L6 25L6 26L8 26L8 28L11 28L11 26L12 26L12 25L14 25L14 26L13 26L13 29L16 29L16 28L15 28L15 27L18 27L18 28L17 28L17 30L19 30L19 32L21 32L21 31L20 31L20 30L19 30L19 29L20 29L20 27L18 27L18 26L17 26L17 25L19 25L19 26L20 26L20 25L19 25L19 24L16 24L16 26L15 26L15 25L14 25L14 24L15 24L15 23L14 23L14 22L13 22L13 23L12 23L12 22L11 22L11 20L12 20L12 21L14 21L14 19L16 19L16 18L15 18L15 17L16 17L16 16L14 16L14 15L15 15L15 14L16 14L16 15L17 15L17 14L18 14L18 16L17 16L17 17L18 17L18 19L19 19L19 16L21 16L21 18L20 18L20 19L22 19L22 17L23 17L23 16L21 16L21 15L20 15L20 13L21 13L21 14L23 14L23 13L22 13L22 12L23 12L23 11L22 11L22 9L24 9L24 8L23 8L23 7L24 7L24 6L23 6L23 5L20 5L20 4L22 4L22 2ZM23 2L23 3L24 3L24 2ZM12 5L12 7L13 7L13 5ZM22 6L22 7L23 7L23 6ZM11 8L11 9L12 9L12 10L11 10L11 12L10 12L10 10L9 10L9 11L8 11L8 13L9 13L9 14L8 14L8 15L9 15L9 16L10 16L10 15L11 15L11 19L12 19L12 18L13 18L13 19L14 19L14 18L13 18L13 17L14 17L14 16L13 16L13 17L12 17L12 15L14 15L14 14L12 14L12 15L11 15L11 12L14 12L14 13L16 13L16 12L15 12L15 10L14 10L14 11L13 11L13 9L12 9L12 8ZM18 9L18 10L19 10L19 9ZM34 9L34 12L33 12L33 13L32 13L32 11L31 11L31 13L30 13L30 14L29 14L29 15L30 15L30 16L33 16L33 17L32 17L32 18L34 18L34 19L33 19L33 20L35 20L35 18L34 18L34 16L35 16L35 14L34 14L34 15L33 15L33 13L34 13L34 12L35 12L35 9ZM6 12L6 13L7 13L7 12ZM17 12L17 13L18 13L18 14L19 14L19 13L20 13L20 12L19 12L19 13L18 13L18 12ZM31 13L31 14L30 14L30 15L32 15L32 13ZM1 14L1 16L3 16L3 14ZM4 15L4 16L5 16L5 15ZM25 17L25 18L26 18L26 17ZM6 19L6 20L7 20L7 19ZM19 21L19 22L20 22L20 21ZM34 21L34 22L35 22L35 21ZM13 23L13 24L14 24L14 23ZM24 23L24 24L25 24L25 25L23 25L23 26L25 26L25 25L26 25L26 26L27 26L27 25L28 25L28 26L29 26L29 27L28 27L28 28L31 28L31 26L33 26L33 25L31 25L31 26L30 26L30 25L28 25L28 23L26 23L26 24L25 24L25 23ZM26 24L26 25L27 25L27 24ZM9 26L9 27L10 27L10 26ZM36 26L36 29L37 29L37 26ZM24 27L24 29L25 29L25 32L26 32L26 33L27 33L27 32L28 32L28 31L27 31L27 29L25 29L25 28L26 28L26 27ZM32 27L32 28L33 28L33 27ZM4 28L4 29L5 29L5 28ZM29 29L29 32L32 32L32 29ZM10 30L10 31L11 31L11 30ZM30 30L30 31L31 31L31 30ZM16 31L16 32L18 32L18 31ZM8 32L8 35L10 35L10 34L12 34L12 33L13 33L13 32L12 32L12 33L10 33L10 32ZM9 33L9 34L10 34L10 33ZM16 33L16 34L18 34L18 35L19 35L19 34L18 34L18 33ZM29 33L29 35L31 35L31 34L32 34L32 35L33 35L33 34L32 34L32 33L31 33L31 34L30 34L30 33ZM24 35L24 36L25 36L25 37L26 37L26 36L25 36L25 35ZM0 0L0 7L7 7L7 0ZM1 1L1 6L6 6L6 1ZM2 2L2 5L5 5L5 2ZM30 0L30 7L37 7L37 0ZM31 1L31 6L36 6L36 1ZM32 2L32 5L35 5L35 2ZM0 30L0 37L7 37L7 30ZM1 31L1 36L6 36L6 31ZM2 32L2 35L5 35L5 32Z" fill="#000000"/></g></g></svg>
