<?xml version="1.0" encoding="UTF-8"?>
<svg xmlns="http://www.w3.org/2000/svg" version="1.1" width="300" height="300" viewBox="0 0 300 300"><rect x="0" y="0" width="300" height="300" fill="#ffffff"/><g transform="scale(7.692)"><g transform="translate(1,1)"><path fill-rule="evenodd" d="M9 0L9 1L10 1L10 0ZM11 0L11 1L13 1L13 2L12 2L12 4L11 4L11 2L8 2L8 4L9 4L9 3L10 3L10 5L11 5L11 6L10 6L10 7L9 7L9 6L8 6L8 7L9 7L9 8L10 8L10 9L9 9L9 10L8 10L8 8L6 8L6 9L7 9L7 10L6 10L6 11L5 11L5 13L4 13L4 12L2 12L2 11L3 11L3 9L4 9L4 10L5 10L5 8L3 8L3 9L0 9L0 11L1 11L1 12L2 12L2 13L4 13L4 14L3 14L3 15L2 15L2 14L1 14L1 13L0 13L0 16L1 16L1 19L0 19L0 20L1 20L1 21L0 21L0 24L1 24L1 25L0 25L0 29L1 29L1 27L3 27L3 26L2 26L2 23L1 23L1 21L2 21L2 20L1 20L1 19L2 19L2 18L3 18L3 20L4 20L4 19L5 19L5 21L4 21L4 23L5 23L5 21L7 21L7 22L6 22L6 23L7 23L7 24L6 24L6 25L5 25L5 27L4 27L4 29L7 29L7 28L9 28L9 29L8 29L8 31L9 31L9 29L10 29L10 30L11 30L11 31L13 31L13 33L11 33L11 35L10 35L10 33L9 33L9 32L8 32L8 34L9 34L9 36L10 36L10 37L11 37L11 35L12 35L12 36L13 36L13 35L12 35L12 34L13 34L13 33L14 33L14 35L15 35L15 33L16 33L16 35L17 35L17 37L18 37L18 36L19 36L19 35L20 35L20 37L21 37L21 36L22 36L22 37L24 37L24 36L25 36L25 35L24 35L24 34L25 34L25 33L24 33L24 34L23 34L23 32L21 32L21 31L20 31L20 29L19 29L19 30L18 30L18 27L19 27L19 26L20 26L20 27L21 27L21 28L22 28L22 27L23 27L23 28L24 28L24 27L25 27L25 26L22 26L22 25L21 25L21 26L20 26L20 25L18 25L18 24L20 24L20 23L21 23L21 24L22 24L22 23L23 23L23 22L22 22L22 21L19 21L19 22L20 22L20 23L18 23L18 20L19 20L19 19L20 19L20 20L21 20L21 18L22 18L22 17L21 17L21 15L22 15L22 13L21 13L21 11L20 11L20 10L22 10L22 12L23 12L23 14L24 14L24 15L26 15L26 16L25 16L25 17L23 17L23 19L22 19L22 20L23 20L23 21L24 21L24 20L23 20L23 19L24 19L24 18L25 18L25 17L26 17L26 19L25 19L25 20L28 20L28 21L27 21L27 24L28 24L28 23L29 23L29 24L30 24L30 23L29 23L29 20L28 20L28 19L29 19L29 16L30 16L30 17L31 17L31 18L32 18L32 16L34 16L34 17L33 17L33 20L32 20L32 21L31 21L31 20L30 20L30 21L31 21L31 22L32 22L32 23L31 23L31 24L32 24L32 23L33 23L33 25L30 25L30 26L31 26L31 27L32 27L32 28L29 28L29 27L28 27L28 26L27 26L27 25L26 25L26 21L25 21L25 22L24 22L24 23L25 23L25 24L24 24L24 25L26 25L26 27L28 27L28 28L27 28L27 29L28 29L28 30L25 30L25 29L26 29L26 28L25 28L25 29L24 29L24 30L23 30L23 29L21 29L21 30L22 30L22 31L24 31L24 32L27 32L27 34L26 34L26 35L27 35L27 36L26 36L26 37L34 37L34 36L36 36L36 37L37 37L37 34L35 34L35 35L34 35L34 34L31 34L31 33L33 33L33 32L34 32L34 31L35 31L35 32L36 32L36 33L37 33L37 32L36 32L36 31L37 31L37 30L36 30L36 29L37 29L37 26L36 26L36 28L35 28L35 25L37 25L37 22L36 22L36 21L37 21L37 18L36 18L36 17L37 17L37 14L35 14L35 13L34 13L34 14L33 14L33 13L32 13L32 11L31 11L31 9L30 9L30 10L29 10L29 13L28 13L28 14L27 14L27 13L25 13L25 14L24 14L24 12L25 12L25 11L24 11L24 10L23 10L23 9L22 9L22 8L25 8L25 10L26 10L26 7L27 7L27 8L28 8L28 9L29 9L29 6L28 6L28 7L27 7L27 6L26 6L26 7L25 7L25 6L24 6L24 7L23 7L23 4L25 4L25 3L27 3L27 4L26 4L26 5L27 5L27 4L28 4L28 5L29 5L29 2L27 2L27 1L25 1L25 0L21 0L21 1L23 1L23 2L24 2L24 3L23 3L23 4L22 4L22 3L20 3L20 4L22 4L22 8L20 8L20 7L21 7L21 6L20 6L20 5L19 5L19 4L15 4L15 3L17 3L17 2L20 2L20 1L18 1L18 0L16 0L16 1L15 1L15 2L14 2L14 1L13 1L13 0ZM28 0L28 1L29 1L29 0ZM16 1L16 2L17 2L17 1ZM12 4L12 5L14 5L14 4ZM11 6L11 7L10 7L10 8L12 8L12 9L11 9L11 10L10 10L10 11L9 11L9 12L8 12L8 10L7 10L7 11L6 11L6 12L8 12L8 13L9 13L9 17L8 17L8 18L10 18L10 13L11 13L11 15L12 15L12 16L11 16L11 19L10 19L10 20L11 20L11 21L13 21L13 20L11 20L11 19L14 19L14 20L16 20L16 19L19 19L19 18L21 18L21 17L18 17L18 13L20 13L20 14L21 14L21 13L20 13L20 11L19 11L19 12L17 12L17 11L18 11L18 10L19 10L19 9L20 9L20 8L19 8L19 9L18 9L18 6L17 6L17 7L16 7L16 6L15 6L15 8L14 8L14 6L13 6L13 7L12 7L12 6ZM19 6L19 7L20 7L20 6ZM15 8L15 10L16 10L16 9L17 9L17 10L18 10L18 9L17 9L17 8ZM33 8L33 9L32 9L32 10L33 10L33 11L34 11L34 12L35 12L35 11L34 11L34 10L36 10L36 11L37 11L37 10L36 10L36 9L35 9L35 8ZM12 9L12 12L11 12L11 11L10 11L10 12L9 12L9 13L10 13L10 12L11 12L11 13L12 13L12 12L13 12L13 14L12 14L12 15L13 15L13 14L15 14L15 15L17 15L17 14L16 14L16 13L17 13L17 12L16 12L16 11L13 11L13 9ZM33 9L33 10L34 10L34 9ZM1 10L1 11L2 11L2 10ZM23 11L23 12L24 12L24 11ZM27 11L27 12L28 12L28 11ZM14 12L14 13L16 13L16 12ZM5 13L5 14L7 14L7 13ZM30 13L30 14L28 14L28 15L30 15L30 16L32 16L32 15L33 15L33 14L32 14L32 13ZM26 14L26 15L27 15L27 14ZM30 14L30 15L31 15L31 14ZM1 15L1 16L2 16L2 17L3 17L3 18L7 18L7 17L5 17L5 16L4 16L4 15L3 15L3 16L2 16L2 15ZM6 15L6 16L8 16L8 15ZM19 15L19 16L20 16L20 15ZM3 16L3 17L4 17L4 16ZM12 16L12 17L15 17L15 16ZM16 16L16 17L17 17L17 16ZM27 16L27 17L28 17L28 16ZM34 17L34 18L35 18L35 19L34 19L34 21L33 21L33 23L34 23L34 21L35 21L35 19L36 19L36 18L35 18L35 17ZM14 18L14 19L15 19L15 18ZM6 19L6 20L7 20L7 21L8 21L8 22L7 22L7 23L8 23L8 24L7 24L7 25L6 25L6 26L7 26L7 27L5 27L5 28L7 28L7 27L9 27L9 26L7 26L7 25L9 25L9 21L8 21L8 20L9 20L9 19ZM14 21L14 23L12 23L12 24L10 24L10 26L12 26L12 25L13 25L13 26L14 26L14 27L13 27L13 29L12 29L12 28L11 28L11 29L12 29L12 30L13 30L13 31L14 31L14 30L13 30L13 29L14 29L14 27L15 27L15 25L14 25L14 23L15 23L15 24L18 24L18 23L17 23L17 22L16 22L16 21ZM10 22L10 23L11 23L11 22ZM15 22L15 23L16 23L16 22ZM34 24L34 25L33 25L33 26L32 26L32 27L33 27L33 29L34 29L34 25L35 25L35 24ZM17 26L17 27L16 27L16 28L15 28L15 30L16 30L16 31L15 31L15 32L16 32L16 33L17 33L17 35L19 35L19 34L20 34L20 35L21 35L21 34L22 34L22 36L23 36L23 34L22 34L22 33L21 33L21 32L19 32L19 31L17 31L17 29L16 29L16 28L17 28L17 27L18 27L18 26ZM21 26L21 27L22 27L22 26ZM29 29L29 32L32 32L32 29ZM30 30L30 31L31 31L31 30ZM35 30L35 31L36 31L36 30ZM18 33L18 34L19 34L19 33ZM20 33L20 34L21 34L21 33ZM28 33L28 34L27 34L27 35L28 35L28 36L30 36L30 35L31 35L31 34L30 34L30 33ZM28 34L28 35L30 35L30 34ZM0 0L0 7L7 7L7 0ZM1 1L1 6L6 6L6 1ZM2 2L2 5L5 5L5 2ZM30 0L30 7L37 7L37 0ZM31 1L31 6L36 6L36 1ZM32 2L32 5L35 5L35 2ZM0 30L0 37L7 37L7 30ZM1 31L1 36L6 36L6 31ZM2 32L2 35L5 35L5 32Z" fill="#000000"/></g></g></svg>
