<?xml version="1.0" encoding="UTF-8"?>
<svg xmlns="http://www.w3.org/2000/svg" version="1.1" width="300" height="300" viewBox="0 0 300 300"><rect x="0" y="0" width="300" height="300" fill="#ffffff"/><g transform="scale(7.692)"><g transform="translate(1,1)"><path fill-rule="evenodd" d="M8 0L8 3L9 3L9 4L10 4L10 5L8 5L8 9L7 9L7 8L6 8L6 9L7 9L7 10L5 10L5 11L4 11L4 10L3 10L3 9L5 9L5 8L2 8L2 10L3 10L3 11L1 11L1 9L0 9L0 11L1 11L1 13L0 13L0 16L1 16L1 18L0 18L0 19L1 19L1 23L3 23L3 24L2 24L2 25L1 25L1 24L0 24L0 29L1 29L1 26L2 26L2 25L3 25L3 24L4 24L4 26L3 26L3 27L2 27L2 29L3 29L3 28L4 28L4 29L7 29L7 28L8 28L8 30L9 30L9 29L10 29L10 31L9 31L9 32L8 32L8 35L10 35L10 34L9 34L9 32L10 32L10 31L11 31L11 29L13 29L13 30L12 30L12 31L14 31L14 30L15 30L15 29L16 29L16 31L15 31L15 32L14 32L14 33L13 33L13 34L14 34L14 35L13 35L13 37L15 37L15 36L16 36L16 37L17 37L17 35L18 35L18 36L19 36L19 37L22 37L22 36L21 36L21 34L20 34L20 35L18 35L18 34L19 34L19 33L20 33L20 32L18 32L18 31L19 31L19 30L20 30L20 31L21 31L21 33L22 33L22 31L21 31L21 30L20 30L20 29L21 29L21 25L22 25L22 26L23 26L23 27L22 27L22 28L23 28L23 30L24 30L24 32L25 32L25 33L24 33L24 34L25 34L25 33L26 33L26 34L27 34L27 33L28 33L28 36L27 36L27 37L28 37L28 36L30 36L30 37L31 37L31 36L33 36L33 37L37 37L37 34L36 34L36 36L33 36L33 35L34 35L34 34L35 34L35 32L36 32L36 33L37 33L37 32L36 32L36 31L37 31L37 30L35 30L35 32L34 32L34 33L33 33L33 31L34 31L34 30L33 30L33 28L34 28L34 29L35 29L35 28L34 28L34 27L32 27L32 26L31 26L31 25L35 25L35 24L32 24L32 23L31 23L31 25L30 25L30 24L29 24L29 23L30 23L30 22L27 22L27 21L26 21L26 20L25 20L25 22L22 22L22 23L21 23L21 24L20 24L20 23L16 23L16 20L17 20L17 22L18 22L18 20L19 20L19 19L18 19L18 18L19 18L19 17L20 17L20 16L19 16L19 15L18 15L18 16L19 16L19 17L17 17L17 16L16 16L16 15L17 15L17 14L18 14L18 13L20 13L20 15L21 15L21 16L23 16L23 15L25 15L25 13L27 13L27 16L28 16L28 17L29 17L29 19L30 19L30 17L31 17L31 20L30 20L30 21L31 21L31 22L32 22L32 21L33 21L33 22L34 22L34 23L35 23L35 22L36 22L36 25L37 25L37 22L36 22L36 21L37 21L37 18L35 18L35 16L36 16L36 17L37 17L37 14L35 14L35 13L36 13L36 11L37 11L37 10L36 10L36 9L37 9L37 8L34 8L34 9L33 9L33 10L31 10L31 9L32 9L32 8L29 8L29 4L28 4L28 5L27 5L27 3L28 3L28 1L27 1L27 0L26 0L26 1L25 1L25 0L24 0L24 1L23 1L23 2L21 2L21 1L22 1L22 0L18 0L18 1L17 1L17 2L20 2L20 3L19 3L19 4L18 4L18 9L19 9L19 11L20 11L20 12L18 12L18 13L17 13L17 14L15 14L15 15L14 15L14 14L12 14L12 15L10 15L10 13L9 13L9 11L8 11L8 13L9 13L9 14L8 14L8 15L10 15L10 16L9 16L9 19L10 19L10 16L11 16L11 24L6 24L6 23L7 23L7 22L4 22L4 21L8 21L8 22L9 22L9 23L10 23L10 22L9 22L9 21L10 21L10 20L9 20L9 21L8 21L8 20L6 20L6 19L7 19L7 18L6 18L6 17L8 17L8 16L5 16L5 15L7 15L7 14L5 14L5 13L7 13L7 12L6 12L6 11L7 11L7 10L10 10L10 9L9 9L9 6L10 6L10 7L11 7L11 6L12 6L12 7L13 7L13 5L14 5L14 7L15 7L15 9L14 9L14 11L13 11L13 9L12 9L12 10L11 10L11 11L10 11L10 12L14 12L14 13L16 13L16 12L15 12L15 10L17 10L17 8L16 8L16 7L17 7L17 6L16 6L16 7L15 7L15 5L17 5L17 3L16 3L16 2L15 2L15 0L14 0L14 2L13 2L13 0ZM10 1L10 4L11 4L11 5L13 5L13 4L14 4L14 5L15 5L15 3L13 3L13 2L12 2L12 3L11 3L11 1ZM23 2L23 3L24 3L24 2ZM25 2L25 4L24 4L24 6L23 6L23 4L22 4L22 3L20 3L20 4L19 4L19 5L21 5L21 8L22 8L22 9L20 9L20 10L21 10L21 11L22 11L22 12L20 12L20 13L21 13L21 14L24 14L24 12L23 12L23 11L24 11L24 10L25 10L25 12L27 12L27 13L30 13L30 14L28 14L28 15L30 15L30 16L33 16L33 17L32 17L32 18L34 18L34 19L33 19L33 20L35 20L35 18L34 18L34 16L35 16L35 14L34 14L34 15L33 15L33 13L34 13L34 12L35 12L35 9L34 9L34 12L33 12L33 11L32 11L32 12L31 12L31 13L30 13L30 9L29 9L29 8L28 8L28 6L27 6L27 5L26 5L26 2ZM12 3L12 4L13 4L13 3ZM19 6L19 7L20 7L20 6ZM22 6L22 8L25 8L25 6L24 6L24 7L23 7L23 6ZM26 6L26 8L27 8L27 6ZM23 9L23 10L22 10L22 11L23 11L23 10L24 10L24 9ZM25 9L25 10L26 10L26 11L27 11L27 10L29 10L29 9ZM28 11L28 12L29 12L29 11ZM2 12L2 14L1 14L1 16L4 16L4 17L5 17L5 16L4 16L4 15L5 15L5 14L4 14L4 13L3 13L3 12ZM22 12L22 13L23 13L23 12ZM32 12L32 13L31 13L31 14L30 14L30 15L32 15L32 13L33 13L33 12ZM2 14L2 15L4 15L4 14ZM12 15L12 22L13 22L13 24L11 24L11 25L10 25L10 26L9 26L9 25L6 25L6 26L5 26L5 28L7 28L7 27L6 27L6 26L8 26L8 28L9 28L9 27L10 27L10 28L11 28L11 26L12 26L12 25L13 25L13 24L14 24L14 23L15 23L15 22L13 22L13 21L15 21L15 20L14 20L14 19L16 19L16 18L15 18L15 17L16 17L16 16L14 16L14 15ZM13 16L13 17L14 17L14 16ZM25 16L25 17L24 17L24 18L25 18L25 17L26 17L26 19L28 19L28 18L27 18L27 17L26 17L26 16ZM22 17L22 18L20 18L20 20L22 20L22 21L24 21L24 20L23 20L23 19L22 19L22 18L23 18L23 17ZM4 18L4 19L3 19L3 20L2 20L2 21L4 21L4 20L5 20L5 19L6 19L6 18ZM20 21L20 22L21 22L21 21ZM34 21L34 22L35 22L35 21ZM3 22L3 23L4 23L4 22ZM24 23L24 24L25 24L25 25L23 25L23 26L25 26L25 25L26 25L26 26L27 26L27 25L28 25L28 26L29 26L29 27L28 27L28 28L32 28L32 27L31 27L31 26L30 26L30 25L28 25L28 23L26 23L26 24L25 24L25 23ZM17 24L17 25L19 25L19 26L16 26L16 25L14 25L14 26L13 26L13 29L15 29L15 27L16 27L16 29L17 29L17 30L19 30L19 29L20 29L20 27L19 27L19 26L20 26L20 25L19 25L19 24ZM26 24L26 25L27 25L27 24ZM36 26L36 29L37 29L37 26ZM17 27L17 29L19 29L19 27ZM24 27L24 29L25 29L25 32L26 32L26 33L27 33L27 32L28 32L28 31L27 31L27 29L25 29L25 28L26 28L26 27ZM29 29L29 32L32 32L32 29ZM30 30L30 31L31 31L31 30ZM15 32L15 33L14 33L14 34L15 34L15 35L16 35L16 34L18 34L18 32L17 32L17 33L16 33L16 32ZM15 33L15 34L16 34L16 33ZM29 33L29 35L31 35L31 34L32 34L32 35L33 35L33 34L32 34L32 33L31 33L31 34L30 34L30 33ZM22 34L22 35L23 35L23 34ZM11 35L11 36L12 36L12 35ZM24 35L24 36L25 36L25 37L26 37L26 36L25 36L25 35ZM0 0L0 7L7 7L7 0ZM1 1L1 6L6 6L6 1ZM2 2L2 5L5 5L5 2ZM30 0L30 7L37 7L37 0ZM31 1L31 6L36 6L36 1ZM32 2L32 5L35 5L35 2ZM0 30L0 37L7 37L7 30ZM1 31L1 36L6 36L6 31ZM2 32L2 35L5 35L5 32Z" fill="#000000"/></g></g></svg>
