<?xml version="1.0" encoding="UTF-8"?>
<svg xmlns="http://www.w3.org/2000/svg" version="1.1" width="300" height="300" viewBox="0 0 300 300"><rect x="0" y="0" width="300" height="300" fill="#ffffff"/><g transform="scale(7.692)"><g transform="translate(1,1)"><path fill-rule="evenodd" d="M9 0L9 1L10 1L10 0ZM11 0L11 1L12 1L12 3L11 3L11 2L10 2L10 3L9 3L9 4L8 4L8 5L11 5L11 6L10 6L10 7L9 7L9 6L8 6L8 8L6 8L6 9L7 9L7 10L6 10L6 11L5 11L5 12L4 12L4 11L2 11L2 12L1 12L1 11L0 11L0 12L1 12L1 15L0 15L0 21L1 21L1 22L0 22L0 23L1 23L1 24L0 24L0 25L3 25L3 24L2 24L2 23L1 23L1 22L3 22L3 23L5 23L5 24L4 24L4 26L5 26L5 25L8 25L8 26L9 26L9 28L10 28L10 29L11 29L11 28L13 28L13 27L14 27L14 24L13 24L13 27L12 27L12 25L11 25L11 24L12 24L12 23L9 23L9 21L8 21L8 23L7 23L7 22L6 22L6 23L5 23L5 22L4 22L4 18L3 18L3 17L2 17L2 16L1 16L1 15L3 15L3 14L4 14L4 15L5 15L5 18L6 18L6 19L7 19L7 20L5 20L5 21L7 21L7 20L8 20L8 19L9 19L9 20L10 20L10 21L11 21L11 22L12 22L12 21L13 21L13 23L15 23L15 22L16 22L16 21L17 21L17 24L15 24L15 25L16 25L16 26L15 26L15 28L14 28L14 30L13 30L13 29L12 29L12 31L11 31L11 30L9 30L9 29L8 29L8 31L9 31L9 32L10 32L10 33L11 33L11 34L12 34L12 36L13 36L13 37L15 37L15 35L17 35L17 34L16 34L16 32L17 32L17 33L18 33L18 35L20 35L20 36L19 36L19 37L22 37L22 36L23 36L23 35L25 35L25 37L26 37L26 35L27 35L27 37L28 37L28 35L29 35L29 36L30 36L30 37L31 37L31 36L30 36L30 35L32 35L32 36L33 36L33 37L37 37L37 36L35 36L35 35L36 35L36 34L35 34L35 33L34 33L34 30L35 30L35 31L36 31L36 32L37 32L37 29L36 29L36 28L37 28L37 27L36 27L36 28L34 28L34 27L33 27L33 28L28 28L28 27L27 27L27 24L28 24L28 25L29 25L29 26L30 26L30 27L32 27L32 26L34 26L34 25L35 25L35 26L37 26L37 24L36 24L36 25L35 25L35 23L36 23L36 20L35 20L35 22L34 22L34 21L33 21L33 20L34 20L34 17L36 17L36 18L35 18L35 19L37 19L37 17L36 17L36 16L37 16L37 15L36 15L36 14L37 14L37 13L36 13L36 12L37 12L37 11L34 11L34 15L35 15L35 16L33 16L33 18L31 18L31 17L32 17L32 16L31 16L31 17L29 17L29 16L30 16L30 15L29 15L29 13L28 13L28 15L27 15L27 16L23 16L23 15L24 15L24 13L26 13L26 14L25 14L25 15L26 15L26 14L27 14L27 12L28 12L28 10L29 10L29 11L30 11L30 10L31 10L31 8L29 8L29 6L28 6L28 7L27 7L27 6L26 6L26 5L25 5L25 3L26 3L26 4L27 4L27 5L29 5L29 4L27 4L27 2L26 2L26 1L27 1L27 0L26 0L26 1L25 1L25 0L24 0L24 1L25 1L25 3L22 3L22 4L24 4L24 5L22 5L22 7L21 7L21 4L20 4L20 7L19 7L19 6L18 6L18 7L17 7L17 5L18 5L18 4L17 4L17 2L16 2L16 1L15 1L15 0L14 0L14 1L15 1L15 2L14 2L14 3L15 3L15 4L14 4L14 5L13 5L13 0ZM18 0L18 1L19 1L19 2L18 2L18 3L20 3L20 2L22 2L22 0L21 0L21 1L19 1L19 0ZM15 2L15 3L16 3L16 2ZM28 2L28 3L29 3L29 2ZM10 3L10 4L11 4L11 3ZM15 4L15 5L14 5L14 6L13 6L13 5L12 5L12 6L11 6L11 7L10 7L10 8L11 8L11 9L10 9L10 12L9 12L9 14L11 14L11 15L6 15L6 14L8 14L8 12L7 12L7 11L8 11L8 10L7 10L7 11L6 11L6 12L7 12L7 13L6 13L6 14L5 14L5 13L4 13L4 14L5 14L5 15L6 15L6 16L9 16L9 17L8 17L8 18L7 18L7 17L6 17L6 18L7 18L7 19L8 19L8 18L10 18L10 20L11 20L11 21L12 21L12 20L11 20L11 19L13 19L13 20L14 20L14 21L16 21L16 18L17 18L17 17L14 17L14 18L13 18L13 17L12 17L12 16L14 16L14 15L16 15L16 16L18 16L18 15L19 15L19 16L20 16L20 17L19 17L19 18L18 18L18 19L17 19L17 20L20 20L20 21L18 21L18 22L19 22L19 23L18 23L18 24L17 24L17 27L16 27L16 28L15 28L15 29L16 29L16 30L14 30L14 31L13 31L13 32L14 32L14 31L15 31L15 32L16 32L16 30L18 30L18 31L17 31L17 32L19 32L19 33L20 33L20 34L24 34L24 32L25 32L25 35L26 35L26 33L27 33L27 34L28 34L28 32L26 32L26 31L27 31L27 30L28 30L28 28L26 28L26 26L24 26L24 28L22 28L22 27L21 27L21 28L20 28L20 26L21 26L21 25L22 25L22 26L23 26L23 25L22 25L22 23L20 23L20 21L21 21L21 22L23 22L23 23L25 23L25 25L26 25L26 24L27 24L27 23L28 23L28 24L30 24L30 26L32 26L32 25L31 25L31 24L33 24L33 23L32 23L32 22L33 22L33 21L32 21L32 20L33 20L33 19L32 19L32 20L29 20L29 18L28 18L28 20L29 20L29 21L27 21L27 20L26 20L26 18L25 18L25 17L23 17L23 16L22 16L22 19L21 19L21 20L20 20L20 19L19 19L19 18L21 18L21 15L23 15L23 13L24 13L24 12L25 12L25 11L26 11L26 12L27 12L27 10L25 10L25 11L23 11L23 13L22 13L22 11L21 11L21 10L23 10L23 9L25 9L25 8L26 8L26 9L27 9L27 7L26 7L26 6L25 6L25 7L24 7L24 6L23 6L23 7L22 7L22 8L21 8L21 7L20 7L20 8L19 8L19 7L18 7L18 8L17 8L17 7L16 7L16 6L15 6L15 5L16 5L16 4ZM12 6L12 7L11 7L11 8L12 8L12 10L13 10L13 9L15 9L15 10L17 10L17 11L16 11L16 12L17 12L17 11L18 11L18 13L17 13L17 15L18 15L18 14L19 14L19 15L21 15L21 14L22 14L22 13L21 13L21 14L19 14L19 13L20 13L20 12L21 12L21 11L20 11L20 9L21 9L21 8L20 8L20 9L19 9L19 10L17 10L17 8L16 8L16 9L15 9L15 8L14 8L14 7L15 7L15 6L14 6L14 7L13 7L13 6ZM2 8L2 9L3 9L3 10L4 10L4 8ZM32 8L32 9L33 9L33 10L32 10L32 11L33 11L33 10L34 10L34 9L33 9L33 8ZM0 9L0 10L1 10L1 9ZM29 9L29 10L30 10L30 9ZM35 9L35 10L36 10L36 9ZM11 11L11 12L12 12L12 11ZM14 11L14 14L16 14L16 13L15 13L15 11ZM2 12L2 13L3 13L3 12ZM30 12L30 14L33 14L33 12L32 12L32 13L31 13L31 12ZM11 13L11 14L13 14L13 13ZM11 15L11 16L12 16L12 15ZM1 17L1 18L2 18L2 17ZM10 17L10 18L12 18L12 17ZM30 18L30 19L31 19L31 18ZM2 19L2 20L1 20L1 21L3 21L3 19ZM22 19L22 20L21 20L21 21L22 21L22 20L23 20L23 21L25 21L25 23L26 23L26 22L27 22L27 21L25 21L25 19ZM31 21L31 22L30 22L30 24L31 24L31 22L32 22L32 21ZM28 22L28 23L29 23L29 22ZM6 23L6 24L7 24L7 23ZM8 23L8 24L9 24L9 23ZM19 24L19 25L21 25L21 24ZM9 25L9 26L11 26L11 25ZM1 26L1 27L0 27L0 28L1 28L1 27L3 27L3 26ZM6 26L6 27L7 27L7 28L6 28L6 29L7 29L7 28L8 28L8 27L7 27L7 26ZM18 26L18 27L17 27L17 28L19 28L19 26ZM4 27L4 28L3 28L3 29L5 29L5 27ZM10 27L10 28L11 28L11 27ZM21 28L21 30L20 30L20 33L21 33L21 30L24 30L24 31L23 31L23 32L22 32L22 33L23 33L23 32L24 32L24 31L25 31L25 30L26 30L26 28L24 28L24 29L22 29L22 28ZM18 29L18 30L19 30L19 29ZM24 29L24 30L25 30L25 29ZM29 29L29 32L32 32L32 29ZM35 29L35 30L36 30L36 29ZM30 30L30 31L31 31L31 30ZM11 32L11 33L12 33L12 32ZM8 33L8 35L9 35L9 36L11 36L11 35L9 35L9 33ZM14 33L14 34L13 34L13 36L14 36L14 35L15 35L15 33ZM29 33L29 34L30 34L30 33ZM31 33L31 34L32 34L32 33ZM33 34L33 35L35 35L35 34ZM16 36L16 37L17 37L17 36ZM0 0L0 7L7 7L7 0ZM1 1L1 6L6 6L6 1ZM2 2L2 5L5 5L5 2ZM30 0L30 7L37 7L37 0ZM31 1L31 6L36 6L36 1ZM32 2L32 5L35 5L35 2ZM0 30L0 37L7 37L7 30ZM1 31L1 36L6 36L6 31ZM2 32L2 35L5 35L5 32Z" fill="#000000"/></g></g></svg>
