<?xml version="1.0" encoding="UTF-8"?>
<svg xmlns="http://www.w3.org/2000/svg" version="1.1" width="300" height="300" viewBox="0 0 300 300"><rect x="0" y="0" width="300" height="300" fill="#ffffff"/><g transform="scale(7.692)"><g transform="translate(1,1)"><path fill-rule="evenodd" d="M10 0L10 1L13 1L13 2L12 2L12 3L14 3L14 5L15 5L15 6L14 6L14 7L13 7L13 5L12 5L12 4L11 4L11 2L9 2L9 1L8 1L8 2L9 2L9 5L8 5L8 8L4 8L4 9L0 9L0 10L2 10L2 11L0 11L0 12L2 12L2 11L4 11L4 12L5 12L5 13L7 13L7 14L4 14L4 13L2 13L2 15L4 15L4 16L5 16L5 17L4 17L4 18L2 18L2 21L7 21L7 20L8 20L8 19L10 19L10 20L11 20L11 21L12 21L12 22L13 22L13 23L15 23L15 24L16 24L16 23L19 23L19 25L17 25L17 27L16 27L16 28L17 28L17 27L18 27L18 26L19 26L19 27L20 27L20 28L19 28L19 29L20 29L20 31L21 31L21 32L20 32L20 34L19 34L19 33L18 33L18 35L17 35L17 36L16 36L16 35L14 35L14 34L15 34L15 33L17 33L17 32L16 32L16 30L18 30L18 31L19 31L19 30L18 30L18 29L15 29L15 28L11 28L11 29L10 29L10 31L9 31L9 29L8 29L8 26L9 26L9 27L10 27L10 25L12 25L12 26L13 26L13 25L12 25L12 23L11 23L11 22L10 22L10 21L9 21L9 22L8 22L8 24L9 24L9 23L10 23L10 25L7 25L7 24L4 24L4 23L3 23L3 22L1 22L1 23L0 23L0 24L1 24L1 25L0 25L0 26L1 26L1 25L2 25L2 23L3 23L3 26L2 26L2 28L0 28L0 29L3 29L3 28L4 28L4 29L5 29L5 28L6 28L6 29L8 29L8 33L9 33L9 35L10 35L10 36L9 36L9 37L10 37L10 36L11 36L11 37L12 37L12 36L13 36L13 37L14 37L14 36L15 36L15 37L17 37L17 36L18 36L18 35L19 35L19 36L20 36L20 35L21 35L21 37L22 37L22 33L21 33L21 32L24 32L24 30L27 30L27 31L28 31L28 33L27 33L27 32L26 32L26 33L24 33L24 34L23 34L23 36L24 36L24 35L25 35L25 34L26 34L26 33L27 33L27 34L29 34L29 35L31 35L31 36L30 36L30 37L33 37L33 35L34 35L34 37L37 37L37 36L36 36L36 34L35 34L35 30L34 30L34 29L35 29L35 28L36 28L36 29L37 29L37 28L36 28L36 26L34 26L34 27L33 27L33 25L30 25L30 24L32 24L32 23L31 23L31 22L30 22L30 23L29 23L29 24L27 24L27 25L26 25L26 23L28 23L28 20L30 20L30 21L31 21L31 20L33 20L33 19L34 19L34 21L35 21L35 23L34 23L34 25L35 25L35 24L36 24L36 25L37 25L37 24L36 24L36 21L37 21L37 20L35 20L35 13L36 13L36 12L37 12L37 11L36 11L36 12L35 12L35 10L36 10L36 8L35 8L35 10L33 10L33 9L32 9L32 8L30 8L30 10L29 10L29 9L28 9L28 8L27 8L27 5L28 5L28 7L29 7L29 2L27 2L27 3L26 3L26 4L25 4L25 6L24 6L24 4L23 4L23 3L24 3L24 2L25 2L25 0L24 0L24 1L22 1L22 0L21 0L21 1L20 1L20 0L19 0L19 1L17 1L17 2L16 2L16 0L15 0L15 3L14 3L14 0ZM27 0L27 1L28 1L28 0ZM21 1L21 2L19 2L19 4L20 4L20 5L19 5L19 7L18 7L18 4L17 4L17 3L16 3L16 4L15 4L15 5L16 5L16 6L15 6L15 7L16 7L16 6L17 6L17 7L18 7L18 8L15 8L15 11L16 11L16 13L15 13L15 12L14 12L14 13L15 13L15 14L14 14L14 15L13 15L13 11L14 11L14 10L12 10L12 9L14 9L14 8L13 8L13 7L12 7L12 6L11 6L11 8L10 8L10 5L9 5L9 8L8 8L8 9L4 9L4 11L5 11L5 10L7 10L7 11L6 11L6 12L8 12L8 13L9 13L9 12L8 12L8 11L10 11L10 10L11 10L11 13L10 13L10 15L8 15L8 14L7 14L7 15L5 15L5 16L7 16L7 17L5 17L5 18L8 18L8 17L9 17L9 18L12 18L12 19L13 19L13 18L12 18L12 17L14 17L14 15L15 15L15 14L16 14L16 15L17 15L17 17L18 17L18 18L16 18L16 17L15 17L15 19L14 19L14 20L12 20L12 21L14 21L14 22L17 22L17 20L18 20L18 22L20 22L20 26L21 26L21 28L20 28L20 29L21 29L21 28L22 28L22 30L21 30L21 31L22 31L22 30L23 30L23 28L24 28L24 29L27 29L27 30L28 30L28 28L26 28L26 27L25 27L25 26L26 26L26 25L23 25L23 27L22 27L22 26L21 26L21 21L20 21L20 20L19 20L19 19L21 19L21 20L22 20L22 23L23 23L23 24L24 24L24 23L25 23L25 22L27 22L27 21L26 21L26 19L27 19L27 20L28 20L28 19L27 19L27 17L26 17L26 16L27 16L27 14L28 14L28 13L30 13L30 15L28 15L28 16L30 16L30 15L31 15L31 17L30 17L30 18L29 18L29 17L28 17L28 18L29 18L29 19L30 19L30 18L32 18L32 17L33 17L33 16L34 16L34 15L33 15L33 14L34 14L34 13L33 13L33 12L32 12L32 11L33 11L33 10L30 10L30 12L29 12L29 11L28 11L28 9L25 9L25 10L24 10L24 11L23 11L23 9L24 9L24 8L26 8L26 6L25 6L25 7L24 7L24 6L23 6L23 4L22 4L22 3L21 3L21 2L22 2L22 1ZM27 3L27 4L26 4L26 5L27 5L27 4L28 4L28 3ZM16 4L16 5L17 5L17 4ZM21 4L21 5L20 5L20 7L19 7L19 8L18 8L18 9L20 9L20 10L18 10L18 11L20 11L20 13L19 13L19 14L17 14L17 15L19 15L19 14L20 14L20 15L21 15L21 19L23 19L23 21L24 21L24 20L25 20L25 19L26 19L26 17L24 17L24 15L25 15L25 14L27 14L27 13L28 13L28 12L27 12L27 13L25 13L25 11L24 11L24 12L23 12L23 11L21 11L21 10L22 10L22 9L23 9L23 8L22 8L22 7L23 7L23 6L22 6L22 7L21 7L21 5L22 5L22 4ZM9 8L9 9L10 9L10 8ZM20 8L20 9L22 9L22 8ZM16 9L16 10L17 10L17 9ZM26 10L26 11L27 11L27 10ZM17 12L17 13L18 13L18 12ZM30 12L30 13L32 13L32 14L31 14L31 15L32 15L32 14L33 14L33 13L32 13L32 12ZM0 13L0 14L1 14L1 13ZM20 13L20 14L21 14L21 13ZM22 13L22 17L23 17L23 18L24 18L24 17L23 17L23 15L24 15L24 13ZM11 14L11 15L12 15L12 16L10 16L10 17L12 17L12 16L13 16L13 15L12 15L12 14ZM36 16L36 17L37 17L37 16ZM19 17L19 18L18 18L18 19L19 19L19 18L20 18L20 17ZM0 18L0 21L1 21L1 18ZM3 19L3 20L4 20L4 19ZM5 19L5 20L7 20L7 19ZM15 19L15 20L14 20L14 21L15 21L15 20L16 20L16 19ZM32 21L32 22L33 22L33 21ZM6 22L6 23L7 23L7 22ZM4 25L4 26L3 26L3 27L4 27L4 28L5 28L5 27L6 27L6 28L7 28L7 27L6 27L6 26L7 26L7 25L6 25L6 26L5 26L5 25ZM15 25L15 26L16 26L16 25ZM27 25L27 26L28 26L28 27L29 27L29 26L30 26L30 25ZM4 26L4 27L5 27L5 26ZM31 26L31 28L33 28L33 27L32 27L32 26ZM24 27L24 28L25 28L25 27ZM11 29L11 30L12 30L12 31L13 31L13 32L14 32L14 33L12 33L12 32L11 32L11 35L12 35L12 34L14 34L14 33L15 33L15 29ZM29 29L29 32L32 32L32 29ZM13 30L13 31L14 31L14 30ZM30 30L30 31L31 31L31 30ZM33 31L33 32L34 32L34 31ZM36 31L36 33L37 33L37 31ZM9 32L9 33L10 33L10 32ZM29 33L29 34L30 34L30 33ZM32 33L32 35L33 35L33 34L34 34L34 33ZM13 35L13 36L14 36L14 35ZM26 36L26 37L27 37L27 36ZM0 0L0 7L7 7L7 0ZM1 1L1 6L6 6L6 1ZM2 2L2 5L5 5L5 2ZM30 0L30 7L37 7L37 0ZM31 1L31 6L36 6L36 1ZM32 2L32 5L35 5L35 2ZM0 30L0 37L7 37L7 30ZM1 31L1 36L6 36L6 31ZM2 32L2 35L5 35L5 32Z" fill="#000000"/></g></g></svg>
