<?xml version="1.0" encoding="UTF-8"?>
<svg xmlns="http://www.w3.org/2000/svg" version="1.1" width="300" height="300" viewBox="0 0 300 300"><rect x="0" y="0" width="300" height="300" fill="#ffffff"/><g transform="scale(7.692)"><g transform="translate(1,1)"><path fill-rule="evenodd" d="M8 0L8 3L9 3L9 4L10 4L10 5L8 5L8 9L7 9L7 8L6 8L6 9L7 9L7 10L6 10L6 11L7 11L7 10L10 10L10 9L9 9L9 6L10 6L10 7L11 7L11 8L13 8L13 9L12 9L12 10L11 10L11 12L10 12L10 11L8 11L8 13L9 13L9 14L8 14L8 15L9 15L9 18L8 18L8 16L6 16L6 15L7 15L7 14L6 14L6 15L4 15L4 14L5 14L5 13L7 13L7 12L5 12L5 13L4 13L4 12L2 12L2 11L5 11L5 10L4 10L4 9L5 9L5 8L2 8L2 9L3 9L3 10L2 10L2 11L1 11L1 9L0 9L0 11L1 11L1 13L0 13L0 16L1 16L1 18L2 18L2 20L0 20L0 21L1 21L1 22L0 22L0 23L1 23L1 25L0 25L0 29L1 29L1 25L2 25L2 27L3 27L3 28L2 28L2 29L5 29L5 27L7 27L7 28L6 28L6 29L7 29L7 28L8 28L8 30L9 30L9 31L10 31L10 30L11 30L11 29L13 29L13 30L12 30L12 31L14 31L14 30L15 30L15 32L14 32L14 33L13 33L13 32L12 32L12 33L11 33L11 32L8 32L8 35L10 35L10 34L11 34L11 35L12 35L12 36L13 36L13 35L14 35L14 37L15 37L15 36L16 36L16 37L17 37L17 35L18 35L18 36L19 36L19 35L18 35L18 34L20 34L20 37L21 37L21 36L23 36L23 34L21 34L21 33L22 33L22 31L21 31L21 30L20 30L20 29L21 29L21 24L20 24L20 22L22 22L22 21L19 21L19 23L16 23L16 20L17 20L17 22L18 22L18 20L21 20L21 19L22 19L22 20L23 20L23 21L24 21L24 20L23 20L23 19L22 19L22 18L23 18L23 17L24 17L24 18L25 18L25 19L26 19L26 20L25 20L25 22L23 22L23 23L22 23L22 25L25 25L25 26L23 26L23 27L22 27L22 28L23 28L23 30L24 30L24 32L25 32L25 33L24 33L24 34L25 34L25 33L26 33L26 34L27 34L27 33L28 33L28 36L27 36L27 37L28 37L28 36L30 36L30 37L31 37L31 36L33 36L33 37L37 37L37 34L36 34L36 36L33 36L33 35L34 35L34 34L35 34L35 32L36 32L36 33L37 33L37 32L36 32L36 31L37 31L37 30L35 30L35 32L34 32L34 33L33 33L33 31L34 31L34 30L33 30L33 28L34 28L34 29L35 29L35 28L34 28L34 27L33 27L33 26L34 26L34 25L35 25L35 24L32 24L32 23L31 23L31 25L30 25L30 24L29 24L29 23L30 23L30 22L27 22L27 21L26 21L26 20L27 20L27 19L28 19L28 18L27 18L27 17L26 17L26 16L25 16L25 15L24 15L24 14L25 14L25 13L27 13L27 16L28 16L28 17L29 17L29 19L30 19L30 17L31 17L31 20L30 20L30 21L31 21L31 22L32 22L32 21L33 21L33 22L34 22L34 23L35 23L35 22L36 22L36 25L37 25L37 22L36 22L36 21L37 21L37 18L35 18L35 16L36 16L36 17L37 17L37 14L35 14L35 13L36 13L36 11L37 11L37 10L36 10L36 9L37 9L37 8L34 8L34 9L33 9L33 10L31 10L31 9L32 9L32 8L29 8L29 4L28 4L28 5L27 5L27 3L28 3L28 1L27 1L27 0L24 0L24 1L20 1L20 0L18 0L18 1L17 1L17 2L19 2L19 3L22 3L22 2L24 2L24 3L23 3L23 5L22 5L22 7L21 7L21 6L20 6L20 5L21 5L21 4L20 4L20 5L19 5L19 4L18 4L18 9L19 9L19 11L18 11L18 10L16 10L16 11L15 11L15 10L14 10L14 11L13 11L13 9L16 9L16 7L17 7L17 6L16 6L16 7L15 7L15 5L17 5L17 3L16 3L16 2L15 2L15 0L14 0L14 2L13 2L13 0L12 0L12 2L13 2L13 3L12 3L12 4L10 4L10 0ZM14 2L14 3L13 3L13 4L12 4L12 5L13 5L13 7L14 7L14 5L15 5L15 4L14 4L14 3L15 3L15 2ZM25 2L25 4L24 4L24 6L23 6L23 7L22 7L22 8L21 8L21 9L20 9L20 8L19 8L19 9L20 9L20 10L21 10L21 11L22 11L22 12L20 12L20 11L19 11L19 12L18 12L18 14L17 14L17 12L15 12L15 13L14 13L14 12L11 12L11 13L10 13L10 12L9 12L9 13L10 13L10 14L11 14L11 15L12 15L12 17L13 17L13 18L15 18L15 19L14 19L14 21L13 21L13 19L12 19L12 20L11 20L11 16L10 16L10 19L6 19L6 18L7 18L7 17L6 17L6 18L4 18L4 19L3 19L3 20L2 20L2 21L4 21L4 22L3 22L3 23L2 23L2 24L3 24L3 23L4 23L4 22L7 22L7 23L6 23L6 24L8 24L8 22L7 22L7 21L4 21L4 20L5 20L5 19L6 19L6 20L10 20L10 21L9 21L9 22L10 22L10 23L9 23L9 24L12 24L12 25L6 25L6 26L8 26L8 28L10 28L10 29L11 29L11 28L10 28L10 27L9 27L9 26L12 26L12 25L14 25L14 26L13 26L13 29L15 29L15 30L16 30L16 29L17 29L17 30L19 30L19 31L18 31L18 32L17 32L17 33L16 33L16 32L15 32L15 33L14 33L14 35L16 35L16 34L18 34L18 32L21 32L21 31L20 31L20 30L19 30L19 29L20 29L20 27L19 27L19 28L16 28L16 26L17 26L17 27L18 27L18 26L17 26L17 25L19 25L19 26L20 26L20 24L17 24L17 25L16 25L16 26L15 26L15 24L14 24L14 23L13 23L13 24L12 24L12 23L11 23L11 22L12 22L12 21L13 21L13 22L14 22L14 21L15 21L15 19L16 19L16 18L15 18L15 17L16 17L16 16L18 16L18 17L19 17L19 16L20 16L20 18L18 18L18 19L20 19L20 18L22 18L22 17L23 17L23 16L24 16L24 17L25 17L25 18L26 18L26 19L27 19L27 18L26 18L26 17L25 17L25 16L24 16L24 15L23 15L23 16L21 16L21 15L20 15L20 13L21 13L21 14L24 14L24 12L27 12L27 13L30 13L30 14L28 14L28 15L30 15L30 16L33 16L33 17L32 17L32 18L34 18L34 19L33 19L33 20L35 20L35 18L34 18L34 16L35 16L35 14L34 14L34 15L33 15L33 13L34 13L34 12L35 12L35 9L34 9L34 12L33 12L33 11L31 11L31 13L30 13L30 9L29 9L29 8L28 8L28 6L27 6L27 5L26 5L26 3L27 3L27 2ZM13 4L13 5L14 5L14 4ZM11 6L11 7L12 7L12 6ZM19 6L19 7L20 7L20 6ZM24 6L24 7L23 7L23 8L24 8L24 9L23 9L23 10L22 10L22 11L23 11L23 10L24 10L24 11L25 11L25 10L26 10L26 11L27 11L27 10L29 10L29 9L25 9L25 6ZM26 6L26 8L27 8L27 6ZM28 11L28 12L29 12L29 11ZM19 12L19 13L20 13L20 12ZM22 12L22 13L23 13L23 12ZM32 12L32 13L31 13L31 14L30 14L30 15L32 15L32 13L33 13L33 12ZM2 13L2 14L1 14L1 16L4 16L4 17L5 17L5 16L4 16L4 15L2 15L2 14L4 14L4 13ZM15 13L15 15L14 15L14 14L12 14L12 15L14 15L14 16L13 16L13 17L14 17L14 16L16 16L16 15L17 15L17 14L16 14L16 13ZM18 14L18 15L19 15L19 14ZM34 21L34 22L35 22L35 21ZM24 23L24 24L25 24L25 25L26 25L26 26L27 26L27 25L28 25L28 26L29 26L29 27L28 27L28 28L33 28L33 27L32 27L32 26L33 26L33 25L31 25L31 26L30 26L30 25L28 25L28 23L26 23L26 24L25 24L25 23ZM26 24L26 25L27 25L27 24ZM3 25L3 27L5 27L5 25ZM36 26L36 29L37 29L37 26ZM24 27L24 29L25 29L25 32L26 32L26 33L27 33L27 32L28 32L28 31L27 31L27 29L25 29L25 28L26 28L26 27ZM29 29L29 32L32 32L32 29ZM30 30L30 31L31 31L31 30ZM9 33L9 34L10 34L10 33ZM15 33L15 34L16 34L16 33ZM29 33L29 35L31 35L31 34L32 34L32 35L33 35L33 34L32 34L32 33L31 33L31 34L30 34L30 33ZM24 35L24 36L25 36L25 37L26 37L26 36L25 36L25 35ZM0 0L0 7L7 7L7 0ZM1 1L1 6L6 6L6 1ZM2 2L2 5L5 5L5 2ZM30 0L30 7L37 7L37 0ZM31 1L31 6L36 6L36 1ZM32 2L32 5L35 5L35 2ZM0 30L0 37L7 37L7 30ZM1 31L1 36L6 36L6 31ZM2 32L2 35L5 35L5 32Z" fill="#000000"/></g></g></svg>
