<?xml version="1.0" encoding="UTF-8"?>
<svg xmlns="http://www.w3.org/2000/svg" version="1.1" width="300" height="300" viewBox="0 0 300 300"><rect x="0" y="0" width="300" height="300" fill="#ffffff"/><g transform="scale(7.692)"><g transform="translate(1,1)"><path fill-rule="evenodd" d="M8 0L8 1L9 1L9 2L10 2L10 3L8 3L8 4L9 4L9 6L8 6L8 7L9 7L9 6L10 6L10 7L11 7L11 5L13 5L13 6L12 6L12 7L13 7L13 6L14 6L14 9L13 9L13 10L12 10L12 9L11 9L11 8L8 8L8 11L7 11L7 10L6 10L6 9L7 9L7 8L4 8L4 9L3 9L3 8L2 8L2 10L3 10L3 11L4 11L4 12L5 12L5 13L7 13L7 14L6 14L6 15L5 15L5 14L4 14L4 13L2 13L2 12L1 12L1 10L0 10L0 12L1 12L1 13L2 13L2 14L3 14L3 15L5 15L5 16L4 16L4 17L2 17L2 15L1 15L1 14L0 14L0 15L1 15L1 17L0 17L0 21L2 21L2 22L1 22L1 23L2 23L2 22L3 22L3 24L5 24L5 25L7 25L7 26L6 26L6 27L5 27L5 26L4 26L4 25L2 25L2 24L0 24L0 25L1 25L1 26L0 26L0 27L1 27L1 28L0 28L0 29L1 29L1 28L5 28L5 29L7 29L7 28L6 28L6 27L9 27L9 26L10 26L10 27L13 27L13 28L9 28L9 29L8 29L8 30L10 30L10 31L11 31L11 32L14 32L14 31L15 31L15 29L16 29L16 28L14 28L14 27L17 27L17 29L18 29L18 30L16 30L16 31L17 31L17 32L18 32L18 33L17 33L17 35L16 35L16 33L15 33L15 34L14 34L14 35L13 35L13 33L11 33L11 34L10 34L10 35L11 35L11 34L12 34L12 37L13 37L13 36L14 36L14 37L16 37L16 36L18 36L18 33L20 33L20 34L19 34L19 35L21 35L21 37L23 37L23 36L24 36L24 35L22 35L22 34L21 34L21 33L20 33L20 31L19 31L19 32L18 32L18 30L19 30L19 28L21 28L21 29L24 29L24 28L25 28L25 30L24 30L24 31L23 31L23 30L21 30L21 32L22 32L22 33L23 33L23 34L24 34L24 33L23 33L23 32L24 32L24 31L25 31L25 34L26 34L26 35L25 35L25 37L27 37L27 36L26 36L26 35L28 35L28 37L29 37L29 35L28 35L28 34L30 34L30 33L31 33L31 35L32 35L32 37L33 37L33 34L34 34L34 35L35 35L35 37L37 37L37 36L36 36L36 35L37 35L37 28L36 28L36 27L37 27L37 24L36 24L36 23L37 23L37 20L35 20L35 21L36 21L36 23L35 23L35 24L36 24L36 25L35 25L35 26L36 26L36 27L35 27L35 28L36 28L36 29L35 29L35 30L34 30L34 31L36 31L36 33L34 33L34 32L33 32L33 29L34 29L34 27L33 27L33 28L32 28L32 24L31 24L31 23L30 23L30 22L31 22L31 21L32 21L32 20L33 20L33 19L32 19L32 18L31 18L31 17L32 17L32 15L33 15L33 14L34 14L34 15L37 15L37 13L36 13L36 12L37 12L37 8L36 8L36 10L34 10L34 8L33 8L33 10L32 10L32 9L31 9L31 10L30 10L30 8L29 8L29 5L28 5L28 4L27 4L27 3L25 3L25 2L24 2L24 3L25 3L25 4L27 4L27 6L26 6L26 5L24 5L24 4L23 4L23 0L22 0L22 3L21 3L21 1L20 1L20 3L17 3L17 2L16 2L16 3L15 3L15 2L14 2L14 3L13 3L13 2L12 2L12 1L13 1L13 0L11 0L11 2L10 2L10 1L9 1L9 0ZM15 0L15 1L17 1L17 0ZM24 0L24 1L25 1L25 0ZM27 0L27 2L28 2L28 3L29 3L29 2L28 2L28 1L29 1L29 0ZM10 3L10 5L11 5L11 3ZM13 4L13 5L15 5L15 7L16 7L16 8L15 8L15 9L16 9L16 10L17 10L17 11L15 11L15 10L13 10L13 11L11 11L11 9L10 9L10 11L9 11L9 12L7 12L7 11L5 11L5 10L4 10L4 11L5 11L5 12L7 12L7 13L8 13L8 14L7 14L7 15L6 15L6 16L7 16L7 15L8 15L8 16L9 16L9 17L10 17L10 18L8 18L8 17L6 17L6 18L5 18L5 19L4 19L4 18L2 18L2 17L1 17L1 18L2 18L2 19L1 19L1 20L2 20L2 19L3 19L3 20L4 20L4 23L5 23L5 24L8 24L8 26L9 26L9 25L10 25L10 26L11 26L11 23L13 23L13 24L12 24L12 26L13 26L13 27L14 27L14 25L13 25L13 24L14 24L14 23L13 23L13 21L14 21L14 20L15 20L15 21L16 21L16 22L15 22L15 23L16 23L16 22L17 22L17 25L16 25L16 24L15 24L15 25L16 25L16 26L17 26L17 27L19 27L19 25L21 25L21 26L20 26L20 27L21 27L21 28L22 28L22 27L21 27L21 26L22 26L22 25L23 25L23 24L24 24L24 23L23 23L23 21L22 21L22 23L23 23L23 24L22 24L22 25L21 25L21 23L19 23L19 22L18 22L18 21L19 21L19 20L20 20L20 21L21 21L21 20L22 20L22 19L21 19L21 20L20 20L20 19L19 19L19 18L18 18L18 17L17 17L17 15L18 15L18 16L19 16L19 15L20 15L20 16L21 16L21 15L23 15L23 16L24 16L24 18L23 18L23 19L26 19L26 20L29 20L29 21L27 21L27 22L26 22L26 21L25 21L25 20L24 20L24 21L25 21L25 22L26 22L26 23L25 23L25 26L26 26L26 27L28 27L28 28L26 28L26 30L25 30L25 31L26 31L26 32L27 32L27 34L28 34L28 30L27 30L27 29L28 29L28 28L29 28L29 27L31 27L31 24L30 24L30 26L29 26L29 24L28 24L28 23L29 23L29 21L30 21L30 20L29 20L29 19L28 19L28 18L30 18L30 19L31 19L31 20L32 20L32 19L31 19L31 18L30 18L30 17L29 17L29 16L30 16L30 12L31 12L31 14L33 14L33 11L34 11L34 13L35 13L35 12L36 12L36 11L34 11L34 10L33 10L33 11L30 11L30 10L29 10L29 11L30 11L30 12L29 12L29 14L27 14L27 12L28 12L28 11L27 11L27 10L26 10L26 8L25 8L25 7L26 7L26 6L25 6L25 7L24 7L24 5L23 5L23 4L22 4L22 5L23 5L23 7L22 7L22 6L21 6L21 5L20 5L20 4L19 4L19 5L18 5L18 4ZM17 5L17 6L16 6L16 7L17 7L17 8L18 8L18 12L19 12L19 14L18 14L18 13L17 13L17 12L15 12L15 11L14 11L14 12L15 12L15 14L14 14L14 13L11 13L11 11L10 11L10 12L9 12L9 16L10 16L10 17L12 17L12 18L10 18L10 19L13 19L13 20L12 20L12 21L11 21L11 20L10 20L10 21L11 21L11 22L10 22L10 23L11 23L11 22L12 22L12 21L13 21L13 20L14 20L14 19L15 19L15 20L16 20L16 21L18 21L18 20L17 20L17 19L18 19L18 18L17 18L17 17L16 17L16 13L17 13L17 14L18 14L18 15L19 15L19 14L21 14L21 13L22 13L22 10L23 10L23 11L24 11L24 12L23 12L23 13L24 13L24 12L25 12L25 14L26 14L26 15L24 15L24 16L25 16L25 18L26 18L26 19L27 19L27 17L28 17L28 16L29 16L29 15L27 15L27 14L26 14L26 11L25 11L25 8L24 8L24 10L23 10L23 9L22 9L22 7L21 7L21 6L20 6L20 7L19 7L19 6L18 6L18 5ZM17 6L17 7L18 7L18 8L19 8L19 10L20 10L20 11L21 11L21 10L22 10L22 9L21 9L21 8L19 8L19 7L18 7L18 6ZM27 6L27 8L28 8L28 6ZM10 13L10 14L11 14L11 15L10 15L10 16L12 16L12 14L11 14L11 13ZM26 15L26 16L27 16L27 15ZM33 16L33 17L34 17L34 19L37 19L37 16L36 16L36 17L34 17L34 16ZM13 17L13 18L15 18L15 17ZM6 18L6 19L7 19L7 20L5 20L5 23L7 23L7 22L8 22L8 23L9 23L9 22L8 22L8 18ZM16 18L16 19L17 19L17 18ZM6 21L6 22L7 22L7 21ZM33 21L33 22L32 22L32 23L34 23L34 21ZM27 24L27 26L28 26L28 24ZM33 25L33 26L34 26L34 25ZM1 26L1 27L2 27L2 26ZM3 26L3 27L4 27L4 26ZM23 27L23 28L24 28L24 27ZM13 28L13 30L14 30L14 28ZM10 29L10 30L11 30L11 31L12 31L12 30L11 30L11 29ZM29 29L29 32L32 32L32 29ZM26 30L26 31L27 31L27 30ZM30 30L30 31L31 31L31 30ZM8 31L8 33L10 33L10 32L9 32L9 31ZM22 31L22 32L23 32L23 31ZM8 34L8 35L9 35L9 34ZM35 34L35 35L36 35L36 34ZM14 35L14 36L15 36L15 35ZM9 36L9 37L11 37L11 36ZM19 36L19 37L20 37L20 36ZM30 36L30 37L31 37L31 36ZM0 0L0 7L7 7L7 0ZM1 1L1 6L6 6L6 1ZM2 2L2 5L5 5L5 2ZM30 0L30 7L37 7L37 0ZM31 1L31 6L36 6L36 1ZM32 2L32 5L35 5L35 2ZM0 30L0 37L7 37L7 30ZM1 31L1 36L6 36L6 31ZM2 32L2 35L5 35L5 32Z" fill="#000000"/></g></g></svg>
