<?xml version="1.0" encoding="UTF-8"?>
<svg xmlns="http://www.w3.org/2000/svg" version="1.1" width="300" height="300" viewBox="0 0 300 300"><rect x="0" y="0" width="300" height="300" fill="#ffffff"/><g transform="scale(7.692)"><g transform="translate(1,1)"><path fill-rule="evenodd" d="M8 0L8 3L9 3L9 4L10 4L10 5L8 5L8 9L7 9L7 8L6 8L6 9L7 9L7 10L5 10L5 8L2 8L2 11L1 11L1 9L0 9L0 11L1 11L1 13L0 13L0 16L1 16L1 18L0 18L0 19L1 19L1 20L0 20L0 21L1 21L1 22L0 22L0 24L1 24L1 23L3 23L3 24L2 24L2 26L3 26L3 25L5 25L5 26L6 26L6 27L7 27L7 28L5 28L5 27L3 27L3 28L2 28L2 29L7 29L7 28L8 28L8 30L9 30L9 32L8 32L8 35L10 35L10 34L11 34L11 30L9 30L9 28L8 28L8 26L6 26L6 25L9 25L9 27L10 27L10 25L12 25L12 26L11 26L11 29L13 29L13 30L12 30L12 31L14 31L14 30L15 30L15 31L16 31L16 30L15 30L15 29L13 29L13 26L14 26L14 25L12 25L12 24L8 24L8 23L7 23L7 22L4 22L4 21L10 21L10 20L8 20L8 18L9 18L9 19L10 19L10 18L11 18L11 19L12 19L12 22L13 22L13 19L14 19L14 16L16 16L16 17L15 17L15 18L16 18L16 19L15 19L15 21L14 21L14 23L15 23L15 26L16 26L16 27L17 27L17 26L19 26L19 27L20 27L20 29L19 29L19 28L16 28L16 29L17 29L17 30L18 30L18 31L17 31L17 32L14 32L14 33L13 33L13 32L12 32L12 35L11 35L11 37L13 37L13 36L12 36L12 35L13 35L13 34L14 34L14 33L15 33L15 34L16 34L16 35L15 35L15 36L16 36L16 37L17 37L17 35L18 35L18 36L19 36L19 35L20 35L20 37L21 37L21 36L23 36L23 34L22 34L22 35L20 35L20 34L19 34L19 35L18 35L18 34L16 34L16 33L22 33L22 31L21 31L21 30L20 30L20 29L21 29L21 24L23 24L23 25L22 25L22 26L23 26L23 27L22 27L22 28L23 28L23 30L24 30L24 32L25 32L25 33L24 33L24 34L25 34L25 33L26 33L26 34L27 34L27 33L28 33L28 36L27 36L27 37L28 37L28 36L30 36L30 37L31 37L31 36L33 36L33 37L37 37L37 34L36 34L36 36L33 36L33 35L34 35L34 34L35 34L35 32L36 32L36 33L37 33L37 32L36 32L36 31L37 31L37 30L35 30L35 32L34 32L34 33L33 33L33 31L34 31L34 30L33 30L33 28L34 28L34 29L35 29L35 28L34 28L34 27L35 27L35 26L34 26L34 25L35 25L35 24L32 24L32 23L31 23L31 25L30 25L30 24L29 24L29 23L30 23L30 22L27 22L27 21L26 21L26 20L25 20L25 22L22 22L22 21L21 21L21 20L19 20L19 19L18 19L18 16L19 16L19 18L20 18L20 19L21 19L21 18L23 18L23 17L24 17L24 18L25 18L25 17L26 17L26 18L27 18L27 19L28 19L28 18L27 18L27 17L26 17L26 16L25 16L25 17L24 17L24 15L23 15L23 14L25 14L25 13L27 13L27 16L28 16L28 17L29 17L29 19L30 19L30 17L31 17L31 20L30 20L30 21L31 21L31 22L32 22L32 21L33 21L33 22L34 22L34 23L35 23L35 22L36 22L36 25L37 25L37 22L36 22L36 21L37 21L37 18L35 18L35 16L36 16L36 17L37 17L37 14L35 14L35 13L36 13L36 11L37 11L37 10L36 10L36 9L37 9L37 8L34 8L34 9L33 9L33 10L31 10L31 9L32 9L32 8L29 8L29 4L28 4L28 5L27 5L27 3L28 3L28 1L27 1L27 0L26 0L26 1L25 1L25 0L24 0L24 1L22 1L22 0L21 0L21 1L20 1L20 0L19 0L19 1L17 1L17 2L19 2L19 3L20 3L20 4L21 4L21 6L20 6L20 5L19 5L19 4L18 4L18 9L16 9L16 7L17 7L17 6L16 6L16 7L15 7L15 5L17 5L17 3L16 3L16 2L15 2L15 3L14 3L14 4L12 4L12 3L11 3L11 4L10 4L10 0ZM11 0L11 2L12 2L12 1L13 1L13 2L14 2L14 1L15 1L15 0L14 0L14 1L13 1L13 0ZM19 1L19 2L20 2L20 3L21 3L21 2L22 2L22 3L24 3L24 2L22 2L22 1L21 1L21 2L20 2L20 1ZM26 1L26 2L25 2L25 4L24 4L24 6L23 6L23 5L22 5L22 6L21 6L21 7L22 7L22 9L20 9L20 6L19 6L19 9L18 9L18 10L16 10L16 9L13 9L13 8L11 8L11 7L12 7L12 6L11 6L11 7L10 7L10 6L9 6L9 9L10 9L10 10L7 10L7 11L6 11L6 12L7 12L7 13L6 13L6 14L7 14L7 15L5 15L5 16L4 16L4 14L3 14L3 15L2 15L2 14L1 14L1 16L4 16L4 17L6 17L6 18L4 18L4 19L3 19L3 20L2 20L2 21L4 21L4 20L5 20L5 19L6 19L6 20L7 20L7 19L6 19L6 18L7 18L7 17L6 17L6 16L9 16L9 17L11 17L11 18L12 18L12 19L13 19L13 17L11 17L11 16L10 16L10 14L11 14L11 15L12 15L12 16L14 16L14 15L16 15L16 16L17 16L17 15L16 15L16 14L17 14L17 13L19 13L19 16L20 16L20 18L21 18L21 17L23 17L23 16L21 16L21 15L20 15L20 13L21 13L21 14L23 14L23 13L22 13L22 12L23 12L23 11L22 11L22 9L23 9L23 10L25 10L25 12L24 12L24 13L25 13L25 12L27 12L27 13L30 13L30 14L29 14L29 15L30 15L30 16L33 16L33 17L32 17L32 18L34 18L34 19L33 19L33 20L35 20L35 18L34 18L34 16L35 16L35 14L34 14L34 15L33 15L33 13L34 13L34 12L35 12L35 9L34 9L34 12L33 12L33 11L31 11L31 13L30 13L30 9L29 9L29 8L28 8L28 6L27 6L27 5L26 5L26 2L27 2L27 1ZM13 5L13 7L14 7L14 5ZM22 6L22 7L23 7L23 8L25 8L25 6L24 6L24 7L23 7L23 6ZM26 6L26 8L27 8L27 6ZM12 9L12 10L10 10L10 12L14 12L14 13L15 13L15 14L16 14L16 13L15 13L15 12L16 12L16 10L14 10L14 11L13 11L13 9ZM19 9L19 10L18 10L18 11L17 11L17 12L18 12L18 11L20 11L20 12L19 12L19 13L20 13L20 12L22 12L22 11L21 11L21 10L20 10L20 9ZM25 9L25 10L26 10L26 11L27 11L27 10L29 10L29 9ZM3 10L3 11L2 11L2 13L3 13L3 11L4 11L4 10ZM8 11L8 13L9 13L9 14L8 14L8 15L9 15L9 14L10 14L10 13L9 13L9 11ZM28 11L28 12L29 12L29 11ZM32 12L32 13L31 13L31 14L30 14L30 15L32 15L32 13L33 13L33 12ZM12 14L12 15L14 15L14 14ZM22 19L22 20L23 20L23 21L24 21L24 20L23 20L23 19ZM16 20L16 23L19 23L19 22L20 22L20 24L16 24L16 26L17 26L17 25L19 25L19 26L20 26L20 24L21 24L21 23L22 23L22 22L20 22L20 21L19 21L19 20L18 20L18 22L17 22L17 20ZM34 21L34 22L35 22L35 21ZM3 22L3 23L4 23L4 22ZM9 22L9 23L10 23L10 22ZM6 23L6 24L7 24L7 23ZM24 23L24 24L25 24L25 25L23 25L23 26L25 26L25 25L26 25L26 26L27 26L27 25L28 25L28 26L29 26L29 27L28 27L28 28L33 28L33 27L31 27L31 26L33 26L33 25L31 25L31 26L30 26L30 25L28 25L28 23L26 23L26 24L25 24L25 23ZM26 24L26 25L27 25L27 24ZM0 25L0 29L1 29L1 25ZM36 26L36 29L37 29L37 26ZM24 27L24 29L25 29L25 32L26 32L26 33L27 33L27 32L28 32L28 31L27 31L27 29L25 29L25 28L26 28L26 27ZM18 29L18 30L19 30L19 32L21 32L21 31L20 31L20 30L19 30L19 29ZM29 29L29 32L32 32L32 29ZM30 30L30 31L31 31L31 30ZM9 32L9 34L10 34L10 32ZM29 33L29 35L31 35L31 34L32 34L32 35L33 35L33 34L32 34L32 33L31 33L31 34L30 34L30 33ZM24 35L24 36L25 36L25 37L26 37L26 36L25 36L25 35ZM0 0L0 7L7 7L7 0ZM1 1L1 6L6 6L6 1ZM2 2L2 5L5 5L5 2ZM30 0L30 7L37 7L37 0ZM31 1L31 6L36 6L36 1ZM32 2L32 5L35 5L35 2ZM0 30L0 37L7 37L7 30ZM1 31L1 36L6 36L6 31ZM2 32L2 35L5 35L5 32Z" fill="#000000"/></g></g></svg>
