<?xml version="1.0" encoding="UTF-8"?>
<svg xmlns="http://www.w3.org/2000/svg" version="1.1" width="300" height="300" viewBox="0 0 300 300"><rect x="0" y="0" width="300" height="300" fill="#ffffff"/><g transform="scale(7.692)"><g transform="translate(1,1)"><path fill-rule="evenodd" d="M8 0L8 1L10 1L10 0ZM11 0L11 1L12 1L12 2L11 2L11 3L10 3L10 2L8 2L8 3L10 3L10 7L9 7L9 6L8 6L8 8L10 8L10 7L11 7L11 8L13 8L13 9L12 9L12 10L11 10L11 9L9 9L9 11L8 11L8 12L4 12L4 11L5 11L5 10L4 10L4 9L3 9L3 10L2 10L2 11L1 11L1 9L0 9L0 11L1 11L1 12L2 12L2 13L0 13L0 16L1 16L1 17L0 17L0 18L3 18L3 19L2 19L2 20L1 20L1 19L0 19L0 21L2 21L2 20L4 20L4 24L3 24L3 25L1 25L1 24L2 24L2 23L3 23L3 22L0 22L0 23L1 23L1 24L0 24L0 29L1 29L1 26L3 26L3 25L4 25L4 24L6 24L6 25L5 25L5 26L4 26L4 27L5 27L5 28L6 28L6 29L7 29L7 28L8 28L8 30L9 30L9 31L8 31L8 32L9 32L9 31L10 31L10 30L9 30L9 29L13 29L13 30L11 30L11 31L13 31L13 30L14 30L14 31L15 31L15 32L14 32L14 36L12 36L12 35L13 35L13 32L12 32L12 33L11 33L11 32L10 32L10 33L9 33L9 36L10 36L10 37L14 37L14 36L15 36L15 32L16 32L16 36L17 36L17 37L18 37L18 36L19 36L19 37L20 37L20 36L19 36L19 35L18 35L18 34L19 34L19 33L21 33L21 34L23 34L23 33L22 33L22 32L19 32L19 33L18 33L18 31L20 31L20 29L21 29L21 30L22 30L22 31L24 31L24 32L25 32L25 33L24 33L24 34L25 34L25 33L26 33L26 32L25 32L25 31L27 31L27 34L28 34L28 35L27 35L27 36L26 36L26 37L34 37L34 34L33 34L33 35L32 35L32 34L31 34L31 33L33 33L33 32L34 32L34 33L35 33L35 32L36 32L36 33L37 33L37 32L36 32L36 31L37 31L37 30L36 30L36 31L35 31L35 30L34 30L34 29L35 29L35 26L33 26L33 27L34 27L34 29L33 29L33 28L29 28L29 26L26 26L26 23L27 23L27 24L29 24L29 23L30 23L30 22L29 22L29 21L27 21L27 22L26 22L26 20L28 20L28 19L29 19L29 18L30 18L30 17L31 17L31 18L32 18L32 17L33 17L33 19L31 19L31 20L30 20L30 21L31 21L31 22L33 22L33 21L34 21L34 23L33 23L33 25L34 25L34 23L35 23L35 22L36 22L36 24L35 24L35 25L37 25L37 22L36 22L36 21L37 21L37 18L36 18L36 19L35 19L35 16L36 16L36 17L37 17L37 14L35 14L35 13L34 13L34 14L33 14L33 15L32 15L32 12L31 12L31 11L32 11L32 10L33 10L33 11L34 11L34 10L35 10L35 12L36 12L36 11L37 11L37 10L36 10L36 9L37 9L37 8L36 8L36 9L35 9L35 8L34 8L34 10L33 10L33 8L32 8L32 10L31 10L31 8L30 8L30 12L29 12L29 11L27 11L27 10L26 10L26 9L25 9L25 6L24 6L24 4L25 4L25 0L20 0L20 1L23 1L23 2L22 2L22 3L23 3L23 4L21 4L21 3L19 3L19 4L18 4L18 9L17 9L17 8L15 8L15 6L16 6L16 7L17 7L17 6L16 6L16 5L17 5L17 4L15 4L15 3L16 3L16 1L17 1L17 2L19 2L19 1L18 1L18 0L16 0L16 1L14 1L14 0L13 0L13 1L12 1L12 0ZM28 0L28 1L29 1L29 0ZM13 1L13 2L14 2L14 1ZM26 1L26 3L27 3L27 4L28 4L28 7L27 7L27 6L26 6L26 8L29 8L29 3L28 3L28 2L27 2L27 1ZM23 2L23 3L24 3L24 2ZM11 3L11 4L12 4L12 6L11 6L11 7L12 7L12 6L13 6L13 8L14 8L14 6L15 6L15 4L14 4L14 3ZM8 4L8 5L9 5L9 4ZM13 4L13 6L14 6L14 4ZM20 4L20 5L19 5L19 9L18 9L18 10L19 10L19 9L20 9L20 8L21 8L21 9L23 9L23 10L24 10L24 8L21 8L21 7L22 7L22 6L21 6L21 7L20 7L20 5L21 5L21 4ZM23 6L23 7L24 7L24 6ZM5 8L5 9L7 9L7 10L6 10L6 11L7 11L7 10L8 10L8 9L7 9L7 8ZM13 9L13 11L14 11L14 10L15 10L15 12L14 12L14 13L13 13L13 12L12 12L12 13L11 13L11 14L10 14L10 12L8 12L8 13L5 13L5 14L7 14L7 15L6 15L6 16L8 16L8 14L9 14L9 15L12 15L12 17L11 17L11 18L13 18L13 21L11 21L11 20L12 20L12 19L10 19L10 21L11 21L11 22L10 22L10 25L9 25L9 23L8 23L8 21L9 21L9 20L7 20L7 19L6 19L6 20L7 20L7 21L5 21L5 22L7 22L7 23L6 23L6 24L7 24L7 23L8 23L8 25L6 25L6 26L8 26L8 27L9 27L9 26L10 26L10 28L11 28L11 26L12 26L12 25L14 25L14 26L13 26L13 29L16 29L16 31L17 31L17 27L15 27L15 24L16 24L16 26L17 26L17 24L16 24L16 23L19 23L19 24L18 24L18 25L19 25L19 26L20 26L20 25L23 25L23 26L21 26L21 27L18 27L18 28L19 28L19 29L18 29L18 30L19 30L19 29L20 29L20 28L21 28L21 29L22 29L22 30L23 30L23 26L25 26L25 25L24 25L24 24L25 24L25 23L24 23L24 24L23 24L23 23L22 23L22 24L21 24L21 21L23 21L23 22L25 22L25 20L26 20L26 17L28 17L28 18L29 18L29 17L28 17L28 16L29 16L29 15L30 15L30 16L32 16L32 15L30 15L30 14L31 14L31 13L30 13L30 14L29 14L29 15L27 15L27 14L28 14L28 12L27 12L27 11L26 11L26 10L25 10L25 11L22 11L22 10L21 10L21 13L22 13L22 14L23 14L23 12L25 12L25 13L24 13L24 14L25 14L25 15L21 15L21 17L19 17L19 18L16 18L16 16L17 16L17 17L18 17L18 16L17 16L17 15L16 15L16 14L17 14L17 13L16 13L16 14L15 14L15 12L18 12L18 15L19 15L19 16L20 16L20 11L16 11L16 10L17 10L17 9L16 9L16 10L15 10L15 9ZM10 10L10 11L11 11L11 10ZM2 11L2 12L3 12L3 11ZM2 13L2 14L1 14L1 16L2 16L2 17L3 17L3 18L4 18L4 17L3 17L3 16L4 16L4 14L3 14L3 13ZM2 14L2 15L3 15L3 14ZM12 14L12 15L14 15L14 14ZM34 14L34 15L35 15L35 14ZM26 15L26 16L25 16L25 17L24 17L24 16L23 16L23 17L21 17L21 18L20 18L20 19L21 19L21 20L20 20L20 21L19 21L19 22L20 22L20 21L21 21L21 20L23 20L23 21L24 21L24 20L23 20L23 19L24 19L24 18L25 18L25 17L26 17L26 16L27 16L27 15ZM9 16L9 18L10 18L10 16ZM13 16L13 18L14 18L14 21L16 21L16 22L12 22L12 23L11 23L11 25L12 25L12 24L13 24L13 23L14 23L14 24L15 24L15 23L16 23L16 22L18 22L18 20L19 20L19 19L16 19L16 20L15 20L15 18L14 18L14 16ZM33 16L33 17L34 17L34 16ZM5 17L5 18L8 18L8 17ZM23 17L23 18L24 18L24 17ZM4 19L4 20L5 20L5 19ZM34 19L34 20L35 20L35 19ZM16 20L16 21L17 21L17 20ZM31 23L31 24L32 24L32 23ZM30 25L30 26L31 26L31 27L32 27L32 26L31 26L31 25ZM36 26L36 29L37 29L37 26ZM2 27L2 28L3 28L3 29L4 29L4 28L3 28L3 27ZM6 27L6 28L7 28L7 27ZM14 27L14 28L15 28L15 27ZM21 27L21 28L22 28L22 27ZM24 27L24 29L25 29L25 30L28 30L28 29L25 29L25 28L28 28L28 27ZM29 29L29 32L32 32L32 29ZM30 30L30 31L31 31L31 30ZM34 31L34 32L35 32L35 31ZM10 33L10 36L11 36L11 35L12 35L12 34L11 34L11 33ZM17 33L17 34L18 34L18 33ZM28 33L28 34L29 34L29 35L31 35L31 34L30 34L30 33ZM36 34L36 37L37 37L37 34ZM17 35L17 36L18 36L18 35ZM21 35L21 37L24 37L24 36L25 36L25 35L24 35L24 36L22 36L22 35ZM0 0L0 7L7 7L7 0ZM1 1L1 6L6 6L6 1ZM2 2L2 5L5 5L5 2ZM30 0L30 7L37 7L37 0ZM31 1L31 6L36 6L36 1ZM32 2L32 5L35 5L35 2ZM0 30L0 37L7 37L7 30ZM1 31L1 36L6 36L6 31ZM2 32L2 35L5 35L5 32Z" fill="#000000"/></g></g></svg>
