<?xml version="1.0" encoding="UTF-8"?>
<svg xmlns="http://www.w3.org/2000/svg" version="1.1" width="300" height="300" viewBox="0 0 300 300"><rect x="0" y="0" width="300" height="300" fill="#ffffff"/><g transform="scale(7.692)"><g transform="translate(1,1)"><path fill-rule="evenodd" d="M8 0L8 1L10 1L10 0ZM12 0L12 2L11 2L11 3L10 3L10 2L8 2L8 3L10 3L10 7L9 7L9 6L8 6L8 8L10 8L10 7L11 7L11 8L12 8L12 7L13 7L13 6L14 6L14 7L15 7L15 6L16 6L16 7L17 7L17 6L16 6L16 5L17 5L17 4L14 4L14 5L13 5L13 3L12 3L12 2L14 2L14 3L16 3L16 1L17 1L17 2L19 2L19 4L18 4L18 9L19 9L19 11L20 11L20 16L19 16L19 15L18 15L18 16L15 16L15 17L16 17L16 18L19 18L19 19L16 19L16 20L15 20L15 19L14 19L14 18L13 18L13 17L14 17L14 16L13 16L13 17L12 17L12 15L14 15L14 14L12 14L12 15L10 15L10 13L12 13L12 12L13 12L13 13L14 13L14 12L15 12L15 15L17 15L17 14L16 14L16 12L17 12L17 11L16 11L16 12L15 12L15 10L17 10L17 9L16 9L16 8L13 8L13 9L12 9L12 10L11 10L11 9L10 9L10 10L11 10L11 11L8 11L8 12L6 12L6 11L7 11L7 10L8 10L8 9L7 9L7 8L5 8L5 9L3 9L3 10L2 10L2 11L1 11L1 9L0 9L0 11L1 11L1 12L3 12L3 13L4 13L4 15L5 15L5 17L4 17L4 16L1 16L1 14L2 14L2 15L3 15L3 14L2 14L2 13L0 13L0 16L1 16L1 17L0 17L0 19L1 19L1 21L2 21L2 20L4 20L4 24L3 24L3 25L0 25L0 29L1 29L1 26L3 26L3 27L4 27L4 29L7 29L7 28L8 28L8 30L10 30L10 32L9 32L9 31L8 31L8 32L9 32L9 36L10 36L10 37L12 37L12 36L13 36L13 37L15 37L15 36L14 36L14 35L12 35L12 34L15 34L15 32L14 32L14 33L12 33L12 34L11 34L11 31L13 31L13 30L14 30L14 31L15 31L15 30L16 30L16 31L17 31L17 32L16 32L16 36L17 36L17 37L18 37L18 36L19 36L19 37L24 37L24 36L25 36L25 35L24 35L24 36L23 36L23 35L21 35L21 36L20 36L20 34L21 34L21 33L22 33L22 34L23 34L23 33L22 33L22 32L21 32L21 33L20 33L20 32L19 32L19 33L18 33L18 34L17 34L17 32L18 32L18 31L20 31L20 29L21 29L21 30L22 30L22 31L24 31L24 32L25 32L25 33L24 33L24 34L25 34L25 33L26 33L26 32L25 32L25 31L27 31L27 34L28 34L28 35L27 35L27 36L26 36L26 37L34 37L34 34L33 34L33 35L32 35L32 34L31 34L31 33L33 33L33 32L34 32L34 33L35 33L35 32L36 32L36 33L37 33L37 32L36 32L36 31L37 31L37 30L36 30L36 31L35 31L35 30L34 30L34 29L35 29L35 27L34 27L34 26L33 26L33 27L32 27L32 26L31 26L31 25L30 25L30 26L31 26L31 27L32 27L32 28L29 28L29 26L26 26L26 23L27 23L27 24L29 24L29 23L30 23L30 22L29 22L29 21L27 21L27 22L26 22L26 20L25 20L25 22L23 22L23 21L24 21L24 20L23 20L23 19L24 19L24 18L25 18L25 19L27 19L27 20L28 20L28 19L29 19L29 18L30 18L30 17L31 17L31 18L32 18L32 17L33 17L33 19L31 19L31 20L30 20L30 21L31 21L31 22L33 22L33 21L34 21L34 23L33 23L33 25L34 25L34 23L35 23L35 22L36 22L36 24L35 24L35 25L37 25L37 22L36 22L36 21L37 21L37 18L36 18L36 19L35 19L35 16L36 16L36 17L37 17L37 14L35 14L35 13L34 13L34 14L33 14L33 15L32 15L32 11L34 11L34 10L35 10L35 12L36 12L36 11L37 11L37 10L36 10L36 9L37 9L37 8L36 8L36 9L35 9L35 8L34 8L34 10L33 10L33 8L32 8L32 11L31 11L31 8L30 8L30 12L29 12L29 11L27 11L27 10L26 10L26 9L25 9L25 6L24 6L24 4L25 4L25 2L27 2L27 4L26 4L26 5L27 5L27 4L28 4L28 7L27 7L27 6L26 6L26 8L29 8L29 3L28 3L28 2L27 2L27 1L25 1L25 0L22 0L22 1L23 1L23 2L24 2L24 3L23 3L23 6L22 6L22 8L21 8L21 5L22 5L22 4L20 4L20 2L21 2L21 3L22 3L22 2L21 2L21 0L20 0L20 2L19 2L19 1L18 1L18 0L16 0L16 1L15 1L15 2L14 2L14 1L13 1L13 0ZM28 0L28 1L29 1L29 0ZM11 3L11 4L12 4L12 3ZM8 4L8 5L9 5L9 4ZM19 4L19 5L20 5L20 4ZM11 5L11 7L12 7L12 5ZM19 6L19 9L20 9L20 6ZM23 6L23 7L24 7L24 6ZM22 8L22 9L23 9L23 10L25 10L25 11L24 11L24 12L25 12L25 13L24 13L24 14L23 14L23 11L22 11L22 10L21 10L21 13L22 13L22 14L23 14L23 15L21 15L21 18L20 18L20 17L19 17L19 16L18 16L18 17L19 17L19 18L20 18L20 19L19 19L19 20L18 20L18 22L16 22L16 21L17 21L17 20L16 20L16 21L15 21L15 20L14 20L14 19L13 19L13 18L12 18L12 17L11 17L11 19L10 19L10 21L11 21L11 22L10 22L10 26L12 26L12 25L13 25L13 24L12 24L12 25L11 25L11 23L12 23L12 21L11 21L11 19L13 19L13 21L15 21L15 22L13 22L13 23L15 23L15 24L14 24L14 25L15 25L15 26L13 26L13 29L11 29L11 27L9 27L9 24L8 24L8 23L6 23L6 24L4 24L4 25L3 25L3 26L5 26L5 25L6 25L6 26L8 26L8 27L9 27L9 29L10 29L10 30L13 30L13 29L15 29L15 28L17 28L17 29L18 29L18 30L19 30L19 29L20 29L20 28L21 28L21 29L22 29L22 30L23 30L23 26L25 26L25 25L24 25L24 24L25 24L25 23L24 23L24 24L23 24L23 26L21 26L21 27L19 27L19 28L17 28L17 27L18 27L18 26L16 26L16 25L15 25L15 24L16 24L16 23L21 23L21 22L22 22L22 23L23 23L23 22L22 22L22 21L23 21L23 20L21 20L21 21L20 21L20 19L21 19L21 18L22 18L22 19L23 19L23 18L24 18L24 17L25 17L25 18L26 18L26 17L28 17L28 18L29 18L29 17L28 17L28 16L29 16L29 15L30 15L30 16L32 16L32 15L30 15L30 14L31 14L31 13L30 13L30 14L29 14L29 15L27 15L27 14L28 14L28 12L27 12L27 11L26 11L26 10L25 10L25 9L24 9L24 8ZM5 9L5 11L4 11L4 10L3 10L3 12L4 12L4 13L5 13L5 15L6 15L6 16L8 16L8 14L9 14L9 12L8 12L8 13L6 13L6 12L5 12L5 11L6 11L6 10L7 10L7 9ZM13 9L13 11L14 11L14 10L15 10L15 9ZM18 12L18 14L19 14L19 12ZM6 14L6 15L7 15L7 14ZM24 14L24 15L23 15L23 17L22 17L22 18L23 18L23 17L24 17L24 15L25 15L25 14ZM34 14L34 15L35 15L35 14ZM9 15L9 16L10 16L10 15ZM26 15L26 16L25 16L25 17L26 17L26 16L27 16L27 15ZM33 16L33 17L34 17L34 16ZM3 17L3 18L2 18L2 19L3 19L3 18L4 18L4 17ZM5 17L5 18L7 18L7 17ZM8 17L8 19L9 19L9 18L10 18L10 17ZM4 19L4 20L5 20L5 19ZM6 19L6 20L7 20L7 21L5 21L5 22L9 22L9 21L8 21L8 20L7 20L7 19ZM34 19L34 20L35 20L35 19ZM19 21L19 22L20 22L20 21ZM0 22L0 23L3 23L3 22ZM15 22L15 23L16 23L16 22ZM31 23L31 24L32 24L32 23ZM6 24L6 25L7 25L7 24ZM18 24L18 25L19 25L19 26L20 26L20 25L21 25L21 24L20 24L20 25L19 25L19 24ZM36 26L36 29L37 29L37 26ZM6 27L6 28L7 28L7 27ZM14 27L14 28L15 28L15 27ZM21 27L21 28L22 28L22 27ZM24 27L24 29L25 29L25 30L28 30L28 29L25 29L25 28L28 28L28 27ZM33 27L33 29L34 29L34 27ZM2 28L2 29L3 29L3 28ZM29 29L29 32L32 32L32 29ZM30 30L30 31L31 31L31 30ZM34 31L34 32L35 32L35 31ZM28 33L28 34L29 34L29 35L31 35L31 34L30 34L30 33ZM10 34L10 36L12 36L12 35L11 35L11 34ZM18 34L18 35L17 35L17 36L18 36L18 35L19 35L19 34ZM36 34L36 37L37 37L37 34ZM0 0L0 7L7 7L7 0ZM1 1L1 6L6 6L6 1ZM2 2L2 5L5 5L5 2ZM30 0L30 7L37 7L37 0ZM31 1L31 6L36 6L36 1ZM32 2L32 5L35 5L35 2ZM0 30L0 37L7 37L7 30ZM1 31L1 36L6 36L6 31ZM2 32L2 35L5 35L5 32Z" fill="#000000"/></g></g></svg>
