<?xml version="1.0" encoding="UTF-8"?>
<svg xmlns="http://www.w3.org/2000/svg" version="1.1" width="300" height="300" viewBox="0 0 300 300"><rect x="0" y="0" width="300" height="300" fill="#ffffff"/><g transform="scale(7.692)"><g transform="translate(1,1)"><path fill-rule="evenodd" d="M8 0L8 2L10 2L10 3L8 3L8 7L9 7L9 6L10 6L10 8L9 8L9 9L8 9L8 10L6 10L6 9L7 9L7 8L6 8L6 9L5 9L5 10L4 10L4 8L3 8L3 10L0 10L0 12L1 12L1 14L0 14L0 15L1 15L1 16L6 16L6 17L3 17L3 18L4 18L4 20L3 20L3 19L1 19L1 18L0 18L0 20L1 20L1 24L5 24L5 25L4 25L4 26L5 26L5 25L8 25L8 23L7 23L7 22L9 22L9 19L8 19L8 20L6 20L6 21L5 21L5 22L4 22L4 20L5 20L5 18L6 18L6 19L7 19L7 18L8 18L8 17L9 17L9 18L10 18L10 21L11 21L11 22L12 22L12 23L11 23L11 24L12 24L12 23L13 23L13 24L14 24L14 21L13 21L13 20L12 20L12 19L11 19L11 18L12 18L12 17L13 17L13 18L15 18L15 19L14 19L14 20L16 20L16 21L15 21L15 22L16 22L16 21L17 21L17 20L16 20L16 18L17 18L17 19L18 19L18 17L17 17L17 15L14 15L14 14L13 14L13 13L11 13L11 12L12 12L12 11L14 11L14 10L15 10L15 11L16 11L16 12L15 12L15 13L16 13L16 14L17 14L17 13L20 13L20 15L19 15L19 14L18 14L18 16L20 16L20 17L19 17L19 18L20 18L20 17L21 17L21 18L23 18L23 17L24 17L24 16L26 16L26 17L25 17L25 18L26 18L26 19L27 19L27 18L26 18L26 17L29 17L29 18L28 18L28 20L27 20L27 21L26 21L26 20L25 20L25 19L23 19L23 20L20 20L20 22L19 22L19 21L18 21L18 22L19 22L19 23L21 23L21 22L22 22L22 21L23 21L23 23L22 23L22 24L21 24L21 25L20 25L20 26L17 26L17 27L15 27L15 28L14 28L14 27L13 27L13 26L16 26L16 25L17 25L17 24L18 24L18 23L15 23L15 24L16 24L16 25L13 25L13 26L12 26L12 25L10 25L10 26L12 26L12 27L13 27L13 28L11 28L11 27L9 27L9 29L8 29L8 28L4 28L4 27L3 27L3 26L2 26L2 27L1 27L1 26L0 26L0 27L1 27L1 28L0 28L0 29L2 29L2 27L3 27L3 29L8 29L8 30L9 30L9 29L10 29L10 28L11 28L11 29L12 29L12 31L11 31L11 30L10 30L10 32L9 32L9 33L8 33L8 34L9 34L9 33L10 33L10 34L12 34L12 33L13 33L13 31L15 31L15 32L14 32L14 33L15 33L15 34L13 34L13 35L12 35L12 36L13 36L13 35L14 35L14 37L16 37L16 36L17 36L17 35L18 35L18 32L17 32L17 27L19 27L19 29L18 29L18 30L19 30L19 29L20 29L20 30L21 30L21 32L19 32L19 33L20 33L20 34L21 34L21 35L20 35L20 36L19 36L19 37L21 37L21 35L22 35L22 37L23 37L23 35L22 35L22 33L23 33L23 34L24 34L24 31L25 31L25 30L26 30L26 31L27 31L27 30L28 30L28 34L27 34L27 33L26 33L26 32L25 32L25 37L27 37L27 35L28 35L28 37L29 37L29 36L30 36L30 37L31 37L31 36L30 36L30 35L29 35L29 34L30 34L30 33L31 33L31 34L32 34L32 35L33 35L33 34L36 34L36 35L37 35L37 28L36 28L36 27L37 27L37 24L36 24L36 25L33 25L33 26L34 26L34 27L33 27L33 28L32 28L32 26L31 26L31 27L30 27L30 24L31 24L31 25L32 25L32 24L33 24L33 23L35 23L35 22L34 22L34 21L33 21L33 19L32 19L32 18L33 18L33 17L34 17L34 20L35 20L35 19L37 19L37 16L36 16L36 18L35 18L35 16L33 16L33 17L32 17L32 18L31 18L31 16L32 16L32 13L31 13L31 12L33 12L33 14L34 14L34 15L35 15L35 14L36 14L36 15L37 15L37 13L36 13L36 12L37 12L37 8L35 8L35 9L36 9L36 10L35 10L35 14L34 14L34 11L31 11L31 10L32 10L32 9L33 9L33 10L34 10L34 8L31 8L31 10L30 10L30 9L29 9L29 8L27 8L27 6L28 6L28 7L29 7L29 4L27 4L27 3L25 3L25 2L28 2L28 3L29 3L29 0L27 0L27 1L26 1L26 0L24 0L24 1L25 1L25 2L23 2L23 0L18 0L18 1L19 1L19 2L20 2L20 1L21 1L21 2L22 2L22 3L20 3L20 4L19 4L19 3L18 3L18 2L17 2L17 0L15 0L15 1L16 1L16 3L15 3L15 2L14 2L14 0L12 0L12 1L13 1L13 2L14 2L14 3L13 3L13 4L12 4L12 3L11 3L11 0L10 0L10 1L9 1L9 0ZM10 3L10 4L11 4L11 3ZM23 3L23 4L22 4L22 5L21 5L21 4L20 4L20 5L18 5L18 4L17 4L17 5L16 5L16 4L14 4L14 5L11 5L11 8L12 8L12 10L13 10L13 9L14 9L14 8L15 8L15 9L16 9L16 8L15 8L15 7L16 7L16 6L17 6L17 7L18 7L18 8L19 8L19 10L17 10L17 12L16 12L16 13L17 13L17 12L18 12L18 11L20 11L20 12L21 12L21 10L22 10L22 9L23 9L23 8L25 8L25 9L24 9L24 10L23 10L23 11L22 11L22 13L21 13L21 15L20 15L20 16L21 16L21 15L23 15L23 16L22 16L22 17L23 17L23 16L24 16L24 15L23 15L23 14L24 14L24 13L23 13L23 12L25 12L25 11L24 11L24 10L26 10L26 11L27 11L27 12L26 12L26 13L25 13L25 15L26 15L26 16L27 16L27 15L29 15L29 16L30 16L30 15L29 15L29 14L30 14L30 12L31 12L31 11L30 11L30 10L28 10L28 11L27 11L27 10L26 10L26 9L27 9L27 8L26 8L26 6L25 6L25 7L24 7L24 6L23 6L23 4L24 4L24 5L25 5L25 3ZM26 4L26 5L27 5L27 4ZM14 5L14 7L13 7L13 6L12 6L12 8L14 8L14 7L15 7L15 5ZM18 6L18 7L19 7L19 6ZM20 6L20 9L21 9L21 8L22 8L22 7L23 7L23 6L22 6L22 7L21 7L21 6ZM10 9L10 11L8 11L8 12L7 12L7 11L6 11L6 10L5 10L5 11L4 11L4 12L2 12L2 11L1 11L1 12L2 12L2 14L1 14L1 15L2 15L2 14L3 14L3 13L4 13L4 15L5 15L5 11L6 11L6 12L7 12L7 13L6 13L6 14L7 14L7 15L6 15L6 16L7 16L7 17L6 17L6 18L7 18L7 17L8 17L8 16L9 16L9 17L10 17L10 15L11 15L11 16L12 16L12 15L11 15L11 14L10 14L10 15L8 15L8 14L9 14L9 13L10 13L10 11L11 11L11 9ZM28 11L28 12L27 12L27 14L28 14L28 13L29 13L29 11ZM22 13L22 14L23 14L23 13ZM7 15L7 16L8 16L8 15ZM13 16L13 17L14 17L14 16ZM15 16L15 17L16 17L16 16ZM30 18L30 19L31 19L31 18ZM2 20L2 21L3 21L3 20ZM11 20L11 21L12 21L12 22L13 22L13 21L12 21L12 20ZM23 20L23 21L25 21L25 25L26 25L26 26L27 26L27 27L28 27L28 28L24 28L24 26L23 26L23 24L22 24L22 25L21 25L21 26L23 26L23 28L22 28L22 27L21 27L21 28L20 28L20 29L21 29L21 30L23 30L23 31L24 31L24 30L25 30L25 29L28 29L28 28L29 28L29 26L27 26L27 24L28 24L28 25L29 25L29 24L30 24L30 23L31 23L31 24L32 24L32 23L31 23L31 22L33 22L33 21L31 21L31 22L30 22L30 23L29 23L29 24L28 24L28 22L29 22L29 21L27 21L27 22L26 22L26 21L25 21L25 20ZM36 20L36 23L37 23L37 20ZM6 21L6 22L7 22L7 21ZM2 22L2 23L3 23L3 22ZM6 23L6 24L7 24L7 23ZM26 23L26 24L27 24L27 23ZM6 26L6 27L8 27L8 26ZM34 27L34 28L35 28L35 29L33 29L33 32L34 32L34 33L35 33L35 32L36 32L36 31L35 31L35 32L34 32L34 30L36 30L36 28L35 28L35 27ZM15 28L15 29L13 29L13 30L16 30L16 28ZM21 28L21 29L22 29L22 28ZM23 28L23 30L24 30L24 28ZM29 29L29 32L32 32L32 29ZM30 30L30 31L31 31L31 30ZM10 32L10 33L11 33L11 32ZM16 32L16 34L17 34L17 32ZM21 32L21 33L22 33L22 32ZM9 36L9 37L11 37L11 36ZM32 36L32 37L33 37L33 36ZM35 36L35 37L37 37L37 36ZM0 0L0 7L7 7L7 0ZM1 1L1 6L6 6L6 1ZM2 2L2 5L5 5L5 2ZM30 0L30 7L37 7L37 0ZM31 1L31 6L36 6L36 1ZM32 2L32 5L35 5L35 2ZM0 30L0 37L7 37L7 30ZM1 31L1 36L6 36L6 31ZM2 32L2 35L5 35L5 32Z" fill="#000000"/></g></g></svg>
