<?xml version="1.0" encoding="UTF-8"?>
<svg xmlns="http://www.w3.org/2000/svg" version="1.1" width="300" height="300" viewBox="0 0 300 300"><rect x="0" y="0" width="300" height="300" fill="#ffffff"/><g transform="scale(7.692)"><g transform="translate(1,1)"><path fill-rule="evenodd" d="M10 0L10 1L11 1L11 2L9 2L9 1L8 1L8 2L9 2L9 5L8 5L8 8L4 8L4 9L3 9L3 10L2 10L2 11L0 11L0 12L2 12L2 11L3 11L3 10L4 10L4 9L8 9L8 8L9 8L9 10L10 10L10 8L11 8L11 2L13 2L13 3L12 3L12 4L14 4L14 5L13 5L13 6L12 6L12 7L13 7L13 6L14 6L14 7L15 7L15 8L18 8L18 9L17 9L17 10L18 10L18 11L20 11L20 13L19 13L19 12L16 12L16 9L15 9L15 10L14 10L14 8L13 8L13 9L12 9L12 10L14 10L14 11L13 11L13 15L12 15L12 14L11 14L11 15L10 15L10 14L9 14L9 13L11 13L11 12L10 12L10 11L8 11L8 12L6 12L6 11L7 11L7 10L5 10L5 12L6 12L6 13L5 13L5 14L3 14L3 15L2 15L2 16L5 16L5 17L4 17L4 18L2 18L2 21L7 21L7 22L6 22L6 23L7 23L7 24L4 24L4 23L3 23L3 22L1 22L1 20L0 20L0 22L1 22L1 23L3 23L3 24L4 24L4 26L3 26L3 27L2 27L2 28L0 28L0 29L2 29L2 28L3 28L3 29L5 29L5 28L6 28L6 29L8 29L8 33L9 33L9 35L10 35L10 36L9 36L9 37L10 37L10 36L13 36L13 37L14 37L14 36L15 36L15 37L17 37L17 36L18 36L18 35L19 35L19 34L21 34L21 35L20 35L20 36L19 36L19 37L22 37L22 33L19 33L19 32L18 32L18 33L19 33L19 34L18 34L18 35L17 35L17 36L16 36L16 35L14 35L14 36L13 36L13 34L11 34L11 32L12 32L12 33L14 33L14 34L15 34L15 33L14 33L14 32L13 32L13 31L14 31L14 30L13 30L13 31L12 31L12 30L11 30L11 29L15 29L15 28L16 28L16 30L15 30L15 32L16 32L16 33L17 33L17 29L18 29L18 31L19 31L19 29L20 29L20 31L21 31L21 32L24 32L24 30L27 30L27 31L28 31L28 33L27 33L27 32L26 32L26 33L24 33L24 34L23 34L23 36L24 36L24 35L25 35L25 34L26 34L26 33L27 33L27 34L29 34L29 35L31 35L31 36L30 36L30 37L33 37L33 35L34 35L34 37L37 37L37 36L36 36L36 34L35 34L35 30L34 30L34 29L35 29L35 28L36 28L36 29L37 29L37 28L36 28L36 26L33 26L33 25L30 25L30 24L32 24L32 23L31 23L31 22L30 22L30 23L29 23L29 24L27 24L27 25L26 25L26 23L28 23L28 20L30 20L30 21L31 21L31 20L33 20L33 19L34 19L34 21L35 21L35 23L34 23L34 25L35 25L35 24L36 24L36 25L37 25L37 24L36 24L36 21L37 21L37 20L35 20L35 13L36 13L36 12L37 12L37 11L36 11L36 12L35 12L35 10L36 10L36 8L35 8L35 10L33 10L33 9L32 9L32 8L30 8L30 10L29 10L29 9L28 9L28 8L27 8L27 5L28 5L28 7L29 7L29 2L27 2L27 3L26 3L26 4L25 4L25 6L24 6L24 4L21 4L21 5L19 5L19 3L20 3L20 2L21 2L21 3L24 3L24 2L25 2L25 0L24 0L24 1L23 1L23 2L21 2L21 1L17 1L17 2L16 2L16 0L15 0L15 1L14 1L14 0L12 0L12 1L11 1L11 0ZM27 0L27 1L28 1L28 0ZM13 1L13 2L14 2L14 3L15 3L15 2L14 2L14 1ZM16 3L16 4L15 4L15 5L14 5L14 6L15 6L15 7L16 7L16 6L17 6L17 7L18 7L18 8L20 8L20 9L18 9L18 10L20 10L20 9L22 9L22 6L23 6L23 10L21 10L21 11L23 11L23 10L24 10L24 9L25 9L25 12L23 12L23 13L22 13L22 17L23 17L23 18L24 18L24 17L26 17L26 18L25 18L25 20L24 20L24 21L23 21L23 19L22 19L22 18L20 18L20 19L18 19L18 18L16 18L16 17L15 17L15 19L16 19L16 20L15 20L15 22L17 22L17 20L18 20L18 22L20 22L20 23L16 23L16 24L15 24L15 23L13 23L13 21L11 21L11 20L10 20L10 19L9 19L9 18L10 18L10 17L11 17L11 19L12 19L12 17L11 17L11 16L12 16L12 15L11 15L11 16L10 16L10 15L8 15L8 14L7 14L7 13L6 13L6 14L5 14L5 15L6 15L6 16L7 16L7 17L6 17L6 18L7 18L7 19L5 19L5 20L7 20L7 19L8 19L8 22L9 22L9 21L10 21L10 22L11 22L11 23L13 23L13 24L12 24L12 25L10 25L10 23L8 23L8 25L10 25L10 26L8 26L8 29L9 29L9 32L11 32L11 31L10 31L10 29L11 29L11 28L15 28L15 25L16 25L16 24L17 24L17 25L20 25L20 26L21 26L21 28L20 28L20 27L19 27L19 28L18 28L18 26L16 26L16 27L17 27L17 28L18 28L18 29L19 29L19 28L20 28L20 29L21 29L21 28L22 28L22 30L21 30L21 31L22 31L22 30L23 30L23 28L24 28L24 29L27 29L27 30L28 30L28 28L26 28L26 27L25 27L25 26L26 26L26 25L23 25L23 27L22 27L22 26L21 26L21 25L22 25L22 24L24 24L24 23L25 23L25 22L27 22L27 21L26 21L26 20L28 20L28 19L26 19L26 18L27 18L27 17L26 17L26 16L27 16L27 14L28 14L28 16L30 16L30 15L31 15L31 17L30 17L30 18L29 18L29 17L28 17L28 18L29 18L29 19L30 19L30 18L32 18L32 17L33 17L33 16L34 16L34 15L33 15L33 14L34 14L34 13L33 13L33 11L32 11L32 13L30 13L30 12L31 12L31 10L30 10L30 12L29 12L29 11L28 11L28 9L25 9L25 8L26 8L26 6L25 6L25 7L24 7L24 6L23 6L23 5L21 5L21 7L20 7L20 6L19 6L19 7L18 7L18 4L17 4L17 3ZM27 3L27 4L26 4L26 5L27 5L27 4L28 4L28 3ZM16 4L16 5L15 5L15 6L16 6L16 5L17 5L17 4ZM9 5L9 8L10 8L10 5ZM0 9L0 10L1 10L1 9ZM26 10L26 11L27 11L27 10ZM8 12L8 13L9 13L9 12ZM14 12L14 13L15 13L15 14L14 14L14 15L13 15L13 19L14 19L14 15L18 15L18 16L19 16L19 17L20 17L20 16L21 16L21 15L20 15L20 14L21 14L21 13L20 13L20 14L18 14L18 13L15 13L15 12ZM27 12L27 13L25 13L25 14L27 14L27 13L28 13L28 14L29 14L29 15L30 15L30 13L28 13L28 12ZM0 13L0 14L1 14L1 13ZM23 13L23 17L24 17L24 16L25 16L25 15L24 15L24 13ZM32 13L32 14L31 14L31 15L32 15L32 14L33 14L33 13ZM6 14L6 15L7 15L7 14ZM8 16L8 18L9 18L9 17L10 17L10 16ZM36 16L36 17L37 17L37 16ZM0 18L0 19L1 19L1 18ZM3 19L3 20L4 20L4 19ZM20 19L20 20L19 20L19 21L22 21L22 20L21 20L21 19ZM32 21L32 22L33 22L33 21ZM22 22L22 23L21 23L21 24L22 24L22 23L23 23L23 22ZM0 24L0 26L1 26L1 25L2 25L2 24ZM6 25L6 26L4 26L4 27L6 27L6 28L7 28L7 27L6 27L6 26L7 26L7 25ZM12 25L12 26L13 26L13 25ZM27 25L27 26L28 26L28 27L29 27L29 26L30 26L30 25ZM10 26L10 27L9 27L9 29L10 29L10 27L11 27L11 26ZM31 26L31 28L32 28L32 27L33 27L33 26ZM24 27L24 28L25 28L25 27ZM29 29L29 32L32 32L32 29ZM30 30L30 31L31 31L31 30ZM33 31L33 32L34 32L34 31ZM36 31L36 33L37 33L37 31ZM29 33L29 34L30 34L30 33ZM32 33L32 35L33 35L33 34L34 34L34 33ZM26 36L26 37L27 37L27 36ZM0 0L0 7L7 7L7 0ZM1 1L1 6L6 6L6 1ZM2 2L2 5L5 5L5 2ZM30 0L30 7L37 7L37 0ZM31 1L31 6L36 6L36 1ZM32 2L32 5L35 5L35 2ZM0 30L0 37L7 37L7 30ZM1 31L1 36L6 36L6 31ZM2 32L2 35L5 35L5 32Z" fill="#000000"/></g></g></svg>
