<?xml version="1.0" encoding="UTF-8"?>
<svg xmlns="http://www.w3.org/2000/svg" version="1.1" width="300" height="300" viewBox="0 0 300 300"><rect x="0" y="0" width="300" height="300" fill="#ffffff"/><g transform="scale(7.692)"><g transform="translate(1,1)"><path fill-rule="evenodd" d="M10 0L10 1L11 1L11 2L9 2L9 1L8 1L8 2L9 2L9 5L8 5L8 8L4 8L4 10L2 10L2 11L0 11L0 12L3 12L3 11L4 11L4 12L5 12L5 11L7 11L7 10L5 10L5 9L8 9L8 8L9 8L9 9L10 9L10 8L11 8L11 9L12 9L12 10L14 10L14 11L13 11L13 15L12 15L12 14L11 14L11 15L10 15L10 13L11 13L11 11L10 11L10 10L9 10L9 11L8 11L8 12L6 12L6 13L7 13L7 14L6 14L6 15L5 15L5 14L2 14L2 17L3 17L3 15L4 15L4 16L5 16L5 17L4 17L4 18L1 18L1 17L0 17L0 18L1 18L1 19L0 19L0 22L2 22L2 23L3 23L3 24L4 24L4 25L2 25L2 27L3 27L3 28L0 28L0 29L4 29L4 28L6 28L6 29L8 29L8 33L9 33L9 35L10 35L10 36L9 36L9 37L10 37L10 36L12 36L12 37L14 37L14 35L15 35L15 37L17 37L17 36L18 36L18 35L21 35L21 37L22 37L22 34L21 34L21 33L19 33L19 30L18 30L18 29L20 29L20 31L21 31L21 32L24 32L24 30L27 30L27 31L28 31L28 33L27 33L27 32L26 32L26 33L24 33L24 34L23 34L23 36L24 36L24 35L25 35L25 34L26 34L26 33L27 33L27 34L29 34L29 35L31 35L31 36L30 36L30 37L33 37L33 35L34 35L34 37L37 37L37 36L36 36L36 34L35 34L35 30L34 30L34 29L35 29L35 28L36 28L36 29L37 29L37 28L36 28L36 26L35 26L35 27L34 27L34 25L35 25L35 24L36 24L36 25L37 25L37 24L36 24L36 21L37 21L37 20L35 20L35 13L36 13L36 12L37 12L37 11L36 11L36 12L35 12L35 10L36 10L36 8L35 8L35 10L34 10L34 11L33 11L33 13L32 13L32 10L33 10L33 9L32 9L32 8L30 8L30 10L29 10L29 9L28 9L28 8L27 8L27 5L28 5L28 7L29 7L29 2L26 2L26 4L25 4L25 6L24 6L24 4L23 4L23 5L22 5L22 1L21 1L21 0L20 0L20 1L17 1L17 2L16 2L16 0L15 0L15 1L13 1L13 0L12 0L12 1L11 1L11 0ZM24 0L24 1L23 1L23 3L24 3L24 2L25 2L25 0ZM27 0L27 1L28 1L28 0ZM12 1L12 2L13 2L13 3L12 3L12 5L11 5L11 7L12 7L12 9L13 9L13 8L14 8L14 9L16 9L16 8L15 8L15 7L16 7L16 6L17 6L17 7L18 7L18 8L17 8L17 10L20 10L20 9L22 9L22 10L21 10L21 11L23 11L23 13L22 13L22 17L23 17L23 18L21 18L21 20L19 20L19 19L18 19L18 18L19 18L19 17L20 17L20 16L21 16L21 15L20 15L20 14L21 14L21 13L20 13L20 11L19 11L19 13L18 13L18 14L17 14L17 11L15 11L15 12L14 12L14 13L15 13L15 14L14 14L14 15L13 15L13 17L12 17L12 19L11 19L11 20L10 20L10 19L8 19L8 20L7 20L7 19L5 19L5 20L7 20L7 21L2 21L2 19L1 19L1 21L2 21L2 22L3 22L3 23L4 23L4 24L7 24L7 25L6 25L6 26L5 26L5 25L4 25L4 26L3 26L3 27L4 27L4 26L5 26L5 27L6 27L6 28L7 28L7 27L6 27L6 26L7 26L7 25L10 25L10 26L8 26L8 29L9 29L9 30L10 30L10 34L11 34L11 33L13 33L13 32L14 32L14 33L15 33L15 35L16 35L16 36L17 36L17 35L18 35L18 33L16 33L16 31L17 31L17 32L18 32L18 30L17 30L17 29L18 29L18 28L16 28L16 27L18 27L18 25L20 25L20 26L21 26L21 28L20 28L20 27L19 27L19 28L20 28L20 29L21 29L21 28L22 28L22 30L21 30L21 31L22 31L22 30L23 30L23 28L24 28L24 29L27 29L27 30L28 30L28 28L26 28L26 27L25 27L25 26L26 26L26 25L27 25L27 26L28 26L28 27L29 27L29 26L30 26L30 25L34 25L34 23L35 23L35 21L34 21L34 19L33 19L33 20L31 20L31 21L30 21L30 20L28 20L28 19L25 19L25 20L24 20L24 21L23 21L23 22L22 22L22 20L23 20L23 18L24 18L24 17L25 17L25 18L27 18L27 17L26 17L26 16L27 16L27 14L28 14L28 16L30 16L30 15L31 15L31 17L30 17L30 18L29 18L29 17L28 17L28 18L29 18L29 19L30 19L30 18L32 18L32 17L33 17L33 16L34 16L34 15L33 15L33 14L34 14L34 13L33 13L33 14L32 14L32 13L30 13L30 12L31 12L31 10L30 10L30 12L29 12L29 11L28 11L28 9L25 9L25 8L26 8L26 6L25 6L25 7L24 7L24 6L23 6L23 9L22 9L22 8L19 8L19 7L20 7L20 6L21 6L21 7L22 7L22 6L21 6L21 4L20 4L20 5L19 5L19 7L18 7L18 4L17 4L17 3L16 3L16 4L15 4L15 3L14 3L14 2L13 2L13 1ZM20 1L20 2L19 2L19 3L20 3L20 2L21 2L21 1ZM27 3L27 4L28 4L28 3ZM13 4L13 6L12 6L12 7L13 7L13 6L14 6L14 7L15 7L15 6L16 6L16 5L17 5L17 4L16 4L16 5L15 5L15 4ZM9 5L9 8L10 8L10 5ZM14 5L14 6L15 6L15 5ZM18 8L18 9L19 9L19 8ZM0 9L0 10L1 10L1 9ZM4 10L4 11L5 11L5 10ZM23 10L23 11L24 11L24 10ZM26 10L26 11L27 11L27 10ZM9 11L9 12L8 12L8 13L10 13L10 11ZM24 12L24 13L23 13L23 15L24 15L24 16L25 16L25 14L27 14L27 13L28 13L28 14L29 14L29 15L30 15L30 13L28 13L28 12L27 12L27 13L25 13L25 12ZM0 13L0 14L1 14L1 13ZM19 13L19 14L20 14L20 13ZM24 13L24 14L25 14L25 13ZM7 14L7 15L6 15L6 16L7 16L7 17L5 17L5 18L8 18L8 17L9 17L9 18L10 18L10 17L11 17L11 16L12 16L12 15L11 15L11 16L10 16L10 15L8 15L8 14ZM16 14L16 15L14 15L14 18L13 18L13 19L12 19L12 20L11 20L11 22L10 22L10 21L9 21L9 20L8 20L8 21L7 21L7 22L6 22L6 23L7 23L7 24L9 24L9 23L10 23L10 25L12 25L12 26L13 26L13 25L12 25L12 24L14 24L14 23L15 23L15 24L16 24L16 23L20 23L20 22L21 22L21 21L20 21L20 22L18 22L18 20L17 20L17 22L15 22L15 21L12 21L12 20L14 20L14 18L15 18L15 16L16 16L16 18L18 18L18 17L17 17L17 16L16 16L16 15L17 15L17 14ZM31 14L31 15L32 15L32 14ZM18 15L18 16L19 16L19 15ZM36 16L36 17L37 17L37 16ZM3 19L3 20L4 20L4 19ZM15 19L15 20L16 20L16 19ZM26 20L26 21L27 21L27 22L25 22L25 23L24 23L24 24L23 24L23 23L21 23L21 24L22 24L22 25L21 25L21 26L22 26L22 27L23 27L23 26L22 26L22 25L26 25L26 23L28 23L28 20ZM32 21L32 22L33 22L33 21ZM12 22L12 23L14 23L14 22ZM30 22L30 23L29 23L29 24L27 24L27 25L30 25L30 24L32 24L32 23L31 23L31 22ZM0 23L0 26L1 26L1 23ZM14 25L14 26L17 26L17 25ZM10 26L10 27L9 27L9 29L10 29L10 27L11 27L11 26ZM32 26L32 27L31 27L31 28L33 28L33 26ZM24 27L24 28L25 28L25 27ZM11 28L11 29L16 29L16 28ZM29 29L29 32L32 32L32 29ZM11 30L11 32L13 32L13 31L14 31L14 30L13 30L13 31L12 31L12 30ZM15 30L15 31L16 31L16 30ZM30 30L30 31L31 31L31 30ZM33 31L33 32L34 32L34 31ZM36 31L36 33L37 33L37 31ZM29 33L29 34L30 34L30 33ZM32 33L32 35L33 35L33 34L34 34L34 33ZM12 34L12 36L13 36L13 35L14 35L14 34ZM19 36L19 37L20 37L20 36ZM26 36L26 37L27 37L27 36ZM0 0L0 7L7 7L7 0ZM1 1L1 6L6 6L6 1ZM2 2L2 5L5 5L5 2ZM30 0L30 7L37 7L37 0ZM31 1L31 6L36 6L36 1ZM32 2L32 5L35 5L35 2ZM0 30L0 37L7 37L7 30ZM1 31L1 36L6 36L6 31ZM2 32L2 35L5 35L5 32Z" fill="#000000"/></g></g></svg>
