<?xml version="1.0" encoding="UTF-8"?>
<svg xmlns="http://www.w3.org/2000/svg" version="1.1" width="300" height="300" viewBox="0 0 300 300"><rect x="0" y="0" width="300" height="300" fill="#ffffff"/><g transform="scale(7.692)"><g transform="translate(1,1)"><path fill-rule="evenodd" d="M8 0L8 1L11 1L11 2L12 2L12 4L11 4L11 3L10 3L10 2L8 2L8 3L10 3L10 7L9 7L9 6L8 6L8 8L10 8L10 7L11 7L11 5L12 5L12 4L13 4L13 1L11 1L11 0ZM16 0L16 1L15 1L15 2L14 2L14 4L15 4L15 6L14 6L14 5L13 5L13 6L12 6L12 8L11 8L11 9L10 9L10 10L9 10L9 11L8 11L8 12L6 12L6 11L7 11L7 10L8 10L8 9L7 9L7 8L5 8L5 9L7 9L7 10L6 10L6 11L5 11L5 10L4 10L4 9L3 9L3 10L2 10L2 9L0 9L0 11L1 11L1 12L2 12L2 13L0 13L0 16L1 16L1 17L0 17L0 19L1 19L1 18L3 18L3 19L2 19L2 20L0 20L0 21L2 21L2 20L4 20L4 24L6 24L6 25L5 25L5 27L3 27L3 25L2 25L2 27L3 27L3 28L2 28L2 29L3 29L3 28L5 28L5 27L7 27L7 28L6 28L6 29L7 29L7 28L8 28L8 30L10 30L10 29L9 29L9 27L8 27L8 26L6 26L6 25L7 25L7 24L9 24L9 26L10 26L10 22L12 22L12 23L16 23L16 24L15 24L15 25L12 25L12 26L11 26L11 29L13 29L13 30L11 30L11 31L13 31L13 30L14 30L14 31L15 31L15 32L14 32L14 35L13 35L13 33L11 33L11 32L10 32L10 31L8 31L8 32L10 32L10 33L9 33L9 36L10 36L10 37L11 37L11 36L10 36L10 34L11 34L11 35L12 35L12 37L14 37L14 35L15 35L15 33L16 33L16 36L17 36L17 37L18 37L18 36L20 36L20 35L22 35L22 37L24 37L24 36L25 36L25 35L24 35L24 36L23 36L23 33L22 33L22 32L21 32L21 33L20 33L20 32L19 32L19 31L20 31L20 29L21 29L21 30L22 30L22 31L24 31L24 32L25 32L25 33L24 33L24 34L25 34L25 33L26 33L26 32L25 32L25 31L27 31L27 34L28 34L28 35L27 35L27 36L26 36L26 37L34 37L34 34L33 34L33 35L32 35L32 34L31 34L31 33L33 33L33 32L34 32L34 33L35 33L35 32L36 32L36 33L37 33L37 32L36 32L36 31L37 31L37 30L36 30L36 31L35 31L35 30L34 30L34 29L35 29L35 26L34 26L34 23L35 23L35 22L36 22L36 24L35 24L35 25L37 25L37 22L36 22L36 21L37 21L37 18L36 18L36 19L35 19L35 16L36 16L36 17L37 17L37 14L35 14L35 13L34 13L34 14L33 14L33 15L32 15L32 11L33 11L33 8L32 8L32 10L31 10L31 8L30 8L30 12L29 12L29 11L27 11L27 10L26 10L26 9L25 9L25 10L24 10L24 9L23 9L23 8L25 8L25 6L24 6L24 4L25 4L25 2L26 2L26 3L27 3L27 4L28 4L28 7L27 7L27 6L26 6L26 8L29 8L29 3L28 3L28 2L27 2L27 1L25 1L25 0L19 0L19 1L18 1L18 0ZM28 0L28 1L29 1L29 0ZM16 1L16 3L15 3L15 4L17 4L17 5L16 5L16 6L15 6L15 8L12 8L12 9L11 9L11 10L12 10L12 9L13 9L13 11L14 11L14 10L15 10L15 12L14 12L14 13L13 13L13 12L12 12L12 13L11 13L11 11L10 11L10 13L9 13L9 12L8 12L8 13L3 13L3 14L4 14L4 16L5 16L5 15L6 15L6 16L8 16L8 14L10 14L10 15L12 15L12 17L13 17L13 16L14 16L14 18L13 18L13 19L14 19L14 20L16 20L16 21L15 21L15 22L16 22L16 23L19 23L19 24L18 24L18 25L17 25L17 24L16 24L16 25L15 25L15 26L13 26L13 29L15 29L15 30L16 30L16 32L17 32L17 34L18 34L18 35L17 35L17 36L18 36L18 35L20 35L20 33L19 33L19 34L18 34L18 32L17 32L17 31L18 31L18 30L19 30L19 29L20 29L20 28L21 28L21 29L22 29L22 30L23 30L23 26L25 26L25 25L24 25L24 24L25 24L25 23L24 23L24 24L23 24L23 26L21 26L21 27L19 27L19 26L20 26L20 25L22 25L22 23L23 23L23 22L25 22L25 20L26 20L26 22L27 22L27 21L29 21L29 22L30 22L30 23L29 23L29 24L27 24L27 23L26 23L26 26L29 26L29 28L32 28L32 27L33 27L33 29L34 29L34 27L33 27L33 23L34 23L34 21L33 21L33 22L31 22L31 21L30 21L30 20L31 20L31 19L33 19L33 17L34 17L34 16L33 16L33 17L32 17L32 18L31 18L31 17L30 17L30 18L29 18L29 17L28 17L28 16L29 16L29 15L30 15L30 16L32 16L32 15L30 15L30 14L31 14L31 13L30 13L30 14L29 14L29 15L27 15L27 14L28 14L28 12L27 12L27 11L26 11L26 10L25 10L25 11L24 11L24 12L23 12L23 11L22 11L22 10L21 10L21 13L22 13L22 14L23 14L23 15L21 15L21 16L20 16L20 11L19 11L19 9L18 9L18 4L19 4L19 5L20 5L20 4L21 4L21 5L22 5L22 6L21 6L21 9L22 9L22 8L23 8L23 7L24 7L24 6L23 6L23 3L24 3L24 2L23 2L23 1L22 1L22 2L23 2L23 3L20 3L20 2L21 2L21 1L20 1L20 2L17 2L17 1ZM19 3L19 4L20 4L20 3ZM8 4L8 5L9 5L9 4ZM13 6L13 7L14 7L14 6ZM16 6L16 7L17 7L17 6ZM19 6L19 7L20 7L20 6ZM22 6L22 7L23 7L23 6ZM15 8L15 9L16 9L16 10L17 10L17 8ZM34 8L34 10L35 10L35 12L36 12L36 11L37 11L37 10L36 10L36 9L37 9L37 8L36 8L36 9L35 9L35 8ZM1 10L1 11L2 11L2 12L3 12L3 11L4 11L4 12L5 12L5 11L4 11L4 10L3 10L3 11L2 11L2 10ZM16 12L16 13L17 13L17 14L18 14L18 13L19 13L19 12L18 12L18 13L17 13L17 12ZM24 12L24 13L23 13L23 14L24 14L24 13L25 13L25 12ZM1 14L1 16L2 16L2 17L3 17L3 18L4 18L4 17L3 17L3 15L2 15L2 14ZM6 14L6 15L7 15L7 14ZM12 14L12 15L14 15L14 14ZM34 14L34 15L35 15L35 14ZM17 15L17 16L15 16L15 17L16 17L16 18L18 18L18 17L19 17L19 19L16 19L16 20L17 20L17 21L16 21L16 22L18 22L18 20L19 20L19 23L20 23L20 22L21 22L21 23L22 23L22 21L24 21L24 20L23 20L23 19L24 19L24 18L27 18L27 20L28 20L28 19L29 19L29 18L28 18L28 17L26 17L26 16L27 16L27 15L26 15L26 16L25 16L25 17L24 17L24 18L23 18L23 17L21 17L21 18L23 18L23 19L20 19L20 16L18 16L18 15ZM23 15L23 16L24 16L24 15ZM9 16L9 18L7 18L7 17L6 17L6 18L7 18L7 19L6 19L6 20L7 20L7 21L5 21L5 22L8 22L8 21L9 21L9 20L8 20L8 19L9 19L9 18L10 18L10 17L11 17L11 16ZM17 16L17 17L18 17L18 16ZM14 18L14 19L15 19L15 18ZM4 19L4 20L5 20L5 19ZM10 19L10 21L13 21L13 22L14 22L14 21L13 21L13 20L12 20L12 19ZM19 19L19 20L20 20L20 19ZM34 19L34 20L35 20L35 19ZM0 22L0 29L1 29L1 24L2 24L2 23L3 23L3 22L2 22L2 23L1 23L1 22ZM6 23L6 24L7 24L7 23ZM31 23L31 24L32 24L32 23ZM16 25L16 26L15 26L15 27L14 27L14 28L15 28L15 29L16 29L16 28L15 28L15 27L16 27L16 26L17 26L17 27L18 27L18 26L19 26L19 25L18 25L18 26L17 26L17 25ZM30 25L30 26L31 26L31 27L32 27L32 26L31 26L31 25ZM36 26L36 29L37 29L37 26ZM21 27L21 28L22 28L22 27ZM24 27L24 29L25 29L25 30L28 30L28 29L25 29L25 28L28 28L28 27ZM18 28L18 29L19 29L19 28ZM29 29L29 32L32 32L32 29ZM30 30L30 31L31 31L31 30ZM34 31L34 32L35 32L35 31ZM21 33L21 34L22 34L22 33ZM28 33L28 34L29 34L29 35L31 35L31 34L30 34L30 33ZM36 34L36 37L37 37L37 34ZM0 0L0 7L7 7L7 0ZM1 1L1 6L6 6L6 1ZM2 2L2 5L5 5L5 2ZM30 0L30 7L37 7L37 0ZM31 1L31 6L36 6L36 1ZM32 2L32 5L35 5L35 2ZM0 30L0 37L7 37L7 30ZM1 31L1 36L6 36L6 31ZM2 32L2 35L5 35L5 32Z" fill="#000000"/></g></g></svg>
