<?xml version="1.0" encoding="UTF-8"?>
<svg xmlns="http://www.w3.org/2000/svg" version="1.1" width="300" height="300" viewBox="0 0 300 300"><rect x="0" y="0" width="300" height="300" fill="#ffffff"/><g transform="scale(7.692)"><g transform="translate(1,1)"><path fill-rule="evenodd" d="M8 0L8 1L9 1L9 2L10 2L10 3L8 3L8 4L9 4L9 6L8 6L8 7L9 7L9 6L10 6L10 7L11 7L11 8L8 8L8 11L7 11L7 10L6 10L6 9L7 9L7 8L4 8L4 9L3 9L3 8L2 8L2 9L3 9L3 11L2 11L2 12L1 12L1 10L0 10L0 12L1 12L1 13L2 13L2 14L4 14L4 15L7 15L7 16L6 16L6 17L5 17L5 16L4 16L4 17L3 17L3 15L1 15L1 14L0 14L0 15L1 15L1 17L2 17L2 18L0 18L0 23L1 23L1 24L0 24L0 25L1 25L1 24L2 24L2 23L1 23L1 22L3 22L3 25L2 25L2 27L1 27L1 26L0 26L0 27L1 27L1 28L0 28L0 29L1 29L1 28L2 28L2 29L5 29L5 28L6 28L6 29L7 29L7 28L6 28L6 27L9 27L9 29L8 29L8 30L9 30L9 31L8 31L8 33L9 33L9 31L10 31L10 32L14 32L14 31L15 31L15 30L16 30L16 29L17 29L17 35L16 35L16 33L15 33L15 37L16 37L16 36L18 36L18 34L19 34L19 37L20 37L20 35L21 35L21 37L23 37L23 36L24 36L24 35L21 35L21 34L22 34L22 33L23 33L23 34L24 34L24 33L23 33L23 32L24 32L24 31L25 31L25 34L26 34L26 35L25 35L25 37L27 37L27 36L26 36L26 35L28 35L28 37L29 37L29 35L28 35L28 34L30 34L30 33L31 33L31 35L32 35L32 37L33 37L33 34L34 34L34 35L35 35L35 37L37 37L37 36L36 36L36 35L37 35L37 28L36 28L36 27L37 27L37 24L36 24L36 23L37 23L37 20L35 20L35 21L36 21L36 23L35 23L35 24L36 24L36 25L35 25L35 26L36 26L36 27L35 27L35 28L36 28L36 29L35 29L35 30L34 30L34 31L36 31L36 33L34 33L34 32L33 32L33 29L34 29L34 27L33 27L33 28L32 28L32 24L31 24L31 23L30 23L30 22L31 22L31 21L32 21L32 20L33 20L33 19L32 19L32 18L31 18L31 17L32 17L32 15L33 15L33 14L34 14L34 15L37 15L37 13L36 13L36 12L37 12L37 8L36 8L36 10L34 10L34 8L33 8L33 10L32 10L32 9L31 9L31 10L30 10L30 8L29 8L29 5L28 5L28 4L27 4L27 3L25 3L25 2L24 2L24 3L25 3L25 4L26 4L26 5L24 5L24 4L23 4L23 3L20 3L20 2L21 2L21 0L20 0L20 1L19 1L19 3L17 3L17 2L16 2L16 3L15 3L15 4L14 4L14 3L13 3L13 2L14 2L14 0L12 0L12 1L13 1L13 2L10 2L10 1L11 1L11 0L10 0L10 1L9 1L9 0ZM15 0L15 1L17 1L17 0ZM22 0L22 1L23 1L23 0ZM24 0L24 1L26 1L26 2L28 2L28 3L29 3L29 2L28 2L28 1L29 1L29 0L27 0L27 1L26 1L26 0ZM10 3L10 5L11 5L11 3ZM12 3L12 5L14 5L14 4L13 4L13 3ZM19 3L19 5L18 5L18 4L15 4L15 7L14 7L14 6L13 6L13 7L12 7L12 6L11 6L11 7L12 7L12 10L13 10L13 11L11 11L11 9L10 9L10 10L9 10L9 12L7 12L7 11L6 11L6 10L4 10L4 11L3 11L3 13L4 13L4 14L5 14L5 13L6 13L6 14L7 14L7 15L8 15L8 16L9 16L9 14L10 14L10 17L11 17L11 16L12 16L12 14L11 14L11 13L14 13L14 14L15 14L15 13L16 13L16 14L17 14L17 15L18 15L18 14L17 14L17 13L16 13L16 11L19 11L19 10L20 10L20 11L21 11L21 10L22 10L22 13L21 13L21 14L19 14L19 15L20 15L20 17L21 17L21 18L20 18L20 19L21 19L21 20L20 20L20 21L19 21L19 17L18 17L18 16L15 16L15 17L12 17L12 19L13 19L13 20L11 20L11 19L10 19L10 18L9 18L9 21L8 21L8 20L7 20L7 19L8 19L8 17L6 17L6 18L5 18L5 19L4 19L4 18L2 18L2 19L3 19L3 20L4 20L4 23L5 23L5 24L4 24L4 26L3 26L3 27L2 27L2 28L3 28L3 27L4 27L4 28L5 28L5 27L4 27L4 26L7 26L7 25L5 25L5 24L8 24L8 26L11 26L11 23L12 23L12 22L14 22L14 23L13 23L13 24L12 24L12 26L13 26L13 27L11 27L11 28L13 28L13 30L14 30L14 28L15 28L15 29L16 29L16 26L15 26L15 27L14 27L14 25L18 25L18 27L19 27L19 22L21 22L21 21L23 21L23 20L22 20L22 19L25 19L25 18L26 18L26 20L29 20L29 21L27 21L27 22L26 22L26 21L25 21L25 20L24 20L24 21L25 21L25 22L26 22L26 23L25 23L25 26L26 26L26 27L28 27L28 28L26 28L26 30L25 30L25 28L24 28L24 27L23 27L23 28L24 28L24 29L21 29L21 28L22 28L22 27L21 27L21 26L22 26L22 25L21 25L21 23L20 23L20 25L21 25L21 26L20 26L20 27L21 27L21 28L19 28L19 30L18 30L18 32L19 32L19 31L20 31L20 32L21 32L21 33L19 33L19 34L21 34L21 33L22 33L22 32L23 32L23 31L24 31L24 30L25 30L25 31L26 31L26 32L27 32L27 34L28 34L28 30L27 30L27 29L28 29L28 28L29 28L29 27L31 27L31 24L30 24L30 26L29 26L29 24L28 24L28 23L29 23L29 21L30 21L30 20L29 20L29 19L28 19L28 18L30 18L30 19L31 19L31 20L32 20L32 19L31 19L31 18L30 18L30 17L29 17L29 16L30 16L30 12L31 12L31 14L33 14L33 11L30 11L30 10L29 10L29 11L30 11L30 12L29 12L29 14L27 14L27 12L28 12L28 11L27 11L27 10L26 10L26 8L25 8L25 7L26 7L26 6L27 6L27 8L28 8L28 6L27 6L27 5L26 5L26 6L25 6L25 7L24 7L24 5L23 5L23 7L22 7L22 5L21 5L21 4L20 4L20 3ZM17 5L17 6L16 6L16 7L15 7L15 8L14 8L14 7L13 7L13 8L14 8L14 9L13 9L13 10L14 10L14 9L15 9L15 11L14 11L14 12L15 12L15 11L16 11L16 10L19 10L19 9L20 9L20 8L21 8L21 5L20 5L20 8L18 8L18 7L19 7L19 6L18 6L18 5ZM17 6L17 7L16 7L16 8L15 8L15 9L16 9L16 8L17 8L17 9L18 9L18 8L17 8L17 7L18 7L18 6ZM22 8L22 10L23 10L23 11L24 11L24 14L26 14L26 15L24 15L24 16L25 16L25 17L26 17L26 18L27 18L27 17L28 17L28 16L29 16L29 15L27 15L27 14L26 14L26 11L24 11L24 10L25 10L25 9L24 9L24 10L23 10L23 8ZM34 11L34 13L35 13L35 12L36 12L36 11ZM4 12L4 13L5 13L5 12ZM6 12L6 13L7 13L7 14L8 14L8 13L7 13L7 12ZM21 15L21 17L22 17L22 18L21 18L21 19L22 19L22 18L24 18L24 17L23 17L23 15ZM26 15L26 16L27 16L27 15ZM33 16L33 17L34 17L34 19L37 19L37 16L36 16L36 17L34 17L34 16ZM15 17L15 18L13 18L13 19L15 19L15 20L16 20L16 21L15 21L15 22L16 22L16 23L15 23L15 24L17 24L17 22L16 22L16 21L18 21L18 22L19 22L19 21L18 21L18 20L17 20L17 19L18 19L18 18L17 18L17 17ZM6 18L6 19L7 19L7 18ZM16 18L16 19L17 19L17 18ZM5 20L5 23L8 23L8 24L9 24L9 23L8 23L8 21L7 21L7 20ZM10 20L10 21L11 21L11 20ZM13 20L13 21L14 21L14 20ZM6 21L6 22L7 22L7 21ZM33 21L33 22L32 22L32 23L34 23L34 21ZM10 22L10 23L11 23L11 22ZM22 22L22 23L23 23L23 24L24 24L24 23L23 23L23 22ZM13 24L13 25L14 25L14 24ZM27 24L27 26L28 26L28 24ZM13 27L13 28L14 28L14 27ZM17 28L17 29L18 29L18 28ZM9 29L9 30L10 30L10 31L12 31L12 30L11 30L11 29ZM29 29L29 32L32 32L32 29ZM21 30L21 32L22 32L22 31L23 31L23 30ZM26 30L26 31L27 31L27 30ZM30 30L30 31L31 31L31 30ZM11 33L11 34L10 34L10 35L11 35L11 36L9 36L9 37L11 37L11 36L12 36L12 37L13 37L13 36L12 36L12 35L13 35L13 34L14 34L14 33L13 33L13 34L12 34L12 33ZM8 34L8 35L9 35L9 34ZM11 34L11 35L12 35L12 34ZM35 34L35 35L36 35L36 34ZM30 36L30 37L31 37L31 36ZM0 0L0 7L7 7L7 0ZM1 1L1 6L6 6L6 1ZM2 2L2 5L5 5L5 2ZM30 0L30 7L37 7L37 0ZM31 1L31 6L36 6L36 1ZM32 2L32 5L35 5L35 2ZM0 30L0 37L7 37L7 30ZM1 31L1 36L6 36L6 31ZM2 32L2 35L5 35L5 32Z" fill="#000000"/></g></g></svg>
