<?xml version="1.0" encoding="UTF-8"?>
<svg xmlns="http://www.w3.org/2000/svg" version="1.1" width="300" height="300" viewBox="0 0 300 300"><rect x="0" y="0" width="300" height="300" fill="#ffffff"/><g transform="scale(7.692)"><g transform="translate(1,1)"><path fill-rule="evenodd" d="M9 0L9 1L8 1L8 7L9 7L9 8L5 8L5 9L3 9L3 8L2 8L2 9L1 9L1 10L0 10L0 12L3 12L3 13L1 13L1 14L0 14L0 15L3 15L3 14L4 14L4 15L5 15L5 16L2 16L2 17L1 17L1 18L3 18L3 19L2 19L2 20L1 20L1 19L0 19L0 20L1 20L1 21L0 21L0 23L2 23L2 22L3 22L3 20L4 20L4 19L5 19L5 20L6 20L6 21L9 21L9 23L8 23L8 22L6 22L6 23L4 23L4 24L6 24L6 25L5 25L5 26L3 26L3 25L2 25L2 26L0 26L0 27L2 27L2 26L3 26L3 28L0 28L0 29L4 29L4 28L5 28L5 29L8 29L8 32L9 32L9 34L8 34L8 35L9 35L9 36L10 36L10 37L11 37L11 36L14 36L14 37L15 37L15 35L12 35L12 34L11 34L11 33L14 33L14 32L13 32L13 30L14 30L14 31L15 31L15 30L16 30L16 31L17 31L17 32L18 32L18 33L19 33L19 34L21 34L21 37L24 37L24 36L22 36L22 35L24 35L24 34L21 34L21 33L24 33L24 32L21 32L21 33L19 33L19 32L18 32L18 31L20 31L20 28L22 28L22 29L21 29L21 30L22 30L22 31L27 31L27 32L26 32L26 34L25 34L25 35L27 35L27 36L26 36L26 37L34 37L34 35L37 35L37 28L35 28L35 29L36 29L36 31L35 31L35 30L34 30L34 29L33 29L33 27L37 27L37 24L35 24L35 25L36 25L36 26L34 26L34 23L33 23L33 22L32 22L32 21L31 21L31 20L33 20L33 21L34 21L34 19L35 19L35 20L36 20L36 21L35 21L35 23L37 23L37 20L36 20L36 19L37 19L37 16L36 16L36 15L37 15L37 13L36 13L36 15L35 15L35 13L34 13L34 14L32 14L32 12L29 12L29 11L33 11L33 10L29 10L29 9L30 9L30 8L29 8L29 5L28 5L28 7L27 7L27 6L26 6L26 8L25 8L25 10L24 10L24 7L25 7L25 5L27 5L27 4L28 4L28 3L29 3L29 2L27 2L27 3L26 3L26 0L22 0L22 2L21 2L21 0L19 0L19 2L21 2L21 4L22 4L22 7L21 7L21 5L20 5L20 8L21 8L21 10L22 10L22 7L23 7L23 10L24 10L24 15L28 15L28 16L30 16L30 17L29 17L29 18L28 18L28 17L27 17L27 16L26 16L26 18L25 18L25 19L24 19L24 18L23 18L23 17L24 17L24 16L23 16L23 15L22 15L22 13L21 13L21 11L20 11L20 14L19 14L19 15L18 15L18 16L19 16L19 15L20 15L20 14L21 14L21 15L22 15L22 17L21 17L21 16L20 16L20 17L16 17L16 16L17 16L17 14L16 14L16 16L15 16L15 14L14 14L14 17L16 17L16 18L20 18L20 19L21 19L21 20L20 20L20 22L19 22L19 21L17 21L17 20L18 20L18 19L16 19L16 20L15 20L15 19L13 19L13 20L12 20L12 19L11 19L11 18L13 18L13 17L11 17L11 16L13 16L13 13L14 13L14 12L15 12L15 11L14 11L14 10L15 10L15 9L16 9L16 10L18 10L18 11L16 11L16 12L18 12L18 13L19 13L19 10L20 10L20 9L19 9L19 8L14 8L14 7L15 7L15 6L16 6L16 7L17 7L17 6L16 6L16 4L17 4L17 5L19 5L19 4L20 4L20 3L18 3L18 0L16 0L16 1L14 1L14 0ZM28 0L28 1L29 1L29 0ZM9 1L9 2L11 2L11 1ZM12 1L12 3L9 3L9 7L10 7L10 8L9 8L9 9L10 9L10 10L11 10L11 11L9 11L9 12L8 12L8 11L6 11L6 10L7 10L7 9L5 9L5 10L4 10L4 11L3 11L3 10L2 10L2 11L3 11L3 12L4 12L4 11L5 11L5 13L4 13L4 14L5 14L5 15L6 15L6 16L5 16L5 17L6 17L6 18L7 18L7 19L6 19L6 20L8 20L8 18L10 18L10 17L9 17L9 16L11 16L11 15L10 15L10 14L12 14L12 13L13 13L13 11L12 11L12 10L14 10L14 9L13 9L13 8L12 8L12 4L13 4L13 5L14 5L14 4L16 4L16 3L15 3L15 2L14 2L14 1ZM16 1L16 2L17 2L17 1ZM24 1L24 2L25 2L25 1ZM13 2L13 3L14 3L14 2ZM17 3L17 4L18 4L18 3ZM22 3L22 4L23 4L23 5L25 5L25 4L26 4L26 3L24 3L24 4L23 4L23 3ZM10 5L10 7L11 7L11 5ZM13 6L13 7L14 7L14 6ZM18 6L18 7L19 7L19 6ZM23 6L23 7L24 7L24 6ZM10 8L10 9L11 9L11 8ZM27 8L27 10L26 10L26 11L25 11L25 14L28 14L28 15L29 15L29 14L28 14L28 13L29 13L29 12L27 12L27 11L28 11L28 8ZM31 8L31 9L35 9L35 10L34 10L34 11L35 11L35 12L37 12L37 9L36 9L36 8ZM35 10L35 11L36 11L36 10ZM11 11L11 12L10 12L10 13L9 13L9 14L10 14L10 13L12 13L12 11ZM6 12L6 13L5 13L5 14L6 14L6 15L8 15L8 14L6 14L6 13L8 13L8 12ZM31 14L31 17L32 17L32 18L29 18L29 19L28 19L28 20L27 20L27 21L28 21L28 23L29 23L29 24L27 24L27 22L25 22L25 23L26 23L26 26L25 26L25 28L23 28L23 29L22 29L22 30L23 30L23 29L24 29L24 30L28 30L28 29L27 29L27 28L30 28L30 27L31 27L31 28L32 28L32 26L33 26L33 23L32 23L32 24L30 24L30 23L31 23L31 22L30 22L30 21L28 21L28 20L30 20L30 19L33 19L33 17L35 17L35 19L36 19L36 17L35 17L35 15L34 15L34 16L33 16L33 15L32 15L32 14ZM6 16L6 17L7 17L7 16ZM3 17L3 18L4 18L4 17ZM21 18L21 19L22 19L22 18ZM26 18L26 19L25 19L25 20L24 20L24 19L23 19L23 20L21 20L21 22L22 22L22 23L21 23L21 24L20 24L20 23L19 23L19 22L18 22L18 25L16 25L16 26L15 26L15 24L16 24L16 23L14 23L14 26L15 26L15 27L12 27L12 26L13 26L13 23L10 23L10 25L9 25L9 24L8 24L8 23L6 23L6 24L8 24L8 25L6 25L6 26L7 26L7 27L6 27L6 28L7 28L7 27L8 27L8 29L9 29L9 30L10 30L10 29L11 29L11 30L12 30L12 28L15 28L15 29L17 29L17 31L18 31L18 29L19 29L19 28L20 28L20 27L22 27L22 26L20 26L20 25L21 25L21 24L22 24L22 25L23 25L23 27L24 27L24 24L23 24L23 23L24 23L24 21L26 21L26 19L27 19L27 18ZM10 19L10 20L11 20L11 19ZM13 20L13 21L14 21L14 22L17 22L17 21L15 21L15 20ZM10 21L10 22L11 22L11 21ZM22 21L22 22L23 22L23 21ZM11 24L11 25L12 25L12 24ZM19 24L19 25L20 25L20 24ZM8 26L8 27L9 27L9 29L10 29L10 26ZM17 26L17 27L16 27L16 28L17 28L17 29L18 29L18 28L17 28L17 27L18 27L18 26ZM27 26L27 27L26 27L26 28L27 28L27 27L28 27L28 26ZM29 26L29 27L30 27L30 26ZM11 27L11 28L12 28L12 27ZM29 29L29 32L32 32L32 29ZM30 30L30 31L31 31L31 30ZM11 31L11 32L10 32L10 33L11 33L11 32L12 32L12 31ZM34 31L34 32L33 32L33 34L34 34L34 33L35 33L35 34L36 34L36 33L35 33L35 31ZM29 33L29 34L27 34L27 35L29 35L29 34L30 34L30 36L31 36L31 35L32 35L32 33ZM10 35L10 36L11 36L11 35ZM16 35L16 36L17 36L17 37L18 37L18 36L17 36L17 35ZM36 36L36 37L37 37L37 36ZM0 0L0 7L7 7L7 0ZM1 1L1 6L6 6L6 1ZM2 2L2 5L5 5L5 2ZM30 0L30 7L37 7L37 0ZM31 1L31 6L36 6L36 1ZM32 2L32 5L35 5L35 2ZM0 30L0 37L7 37L7 30ZM1 31L1 36L6 36L6 31ZM2 32L2 35L5 35L5 32Z" fill="#000000"/></g></g></svg>
