<?xml version="1.0" encoding="UTF-8"?>
<svg xmlns="http://www.w3.org/2000/svg" version="1.1" width="300" height="300" viewBox="0 0 300 300"><rect x="0" y="0" width="300" height="300" fill="#ffffff"/><g transform="scale(7.692)"><g transform="translate(1,1)"><path fill-rule="evenodd" d="M8 0L8 3L9 3L9 4L10 4L10 5L8 5L8 9L7 9L7 8L6 8L6 9L7 9L7 10L5 10L5 8L2 8L2 9L3 9L3 10L4 10L4 12L3 12L3 11L1 11L1 9L0 9L0 11L1 11L1 13L0 13L0 16L1 16L1 17L0 17L0 18L1 18L1 19L2 19L2 20L3 20L3 19L4 19L4 18L5 18L5 17L4 17L4 16L5 16L5 14L6 14L6 15L7 15L7 14L6 14L6 13L7 13L7 12L5 12L5 11L7 11L7 10L9 10L9 11L8 11L8 13L9 13L9 12L10 12L10 10L9 10L9 6L10 6L10 7L11 7L11 5L14 5L14 7L13 7L13 6L12 6L12 7L13 7L13 8L14 8L14 7L15 7L15 9L14 9L14 11L13 11L13 9L12 9L12 8L11 8L11 9L12 9L12 10L11 10L11 12L14 12L14 13L15 13L15 14L16 14L16 13L18 13L18 14L17 14L17 15L14 15L14 14L12 14L12 15L11 15L11 14L10 14L10 15L11 15L11 19L12 19L12 15L14 15L14 16L13 16L13 17L14 17L14 16L15 16L15 18L13 18L13 20L12 20L12 21L11 21L11 22L12 22L12 24L14 24L14 23L13 23L13 22L12 22L12 21L15 21L15 25L12 25L12 26L10 26L10 25L11 25L11 24L9 24L9 23L10 23L10 22L8 22L8 25L9 25L9 27L11 27L11 28L8 28L8 26L6 26L6 25L7 25L7 24L6 24L6 23L7 23L7 22L4 22L4 21L8 21L8 19L10 19L10 16L6 16L6 17L7 17L7 18L6 18L6 19L5 19L5 20L4 20L4 21L1 21L1 22L0 22L0 23L1 23L1 24L0 24L0 29L1 29L1 25L2 25L2 29L5 29L5 28L6 28L6 29L7 29L7 28L8 28L8 30L9 30L9 29L10 29L10 31L11 31L11 29L13 29L13 30L12 30L12 31L14 31L14 30L15 30L15 29L13 29L13 26L16 26L16 27L17 27L17 24L19 24L19 23L16 23L16 20L17 20L17 22L18 22L18 20L19 20L19 21L20 21L20 22L21 22L21 21L20 21L20 19L21 19L21 16L23 16L23 15L24 15L24 16L25 16L25 17L24 17L24 18L25 18L25 17L26 17L26 20L25 20L25 22L23 22L23 21L24 21L24 20L23 20L23 19L22 19L22 23L20 23L20 26L19 26L19 25L18 25L18 26L19 26L19 27L18 27L18 28L19 28L19 27L20 27L20 29L19 29L19 30L20 30L20 31L21 31L21 32L19 32L19 31L18 31L18 29L17 29L17 28L16 28L16 30L17 30L17 31L18 31L18 33L19 33L19 34L20 34L20 35L18 35L18 34L16 34L16 33L17 33L17 32L16 32L16 31L15 31L15 32L14 32L14 33L15 33L15 34L13 34L13 37L14 37L14 36L16 36L16 37L17 37L17 35L18 35L18 36L19 36L19 37L22 37L22 36L20 36L20 35L22 35L22 31L21 31L21 30L20 30L20 29L21 29L21 24L23 24L23 25L25 25L25 26L23 26L23 27L22 27L22 28L23 28L23 30L24 30L24 32L25 32L25 33L24 33L24 34L25 34L25 33L26 33L26 34L27 34L27 33L28 33L28 36L27 36L27 37L28 37L28 36L30 36L30 37L31 37L31 36L33 36L33 37L37 37L37 34L36 34L36 36L33 36L33 35L34 35L34 34L35 34L35 32L36 32L36 33L37 33L37 32L36 32L36 31L37 31L37 30L35 30L35 32L34 32L34 33L33 33L33 31L34 31L34 30L33 30L33 28L34 28L34 29L35 29L35 28L34 28L34 27L32 27L32 26L31 26L31 25L33 25L33 26L35 26L35 24L32 24L32 23L31 23L31 25L30 25L30 24L29 24L29 23L30 23L30 22L27 22L27 21L26 21L26 20L27 20L27 19L28 19L28 18L27 18L27 17L26 17L26 16L25 16L25 14L21 14L21 13L20 13L20 12L22 12L22 13L23 13L23 12L22 12L22 11L24 11L24 13L27 13L27 16L28 16L28 17L29 17L29 19L30 19L30 17L31 17L31 20L30 20L30 21L31 21L31 22L32 22L32 21L33 21L33 22L34 22L34 23L35 23L35 22L36 22L36 25L37 25L37 22L36 22L36 21L37 21L37 18L35 18L35 16L36 16L36 17L37 17L37 14L35 14L35 13L36 13L36 11L37 11L37 10L36 10L36 9L37 9L37 8L34 8L34 9L33 9L33 10L31 10L31 9L32 9L32 8L29 8L29 4L28 4L28 5L27 5L27 6L26 6L26 8L27 8L27 6L28 6L28 8L29 8L29 9L25 9L25 6L24 6L24 4L25 4L25 2L26 2L26 4L27 4L27 3L28 3L28 1L27 1L27 0L26 0L26 1L25 1L25 0L24 0L24 1L21 1L21 3L22 3L22 2L24 2L24 3L23 3L23 6L22 6L22 4L20 4L20 2L19 2L19 1L20 1L20 0L19 0L19 1L17 1L17 2L19 2L19 4L18 4L18 9L16 9L16 7L17 7L17 6L16 6L16 7L15 7L15 5L17 5L17 3L16 3L16 2L15 2L15 0L14 0L14 3L15 3L15 5L14 5L14 4L13 4L13 3L11 3L11 4L10 4L10 1L11 1L11 2L12 2L12 1L13 1L13 0ZM26 1L26 2L27 2L27 1ZM19 5L19 8L20 8L20 5ZM21 6L21 8L22 8L22 9L20 9L20 10L21 10L21 11L22 11L22 9L23 9L23 10L24 10L24 8L23 8L23 7L24 7L24 6L23 6L23 7L22 7L22 6ZM15 9L15 10L16 10L16 9ZM18 9L18 10L19 10L19 9ZM29 9L29 10L27 10L27 11L26 11L26 10L25 10L25 12L27 12L27 13L28 13L28 11L29 11L29 13L30 13L30 14L29 14L29 15L30 15L30 16L33 16L33 17L32 17L32 18L34 18L34 19L33 19L33 20L35 20L35 18L34 18L34 16L35 16L35 14L34 14L34 15L33 15L33 13L34 13L34 12L35 12L35 9L34 9L34 12L33 12L33 11L32 11L32 12L31 12L31 13L30 13L30 9ZM15 11L15 12L16 12L16 11ZM18 11L18 12L20 12L20 11ZM2 12L2 13L3 13L3 14L1 14L1 16L2 16L2 17L3 17L3 15L4 15L4 14L5 14L5 12L4 12L4 13L3 13L3 12ZM32 12L32 13L31 13L31 14L30 14L30 15L32 15L32 13L33 13L33 12ZM19 13L19 14L18 14L18 15L17 15L17 16L18 16L18 19L19 19L19 18L20 18L20 17L19 17L19 16L21 16L21 15L20 15L20 13ZM8 14L8 15L9 15L9 14ZM18 15L18 16L19 16L19 15ZM8 17L8 18L7 18L7 19L6 19L6 20L7 20L7 19L8 19L8 18L9 18L9 17ZM22 17L22 18L23 18L23 17ZM15 18L15 19L16 19L16 18ZM9 20L9 21L10 21L10 20ZM34 21L34 22L35 22L35 21ZM1 22L1 23L2 23L2 24L3 24L3 25L4 25L4 26L3 26L3 27L6 27L6 28L7 28L7 27L6 27L6 26L5 26L5 25L4 25L4 24L3 24L3 23L4 23L4 22L3 22L3 23L2 23L2 22ZM24 23L24 24L25 24L25 25L26 25L26 26L27 26L27 25L28 25L28 26L29 26L29 27L28 27L28 28L32 28L32 27L31 27L31 26L30 26L30 25L28 25L28 23L26 23L26 24L25 24L25 23ZM26 24L26 25L27 25L27 24ZM36 26L36 29L37 29L37 26ZM24 27L24 29L25 29L25 32L26 32L26 33L27 33L27 32L28 32L28 31L27 31L27 29L25 29L25 28L26 28L26 27ZM29 29L29 32L32 32L32 29ZM30 30L30 31L31 31L31 30ZM8 32L8 35L10 35L10 34L9 34L9 33L11 33L11 37L12 37L12 33L13 33L13 32L12 32L12 33L11 33L11 32ZM15 32L15 33L16 33L16 32ZM20 33L20 34L21 34L21 33ZM29 33L29 35L31 35L31 34L32 34L32 35L33 35L33 34L32 34L32 33L31 33L31 34L30 34L30 33ZM15 34L15 35L16 35L16 34ZM24 35L24 36L25 36L25 37L26 37L26 36L25 36L25 35ZM0 0L0 7L7 7L7 0ZM1 1L1 6L6 6L6 1ZM2 2L2 5L5 5L5 2ZM30 0L30 7L37 7L37 0ZM31 1L31 6L36 6L36 1ZM32 2L32 5L35 5L35 2ZM0 30L0 37L7 37L7 30ZM1 31L1 36L6 36L6 31ZM2 32L2 35L5 35L5 32Z" fill="#000000"/></g></g></svg>
