<?xml version="1.0" encoding="UTF-8"?>
<svg xmlns="http://www.w3.org/2000/svg" version="1.1" width="300" height="300" viewBox="0 0 300 300"><rect x="0" y="0" width="300" height="300" fill="#ffffff"/><g transform="scale(7.692)"><g transform="translate(1,1)"><path fill-rule="evenodd" d="M9 0L9 1L8 1L8 7L9 7L9 8L5 8L5 9L3 9L3 8L2 8L2 9L1 9L1 10L0 10L0 12L3 12L3 13L1 13L1 14L0 14L0 15L3 15L3 14L4 14L4 16L2 16L2 17L1 17L1 18L3 18L3 19L2 19L2 20L1 20L1 19L0 19L0 20L1 20L1 21L0 21L0 23L1 23L1 24L2 24L2 22L3 22L3 20L4 20L4 19L5 19L5 20L6 20L6 21L7 21L7 20L8 20L8 21L9 21L9 23L8 23L8 22L6 22L6 23L4 23L4 24L3 24L3 25L4 25L4 24L6 24L6 25L5 25L5 26L0 26L0 27L3 27L3 29L4 29L4 28L5 28L5 29L8 29L8 32L9 32L9 34L8 34L8 35L9 35L9 36L10 36L10 37L11 37L11 36L10 36L10 35L12 35L12 36L14 36L14 37L15 37L15 35L13 35L13 33L14 33L14 32L13 32L13 30L14 30L14 31L15 31L15 30L16 30L16 31L17 31L17 30L18 30L18 31L20 31L20 28L22 28L22 29L21 29L21 30L22 30L22 31L27 31L27 32L26 32L26 34L25 34L25 35L27 35L27 36L26 36L26 37L34 37L34 35L37 35L37 28L35 28L35 29L36 29L36 31L35 31L35 30L34 30L34 29L33 29L33 28L31 28L31 27L30 27L30 26L29 26L29 27L30 27L30 28L27 28L27 27L28 27L28 26L27 26L27 27L26 27L26 28L27 28L27 29L28 29L28 30L24 30L24 29L23 29L23 28L25 28L25 26L26 26L26 23L25 23L25 22L27 22L27 24L29 24L29 23L28 23L28 21L30 21L30 22L31 22L31 23L30 23L30 24L32 24L32 23L33 23L33 25L34 25L34 23L33 23L33 22L32 22L32 21L31 21L31 20L33 20L33 21L34 21L34 19L35 19L35 20L36 20L36 21L35 21L35 23L37 23L37 20L36 20L36 19L37 19L37 16L36 16L36 15L37 15L37 13L36 13L36 15L35 15L35 13L34 13L34 14L32 14L32 12L29 12L29 11L31 11L31 10L29 10L29 9L30 9L30 8L29 8L29 5L28 5L28 7L27 7L27 6L26 6L26 8L25 8L25 9L24 9L24 7L25 7L25 5L27 5L27 4L28 4L28 3L29 3L29 2L27 2L27 3L26 3L26 0L22 0L22 2L21 2L21 1L20 1L20 2L19 2L19 3L18 3L18 0L16 0L16 1L14 1L14 0L13 0L13 1L14 1L14 2L12 2L12 1L11 1L11 2L9 2L9 1L10 1L10 0ZM28 0L28 1L29 1L29 0ZM16 1L16 2L17 2L17 1ZM24 1L24 2L25 2L25 1ZM11 2L11 3L9 3L9 7L10 7L10 8L9 8L9 9L10 9L10 10L11 10L11 11L9 11L9 12L8 12L8 11L6 11L6 10L7 10L7 9L5 9L5 10L3 10L3 9L2 9L2 10L3 10L3 12L4 12L4 11L5 11L5 13L4 13L4 14L5 14L5 13L6 13L6 14L8 14L8 15L5 15L5 16L4 16L4 17L3 17L3 18L4 18L4 17L5 17L5 18L7 18L7 19L6 19L6 20L7 20L7 19L9 19L9 18L13 18L13 19L15 19L15 20L13 20L13 21L14 21L14 23L15 23L15 24L14 24L14 25L15 25L15 27L12 27L12 26L13 26L13 23L10 23L10 25L9 25L9 24L8 24L8 23L6 23L6 24L8 24L8 25L6 25L6 26L7 26L7 27L6 27L6 28L7 28L7 27L8 27L8 29L9 29L9 32L10 32L10 29L11 29L11 30L12 30L12 28L16 28L16 29L17 29L17 28L18 28L18 29L19 29L19 28L20 28L20 27L22 27L22 26L23 26L23 27L24 27L24 24L23 24L23 25L22 25L22 24L20 24L20 23L19 23L19 22L20 22L20 21L19 21L19 20L20 20L20 19L22 19L22 18L20 18L20 16L21 16L21 17L22 17L22 15L23 15L23 16L24 16L24 17L23 17L23 18L24 18L24 19L23 19L23 20L21 20L21 22L22 22L22 21L23 21L23 23L24 23L24 21L26 21L26 19L27 19L27 18L26 18L26 16L27 16L27 17L28 17L28 18L29 18L29 19L28 19L28 20L27 20L27 21L28 21L28 20L30 20L30 19L33 19L33 17L35 17L35 19L36 19L36 17L35 17L35 15L34 15L34 16L33 16L33 15L32 15L32 14L31 14L31 17L32 17L32 18L29 18L29 17L30 17L30 16L28 16L28 15L29 15L29 14L28 14L28 13L29 13L29 12L27 12L27 11L28 11L28 8L27 8L27 10L26 10L26 11L25 11L25 10L24 10L24 9L23 9L23 8L22 8L22 6L23 6L23 7L24 7L24 6L23 6L23 5L25 5L25 4L26 4L26 3L24 3L24 4L23 4L23 3L22 3L22 4L21 4L21 2L20 2L20 3L19 3L19 5L17 5L17 4L18 4L18 3L17 3L17 4L16 4L16 3L15 3L15 2L14 2L14 3L12 3L12 2ZM11 3L11 4L12 4L12 8L14 8L14 9L16 9L16 10L15 10L15 11L14 11L14 10L12 10L12 11L11 11L11 12L10 12L10 13L12 13L12 14L10 14L10 15L9 15L9 17L11 17L11 16L13 16L13 13L14 13L14 12L15 12L15 13L16 13L16 12L15 12L15 11L17 11L17 12L18 12L18 13L17 13L17 14L16 14L16 16L15 16L15 14L14 14L14 17L16 17L16 18L18 18L18 17L19 17L19 16L18 16L18 15L20 15L20 14L21 14L21 15L22 15L22 13L21 13L21 11L20 11L20 14L18 14L18 13L19 13L19 10L20 10L20 9L19 9L19 8L17 8L17 9L16 9L16 8L15 8L15 6L16 6L16 7L17 7L17 6L16 6L16 4L14 4L14 5L13 5L13 4L12 4L12 3ZM22 4L22 5L20 5L20 8L21 8L21 6L22 6L22 5L23 5L23 4ZM10 5L10 7L11 7L11 5ZM14 5L14 6L13 6L13 7L14 7L14 6L15 6L15 5ZM18 6L18 7L19 7L19 6ZM10 8L10 9L11 9L11 8ZM31 8L31 9L35 9L35 10L34 10L34 11L35 11L35 12L37 12L37 9L36 9L36 8ZM21 9L21 10L22 10L22 9ZM17 10L17 11L18 11L18 10ZM23 10L23 13L24 13L24 15L28 15L28 14L25 14L25 12L24 12L24 10ZM32 10L32 11L33 11L33 10ZM35 10L35 11L36 11L36 10ZM12 11L12 13L13 13L13 11ZM6 12L6 13L8 13L8 12ZM17 14L17 15L18 15L18 14ZM10 15L10 16L11 16L11 15ZM6 16L6 17L7 17L7 16ZM16 16L16 17L18 17L18 16ZM19 18L19 19L20 19L20 18ZM25 18L25 19L24 19L24 20L25 20L25 19L26 19L26 18ZM10 19L10 20L11 20L11 19ZM16 19L16 20L15 20L15 21L17 21L17 22L15 22L15 23L16 23L16 24L15 24L15 25L16 25L16 27L18 27L18 26L17 26L17 25L18 25L18 22L19 22L19 21L17 21L17 20L18 20L18 19ZM10 21L10 22L11 22L11 21ZM11 24L11 25L12 25L12 24ZM19 24L19 25L20 25L20 26L22 26L22 25L20 25L20 24ZM35 24L35 25L36 25L36 26L32 26L32 27L37 27L37 24ZM8 26L8 27L9 27L9 29L10 29L10 26ZM11 27L11 28L12 28L12 27ZM0 28L0 29L2 29L2 28ZM22 29L22 30L23 30L23 29ZM29 29L29 32L32 32L32 29ZM30 30L30 31L31 31L31 30ZM11 31L11 32L12 32L12 33L10 33L10 34L12 34L12 33L13 33L13 32L12 32L12 31ZM34 31L34 32L33 32L33 34L34 34L34 33L35 33L35 34L36 34L36 33L35 33L35 31ZM17 32L17 33L18 33L18 34L19 34L19 32ZM21 32L21 33L24 33L24 32ZM29 33L29 34L27 34L27 35L29 35L29 34L30 34L30 36L31 36L31 35L32 35L32 33ZM21 34L21 35L19 35L19 36L21 36L21 37L24 37L24 36L22 36L22 35L24 35L24 34ZM16 35L16 36L17 36L17 37L18 37L18 36L17 36L17 35ZM36 36L36 37L37 37L37 36ZM0 0L0 7L7 7L7 0ZM1 1L1 6L6 6L6 1ZM2 2L2 5L5 5L5 2ZM30 0L30 7L37 7L37 0ZM31 1L31 6L36 6L36 1ZM32 2L32 5L35 5L35 2ZM0 30L0 37L7 37L7 30ZM1 31L1 36L6 36L6 31ZM2 32L2 35L5 35L5 32Z" fill="#000000"/></g></g></svg>
