<?xml version="1.0" encoding="UTF-8"?>
<svg xmlns="http://www.w3.org/2000/svg" version="1.1" width="300" height="300" viewBox="0 0 300 300"><rect x="0" y="0" width="300" height="300" fill="#ffffff"/><g transform="scale(7.692)"><g transform="translate(1,1)"><path fill-rule="evenodd" d="M8 0L8 1L9 1L9 2L10 2L10 3L8 3L8 4L9 4L9 6L8 6L8 7L9 7L9 6L10 6L10 7L11 7L11 8L8 8L8 11L7 11L7 10L6 10L6 9L7 9L7 8L4 8L4 9L3 9L3 8L2 8L2 10L3 10L3 11L2 11L2 12L1 12L1 10L0 10L0 12L1 12L1 13L2 13L2 15L1 15L1 14L0 14L0 15L1 15L1 17L2 17L2 18L1 18L1 19L0 19L0 20L2 20L2 22L3 22L3 27L1 27L1 26L0 26L0 27L1 27L1 28L0 28L0 29L1 29L1 28L3 28L3 27L4 27L4 28L5 28L5 26L4 26L4 24L5 24L5 25L7 25L7 26L6 26L6 27L9 27L9 26L10 26L10 25L9 25L9 26L8 26L8 25L7 25L7 24L9 24L9 23L7 23L7 22L8 22L8 21L9 21L9 20L8 20L8 19L9 19L9 18L10 18L10 19L12 19L12 20L10 20L10 21L12 21L12 23L11 23L11 22L10 22L10 23L11 23L11 24L12 24L12 23L14 23L14 22L13 22L13 21L14 21L14 20L16 20L16 21L15 21L15 22L16 22L16 23L15 23L15 24L14 24L14 25L15 25L15 26L14 26L14 27L13 27L13 26L12 26L12 25L11 25L11 27L13 27L13 28L11 28L11 29L8 29L8 30L9 30L9 31L8 31L8 33L10 33L10 35L11 35L11 33L10 33L10 32L9 32L9 31L11 31L11 32L12 32L12 33L13 33L13 35L12 35L12 36L9 36L9 37L12 37L12 36L13 36L13 37L16 37L16 36L18 36L18 33L20 33L20 34L19 34L19 35L20 35L20 36L19 36L19 37L20 37L20 36L21 36L21 35L20 35L20 34L22 34L22 35L23 35L23 36L22 36L22 37L23 37L23 36L24 36L24 35L23 35L23 34L24 34L24 33L23 33L23 32L24 32L24 31L25 31L25 34L26 34L26 35L25 35L25 37L27 37L27 36L26 36L26 35L28 35L28 37L29 37L29 35L28 35L28 34L30 34L30 33L31 33L31 35L32 35L32 37L33 37L33 34L34 34L34 35L35 35L35 37L37 37L37 36L36 36L36 35L37 35L37 28L36 28L36 27L37 27L37 24L36 24L36 23L37 23L37 20L35 20L35 21L36 21L36 23L35 23L35 24L36 24L36 25L33 25L33 26L32 26L32 24L31 24L31 23L30 23L30 22L31 22L31 21L32 21L32 20L33 20L33 19L32 19L32 18L31 18L31 17L32 17L32 15L33 15L33 14L34 14L34 15L37 15L37 13L36 13L36 12L37 12L37 8L36 8L36 10L34 10L34 8L33 8L33 10L34 10L34 11L33 11L33 14L31 14L31 12L30 12L30 11L32 11L32 9L31 9L31 10L30 10L30 8L29 8L29 5L28 5L28 4L27 4L27 3L25 3L25 2L24 2L24 3L25 3L25 4L26 4L26 5L24 5L24 4L22 4L22 5L24 5L24 7L25 7L25 8L26 8L26 10L27 10L27 11L28 11L28 12L27 12L27 14L26 14L26 11L25 11L25 10L24 10L24 9L22 9L22 7L23 7L23 6L22 6L22 7L21 7L21 5L20 5L20 2L19 2L19 3L17 3L17 2L16 2L16 3L15 3L15 4L14 4L14 3L13 3L13 4L11 4L11 5L10 5L10 3L12 3L12 1L13 1L13 2L15 2L15 1L17 1L17 0L15 0L15 1L13 1L13 0L12 0L12 1L11 1L11 0L10 0L10 1L9 1L9 0ZM19 0L19 1L20 1L20 0ZM21 0L21 2L22 2L22 3L23 3L23 0ZM24 0L24 1L25 1L25 0ZM27 0L27 2L28 2L28 3L29 3L29 2L28 2L28 1L29 1L29 0ZM10 1L10 2L11 2L11 1ZM15 4L15 7L16 7L16 8L15 8L15 9L16 9L16 8L17 8L17 10L18 10L18 8L19 8L19 7L20 7L20 6L19 6L19 5L18 5L18 4ZM17 5L17 6L16 6L16 7L17 7L17 8L18 8L18 7L19 7L19 6L18 6L18 5ZM26 5L26 6L25 6L25 7L26 7L26 6L27 6L27 8L28 8L28 6L27 6L27 5ZM11 6L11 7L12 7L12 6ZM13 6L13 7L14 7L14 6ZM17 6L17 7L18 7L18 6ZM12 8L12 10L13 10L13 11L10 11L10 10L11 10L11 9L9 9L9 11L10 11L10 12L11 12L11 13L10 13L10 14L9 14L9 12L7 12L7 11L6 11L6 12L7 12L7 13L4 13L4 12L3 12L3 14L7 14L7 15L4 15L4 16L3 16L3 15L2 15L2 16L3 16L3 17L4 17L4 16L5 16L5 17L6 17L6 18L5 18L5 19L4 19L4 18L2 18L2 19L3 19L3 20L4 20L4 23L5 23L5 24L7 24L7 23L5 23L5 20L7 20L7 19L8 19L8 17L10 17L10 18L11 18L11 16L12 16L12 14L11 14L11 13L14 13L14 14L15 14L15 13L16 13L16 14L19 14L19 15L17 15L17 16L15 16L15 17L14 17L14 19L13 19L13 18L12 18L12 19L13 19L13 20L14 20L14 19L15 19L15 17L17 17L17 18L16 18L16 19L17 19L17 20L18 20L18 21L16 21L16 22L17 22L17 24L15 24L15 25L18 25L18 26L16 26L16 27L18 27L18 28L15 28L15 27L14 27L14 28L13 28L13 30L14 30L14 28L15 28L15 30L16 30L16 29L17 29L17 31L16 31L16 35L17 35L17 33L18 33L18 32L17 32L17 31L18 31L18 29L19 29L19 31L20 31L20 32L21 32L21 33L22 33L22 34L23 34L23 33L22 33L22 32L23 32L23 31L24 31L24 30L25 30L25 31L26 31L26 32L27 32L27 34L28 34L28 30L27 30L27 29L28 29L28 28L29 28L29 27L31 27L31 28L33 28L33 27L31 27L31 24L30 24L30 26L29 26L29 24L28 24L28 23L29 23L29 21L30 21L30 20L29 20L29 19L28 19L28 18L30 18L30 19L31 19L31 20L32 20L32 19L31 19L31 18L30 18L30 17L29 17L29 16L30 16L30 12L28 12L28 13L29 13L29 14L27 14L27 15L26 15L26 14L25 14L25 15L24 15L24 16L23 16L23 17L24 17L24 18L23 18L23 19L27 19L27 20L29 20L29 21L27 21L27 22L26 22L26 21L25 21L25 20L24 20L24 21L25 21L25 22L26 22L26 23L25 23L25 26L26 26L26 27L28 27L28 28L26 28L26 30L25 30L25 28L24 28L24 27L23 27L23 28L24 28L24 29L21 29L21 28L22 28L22 27L21 27L21 26L23 26L23 25L22 25L22 24L24 24L24 23L22 23L22 21L23 21L23 20L22 20L22 19L21 19L21 20L22 20L22 21L21 21L21 23L22 23L22 24L19 24L19 23L20 23L20 22L18 22L18 21L20 21L20 18L22 18L22 17L21 17L21 15L23 15L23 10L22 10L22 9L21 9L21 8L20 8L20 9L19 9L19 10L20 10L20 11L21 11L21 10L22 10L22 13L21 13L21 14L19 14L19 13L17 13L17 12L18 12L18 11L15 11L15 10L13 10L13 9L14 9L14 8ZM4 10L4 11L5 11L5 10ZM29 10L29 11L30 11L30 10ZM14 11L14 12L15 12L15 11ZM34 11L34 13L35 13L35 12L36 12L36 11ZM7 13L7 14L8 14L8 13ZM10 14L10 15L11 15L11 14ZM7 15L7 16L6 16L6 17L8 17L8 15ZM19 15L19 17L20 17L20 15ZM25 15L25 18L27 18L27 17L28 17L28 16L29 16L29 15L27 15L27 16L26 16L26 15ZM17 16L17 17L18 17L18 16ZM33 16L33 17L34 17L34 19L37 19L37 16L36 16L36 17L34 17L34 16ZM6 18L6 19L7 19L7 18ZM17 18L17 19L18 19L18 18ZM0 21L0 23L1 23L1 21ZM6 21L6 22L7 22L7 21ZM33 21L33 22L32 22L32 23L34 23L34 21ZM27 24L27 26L28 26L28 24ZM19 25L19 28L21 28L21 27L20 27L20 26L21 26L21 25ZM35 26L35 27L34 27L34 29L33 29L33 32L34 32L34 33L36 33L36 31L34 31L34 30L35 30L35 29L36 29L36 28L35 28L35 27L36 27L36 26ZM6 28L6 29L7 29L7 28ZM29 29L29 32L32 32L32 29ZM11 30L11 31L12 31L12 30ZM21 30L21 32L22 32L22 31L23 31L23 30ZM26 30L26 31L27 31L27 30ZM30 30L30 31L31 31L31 30ZM14 31L14 32L13 32L13 33L14 33L14 35L13 35L13 36L14 36L14 35L15 35L15 31ZM8 34L8 35L9 35L9 34ZM35 34L35 35L36 35L36 34ZM30 36L30 37L31 37L31 36ZM0 0L0 7L7 7L7 0ZM1 1L1 6L6 6L6 1ZM2 2L2 5L5 5L5 2ZM30 0L30 7L37 7L37 0ZM31 1L31 6L36 6L36 1ZM32 2L32 5L35 5L35 2ZM0 30L0 37L7 37L7 30ZM1 31L1 36L6 36L6 31ZM2 32L2 35L5 35L5 32Z" fill="#000000"/></g></g></svg>
