<?xml version="1.0" encoding="UTF-8"?>
<svg xmlns="http://www.w3.org/2000/svg" version="1.1" width="300" height="300" viewBox="0 0 300 300"><rect x="0" y="0" width="300" height="300" fill="#ffffff"/><g transform="scale(7.692)"><g transform="translate(1,1)"><path fill-rule="evenodd" d="M8 0L8 1L9 1L9 2L10 2L10 3L8 3L8 4L9 4L9 6L8 6L8 7L9 7L9 6L10 6L10 7L11 7L11 8L8 8L8 11L7 11L7 10L6 10L6 9L7 9L7 8L4 8L4 9L3 9L3 8L2 8L2 9L1 9L1 10L0 10L0 12L1 12L1 13L2 13L2 15L1 15L1 14L0 14L0 15L1 15L1 17L2 17L2 18L1 18L1 19L0 19L0 20L2 20L2 22L3 22L3 25L2 25L2 27L1 27L1 26L0 26L0 27L1 27L1 28L0 28L0 29L1 29L1 28L2 28L2 29L3 29L3 28L5 28L5 26L4 26L4 24L5 24L5 25L7 25L7 26L6 26L6 27L9 27L9 26L10 26L10 25L9 25L9 26L8 26L8 25L7 25L7 24L9 24L9 23L7 23L7 22L8 22L8 21L9 21L9 20L8 20L8 21L7 21L7 20L5 20L5 23L4 23L4 20L3 20L3 19L2 19L2 18L4 18L4 19L5 19L5 18L6 18L6 19L9 19L9 18L10 18L10 19L11 19L11 17L12 17L12 18L13 18L13 19L14 19L14 20L10 20L10 21L12 21L12 23L11 23L11 22L10 22L10 23L11 23L11 24L12 24L12 23L13 23L13 21L14 21L14 20L16 20L16 21L15 21L15 22L14 22L14 23L15 23L15 24L17 24L17 22L16 22L16 21L18 21L18 22L20 22L20 23L19 23L19 24L21 24L21 23L22 23L22 22L23 22L23 23L24 23L24 24L22 24L22 26L21 26L21 25L19 25L19 28L21 28L21 29L24 29L24 28L25 28L25 30L24 30L24 31L23 31L23 30L21 30L21 32L20 32L20 31L19 31L19 29L16 29L16 28L18 28L18 27L17 27L17 26L18 26L18 25L16 25L16 28L14 28L14 27L15 27L15 25L14 25L14 24L13 24L13 25L14 25L14 27L13 27L13 26L12 26L12 25L11 25L11 27L13 27L13 28L11 28L11 29L8 29L8 30L12 30L12 31L8 31L8 33L9 33L9 32L12 32L12 33L10 33L10 35L11 35L11 36L9 36L9 37L12 37L12 36L13 36L13 37L16 37L16 36L18 36L18 33L20 33L20 34L22 34L22 35L23 35L23 36L22 36L22 37L23 37L23 36L24 36L24 35L23 35L23 34L24 34L24 33L23 33L23 32L24 32L24 31L25 31L25 34L26 34L26 35L25 35L25 37L27 37L27 36L26 36L26 35L28 35L28 37L29 37L29 35L28 35L28 34L30 34L30 33L31 33L31 35L32 35L32 37L33 37L33 34L34 34L34 35L35 35L35 37L37 37L37 36L36 36L36 35L37 35L37 28L36 28L36 27L37 27L37 24L36 24L36 23L37 23L37 20L35 20L35 21L36 21L36 23L35 23L35 24L36 24L36 25L35 25L35 26L34 26L34 25L33 25L33 26L32 26L32 24L31 24L31 23L30 23L30 22L31 22L31 21L32 21L32 20L33 20L33 19L32 19L32 18L31 18L31 17L32 17L32 15L33 15L33 14L34 14L34 15L37 15L37 13L36 13L36 12L37 12L37 8L36 8L36 10L34 10L34 8L33 8L33 10L32 10L32 9L31 9L31 10L30 10L30 8L29 8L29 5L28 5L28 4L27 4L27 3L25 3L25 2L24 2L24 3L25 3L25 4L26 4L26 5L24 5L24 4L22 4L22 5L24 5L24 7L25 7L25 8L24 8L24 9L23 9L23 6L22 6L22 7L21 7L21 5L20 5L20 1L21 1L21 2L22 2L22 3L23 3L23 0L19 0L19 3L17 3L17 2L16 2L16 3L15 3L15 4L14 4L14 3L13 3L13 2L15 2L15 1L17 1L17 0L15 0L15 1L13 1L13 0L12 0L12 1L11 1L11 2L10 2L10 1L9 1L9 0ZM24 0L24 1L25 1L25 0ZM27 0L27 2L28 2L28 3L29 3L29 2L28 2L28 1L29 1L29 0ZM12 1L12 2L11 2L11 3L10 3L10 5L11 5L11 3L12 3L12 4L13 4L13 5L14 5L14 4L13 4L13 3L12 3L12 2L13 2L13 1ZM15 4L15 7L14 7L14 6L13 6L13 7L14 7L14 8L12 8L12 10L13 10L13 11L10 11L10 10L11 10L11 9L9 9L9 11L10 11L10 12L11 12L11 13L9 13L9 12L7 12L7 11L6 11L6 12L7 12L7 13L5 13L5 14L4 14L4 11L5 11L5 10L3 10L3 9L2 9L2 10L1 10L1 12L2 12L2 13L3 13L3 14L4 14L4 15L5 15L5 17L6 17L6 18L7 18L7 17L6 17L6 16L7 16L7 15L8 15L8 16L9 16L9 17L10 17L10 16L9 16L9 14L11 14L11 16L12 16L12 14L11 14L11 13L14 13L14 14L15 14L15 12L14 12L14 11L16 11L16 10L15 10L15 9L16 9L16 8L17 8L17 10L18 10L18 8L19 8L19 7L20 7L20 6L19 6L19 5L18 5L18 4ZM17 5L17 6L16 6L16 7L15 7L15 8L14 8L14 9L13 9L13 10L14 10L14 9L15 9L15 8L16 8L16 7L17 7L17 8L18 8L18 7L19 7L19 6L18 6L18 5ZM26 5L26 6L25 6L25 7L26 7L26 6L27 6L27 8L28 8L28 6L27 6L27 5ZM11 6L11 7L12 7L12 6ZM17 6L17 7L18 7L18 6ZM20 8L20 9L19 9L19 10L20 10L20 11L21 11L21 10L22 10L22 13L21 13L21 14L19 14L19 13L18 13L18 16L19 16L19 15L20 15L20 16L21 16L21 15L23 15L23 12L25 12L25 11L26 11L26 14L25 14L25 15L24 15L24 16L23 16L23 17L24 17L24 18L23 18L23 19L27 19L27 20L29 20L29 21L27 21L27 22L26 22L26 21L25 21L25 20L24 20L24 21L25 21L25 22L26 22L26 23L25 23L25 26L26 26L26 27L28 27L28 28L26 28L26 30L25 30L25 31L26 31L26 32L27 32L27 34L28 34L28 30L27 30L27 29L28 29L28 28L29 28L29 27L31 27L31 24L30 24L30 26L29 26L29 24L28 24L28 23L29 23L29 21L30 21L30 20L29 20L29 19L28 19L28 18L30 18L30 19L31 19L31 20L32 20L32 19L31 19L31 18L30 18L30 17L29 17L29 16L30 16L30 12L31 12L31 14L33 14L33 11L30 11L30 10L29 10L29 11L30 11L30 12L28 12L28 11L27 11L27 10L26 10L26 8L25 8L25 10L24 10L24 11L23 11L23 9L21 9L21 8ZM2 10L2 11L3 11L3 10ZM17 11L17 12L16 12L16 14L17 14L17 12L18 12L18 11ZM34 11L34 13L35 13L35 12L36 12L36 11ZM27 12L27 14L26 14L26 15L25 15L25 18L27 18L27 17L28 17L28 16L29 16L29 15L27 15L27 14L29 14L29 13L28 13L28 12ZM7 13L7 14L6 14L6 15L7 15L7 14L8 14L8 13ZM2 15L2 16L3 16L3 17L4 17L4 16L3 16L3 15ZM26 15L26 16L27 16L27 15ZM15 16L15 17L14 17L14 19L15 19L15 17L17 17L17 18L16 18L16 19L17 19L17 20L18 20L18 21L20 21L20 20L22 20L22 21L21 21L21 22L22 22L22 21L23 21L23 20L22 20L22 19L20 19L20 18L22 18L22 17L20 17L20 18L19 18L19 17L17 17L17 16ZM33 16L33 17L34 17L34 19L37 19L37 16L36 16L36 17L34 17L34 16ZM17 18L17 19L18 19L18 18ZM19 19L19 20L20 20L20 19ZM0 21L0 22L1 22L1 21ZM6 21L6 22L7 22L7 21ZM33 21L33 22L32 22L32 23L34 23L34 21ZM15 22L15 23L16 23L16 22ZM0 23L0 25L1 25L1 23ZM5 23L5 24L7 24L7 23ZM27 24L27 26L28 26L28 24ZM20 26L20 27L21 27L21 28L22 28L22 27L21 27L21 26ZM33 26L33 27L32 27L32 28L33 28L33 27L34 27L34 29L33 29L33 32L34 32L34 33L36 33L36 31L34 31L34 30L35 30L35 29L36 29L36 28L35 28L35 27L36 27L36 26L35 26L35 27L34 27L34 26ZM2 27L2 28L3 28L3 27ZM23 27L23 28L24 28L24 27ZM6 28L6 29L7 29L7 28ZM13 28L13 30L14 30L14 28ZM15 29L15 30L16 30L16 29ZM29 29L29 32L32 32L32 29ZM17 30L17 31L16 31L16 35L17 35L17 33L18 33L18 30ZM26 30L26 31L27 31L27 30ZM30 30L30 31L31 31L31 30ZM14 31L14 32L13 32L13 33L12 33L12 34L13 34L13 33L14 33L14 35L13 35L13 36L14 36L14 35L15 35L15 31ZM22 31L22 32L21 32L21 33L22 33L22 34L23 34L23 33L22 33L22 32L23 32L23 31ZM8 34L8 35L9 35L9 34ZM35 34L35 35L36 35L36 34ZM19 36L19 37L20 37L20 36ZM30 36L30 37L31 37L31 36ZM0 0L0 7L7 7L7 0ZM1 1L1 6L6 6L6 1ZM2 2L2 5L5 5L5 2ZM30 0L30 7L37 7L37 0ZM31 1L31 6L36 6L36 1ZM32 2L32 5L35 5L35 2ZM0 30L0 37L7 37L7 30ZM1 31L1 36L6 36L6 31ZM2 32L2 35L5 35L5 32Z" fill="#000000"/></g></g></svg>
