<?xml version="1.0" encoding="UTF-8"?>
<svg xmlns="http://www.w3.org/2000/svg" version="1.1" width="300" height="300" viewBox="0 0 300 300"><rect x="0" y="0" width="300" height="300" fill="#ffffff"/><g transform="scale(7.692)"><g transform="translate(1,1)"><path fill-rule="evenodd" d="M15 0L15 2L13 2L13 1L11 1L11 2L9 2L9 1L8 1L8 2L9 2L9 5L8 5L8 8L4 8L4 9L2 9L2 10L3 10L3 12L4 12L4 9L8 9L8 8L9 8L9 9L10 9L10 8L11 8L11 9L12 9L12 10L14 10L14 11L13 11L13 15L12 15L12 14L11 14L11 13L10 13L10 12L11 12L11 11L10 11L10 10L9 10L9 11L8 11L8 12L6 12L6 13L7 13L7 14L6 14L6 15L4 15L4 14L5 14L5 13L2 13L2 15L4 15L4 18L2 18L2 21L1 21L1 17L0 17L0 21L1 21L1 22L2 22L2 23L3 23L3 26L2 26L2 27L3 27L3 26L4 26L4 27L7 27L7 28L6 28L6 29L8 29L8 33L9 33L9 35L10 35L10 36L9 36L9 37L10 37L10 36L12 36L12 37L13 37L13 36L14 36L14 37L17 37L17 36L18 36L18 35L21 35L21 36L20 36L20 37L21 37L21 36L22 36L22 37L23 37L23 36L24 36L24 35L25 35L25 34L26 34L26 33L27 33L27 34L29 34L29 35L31 35L31 36L30 36L30 37L33 37L33 35L34 35L34 37L37 37L37 36L36 36L36 34L35 34L35 30L34 30L34 29L35 29L35 28L36 28L36 29L37 29L37 28L36 28L36 26L33 26L33 25L30 25L30 24L32 24L32 23L31 23L31 22L30 22L30 23L29 23L29 24L27 24L27 25L26 25L26 23L28 23L28 20L30 20L30 21L31 21L31 20L33 20L33 19L34 19L34 21L35 21L35 23L34 23L34 25L35 25L35 24L36 24L36 25L37 25L37 24L36 24L36 21L37 21L37 20L35 20L35 13L36 13L36 12L37 12L37 11L36 11L36 12L35 12L35 10L36 10L36 8L35 8L35 10L33 10L33 9L32 9L32 8L30 8L30 10L29 10L29 9L28 9L28 8L27 8L27 5L28 5L28 7L29 7L29 2L27 2L27 3L26 3L26 4L25 4L25 6L24 6L24 4L23 4L23 6L22 6L22 3L21 3L21 4L19 4L19 3L20 3L20 2L22 2L22 0L20 0L20 2L19 2L19 0L18 0L18 1L17 1L17 2L16 2L16 0ZM24 0L24 1L23 1L23 3L24 3L24 2L26 2L26 0ZM27 0L27 1L28 1L28 0ZM12 2L12 5L11 5L11 7L12 7L12 6L13 6L13 8L12 8L12 9L13 9L13 8L14 8L14 10L16 10L16 8L14 8L14 6L15 6L15 7L16 7L16 6L17 6L17 7L18 7L18 8L17 8L17 9L18 9L18 10L17 10L17 12L16 12L16 11L15 11L15 12L14 12L14 13L15 13L15 14L14 14L14 15L13 15L13 17L11 17L11 16L12 16L12 15L11 15L11 16L10 16L10 13L9 13L9 12L8 12L8 13L9 13L9 15L8 15L8 14L7 14L7 15L6 15L6 16L7 16L7 17L5 17L5 18L7 18L7 19L5 19L5 20L8 20L8 21L2 21L2 22L3 22L3 23L4 23L4 24L7 24L7 23L8 23L8 22L9 22L9 21L10 21L10 22L11 22L11 24L12 24L12 25L10 25L10 23L9 23L9 24L8 24L8 25L9 25L9 26L8 26L8 29L9 29L9 31L11 31L11 30L12 30L12 31L13 31L13 32L14 32L14 33L13 33L13 34L14 34L14 33L15 33L15 35L16 35L16 36L17 36L17 35L18 35L18 32L19 32L19 34L20 34L20 33L21 33L21 34L24 34L24 33L26 33L26 32L27 32L27 33L28 33L28 31L27 31L27 30L28 30L28 28L26 28L26 27L25 27L25 26L26 26L26 25L23 25L23 24L24 24L24 23L25 23L25 22L27 22L27 21L26 21L26 20L28 20L28 19L27 19L27 17L26 17L26 16L27 16L27 14L28 14L28 16L30 16L30 15L31 15L31 17L30 17L30 18L29 18L29 17L28 17L28 18L29 18L29 19L30 19L30 18L32 18L32 17L33 17L33 16L34 16L34 15L33 15L33 14L34 14L34 13L33 13L33 11L32 11L32 10L30 10L30 12L29 12L29 11L28 11L28 9L24 9L24 8L26 8L26 6L25 6L25 7L24 7L24 6L23 6L23 9L22 9L22 6L21 6L21 5L20 5L20 6L19 6L19 7L18 7L18 4L17 4L17 3L16 3L16 4L14 4L14 3L13 3L13 2ZM27 3L27 4L26 4L26 5L27 5L27 4L28 4L28 3ZM13 4L13 5L14 5L14 4ZM16 4L16 5L15 5L15 6L16 6L16 5L17 5L17 4ZM9 5L9 8L10 8L10 5ZM20 6L20 7L19 7L19 8L18 8L18 9L20 9L20 10L18 10L18 11L20 11L20 13L18 13L18 12L17 12L17 13L16 13L16 12L15 12L15 13L16 13L16 14L17 14L17 15L16 15L16 18L18 18L18 19L20 19L20 20L19 20L19 21L21 21L21 22L20 22L20 24L23 24L23 23L22 23L22 21L24 21L24 20L25 20L25 17L24 17L24 16L25 16L25 15L24 15L24 16L23 16L23 17L22 17L22 13L23 13L23 11L25 11L25 10L23 10L23 11L21 11L21 10L22 10L22 9L20 9L20 8L21 8L21 6ZM0 9L0 10L1 10L1 9ZM5 10L5 11L7 11L7 10ZM26 10L26 11L27 11L27 10ZM0 11L0 12L2 12L2 11ZM31 11L31 12L30 12L30 13L29 13L29 12L27 12L27 13L25 13L25 12L24 12L24 13L25 13L25 14L27 14L27 13L28 13L28 14L29 14L29 15L30 15L30 13L32 13L32 14L31 14L31 15L32 15L32 14L33 14L33 13L32 13L32 11ZM0 13L0 14L1 14L1 13ZM17 13L17 14L18 14L18 15L19 15L19 17L20 17L20 18L21 18L21 19L22 19L22 20L23 20L23 18L24 18L24 17L23 17L23 18L21 18L21 15L20 15L20 14L21 14L21 13L20 13L20 14L18 14L18 13ZM14 15L14 17L13 17L13 20L12 20L12 21L11 21L11 22L13 22L13 25L12 25L12 26L13 26L13 25L14 25L14 24L16 24L16 23L19 23L19 22L18 22L18 20L17 20L17 22L13 22L13 20L16 20L16 19L14 19L14 18L15 18L15 15ZM2 16L2 17L3 17L3 16ZM8 16L8 17L7 17L7 18L8 18L8 20L9 20L9 19L10 19L10 20L11 20L11 19L12 19L12 18L9 18L9 17L10 17L10 16ZM17 16L17 17L18 17L18 16ZM36 16L36 17L37 17L37 16ZM3 19L3 20L4 20L4 19ZM32 21L32 22L33 22L33 21ZM6 22L6 23L7 23L7 22ZM1 24L1 25L0 25L0 26L1 26L1 25L2 25L2 24ZM6 25L6 26L7 26L7 25ZM16 25L16 26L15 26L15 27L18 27L18 30L17 30L17 32L15 32L15 33L17 33L17 32L18 32L18 30L19 30L19 29L20 29L20 31L21 31L21 32L24 32L24 30L27 30L27 29L24 29L24 28L25 28L25 27L24 27L24 28L23 28L23 30L22 30L22 28L21 28L21 26L22 26L22 27L23 27L23 26L22 26L22 25L21 25L21 26L20 26L20 25L18 25L18 26L17 26L17 25ZM27 25L27 26L28 26L28 27L29 27L29 26L30 26L30 25ZM10 26L10 27L11 27L11 26ZM31 26L31 28L32 28L32 27L33 27L33 26ZM19 27L19 28L20 28L20 29L21 29L21 28L20 28L20 27ZM0 28L0 29L4 29L4 28ZM9 28L9 29L10 29L10 28ZM11 28L11 29L15 29L15 31L16 31L16 29L17 29L17 28ZM29 29L29 32L32 32L32 29ZM13 30L13 31L14 31L14 30ZM21 30L21 31L22 31L22 30ZM30 30L30 31L31 31L31 30ZM33 31L33 32L34 32L34 31ZM36 31L36 33L37 33L37 31ZM9 32L9 33L11 33L11 34L12 34L12 32ZM29 33L29 34L30 34L30 33ZM32 33L32 35L33 35L33 34L34 34L34 33ZM12 35L12 36L13 36L13 35ZM22 35L22 36L23 36L23 35ZM26 36L26 37L27 37L27 36ZM0 0L0 7L7 7L7 0ZM1 1L1 6L6 6L6 1ZM2 2L2 5L5 5L5 2ZM30 0L30 7L37 7L37 0ZM31 1L31 6L36 6L36 1ZM32 2L32 5L35 5L35 2ZM0 30L0 37L7 37L7 30ZM1 31L1 36L6 36L6 31ZM2 32L2 35L5 35L5 32Z" fill="#000000"/></g></g></svg>
