<?xml version="1.0" encoding="UTF-8"?>
<svg xmlns="http://www.w3.org/2000/svg" version="1.1" width="300" height="300" viewBox="0 0 300 300"><rect x="0" y="0" width="300" height="300" fill="#ffffff"/><g transform="scale(7.692)"><g transform="translate(1,1)"><path fill-rule="evenodd" d="M11 0L11 2L9 2L9 1L8 1L8 2L9 2L9 5L8 5L8 8L4 8L4 9L2 9L2 10L5 10L5 11L0 11L0 12L4 12L4 13L5 13L5 14L4 14L4 15L5 15L5 14L6 14L6 15L7 15L7 14L8 14L8 15L9 15L9 16L8 16L8 17L7 17L7 16L5 16L5 17L4 17L4 18L1 18L1 20L0 20L0 22L1 22L1 23L0 23L0 24L1 24L1 23L3 23L3 24L4 24L4 25L3 25L3 26L4 26L4 27L3 27L3 28L0 28L0 29L4 29L4 27L7 27L7 28L5 28L5 29L8 29L8 33L9 33L9 35L10 35L10 36L9 36L9 37L10 37L10 36L11 36L11 35L13 35L13 36L14 36L14 35L15 35L15 37L17 37L17 36L18 36L18 35L20 35L20 33L21 33L21 32L24 32L24 30L27 30L27 31L28 31L28 33L27 33L27 32L26 32L26 33L24 33L24 34L23 34L23 36L24 36L24 35L25 35L25 34L26 34L26 33L27 33L27 34L29 34L29 35L31 35L31 36L30 36L30 37L33 37L33 35L34 35L34 37L37 37L37 36L36 36L36 34L35 34L35 30L34 30L34 29L35 29L35 28L36 28L36 29L37 29L37 28L36 28L36 26L35 26L35 27L34 27L34 26L33 26L33 25L30 25L30 24L32 24L32 23L31 23L31 22L30 22L30 23L29 23L29 24L27 24L27 25L26 25L26 23L28 23L28 20L30 20L30 21L31 21L31 20L33 20L33 19L34 19L34 21L35 21L35 23L34 23L34 25L35 25L35 24L36 24L36 25L37 25L37 24L36 24L36 21L37 21L37 20L35 20L35 13L36 13L36 12L37 12L37 11L36 11L36 12L35 12L35 10L36 10L36 8L35 8L35 10L33 10L33 9L32 9L32 8L30 8L30 10L29 10L29 9L28 9L28 8L27 8L27 5L28 5L28 7L29 7L29 2L27 2L27 3L26 3L26 4L25 4L25 6L24 6L24 4L23 4L23 3L24 3L24 2L26 2L26 0L24 0L24 1L23 1L23 2L21 2L21 0L20 0L20 2L19 2L19 0L18 0L18 1L17 1L17 2L16 2L16 0L15 0L15 3L14 3L14 5L15 5L15 6L14 6L14 8L16 8L16 12L15 12L15 9L12 9L12 10L14 10L14 11L13 11L13 15L12 15L12 14L10 14L10 13L11 13L11 12L10 12L10 11L11 11L11 10L10 10L10 11L8 11L8 12L5 12L5 11L7 11L7 10L5 10L5 9L8 9L8 8L9 8L9 9L10 9L10 8L11 8L11 6L12 6L12 8L13 8L13 5L11 5L11 2L12 2L12 3L13 3L13 2L12 2L12 1L13 1L13 0ZM27 0L27 1L28 1L28 0ZM20 2L20 3L19 3L19 4L20 4L20 5L19 5L19 7L18 7L18 4L17 4L17 3L16 3L16 4L15 4L15 5L16 5L16 6L15 6L15 7L16 7L16 6L17 6L17 7L18 7L18 8L17 8L17 10L18 10L18 13L20 13L20 14L18 14L18 15L17 15L17 13L16 13L16 14L14 14L14 15L13 15L13 16L12 16L12 15L11 15L11 16L12 16L12 17L11 17L11 20L10 20L10 19L8 19L8 18L10 18L10 16L9 16L9 17L8 17L8 18L7 18L7 17L5 17L5 18L7 18L7 19L5 19L5 20L7 20L7 21L2 21L2 22L3 22L3 23L4 23L4 24L7 24L7 25L6 25L6 26L7 26L7 25L9 25L9 26L8 26L8 29L9 29L9 30L10 30L10 29L11 29L11 30L12 30L12 31L13 31L13 32L14 32L14 33L13 33L13 34L14 34L14 33L15 33L15 35L16 35L16 36L17 36L17 35L18 35L18 34L19 34L19 33L20 33L20 32L21 32L21 31L22 31L22 30L23 30L23 28L24 28L24 29L27 29L27 30L28 30L28 28L26 28L26 27L25 27L25 26L26 26L26 25L23 25L23 24L24 24L24 23L25 23L25 22L27 22L27 21L26 21L26 20L28 20L28 19L27 19L27 17L26 17L26 16L30 16L30 15L31 15L31 17L30 17L30 18L29 18L29 17L28 17L28 18L29 18L29 19L30 19L30 18L32 18L32 17L33 17L33 16L34 16L34 15L33 15L33 14L34 14L34 13L33 13L33 12L32 12L32 11L33 11L33 10L30 10L30 12L29 12L29 11L28 11L28 9L25 9L25 8L26 8L26 6L25 6L25 7L24 7L24 6L23 6L23 8L21 8L21 7L22 7L22 6L21 6L21 5L22 5L22 3L21 3L21 2ZM27 3L27 4L28 4L28 3ZM16 4L16 5L17 5L17 4ZM9 5L9 8L10 8L10 5ZM20 6L20 7L19 7L19 8L18 8L18 9L19 9L19 8L20 8L20 7L21 7L21 6ZM0 9L0 10L1 10L1 9ZM20 9L20 10L19 10L19 11L20 11L20 13L21 13L21 14L20 14L20 15L21 15L21 16L20 16L20 18L19 18L19 17L18 17L18 16L19 16L19 15L18 15L18 16L16 16L16 18L18 18L18 19L19 19L19 22L18 22L18 20L17 20L17 22L15 22L15 20L16 20L16 19L15 19L15 15L14 15L14 18L13 18L13 17L12 17L12 18L13 18L13 19L12 19L12 22L10 22L10 21L9 21L9 20L8 20L8 21L7 21L7 22L6 22L6 23L10 23L10 25L11 25L11 23L12 23L12 24L13 24L13 25L12 25L12 26L13 26L13 25L15 25L15 26L16 26L16 27L15 27L15 28L11 28L11 29L15 29L15 31L16 31L16 29L17 29L17 30L18 30L18 31L19 31L19 29L20 29L20 31L21 31L21 30L22 30L22 28L21 28L21 26L22 26L22 27L23 27L23 25L22 25L22 23L23 23L23 21L24 21L24 20L25 20L25 19L26 19L26 17L24 17L24 16L25 16L25 14L27 14L27 15L30 15L30 13L32 13L32 14L31 14L31 15L32 15L32 14L33 14L33 13L32 13L32 12L30 12L30 13L29 13L29 12L27 12L27 13L24 13L24 12L25 12L25 11L24 11L24 10L25 10L25 9L23 9L23 11L21 11L21 10L22 10L22 9ZM26 10L26 11L27 11L27 10ZM23 11L23 12L24 12L24 11ZM8 12L8 13L10 13L10 12ZM14 12L14 13L15 13L15 12ZM0 13L0 14L1 14L1 13ZM6 13L6 14L7 14L7 13ZM22 13L22 17L21 17L21 18L20 18L20 19L21 19L21 18L22 18L22 17L23 17L23 18L24 18L24 17L23 17L23 16L24 16L24 14L23 14L23 13ZM27 13L27 14L28 14L28 13ZM2 15L2 16L3 16L3 15ZM36 16L36 17L37 17L37 16ZM3 19L3 20L4 20L4 19ZM13 19L13 20L14 20L14 19ZM20 20L20 21L22 21L22 20ZM8 21L8 22L9 22L9 21ZM13 21L13 22L12 22L12 23L13 23L13 22L14 22L14 24L15 24L15 25L16 25L16 26L17 26L17 27L19 27L19 28L17 28L17 29L19 29L19 28L20 28L20 29L21 29L21 28L20 28L20 27L19 27L19 26L18 26L18 25L19 25L19 23L16 23L16 24L15 24L15 22L14 22L14 21ZM32 21L32 22L33 22L33 21ZM21 22L21 23L20 23L20 26L21 26L21 23L22 23L22 22ZM16 24L16 25L17 25L17 24ZM0 25L0 26L2 26L2 25ZM4 25L4 26L5 26L5 25ZM27 25L27 26L28 26L28 27L29 27L29 26L30 26L30 25ZM10 26L10 27L9 27L9 28L10 28L10 27L11 27L11 26ZM32 26L32 28L33 28L33 26ZM24 27L24 28L25 28L25 27ZM15 28L15 29L16 29L16 28ZM29 29L29 32L32 32L32 29ZM13 30L13 31L14 31L14 30ZM30 30L30 31L31 31L31 30ZM10 31L10 32L9 32L9 33L10 33L10 34L12 34L12 32L11 32L11 31ZM33 31L33 32L34 32L34 31ZM36 31L36 33L37 33L37 31ZM15 32L15 33L17 33L17 32ZM18 32L18 33L19 33L19 32ZM29 33L29 34L30 34L30 33ZM32 33L32 35L33 35L33 34L34 34L34 33ZM21 34L21 37L22 37L22 34ZM19 36L19 37L20 37L20 36ZM26 36L26 37L27 37L27 36ZM0 0L0 7L7 7L7 0ZM1 1L1 6L6 6L6 1ZM2 2L2 5L5 5L5 2ZM30 0L30 7L37 7L37 0ZM31 1L31 6L36 6L36 1ZM32 2L32 5L35 5L35 2ZM0 30L0 37L7 37L7 30ZM1 31L1 36L6 36L6 31ZM2 32L2 35L5 35L5 32Z" fill="#000000"/></g></g></svg>
