<?xml version="1.0" encoding="UTF-8"?>
<svg xmlns="http://www.w3.org/2000/svg" version="1.1" width="300" height="300" viewBox="0 0 300 300"><rect x="0" y="0" width="300" height="300" fill="#ffffff"/><g transform="scale(7.692)"><g transform="translate(1,1)"><path fill-rule="evenodd" d="M9 0L9 1L10 1L10 0ZM11 0L11 1L12 1L12 2L10 2L10 3L9 3L9 4L8 4L8 5L11 5L11 6L10 6L10 7L9 7L9 6L8 6L8 8L6 8L6 9L7 9L7 10L5 10L5 9L4 9L4 8L2 8L2 9L0 9L0 10L2 10L2 9L4 9L4 12L3 12L3 13L4 13L4 14L3 14L3 15L2 15L2 12L1 12L1 11L0 11L0 12L1 12L1 15L0 15L0 19L1 19L1 21L0 21L0 22L1 22L1 24L2 24L2 25L1 25L1 27L0 27L0 28L1 28L1 27L3 27L3 26L2 26L2 25L3 25L3 24L2 24L2 22L3 22L3 23L5 23L5 24L4 24L4 25L8 25L8 26L9 26L9 28L13 28L13 27L14 27L14 24L15 24L15 27L16 27L16 29L15 29L15 28L14 28L14 30L13 30L13 29L12 29L12 31L11 31L11 30L10 30L10 29L8 29L8 31L9 31L9 30L10 30L10 32L9 32L9 33L8 33L8 35L9 35L9 36L13 36L13 37L15 37L15 36L13 36L13 35L14 35L14 33L15 33L15 35L17 35L17 34L16 34L16 32L18 32L18 35L20 35L20 34L19 34L19 31L18 31L18 29L19 29L19 28L17 28L17 27L18 27L18 25L17 25L17 24L18 24L18 23L20 23L20 22L18 22L18 21L19 21L19 20L17 20L17 19L18 19L18 17L19 17L19 19L20 19L20 21L21 21L21 19L22 19L22 18L21 18L21 17L22 17L22 16L24 16L24 17L25 17L25 19L23 19L23 21L22 21L22 22L21 22L21 24L20 24L20 25L21 25L21 26L20 26L20 28L21 28L21 30L20 30L20 33L21 33L21 34L22 34L22 35L25 35L25 37L26 37L26 35L27 35L27 37L28 37L28 35L29 35L29 36L30 36L30 37L31 37L31 36L30 36L30 35L32 35L32 36L33 36L33 37L37 37L37 36L35 36L35 35L36 35L36 34L35 34L35 33L34 33L34 30L35 30L35 31L36 31L36 32L37 32L37 29L36 29L36 28L37 28L37 27L36 27L36 28L34 28L34 27L33 27L33 25L35 25L35 26L37 26L37 24L36 24L36 25L35 25L35 23L36 23L36 20L35 20L35 22L34 22L34 21L33 21L33 20L34 20L34 17L36 17L36 18L35 18L35 19L37 19L37 17L36 17L36 16L37 16L37 15L36 15L36 14L37 14L37 13L36 13L36 12L37 12L37 11L34 11L34 15L35 15L35 16L33 16L33 18L31 18L31 17L32 17L32 16L31 16L31 17L29 17L29 16L30 16L30 15L29 15L29 12L28 12L28 10L29 10L29 11L30 11L30 10L31 10L31 12L30 12L30 14L33 14L33 10L34 10L34 9L33 9L33 8L32 8L32 9L33 9L33 10L31 10L31 8L29 8L29 6L28 6L28 7L27 7L27 6L26 6L26 5L29 5L29 4L27 4L27 3L26 3L26 2L25 2L25 3L23 3L23 2L22 2L22 3L23 3L23 4L21 4L21 5L20 5L20 7L19 7L19 6L18 6L18 7L17 7L17 5L18 5L18 4L17 4L17 2L16 2L16 1L15 1L15 0ZM18 0L18 1L19 1L19 0ZM21 0L21 1L22 1L22 0ZM24 0L24 1L25 1L25 0ZM26 0L26 1L27 1L27 0ZM14 1L14 3L13 3L13 5L12 5L12 6L11 6L11 7L10 7L10 8L11 8L11 9L10 9L10 11L9 11L9 12L11 12L11 13L10 13L10 14L9 14L9 15L5 15L5 16L4 16L4 15L3 15L3 16L2 16L2 15L1 15L1 16L2 16L2 17L1 17L1 18L2 18L2 17L3 17L3 18L4 18L4 22L5 22L5 23L6 23L6 24L7 24L7 23L6 23L6 22L8 22L8 24L9 24L9 23L11 23L11 22L12 22L12 23L14 23L14 22L15 22L15 24L17 24L17 21L16 21L16 18L17 18L17 17L18 17L18 16L21 16L21 15L23 15L23 14L26 14L26 15L24 15L24 16L28 16L28 12L27 12L27 10L25 10L25 9L24 9L24 8L26 8L26 9L27 9L27 7L26 7L26 6L25 6L25 7L24 7L24 6L23 6L23 5L24 5L24 4L23 4L23 5L21 5L21 7L22 7L22 6L23 6L23 8L22 8L22 9L20 9L20 8L19 8L19 7L18 7L18 8L17 8L17 7L16 7L16 6L15 6L15 8L14 8L14 9L13 9L13 10L12 10L12 6L13 6L13 7L14 7L14 6L13 6L13 5L14 5L14 3L16 3L16 2L15 2L15 1ZM18 2L18 3L21 3L21 2ZM28 2L28 3L29 3L29 2ZM10 3L10 4L12 4L12 3ZM25 3L25 5L26 5L26 3ZM15 4L15 5L16 5L16 4ZM16 8L16 9L15 9L15 10L16 10L16 11L14 11L14 14L15 14L15 15L14 15L14 16L12 16L12 15L11 15L11 14L13 14L13 13L11 13L11 14L10 14L10 15L9 15L9 16L5 16L5 18L6 18L6 19L8 19L8 20L5 20L5 21L8 21L8 22L9 22L9 21L8 21L8 20L10 20L10 21L11 21L11 20L12 20L12 19L11 19L11 20L10 20L10 18L9 18L9 16L10 16L10 15L11 15L11 16L12 16L12 18L13 18L13 19L15 19L15 18L13 18L13 17L15 17L15 15L16 15L16 17L17 17L17 16L18 16L18 15L16 15L16 13L18 13L18 12L16 12L16 11L18 11L18 10L17 10L17 8ZM19 9L19 13L20 13L20 12L21 12L21 11L22 11L22 13L21 13L21 14L19 14L19 15L21 15L21 14L22 14L22 13L23 13L23 11L24 11L24 12L25 12L25 13L26 13L26 14L27 14L27 12L26 12L26 11L24 11L24 10L21 10L21 11L20 11L20 9ZM29 9L29 10L30 10L30 9ZM35 9L35 10L36 10L36 9ZM7 10L7 11L6 11L6 12L7 12L7 13L5 13L5 14L8 14L8 12L7 12L7 11L8 11L8 10ZM11 11L11 12L12 12L12 11ZM31 12L31 13L32 13L32 12ZM6 17L6 18L7 18L7 17ZM8 18L8 19L9 19L9 18ZM20 18L20 19L21 19L21 18ZM26 18L26 19L25 19L25 21L23 21L23 23L22 23L22 24L21 24L21 25L22 25L22 26L23 26L23 23L25 23L25 25L26 25L26 24L27 24L27 27L28 27L28 28L26 28L26 26L24 26L24 28L22 28L22 27L21 27L21 28L22 28L22 29L24 29L24 30L21 30L21 33L22 33L22 34L24 34L24 32L25 32L25 35L26 35L26 33L27 33L27 34L28 34L28 32L26 32L26 31L27 31L27 30L28 30L28 28L33 28L33 27L30 27L30 26L32 26L32 25L31 25L31 24L33 24L33 23L32 23L32 22L33 22L33 21L32 21L32 20L33 20L33 19L32 19L32 20L29 20L29 18L28 18L28 20L29 20L29 21L27 21L27 20L26 20L26 19L27 19L27 18ZM30 18L30 19L31 19L31 18ZM2 19L2 21L1 21L1 22L2 22L2 21L3 21L3 19ZM13 20L13 21L12 21L12 22L13 22L13 21L14 21L14 20ZM15 21L15 22L16 22L16 21ZM25 21L25 23L26 23L26 22L27 22L27 21ZM31 21L31 22L30 22L30 24L28 24L28 23L29 23L29 22L28 22L28 23L27 23L27 24L28 24L28 25L29 25L29 26L30 26L30 24L31 24L31 22L32 22L32 21ZM11 24L11 25L9 25L9 26L11 26L11 25L12 25L12 27L13 27L13 24ZM16 25L16 26L17 26L17 25ZM4 26L4 28L2 28L2 29L4 29L4 28L6 28L6 29L7 29L7 28L8 28L8 27L7 27L7 26L6 26L6 27L5 27L5 26ZM6 27L6 28L7 28L7 27ZM24 28L24 29L25 29L25 30L24 30L24 31L23 31L23 32L22 32L22 33L23 33L23 32L24 32L24 31L25 31L25 30L26 30L26 28ZM29 29L29 32L32 32L32 29ZM35 29L35 30L36 30L36 29ZM14 30L14 31L13 31L13 32L14 32L14 31L15 31L15 30ZM30 30L30 31L31 31L31 30ZM10 32L10 33L9 33L9 35L11 35L11 33L12 33L12 32ZM29 33L29 34L30 34L30 33ZM31 33L31 34L32 34L32 33ZM33 34L33 35L35 35L35 34ZM16 36L16 37L17 37L17 36ZM19 36L19 37L21 37L21 36ZM0 0L0 7L7 7L7 0ZM1 1L1 6L6 6L6 1ZM2 2L2 5L5 5L5 2ZM30 0L30 7L37 7L37 0ZM31 1L31 6L36 6L36 1ZM32 2L32 5L35 5L35 2ZM0 30L0 37L7 37L7 30ZM1 31L1 36L6 36L6 31ZM2 32L2 35L5 35L5 32Z" fill="#000000"/></g></g></svg>
