<?xml version="1.0" encoding="UTF-8"?>
<svg xmlns="http://www.w3.org/2000/svg" version="1.1" width="300" height="300" viewBox="0 0 300 300"><rect x="0" y="0" width="300" height="300" fill="#ffffff"/><g transform="scale(7.692)"><g transform="translate(1,1)"><path fill-rule="evenodd" d="M8 0L8 3L9 3L9 4L10 4L10 5L8 5L8 9L7 9L7 8L6 8L6 9L7 9L7 10L6 10L6 11L3 11L3 10L5 10L5 8L2 8L2 9L0 9L0 11L1 11L1 13L0 13L0 16L1 16L1 19L2 19L2 20L0 20L0 21L1 21L1 22L0 22L0 24L2 24L2 25L3 25L3 26L2 26L2 28L4 28L4 29L7 29L7 28L8 28L8 30L9 30L9 32L8 32L8 35L10 35L10 34L11 34L11 33L10 33L10 27L11 27L11 29L13 29L13 30L12 30L12 31L14 31L14 30L16 30L16 31L15 31L15 32L14 32L14 33L13 33L13 32L12 32L12 33L13 33L13 35L14 35L14 33L15 33L15 34L16 34L16 35L15 35L15 36L14 36L14 37L15 37L15 36L16 36L16 37L17 37L17 35L18 35L18 36L19 36L19 37L23 37L23 36L19 36L19 35L23 35L23 34L21 34L21 33L22 33L22 31L21 31L21 30L20 30L20 29L21 29L21 24L20 24L20 26L19 26L19 25L18 25L18 26L19 26L19 27L20 27L20 29L19 29L19 28L16 28L16 29L13 29L13 26L14 26L14 25L12 25L12 26L9 26L9 28L8 28L8 26L6 26L6 25L11 25L11 24L9 24L9 23L10 23L10 22L9 22L9 21L10 21L10 20L8 20L8 21L7 21L7 20L6 20L6 19L7 19L7 18L6 18L6 19L5 19L5 20L4 20L4 21L2 21L2 20L3 20L3 19L4 19L4 18L5 18L5 17L8 17L8 19L10 19L10 18L11 18L11 21L12 21L12 15L14 15L14 16L13 16L13 18L14 18L14 19L13 19L13 20L14 20L14 21L13 21L13 22L11 22L11 23L12 23L12 24L13 24L13 23L14 23L14 24L15 24L15 25L16 25L16 26L15 26L15 27L16 27L16 26L17 26L17 24L19 24L19 23L20 23L20 22L19 22L19 23L16 23L16 20L17 20L17 22L18 22L18 20L19 20L19 21L21 21L21 19L22 19L22 20L23 20L23 21L22 21L22 22L21 22L21 23L22 23L22 25L25 25L25 26L23 26L23 27L22 27L22 28L23 28L23 30L24 30L24 32L25 32L25 33L24 33L24 34L25 34L25 33L26 33L26 34L27 34L27 33L28 33L28 36L27 36L27 37L28 37L28 36L30 36L30 37L31 37L31 36L33 36L33 37L37 37L37 34L36 34L36 36L33 36L33 35L34 35L34 34L35 34L35 32L36 32L36 33L37 33L37 32L36 32L36 31L37 31L37 30L35 30L35 32L34 32L34 33L33 33L33 31L34 31L34 30L33 30L33 28L34 28L34 29L35 29L35 28L34 28L34 25L35 25L35 24L32 24L32 23L31 23L31 25L30 25L30 24L29 24L29 23L30 23L30 22L27 22L27 21L26 21L26 20L25 20L25 22L23 22L23 21L24 21L24 20L23 20L23 17L24 17L24 18L25 18L25 19L28 19L28 18L27 18L27 17L29 17L29 19L30 19L30 17L31 17L31 20L30 20L30 21L31 21L31 22L32 22L32 21L33 21L33 22L34 22L34 23L35 23L35 22L36 22L36 25L37 25L37 22L36 22L36 21L37 21L37 18L35 18L35 16L36 16L36 17L37 17L37 14L35 14L35 13L36 13L36 11L37 11L37 10L36 10L36 9L37 9L37 8L34 8L34 9L33 9L33 12L32 12L32 10L31 10L31 9L32 9L32 8L29 8L29 4L28 4L28 5L27 5L27 6L26 6L26 8L27 8L27 6L28 6L28 8L29 8L29 9L25 9L25 6L24 6L24 4L25 4L25 0L24 0L24 1L22 1L22 0L20 0L20 2L19 2L19 1L17 1L17 2L19 2L19 4L18 4L18 9L17 9L17 10L16 10L16 7L17 7L17 6L16 6L16 7L15 7L15 6L14 6L14 5L17 5L17 3L16 3L16 2L15 2L15 4L13 4L13 2L14 2L14 1L15 1L15 0L13 0L13 1L12 1L12 0ZM26 0L26 4L27 4L27 3L28 3L28 1L27 1L27 0ZM10 1L10 4L12 4L12 5L13 5L13 4L12 4L12 3L11 3L11 2L12 2L12 1ZM21 1L21 2L20 2L20 4L19 4L19 7L20 7L20 6L21 6L21 9L20 9L20 8L19 8L19 9L18 9L18 10L17 10L17 12L16 12L16 13L14 13L14 12L10 12L10 11L11 11L11 10L12 10L12 9L13 9L13 11L14 11L14 10L15 10L15 7L14 7L14 6L13 6L13 7L12 7L12 6L11 6L11 7L10 7L10 6L9 6L9 10L7 10L7 11L6 11L6 12L7 12L7 13L6 13L6 14L7 14L7 15L5 15L5 12L4 12L4 13L3 13L3 11L2 11L2 10L3 10L3 9L2 9L2 10L1 10L1 11L2 11L2 13L3 13L3 14L1 14L1 16L3 16L3 14L4 14L4 15L5 15L5 16L9 16L9 15L12 15L12 14L14 14L14 15L15 15L15 16L14 16L14 18L15 18L15 19L16 19L16 18L15 18L15 16L17 16L17 17L18 17L18 16L17 16L17 15L19 15L19 16L20 16L20 17L23 17L23 16L21 16L21 15L20 15L20 13L21 13L21 14L23 14L23 15L24 15L24 17L25 17L25 16L26 16L26 17L27 17L27 13L30 13L30 14L28 14L28 16L29 16L29 15L30 15L30 16L33 16L33 17L32 17L32 18L34 18L34 19L33 19L33 20L35 20L35 18L34 18L34 16L35 16L35 14L34 14L34 15L33 15L33 13L34 13L34 12L35 12L35 9L34 9L34 12L33 12L33 13L32 13L32 12L31 12L31 13L30 13L30 9L29 9L29 10L27 10L27 11L26 11L26 10L25 10L25 9L24 9L24 8L22 8L22 3L21 3L21 2L22 2L22 1ZM23 2L23 3L24 3L24 2ZM20 4L20 5L21 5L21 4ZM23 6L23 7L24 7L24 6ZM13 7L13 8L14 8L14 7ZM19 9L19 11L20 11L20 12L19 12L19 13L20 13L20 12L22 12L22 13L24 13L24 14L25 14L25 13L27 13L27 12L24 12L24 11L25 11L25 10L24 10L24 9L22 9L22 11L21 11L21 10L20 10L20 9ZM8 11L8 13L9 13L9 14L8 14L8 15L9 15L9 14L11 14L11 13L9 13L9 11ZM22 11L22 12L23 12L23 11ZM28 11L28 12L29 12L29 11ZM16 13L16 14L15 14L15 15L16 15L16 14L18 14L18 13ZM31 13L31 14L30 14L30 15L32 15L32 13ZM10 16L10 17L11 17L11 16ZM18 18L18 19L20 19L20 18ZM4 21L4 22L3 22L3 23L2 23L2 24L3 24L3 25L4 25L4 26L3 26L3 27L5 27L5 28L7 28L7 27L5 27L5 25L4 25L4 24L3 24L3 23L4 23L4 22L7 22L7 21ZM14 21L14 22L15 22L15 21ZM34 21L34 22L35 22L35 21ZM22 22L22 23L23 23L23 22ZM6 23L6 24L8 24L8 23ZM24 23L24 24L25 24L25 25L26 25L26 26L27 26L27 25L28 25L28 26L29 26L29 27L28 27L28 28L33 28L33 25L31 25L31 26L30 26L30 25L28 25L28 23L26 23L26 24L25 24L25 23ZM26 24L26 25L27 25L27 24ZM0 25L0 29L1 29L1 25ZM36 26L36 29L37 29L37 26ZM24 27L24 29L25 29L25 32L26 32L26 33L27 33L27 32L28 32L28 31L27 31L27 30L28 30L28 29L25 29L25 28L26 28L26 27ZM29 29L29 32L32 32L32 29ZM18 30L18 31L16 31L16 32L17 32L17 33L16 33L16 34L18 34L18 35L19 35L19 32L20 32L20 33L21 33L21 31L20 31L20 30ZM30 30L30 31L31 31L31 30ZM18 31L18 32L19 32L19 31ZM9 33L9 34L10 34L10 33ZM29 33L29 35L31 35L31 34L32 34L32 35L33 35L33 34L32 34L32 33L31 33L31 34L30 34L30 33ZM24 35L24 36L25 36L25 37L26 37L26 36L25 36L25 35ZM11 36L11 37L13 37L13 36ZM0 0L0 7L7 7L7 0ZM1 1L1 6L6 6L6 1ZM2 2L2 5L5 5L5 2ZM30 0L30 7L37 7L37 0ZM31 1L31 6L36 6L36 1ZM32 2L32 5L35 5L35 2ZM0 30L0 37L7 37L7 30ZM1 31L1 36L6 36L6 31ZM2 32L2 35L5 35L5 32Z" fill="#000000"/></g></g></svg>
