<?xml version="1.0" encoding="UTF-8"?>
<svg xmlns="http://www.w3.org/2000/svg" version="1.1" width="300" height="300" viewBox="0 0 300 300"><rect x="0" y="0" width="300" height="300" fill="#ffffff"/><g transform="scale(7.692)"><g transform="translate(1,1)"><path fill-rule="evenodd" d="M8 0L8 3L9 3L9 4L10 4L10 5L8 5L8 9L7 9L7 8L6 8L6 9L7 9L7 10L5 10L5 8L2 8L2 9L4 9L4 10L2 10L2 11L1 11L1 9L0 9L0 11L1 11L1 13L0 13L0 16L1 16L1 17L0 17L0 18L2 18L2 20L1 20L1 19L0 19L0 21L2 21L2 22L0 22L0 29L1 29L1 26L2 26L2 27L3 27L3 25L5 25L5 26L4 26L4 28L2 28L2 29L7 29L7 28L8 28L8 30L11 30L11 29L13 29L13 30L12 30L12 31L14 31L14 30L15 30L15 29L16 29L16 31L15 31L15 32L14 32L14 33L12 33L12 34L14 34L14 36L13 36L13 35L12 35L12 37L14 37L14 36L16 36L16 37L17 37L17 35L18 35L18 36L19 36L19 35L20 35L20 37L23 37L23 35L22 35L22 31L21 31L21 30L20 30L20 29L21 29L21 25L22 25L22 26L23 26L23 27L22 27L22 28L23 28L23 30L24 30L24 32L25 32L25 33L24 33L24 34L25 34L25 33L26 33L26 34L27 34L27 33L28 33L28 36L27 36L27 37L28 37L28 36L30 36L30 37L31 37L31 36L33 36L33 37L37 37L37 34L36 34L36 36L33 36L33 35L34 35L34 34L35 34L35 32L36 32L36 33L37 33L37 32L36 32L36 31L37 31L37 30L35 30L35 32L34 32L34 33L33 33L33 31L34 31L34 30L33 30L33 28L34 28L34 29L35 29L35 28L34 28L34 25L35 25L35 24L32 24L32 23L31 23L31 25L30 25L30 24L29 24L29 23L30 23L30 22L27 22L27 21L26 21L26 20L27 20L27 19L28 19L28 18L27 18L27 17L29 17L29 19L30 19L30 17L31 17L31 20L30 20L30 21L31 21L31 22L32 22L32 21L33 21L33 22L34 22L34 23L35 23L35 22L36 22L36 25L37 25L37 22L36 22L36 21L37 21L37 18L35 18L35 16L36 16L36 17L37 17L37 14L35 14L35 13L36 13L36 11L37 11L37 10L36 10L36 9L37 9L37 8L34 8L34 9L33 9L33 10L32 10L32 11L31 11L31 9L32 9L32 8L29 8L29 4L28 4L28 5L27 5L27 6L26 6L26 8L27 8L27 6L28 6L28 8L29 8L29 9L24 9L24 10L22 10L22 11L21 11L21 10L20 10L20 9L23 9L23 8L25 8L25 6L24 6L24 4L25 4L25 1L26 1L26 2L27 2L27 3L26 3L26 4L27 4L27 3L28 3L28 1L27 1L27 0L24 0L24 1L23 1L23 2L24 2L24 3L23 3L23 6L22 6L22 7L21 7L21 6L20 6L20 4L21 4L21 5L22 5L22 0L21 0L21 1L20 1L20 0L19 0L19 1L17 1L17 2L19 2L19 3L20 3L20 4L18 4L18 9L19 9L19 11L20 11L20 12L17 12L17 13L16 13L16 12L15 12L15 11L16 11L16 10L17 10L17 9L16 9L16 7L17 7L17 6L16 6L16 7L15 7L15 5L17 5L17 3L16 3L16 2L15 2L15 3L14 3L14 1L15 1L15 0L14 0L14 1L13 1L13 0L11 0L11 4L10 4L10 0ZM12 1L12 2L13 2L13 1ZM20 2L20 3L21 3L21 2ZM12 3L12 4L13 4L13 5L12 5L12 6L11 6L11 7L10 7L10 6L9 6L9 9L10 9L10 10L7 10L7 11L6 11L6 12L4 12L4 11L2 11L2 12L4 12L4 13L2 13L2 14L1 14L1 16L3 16L3 15L4 15L4 13L5 13L5 14L7 14L7 15L5 15L5 16L4 16L4 17L5 17L5 18L4 18L4 19L3 19L3 20L2 20L2 21L4 21L4 22L3 22L3 23L1 23L1 24L3 24L3 23L4 23L4 22L8 22L8 23L9 23L9 24L11 24L11 25L10 25L10 26L12 26L12 25L13 25L13 24L14 24L14 25L15 25L15 26L13 26L13 29L15 29L15 26L16 26L16 28L18 28L18 30L17 30L17 31L16 31L16 32L15 32L15 33L14 33L14 34L15 34L15 35L16 35L16 34L18 34L18 35L19 35L19 34L20 34L20 33L21 33L21 31L20 31L20 30L19 30L19 29L20 29L20 27L19 27L19 26L20 26L20 24L17 24L17 26L16 26L16 25L15 25L15 21L13 21L13 18L14 18L14 20L15 20L15 19L16 19L16 18L15 18L15 17L16 17L16 15L19 15L19 16L21 16L21 17L19 17L19 18L18 18L18 19L19 19L19 20L18 20L18 22L17 22L17 20L16 20L16 23L19 23L19 20L20 20L20 23L21 23L21 21L22 21L22 20L20 20L20 19L23 19L23 20L24 20L24 21L23 21L23 22L25 22L25 20L26 20L26 18L24 18L24 17L25 17L25 16L26 16L26 17L27 17L27 13L30 13L30 14L28 14L28 16L29 16L29 15L30 15L30 16L33 16L33 17L32 17L32 18L34 18L34 19L33 19L33 20L35 20L35 18L34 18L34 16L35 16L35 14L34 14L34 15L33 15L33 13L34 13L34 12L35 12L35 9L34 9L34 12L33 12L33 11L32 11L32 12L31 12L31 13L30 13L30 9L29 9L29 10L27 10L27 11L26 11L26 10L24 10L24 11L22 11L22 12L20 12L20 13L18 13L18 14L16 14L16 13L14 13L14 12L11 12L11 11L10 11L10 10L12 10L12 9L13 9L13 11L14 11L14 9L13 9L13 8L14 8L14 6L13 6L13 5L15 5L15 4L13 4L13 3ZM12 6L12 7L11 7L11 8L12 8L12 7L13 7L13 6ZM19 6L19 7L20 7L20 8L21 8L21 7L20 7L20 6ZM23 6L23 7L22 7L22 8L23 8L23 7L24 7L24 6ZM15 9L15 10L16 10L16 9ZM8 11L8 13L9 13L9 14L8 14L8 15L9 15L9 14L11 14L11 13L10 13L10 12L9 12L9 11ZM24 11L24 12L25 12L25 13L24 13L24 16L25 16L25 13L27 13L27 12L25 12L25 11ZM28 11L28 12L29 12L29 11ZM6 12L6 13L7 13L7 12ZM22 12L22 13L23 13L23 12ZM32 12L32 13L31 13L31 14L30 14L30 15L32 15L32 13L33 13L33 12ZM20 13L20 15L21 15L21 16L23 16L23 14L21 14L21 13ZM2 14L2 15L3 15L3 14ZM12 14L12 15L10 15L10 16L9 16L9 19L10 19L10 18L11 18L11 20L12 20L12 18L13 18L13 17L14 17L14 16L15 16L15 15L14 15L14 14ZM12 15L12 17L13 17L13 16L14 16L14 15ZM5 16L5 17L8 17L8 16ZM17 16L17 17L18 17L18 16ZM22 17L22 18L23 18L23 17ZM6 18L6 19L5 19L5 20L4 20L4 21L8 21L8 22L9 22L9 23L10 23L10 22L9 22L9 21L10 21L10 20L9 20L9 21L8 21L8 19L7 19L7 18ZM6 19L6 20L7 20L7 19ZM11 21L11 22L12 22L12 23L14 23L14 22L12 22L12 21ZM34 21L34 22L35 22L35 21ZM6 23L6 24L7 24L7 25L6 25L6 26L5 26L5 27L6 27L6 28L7 28L7 27L6 27L6 26L8 26L8 28L10 28L10 27L9 27L9 25L8 25L8 24L7 24L7 23ZM22 23L22 24L23 24L23 23ZM24 23L24 24L25 24L25 25L23 25L23 26L25 26L25 25L26 25L26 26L27 26L27 25L28 25L28 26L29 26L29 27L28 27L28 28L32 28L32 27L33 27L33 25L31 25L31 26L30 26L30 25L28 25L28 23L26 23L26 24L25 24L25 23ZM26 24L26 25L27 25L27 24ZM18 25L18 26L17 26L17 27L18 27L18 28L19 28L19 27L18 27L18 26L19 26L19 25ZM31 26L31 27L32 27L32 26ZM36 26L36 29L37 29L37 26ZM24 27L24 29L25 29L25 32L26 32L26 33L27 33L27 32L28 32L28 31L27 31L27 30L28 30L28 29L25 29L25 28L26 28L26 27ZM29 29L29 32L32 32L32 29ZM30 30L30 31L31 31L31 30ZM9 31L9 32L8 32L8 35L10 35L10 34L9 34L9 32L10 32L10 33L11 33L11 31ZM18 31L18 32L16 32L16 33L15 33L15 34L16 34L16 33L18 33L18 34L19 34L19 33L20 33L20 32L19 32L19 31ZM29 33L29 35L31 35L31 34L32 34L32 35L33 35L33 34L32 34L32 33L31 33L31 34L30 34L30 33ZM21 35L21 36L22 36L22 35ZM24 35L24 36L25 36L25 37L26 37L26 36L25 36L25 35ZM0 0L0 7L7 7L7 0ZM1 1L1 6L6 6L6 1ZM2 2L2 5L5 5L5 2ZM30 0L30 7L37 7L37 0ZM31 1L31 6L36 6L36 1ZM32 2L32 5L35 5L35 2ZM0 30L0 37L7 37L7 30ZM1 31L1 36L6 36L6 31ZM2 32L2 35L5 35L5 32Z" fill="#000000"/></g></g></svg>
