<?xml version="1.0" encoding="UTF-8"?>
<svg xmlns="http://www.w3.org/2000/svg" version="1.1" width="300" height="300" viewBox="0 0 300 300"><rect x="0" y="0" width="300" height="300" fill="#ffffff"/><g transform="scale(7.692)"><g transform="translate(1,1)"><path fill-rule="evenodd" d="M9 0L9 1L8 1L8 7L9 7L9 8L5 8L5 9L4 9L4 10L3 10L3 8L2 8L2 10L0 10L0 12L2 12L2 13L1 13L1 14L0 14L0 15L2 15L2 13L3 13L3 14L4 14L4 15L5 15L5 16L3 16L3 17L1 17L1 19L2 19L2 22L1 22L1 20L0 20L0 24L2 24L2 22L3 22L3 20L4 20L4 19L5 19L5 20L6 20L6 21L8 21L8 23L7 23L7 22L6 22L6 23L4 23L4 24L3 24L3 26L0 26L0 27L3 27L3 29L4 29L4 28L6 28L6 29L8 29L8 32L9 32L9 34L8 34L8 35L9 35L9 36L10 36L10 37L11 37L11 36L10 36L10 35L11 35L11 34L10 34L10 32L11 32L11 33L12 33L12 34L13 34L13 35L12 35L12 37L13 37L13 35L14 35L14 37L15 37L15 35L14 35L14 32L13 32L13 30L14 30L14 31L15 31L15 30L17 30L17 29L16 29L16 28L12 28L12 27L15 27L15 26L16 26L16 27L17 27L17 25L18 25L18 22L20 22L20 23L19 23L19 25L20 25L20 26L22 26L22 27L20 27L20 28L19 28L19 29L18 29L18 30L19 30L19 31L17 31L17 33L18 33L18 34L20 34L20 35L19 35L19 37L20 37L20 35L21 35L21 37L22 37L22 36L23 36L23 37L24 37L24 36L23 36L23 35L24 35L24 34L21 34L21 33L24 33L24 32L21 32L21 33L19 33L19 31L20 31L20 28L22 28L22 29L21 29L21 30L22 30L22 31L27 31L27 32L26 32L26 34L25 34L25 35L27 35L27 36L26 36L26 37L34 37L34 35L37 35L37 28L35 28L35 29L36 29L36 31L35 31L35 30L34 30L34 29L33 29L33 27L37 27L37 24L35 24L35 25L36 25L36 26L32 26L32 28L31 28L31 27L30 27L30 26L29 26L29 27L30 27L30 28L27 28L27 27L28 27L28 26L27 26L27 27L26 27L26 28L27 28L27 30L24 30L24 29L23 29L23 28L25 28L25 26L26 26L26 23L25 23L25 22L27 22L27 24L29 24L29 23L28 23L28 21L30 21L30 22L31 22L31 23L30 23L30 24L32 24L32 23L33 23L33 25L34 25L34 23L33 23L33 22L32 22L32 21L31 21L31 20L33 20L33 21L34 21L34 19L35 19L35 20L36 20L36 21L35 21L35 23L37 23L37 20L36 20L36 19L37 19L37 16L36 16L36 15L37 15L37 13L36 13L36 15L35 15L35 13L34 13L34 14L32 14L32 11L35 11L35 12L37 12L37 9L36 9L36 8L31 8L31 9L35 9L35 10L32 10L32 11L31 11L31 10L29 10L29 9L30 9L30 8L29 8L29 5L28 5L28 7L27 7L27 6L26 6L26 8L24 8L24 7L25 7L25 5L27 5L27 4L28 4L28 3L29 3L29 2L27 2L27 1L26 1L26 2L24 2L24 1L25 1L25 0L21 0L21 1L23 1L23 2L20 2L20 0L16 0L16 1L15 1L15 2L14 2L14 0ZM28 0L28 1L29 1L29 0ZM9 1L9 2L11 2L11 1ZM12 1L12 3L9 3L9 7L10 7L10 8L9 8L9 11L10 11L10 12L11 12L11 11L12 11L12 13L11 13L11 14L12 14L12 13L13 13L13 17L12 17L12 16L9 16L9 12L8 12L8 11L6 11L6 10L7 10L7 9L5 9L5 10L4 10L4 11L3 11L3 12L4 12L4 11L6 11L6 12L8 12L8 13L4 13L4 14L8 14L8 15L6 15L6 16L5 16L5 18L7 18L7 17L8 17L8 16L9 16L9 18L8 18L8 20L9 20L9 18L11 18L11 17L12 17L12 18L13 18L13 19L14 19L14 20L12 20L12 21L14 21L14 22L17 22L17 21L20 21L20 22L22 22L22 23L21 23L21 24L20 24L20 25L23 25L23 27L24 27L24 24L23 24L23 23L24 23L24 21L26 21L26 19L27 19L27 18L26 18L26 19L25 19L25 17L26 17L26 16L28 16L28 18L29 18L29 19L28 19L28 20L27 20L27 21L28 21L28 20L30 20L30 19L33 19L33 17L35 17L35 19L36 19L36 17L35 17L35 15L34 15L34 16L33 16L33 15L32 15L32 14L31 14L31 17L32 17L32 18L29 18L29 17L30 17L30 16L29 16L29 15L23 15L23 14L28 14L28 12L27 12L27 11L28 11L28 8L27 8L27 10L26 10L26 11L25 11L25 10L24 10L24 12L23 12L23 10L21 10L21 9L23 9L23 7L24 7L24 6L23 6L23 7L22 7L22 5L20 5L20 2L19 2L19 1L18 1L18 3L17 3L17 4L16 4L16 3L15 3L15 4L16 4L16 6L15 6L15 5L14 5L14 4L13 4L13 5L14 5L14 6L13 6L13 7L14 7L14 6L15 6L15 8L16 8L16 9L17 9L17 10L15 10L15 9L14 9L14 8L12 8L12 9L10 9L10 8L11 8L11 7L12 7L12 6L11 6L11 7L10 7L10 5L12 5L12 3L14 3L14 2L13 2L13 1ZM16 1L16 2L17 2L17 1ZM18 3L18 4L17 4L17 5L19 5L19 6L18 6L18 7L19 7L19 8L17 8L17 9L18 9L18 10L17 10L17 11L18 11L18 13L17 13L17 12L16 12L16 11L14 11L14 10L12 10L12 11L13 11L13 13L14 13L14 12L16 12L16 13L15 13L15 14L14 14L14 17L15 17L15 16L19 16L19 15L20 15L20 14L21 14L21 15L22 15L22 17L21 17L21 16L20 16L20 17L19 17L19 18L22 18L22 20L23 20L23 19L24 19L24 20L25 20L25 19L24 19L24 18L23 18L23 17L24 17L24 16L23 16L23 15L22 15L22 13L21 13L21 11L20 11L20 14L19 14L19 11L18 11L18 10L20 10L20 9L19 9L19 8L20 8L20 7L21 7L21 6L20 6L20 5L19 5L19 3ZM21 3L21 4L23 4L23 5L25 5L25 4L26 4L26 3L24 3L24 4L23 4L23 3ZM16 6L16 7L17 7L17 6ZM19 6L19 7L20 7L20 6ZM35 10L35 11L36 11L36 10ZM29 11L29 12L31 12L31 11ZM15 14L15 15L16 15L16 14ZM6 16L6 17L7 17L7 16ZM3 17L3 18L2 18L2 19L3 19L3 18L4 18L4 17ZM16 17L16 18L18 18L18 17ZM14 18L14 19L15 19L15 18ZM6 19L6 20L7 20L7 19ZM10 19L10 20L11 20L11 19ZM16 19L16 20L15 20L15 21L17 21L17 20L18 20L18 19ZM19 19L19 20L20 20L20 21L21 21L21 19ZM10 21L10 22L11 22L11 21ZM22 21L22 22L23 22L23 21ZM6 23L6 24L4 24L4 27L5 27L5 25L6 25L6 26L7 26L7 27L6 27L6 28L7 28L7 27L8 27L8 29L9 29L9 27L8 27L8 26L10 26L10 27L12 27L12 26L13 26L13 24L14 24L14 23L13 23L13 24L12 24L12 23L10 23L10 25L9 25L9 24L8 24L8 25L6 25L6 24L7 24L7 23ZM15 23L15 24L16 24L16 25L17 25L17 24L16 24L16 23ZM11 24L11 25L12 25L12 24ZM14 25L14 26L15 26L15 25ZM0 28L0 29L2 29L2 28ZM10 28L10 29L11 29L11 30L10 30L10 31L9 31L9 32L10 32L10 31L11 31L11 32L12 32L12 33L13 33L13 32L12 32L12 31L11 31L11 30L12 30L12 28ZM22 29L22 30L23 30L23 29ZM29 29L29 32L32 32L32 29ZM30 30L30 31L31 31L31 30ZM34 31L34 32L33 32L33 34L34 34L34 33L35 33L35 34L36 34L36 33L35 33L35 31ZM29 33L29 34L27 34L27 35L29 35L29 34L30 34L30 36L31 36L31 35L32 35L32 33ZM16 35L16 36L17 36L17 37L18 37L18 36L17 36L17 35ZM36 36L36 37L37 37L37 36ZM0 0L0 7L7 7L7 0ZM1 1L1 6L6 6L6 1ZM2 2L2 5L5 5L5 2ZM30 0L30 7L37 7L37 0ZM31 1L31 6L36 6L36 1ZM32 2L32 5L35 5L35 2ZM0 30L0 37L7 37L7 30ZM1 31L1 36L6 36L6 31ZM2 32L2 35L5 35L5 32Z" fill="#000000"/></g></g></svg>
