<?xml version="1.0" encoding="UTF-8"?>
<svg xmlns="http://www.w3.org/2000/svg" version="1.1" width="300" height="300" viewBox="0 0 300 300"><rect x="0" y="0" width="300" height="300" fill="#ffffff"/><g transform="scale(7.692)"><g transform="translate(1,1)"><path fill-rule="evenodd" d="M9 0L9 1L10 1L10 0ZM12 0L12 2L10 2L10 3L9 3L9 4L8 4L8 5L11 5L11 4L12 4L12 5L13 5L13 6L12 6L12 10L13 10L13 6L14 6L14 7L15 7L15 6L16 6L16 7L17 7L17 8L16 8L16 9L17 9L17 11L16 11L16 10L15 10L15 11L14 11L14 14L15 14L15 11L16 11L16 12L17 12L17 11L18 11L18 9L17 9L17 8L18 8L18 7L19 7L19 8L20 8L20 9L19 9L19 13L18 13L18 14L17 14L17 13L16 13L16 15L14 15L14 16L13 16L13 17L11 17L11 16L12 16L12 15L11 15L11 14L13 14L13 13L10 13L10 12L12 12L12 11L10 11L10 10L9 10L9 9L11 9L11 8L10 8L10 7L11 7L11 6L10 6L10 7L9 7L9 6L8 6L8 8L6 8L6 9L7 9L7 10L5 10L5 9L4 9L4 8L2 8L2 10L3 10L3 11L2 11L2 12L1 12L1 11L0 11L0 12L1 12L1 15L0 15L0 18L1 18L1 17L2 17L2 19L1 19L1 20L2 20L2 19L3 19L3 21L2 21L2 22L1 22L1 21L0 21L0 23L2 23L2 22L3 22L3 23L5 23L5 24L4 24L4 25L3 25L3 24L2 24L2 25L1 25L1 24L0 24L0 25L1 25L1 27L0 27L0 28L1 28L1 27L2 27L2 28L3 28L3 29L7 29L7 28L8 28L8 27L7 27L7 26L5 26L5 27L4 27L4 25L7 25L7 24L8 24L8 26L9 26L9 25L11 25L11 28L10 28L10 27L9 27L9 28L10 28L10 29L8 29L8 31L9 31L9 33L8 33L8 35L9 35L9 36L11 36L11 37L13 37L13 36L14 36L14 35L17 35L17 34L16 34L16 32L18 32L18 33L19 33L19 34L18 34L18 35L19 35L19 36L21 36L21 37L23 37L23 35L25 35L25 37L26 37L26 35L27 35L27 37L28 37L28 35L29 35L29 36L30 36L30 37L31 37L31 36L30 36L30 35L32 35L32 36L33 36L33 37L37 37L37 36L35 36L35 35L36 35L36 34L35 34L35 33L34 33L34 30L35 30L35 31L36 31L36 32L37 32L37 29L36 29L36 28L37 28L37 27L36 27L36 28L34 28L34 27L35 27L35 26L37 26L37 24L36 24L36 25L35 25L35 23L36 23L36 20L35 20L35 22L34 22L34 21L33 21L33 20L34 20L34 17L36 17L36 18L35 18L35 19L37 19L37 17L36 17L36 16L37 16L37 15L36 15L36 14L37 14L37 13L36 13L36 12L37 12L37 11L34 11L34 15L35 15L35 16L33 16L33 18L31 18L31 17L32 17L32 16L31 16L31 17L29 17L29 16L30 16L30 15L29 15L29 16L28 16L28 15L27 15L27 16L23 16L23 15L26 15L26 14L27 14L27 12L28 12L28 14L29 14L29 12L28 12L28 10L29 10L29 11L30 11L30 10L31 10L31 12L30 12L30 14L33 14L33 12L32 12L32 11L33 11L33 10L34 10L34 9L33 9L33 8L32 8L32 9L33 9L33 10L31 10L31 8L29 8L29 6L28 6L28 7L27 7L27 6L26 6L26 5L29 5L29 4L27 4L27 2L25 2L25 3L23 3L23 2L22 2L22 1L20 1L20 0L19 0L19 1L20 1L20 2L21 2L21 3L19 3L19 2L18 2L18 3L19 3L19 4L21 4L21 3L22 3L22 5L21 5L21 6L20 6L20 7L19 7L19 6L18 6L18 7L17 7L17 5L18 5L18 4L17 4L17 2L16 2L16 1L15 1L15 0L14 0L14 1L13 1L13 0ZM24 0L24 1L25 1L25 0ZM26 0L26 1L27 1L27 0ZM14 1L14 2L13 2L13 3L12 3L12 4L13 4L13 5L14 5L14 4L15 4L15 5L16 5L16 4L15 4L15 3L16 3L16 2L15 2L15 1ZM14 2L14 3L13 3L13 4L14 4L14 3L15 3L15 2ZM28 2L28 3L29 3L29 2ZM10 3L10 4L11 4L11 3ZM25 3L25 5L26 5L26 3ZM23 4L23 5L22 5L22 6L21 6L21 8L22 8L22 6L23 6L23 9L20 9L20 11L21 11L21 12L20 12L20 13L19 13L19 14L18 14L18 15L19 15L19 16L20 16L20 17L19 17L19 18L18 18L18 19L17 19L17 20L19 20L19 21L18 21L18 22L19 22L19 21L22 21L22 22L23 22L23 23L22 23L22 24L21 24L21 23L20 23L20 24L19 24L19 23L18 23L18 24L17 24L17 21L16 21L16 18L17 18L17 17L14 17L14 18L15 18L15 19L13 19L13 18L10 18L10 17L9 17L9 15L10 15L10 16L11 16L11 15L10 15L10 14L9 14L9 15L5 15L5 14L4 14L4 12L5 12L5 13L6 13L6 14L8 14L8 12L7 12L7 11L8 11L8 10L7 10L7 11L6 11L6 12L5 12L5 11L4 11L4 12L3 12L3 13L2 13L2 14L3 14L3 15L1 15L1 16L3 16L3 18L4 18L4 22L5 22L5 23L6 23L6 24L7 24L7 23L8 23L8 22L9 22L9 23L11 23L11 24L12 24L12 27L13 27L13 28L11 28L11 29L10 29L10 30L11 30L11 31L10 31L10 32L11 32L11 33L9 33L9 35L11 35L11 36L12 36L12 34L11 34L11 33L12 33L12 32L11 32L11 31L12 31L12 29L13 29L13 30L14 30L14 31L13 31L13 32L14 32L14 31L15 31L15 32L16 32L16 31L18 31L18 32L19 32L19 33L20 33L20 34L19 34L19 35L20 35L20 34L21 34L21 33L22 33L22 35L21 35L21 36L22 36L22 35L23 35L23 34L24 34L24 32L25 32L25 35L26 35L26 33L27 33L27 34L28 34L28 32L26 32L26 31L27 31L27 29L28 29L28 28L33 28L33 27L34 27L34 26L35 26L35 25L33 25L33 27L30 27L30 26L32 26L32 25L31 25L31 24L33 24L33 23L32 23L32 22L33 22L33 21L32 21L32 20L33 20L33 19L32 19L32 20L29 20L29 18L28 18L28 20L29 20L29 21L27 21L27 18L25 18L25 17L23 17L23 16L22 16L22 17L21 17L21 15L23 15L23 14L26 14L26 13L25 13L25 11L26 11L26 12L27 12L27 10L25 10L25 9L24 9L24 8L26 8L26 9L27 9L27 7L26 7L26 6L25 6L25 7L24 7L24 6L23 6L23 5L24 5L24 4ZM14 8L14 9L15 9L15 8ZM0 9L0 10L1 10L1 9ZM3 9L3 10L4 10L4 9ZM29 9L29 10L30 10L30 9ZM35 9L35 10L36 10L36 9ZM21 10L21 11L22 11L22 13L21 13L21 14L19 14L19 15L21 15L21 14L22 14L22 13L23 13L23 12L24 12L24 11L25 11L25 10L24 10L24 11L23 11L23 10ZM9 11L9 12L10 12L10 11ZM6 12L6 13L7 13L7 12ZM31 12L31 13L32 13L32 12ZM3 15L3 16L5 16L5 15ZM16 15L16 16L17 16L17 15ZM6 16L6 17L7 17L7 18L6 18L6 19L7 19L7 20L5 20L5 21L9 21L9 20L10 20L10 21L12 21L12 19L11 19L11 20L10 20L10 18L9 18L9 17L8 17L8 16ZM27 16L27 17L28 17L28 16ZM20 17L20 18L21 18L21 17ZM30 18L30 19L31 19L31 18ZM20 19L20 20L21 20L21 19ZM23 19L23 20L22 20L22 21L25 21L25 23L23 23L23 26L22 26L22 25L21 25L21 24L20 24L20 25L21 25L21 26L20 26L20 28L21 28L21 30L20 30L20 32L21 32L21 30L24 30L24 31L23 31L23 32L22 32L22 33L23 33L23 32L24 32L24 31L25 31L25 30L26 30L26 28L28 28L28 27L27 27L27 24L28 24L28 25L29 25L29 26L30 26L30 24L31 24L31 22L32 22L32 21L31 21L31 22L30 22L30 24L28 24L28 23L29 23L29 22L28 22L28 23L27 23L27 24L26 24L26 25L25 25L25 23L26 23L26 22L27 22L27 21L25 21L25 19ZM14 20L14 21L15 21L15 22L14 22L14 23L12 23L12 22L11 22L11 23L12 23L12 24L13 24L13 27L14 27L14 23L15 23L15 22L16 22L16 21L15 21L15 20ZM6 22L6 23L7 23L7 22ZM15 24L15 26L17 26L17 30L18 30L18 29L19 29L19 26L18 26L18 25L17 25L17 24ZM2 26L2 27L3 27L3 28L4 28L4 27L3 27L3 26ZM24 26L24 28L22 28L22 27L21 27L21 28L22 28L22 29L24 29L24 30L25 30L25 29L24 29L24 28L26 28L26 26ZM6 27L6 28L7 28L7 27ZM15 27L15 28L14 28L14 30L15 30L15 29L16 29L16 27ZM29 29L29 32L32 32L32 29ZM35 29L35 30L36 30L36 29ZM30 30L30 31L31 31L31 30ZM13 33L13 34L15 34L15 33ZM29 33L29 34L30 34L30 33ZM31 33L31 34L32 34L32 33ZM33 34L33 35L35 35L35 34ZM16 36L16 37L17 37L17 36ZM0 0L0 7L7 7L7 0ZM1 1L1 6L6 6L6 1ZM2 2L2 5L5 5L5 2ZM30 0L30 7L37 7L37 0ZM31 1L31 6L36 6L36 1ZM32 2L32 5L35 5L35 2ZM0 30L0 37L7 37L7 30ZM1 31L1 36L6 36L6 31ZM2 32L2 35L5 35L5 32Z" fill="#000000"/></g></g></svg>
