<?xml version="1.0" encoding="UTF-8"?>
<svg xmlns="http://www.w3.org/2000/svg" version="1.1" width="300" height="300" viewBox="0 0 300 300"><rect x="0" y="0" width="300" height="300" fill="#ffffff"/><g transform="scale(7.692)"><g transform="translate(1,1)"><path fill-rule="evenodd" d="M8 0L8 3L9 3L9 4L10 4L10 5L8 5L8 9L7 9L7 8L6 8L6 9L7 9L7 10L6 10L6 11L4 11L4 10L5 10L5 8L2 8L2 9L0 9L0 11L1 11L1 13L0 13L0 16L1 16L1 18L0 18L0 22L1 22L1 25L0 25L0 29L1 29L1 25L3 25L3 24L4 24L4 25L5 25L5 28L6 28L6 29L7 29L7 28L8 28L8 30L9 30L9 31L10 31L10 33L11 33L11 37L13 37L13 35L14 35L14 36L16 36L16 37L17 37L17 35L18 35L18 36L19 36L19 37L22 37L22 36L23 36L23 34L22 34L22 35L21 35L21 33L22 33L22 31L21 31L21 30L20 30L20 29L21 29L21 23L23 23L23 24L22 24L22 25L25 25L25 26L23 26L23 27L22 27L22 28L23 28L23 30L24 30L24 32L25 32L25 33L24 33L24 34L25 34L25 33L26 33L26 34L27 34L27 33L28 33L28 36L27 36L27 37L28 37L28 36L30 36L30 37L31 37L31 36L33 36L33 37L37 37L37 34L36 34L36 36L33 36L33 35L34 35L34 34L35 34L35 32L36 32L36 33L37 33L37 32L36 32L36 31L37 31L37 30L35 30L35 32L34 32L34 33L33 33L33 31L34 31L34 30L33 30L33 28L34 28L34 29L35 29L35 28L34 28L34 26L33 26L33 28L32 28L32 27L31 27L31 28L28 28L28 27L29 27L29 26L28 26L28 25L30 25L30 26L31 26L31 25L35 25L35 24L32 24L32 23L31 23L31 25L30 25L30 24L29 24L29 23L30 23L30 22L27 22L27 21L26 21L26 20L27 20L27 19L28 19L28 18L27 18L27 17L29 17L29 19L30 19L30 17L31 17L31 20L30 20L30 21L31 21L31 22L32 22L32 21L33 21L33 22L34 22L34 23L35 23L35 22L36 22L36 25L37 25L37 22L36 22L36 21L37 21L37 18L35 18L35 16L36 16L36 17L37 17L37 14L35 14L35 13L36 13L36 11L37 11L37 10L36 10L36 9L37 9L37 8L34 8L34 9L33 9L33 11L32 11L32 10L31 10L31 9L32 9L32 8L29 8L29 4L28 4L28 5L27 5L27 6L26 6L26 8L27 8L27 6L28 6L28 8L29 8L29 9L25 9L25 6L24 6L24 4L25 4L25 2L27 2L27 3L26 3L26 4L27 4L27 3L28 3L28 1L27 1L27 0L26 0L26 1L25 1L25 0L24 0L24 1L21 1L21 0L18 0L18 1L17 1L17 2L19 2L19 1L21 1L21 3L23 3L23 6L22 6L22 4L20 4L20 3L19 3L19 4L18 4L18 9L19 9L19 11L18 11L18 10L16 10L16 12L17 12L17 16L15 16L15 15L16 15L16 14L15 14L15 15L14 15L14 14L12 14L12 15L11 15L11 17L9 17L9 16L6 16L6 17L4 17L4 16L5 16L5 15L4 15L4 14L3 14L3 13L5 13L5 14L6 14L6 15L7 15L7 14L6 14L6 13L7 13L7 12L6 12L6 11L7 11L7 10L9 10L9 6L10 6L10 7L11 7L11 9L12 9L12 10L11 10L11 12L14 12L14 13L15 13L15 10L14 10L14 11L13 11L13 9L12 9L12 7L13 7L13 6L12 6L12 4L15 4L15 5L14 5L14 7L15 7L15 9L16 9L16 7L17 7L17 6L16 6L16 7L15 7L15 5L17 5L17 3L16 3L16 2L15 2L15 0L12 0L12 1L14 1L14 2L11 2L11 4L10 4L10 1L11 1L11 0ZM14 2L14 3L15 3L15 2ZM23 2L23 3L24 3L24 2ZM19 4L19 5L20 5L20 4ZM11 6L11 7L12 7L12 6ZM19 6L19 7L20 7L20 8L21 8L21 9L20 9L20 10L21 10L21 11L22 11L22 12L20 12L20 11L19 11L19 12L20 12L20 13L19 13L19 16L21 16L21 17L20 17L20 18L22 18L22 19L19 19L19 17L18 17L18 19L19 19L19 20L18 20L18 22L17 22L17 20L16 20L16 23L19 23L19 21L20 21L20 20L22 20L22 22L25 22L25 20L26 20L26 19L27 19L27 18L26 18L26 17L27 17L27 16L29 16L29 15L30 15L30 16L33 16L33 17L32 17L32 18L34 18L34 19L33 19L33 20L35 20L35 18L34 18L34 16L35 16L35 14L34 14L34 15L33 15L33 13L34 13L34 12L35 12L35 9L34 9L34 12L33 12L33 13L32 13L32 11L31 11L31 13L30 13L30 9L29 9L29 10L27 10L27 11L26 11L26 10L23 10L23 11L22 11L22 6L21 6L21 7L20 7L20 6ZM23 6L23 7L24 7L24 6ZM23 8L23 9L24 9L24 8ZM2 9L2 10L1 10L1 11L2 11L2 12L3 12L3 11L2 11L2 10L4 10L4 9ZM8 11L8 13L10 13L10 14L8 14L8 15L10 15L10 14L11 14L11 13L10 13L10 11ZM17 11L17 12L18 12L18 11ZM23 11L23 12L22 12L22 13L23 13L23 14L21 14L21 13L20 13L20 15L21 15L21 16L23 16L23 17L22 17L22 18L23 18L23 17L24 17L24 18L25 18L25 19L26 19L26 18L25 18L25 17L26 17L26 16L25 16L25 17L24 17L24 15L25 15L25 14L24 14L24 13L27 13L27 15L29 15L29 14L30 14L30 15L32 15L32 13L31 13L31 14L30 14L30 13L27 13L27 12L25 12L25 11ZM28 11L28 12L29 12L29 11ZM5 12L5 13L6 13L6 12ZM23 12L23 13L24 13L24 12ZM1 14L1 16L2 16L2 15L3 15L3 14ZM12 15L12 16L14 16L14 17L13 17L13 18L12 18L12 19L11 19L11 18L10 18L10 19L9 19L9 17L6 17L6 18L4 18L4 19L3 19L3 20L1 20L1 22L2 22L2 21L4 21L4 22L3 22L3 23L2 23L2 24L3 24L3 23L4 23L4 22L10 22L10 23L8 23L8 24L7 24L7 23L6 23L6 24L7 24L7 25L6 25L6 26L8 26L8 28L9 28L9 27L10 27L10 28L11 28L11 27L10 27L10 26L12 26L12 25L14 25L14 26L13 26L13 29L10 29L10 31L11 31L11 33L12 33L12 35L13 35L13 34L15 34L15 35L16 35L16 34L18 34L18 35L19 35L19 34L18 34L18 31L17 31L17 28L16 28L16 29L15 29L15 26L16 26L16 27L17 27L17 26L18 26L18 28L19 28L19 29L18 29L18 30L19 30L19 32L20 32L20 33L21 33L21 31L20 31L20 30L19 30L19 29L20 29L20 27L19 27L19 26L20 26L20 25L19 25L19 24L16 24L16 25L14 25L14 24L15 24L15 21L13 21L13 20L12 20L12 19L13 19L13 18L15 18L15 19L16 19L16 18L15 18L15 16L14 16L14 15ZM6 18L6 19L5 19L5 20L4 20L4 21L10 21L10 20L6 20L6 19L7 19L7 18ZM11 20L11 24L8 24L8 25L9 25L9 26L10 26L10 25L11 25L11 24L14 24L14 22L12 22L12 20ZM23 20L23 21L24 21L24 20ZM34 21L34 22L35 22L35 21ZM20 22L20 23L21 23L21 22ZM24 23L24 24L25 24L25 25L26 25L26 26L27 26L27 25L28 25L28 23L26 23L26 24L25 24L25 23ZM26 24L26 25L27 25L27 24ZM18 25L18 26L19 26L19 25ZM3 26L3 27L2 27L2 28L3 28L3 29L4 29L4 28L3 28L3 27L4 27L4 26ZM36 26L36 29L37 29L37 26ZM6 27L6 28L7 28L7 27ZM24 27L24 29L25 29L25 32L26 32L26 33L27 33L27 32L28 32L28 31L27 31L27 30L28 30L28 29L25 29L25 28L26 28L26 27ZM13 29L13 30L12 30L12 31L14 31L14 30L15 30L15 29ZM29 29L29 32L32 32L32 29ZM30 30L30 31L31 31L31 30ZM16 31L16 33L15 33L15 32L14 32L14 33L15 33L15 34L16 34L16 33L17 33L17 31ZM8 32L8 35L10 35L10 34L9 34L9 32ZM12 32L12 33L13 33L13 32ZM29 33L29 35L31 35L31 34L32 34L32 35L33 35L33 34L32 34L32 33L31 33L31 34L30 34L30 33ZM20 35L20 36L21 36L21 35ZM24 35L24 36L25 36L25 37L26 37L26 36L25 36L25 35ZM0 0L0 7L7 7L7 0ZM1 1L1 6L6 6L6 1ZM2 2L2 5L5 5L5 2ZM30 0L30 7L37 7L37 0ZM31 1L31 6L36 6L36 1ZM32 2L32 5L35 5L35 2ZM0 30L0 37L7 37L7 30ZM1 31L1 36L6 36L6 31ZM2 32L2 35L5 35L5 32Z" fill="#000000"/></g></g></svg>
