<?xml version="1.0" encoding="UTF-8"?>
<svg xmlns="http://www.w3.org/2000/svg" version="1.1" width="300" height="300" viewBox="0 0 300 300"><rect x="0" y="0" width="300" height="300" fill="#ffffff"/><g transform="scale(7.692)"><g transform="translate(1,1)"><path fill-rule="evenodd" d="M9 0L9 1L11 1L11 0ZM13 0L13 1L15 1L15 2L13 2L13 4L12 4L12 2L10 2L10 3L9 3L9 4L8 4L8 5L13 5L13 4L14 4L14 3L15 3L15 4L16 4L16 5L14 5L14 7L13 7L13 6L12 6L12 7L11 7L11 6L10 6L10 7L9 7L9 6L8 6L8 8L6 8L6 9L7 9L7 10L5 10L5 9L4 9L4 8L2 8L2 9L4 9L4 10L3 10L3 11L7 11L7 12L5 12L5 13L4 13L4 12L3 12L3 13L2 13L2 12L1 12L1 11L0 11L0 12L1 12L1 15L0 15L0 18L1 18L1 17L2 17L2 19L3 19L3 21L2 21L2 20L1 20L1 21L2 21L2 22L3 22L3 23L5 23L5 24L4 24L4 25L3 25L3 24L2 24L2 26L1 26L1 27L0 27L0 28L1 28L1 27L2 27L2 26L3 26L3 28L2 28L2 29L5 29L5 28L6 28L6 29L7 29L7 28L8 28L8 27L7 27L7 26L6 26L6 27L5 27L5 26L4 26L4 25L7 25L7 24L8 24L8 26L9 26L9 27L10 27L10 29L11 29L11 28L13 28L13 27L14 27L14 26L15 26L15 25L16 25L16 27L15 27L15 28L14 28L14 30L13 30L13 29L12 29L12 31L11 31L11 30L10 30L10 31L9 31L9 29L8 29L8 31L9 31L9 32L10 32L10 33L11 33L11 35L9 35L9 33L8 33L8 35L9 35L9 36L11 36L11 37L12 37L12 36L13 36L13 34L14 34L14 36L15 36L15 35L17 35L17 34L16 34L16 32L17 32L17 33L18 33L18 35L19 35L19 37L20 37L20 36L22 36L22 37L23 37L23 35L25 35L25 37L26 37L26 35L27 35L27 37L28 37L28 35L29 35L29 36L30 36L30 37L31 37L31 36L30 36L30 35L32 35L32 36L33 36L33 37L37 37L37 36L35 36L35 35L36 35L36 34L35 34L35 33L34 33L34 30L35 30L35 31L36 31L36 32L37 32L37 29L36 29L36 28L37 28L37 27L36 27L36 28L34 28L34 26L33 26L33 25L35 25L35 26L37 26L37 24L36 24L36 25L35 25L35 23L36 23L36 20L35 20L35 22L34 22L34 21L33 21L33 20L34 20L34 17L36 17L36 18L35 18L35 19L37 19L37 17L36 17L36 16L37 16L37 15L36 15L36 14L37 14L37 13L36 13L36 12L37 12L37 11L34 11L34 15L35 15L35 16L33 16L33 18L31 18L31 17L32 17L32 16L31 16L31 17L29 17L29 16L30 16L30 15L29 15L29 16L28 16L28 17L27 17L27 16L25 16L25 15L26 15L26 14L27 14L27 12L28 12L28 14L29 14L29 12L28 12L28 10L29 10L29 11L30 11L30 10L31 10L31 8L29 8L29 6L28 6L28 7L27 7L27 6L26 6L26 5L29 5L29 4L27 4L27 3L26 3L26 2L27 2L27 0L26 0L26 2L25 2L25 3L23 3L23 2L22 2L22 0L19 0L19 2L18 2L18 3L19 3L19 4L21 4L21 3L19 3L19 2L22 2L22 5L21 5L21 6L20 6L20 5L19 5L19 6L18 6L18 7L17 7L17 5L18 5L18 4L17 4L17 2L16 2L16 1L15 1L15 0ZM24 0L24 1L25 1L25 0ZM15 2L15 3L16 3L16 2ZM28 2L28 3L29 3L29 2ZM10 3L10 4L11 4L11 3ZM25 3L25 5L26 5L26 3ZM23 4L23 5L22 5L22 6L21 6L21 7L20 7L20 6L19 6L19 7L18 7L18 8L17 8L17 7L16 7L16 6L15 6L15 10L14 10L14 9L13 9L13 10L12 10L12 8L11 8L11 7L10 7L10 8L11 8L11 9L10 9L10 10L9 10L9 12L10 12L10 11L12 11L12 12L11 12L11 13L10 13L10 16L9 16L9 15L5 15L5 14L8 14L8 12L7 12L7 13L5 13L5 14L4 14L4 13L3 13L3 15L1 15L1 16L3 16L3 18L4 18L4 22L5 22L5 23L6 23L6 24L7 24L7 23L8 23L8 24L9 24L9 23L11 23L11 22L12 22L12 27L13 27L13 25L14 25L14 24L17 24L17 26L18 26L18 27L17 27L17 28L15 28L15 29L17 29L17 28L19 28L19 30L16 30L16 31L15 31L15 30L14 30L14 31L13 31L13 32L11 32L11 33L12 33L12 34L13 34L13 32L14 32L14 31L15 31L15 32L16 32L16 31L18 31L18 33L19 33L19 34L22 34L22 35L23 35L23 34L24 34L24 32L25 32L25 35L26 35L26 33L27 33L27 34L28 34L28 32L26 32L26 31L27 31L27 29L28 29L28 28L31 28L31 27L32 27L32 28L33 28L33 26L32 26L32 25L31 25L31 24L33 24L33 23L32 23L32 22L33 22L33 21L32 21L32 20L33 20L33 19L32 19L32 20L29 20L29 18L28 18L28 20L29 20L29 21L27 21L27 18L26 18L26 17L24 17L24 16L22 16L22 17L21 17L21 15L23 15L23 14L26 14L26 13L25 13L25 11L26 11L26 12L27 12L27 10L25 10L25 11L24 11L24 10L23 10L23 13L22 13L22 11L21 11L21 10L22 10L22 8L23 8L23 9L25 9L25 8L26 8L26 9L27 9L27 7L26 7L26 6L25 6L25 7L24 7L24 6L23 6L23 5L24 5L24 4ZM22 6L22 7L23 7L23 6ZM19 7L19 11L18 11L18 9L17 9L17 11L14 11L14 14L15 14L15 15L14 15L14 16L13 16L13 17L15 17L15 15L16 15L16 14L17 14L17 15L18 15L18 16L16 16L16 17L17 17L17 18L16 18L16 21L15 21L15 20L14 20L14 18L13 18L13 19L12 19L12 20L10 20L10 18L8 18L8 16L5 16L5 15L4 15L4 17L7 17L7 18L6 18L6 19L7 19L7 18L8 18L8 19L9 19L9 20L5 20L5 21L7 21L7 22L6 22L6 23L7 23L7 22L8 22L8 23L9 23L9 20L10 20L10 21L12 21L12 22L13 22L13 23L15 23L15 22L16 22L16 21L17 21L17 24L18 24L18 23L19 23L19 22L18 22L18 21L21 21L21 20L20 20L20 19L19 19L19 20L17 20L17 19L18 19L18 16L19 16L19 17L20 17L20 16L19 16L19 15L21 15L21 14L22 14L22 13L21 13L21 14L17 14L17 13L15 13L15 12L17 12L17 11L18 11L18 13L20 13L20 12L21 12L21 11L20 11L20 9L21 9L21 8L20 8L20 7ZM32 8L32 9L33 9L33 10L34 10L34 9L33 9L33 8ZM0 9L0 10L1 10L1 9ZM29 9L29 10L30 10L30 9ZM35 9L35 10L36 10L36 9ZM7 10L7 11L8 11L8 10ZM30 12L30 14L33 14L33 12L32 12L32 13L31 13L31 12ZM11 13L11 14L13 14L13 13ZM11 15L11 16L10 16L10 17L11 17L11 16L12 16L12 15ZM22 18L22 20L23 20L23 21L22 21L22 22L21 22L21 24L19 24L19 25L21 25L21 26L20 26L20 28L21 28L21 30L20 30L20 32L21 32L21 30L24 30L24 31L23 31L23 32L22 32L22 33L23 33L23 32L24 32L24 31L25 31L25 30L26 30L26 28L28 28L28 27L27 27L27 24L28 24L28 25L29 25L29 26L30 26L30 27L31 27L31 26L30 26L30 24L31 24L31 22L32 22L32 21L31 21L31 22L30 22L30 24L28 24L28 23L29 23L29 22L28 22L28 23L27 23L27 24L26 24L26 25L25 25L25 23L26 23L26 22L27 22L27 21L25 21L25 19L26 19L26 18L25 18L25 19L23 19L23 18ZM30 18L30 19L31 19L31 18ZM13 20L13 22L15 22L15 21L14 21L14 20ZM23 21L23 23L22 23L22 24L21 24L21 25L22 25L22 24L23 24L23 23L25 23L25 21ZM0 24L0 25L1 25L1 24ZM9 25L9 26L10 26L10 27L11 27L11 25ZM24 26L24 28L22 28L22 27L21 27L21 28L22 28L22 29L24 29L24 30L25 30L25 29L24 29L24 28L26 28L26 26ZM4 27L4 28L5 28L5 27ZM6 27L6 28L7 28L7 27ZM29 29L29 32L32 32L32 29ZM35 29L35 30L36 30L36 29ZM30 30L30 31L31 31L31 30ZM14 33L14 34L15 34L15 33ZM29 33L29 34L30 34L30 33ZM31 33L31 34L32 34L32 33ZM33 34L33 35L35 35L35 34ZM16 36L16 37L17 37L17 36ZM0 0L0 7L7 7L7 0ZM1 1L1 6L6 6L6 1ZM2 2L2 5L5 5L5 2ZM30 0L30 7L37 7L37 0ZM31 1L31 6L36 6L36 1ZM32 2L32 5L35 5L35 2ZM0 30L0 37L7 37L7 30ZM1 31L1 36L6 36L6 31ZM2 32L2 35L5 35L5 32Z" fill="#000000"/></g></g></svg>
