<?xml version="1.0" encoding="UTF-8"?>
<svg xmlns="http://www.w3.org/2000/svg" version="1.1" width="300" height="300" viewBox="0 0 300 300"><rect x="0" y="0" width="300" height="300" fill="#ffffff"/><g transform="scale(7.692)"><g transform="translate(1,1)"><path fill-rule="evenodd" d="M9 0L9 1L8 1L8 7L9 7L9 8L5 8L5 9L3 9L3 8L2 8L2 9L1 9L1 10L0 10L0 12L2 12L2 10L3 10L3 11L4 11L4 12L3 12L3 13L4 13L4 14L3 14L3 16L2 16L2 17L0 17L0 18L1 18L1 19L2 19L2 20L0 20L0 21L2 21L2 22L3 22L3 20L4 20L4 19L5 19L5 20L6 20L6 21L7 21L7 22L6 22L6 23L4 23L4 24L6 24L6 25L5 25L5 26L4 26L4 25L1 25L1 24L2 24L2 23L1 23L1 24L0 24L0 25L1 25L1 26L0 26L0 27L3 27L3 28L4 28L4 27L5 27L5 28L6 28L6 29L8 29L8 32L9 32L9 34L8 34L8 35L9 35L9 36L10 36L10 37L12 37L12 35L13 35L13 37L15 37L15 34L14 34L14 32L13 32L13 30L14 30L14 31L16 31L16 32L18 32L18 34L19 34L19 35L21 35L21 36L19 36L19 37L21 37L21 36L22 36L22 35L24 35L24 34L22 34L22 33L24 33L24 32L21 32L21 33L20 33L20 34L19 34L19 31L20 31L20 28L22 28L22 29L21 29L21 30L22 30L22 31L27 31L27 32L26 32L26 34L25 34L25 35L27 35L27 36L26 36L26 37L34 37L34 35L37 35L37 28L35 28L35 29L36 29L36 31L35 31L35 30L34 30L34 29L33 29L33 28L31 28L31 27L32 27L32 26L31 26L31 27L30 27L30 26L29 26L29 27L30 27L30 28L27 28L27 27L28 27L28 26L27 26L27 27L26 27L26 28L27 28L27 30L24 30L24 29L23 29L23 28L25 28L25 26L26 26L26 23L25 23L25 22L27 22L27 24L29 24L29 23L28 23L28 21L30 21L30 22L31 22L31 23L30 23L30 24L32 24L32 23L33 23L33 25L34 25L34 23L33 23L33 22L32 22L32 21L31 21L31 20L33 20L33 21L34 21L34 19L35 19L35 20L36 20L36 21L35 21L35 23L37 23L37 20L36 20L36 19L37 19L37 16L36 16L36 15L37 15L37 13L36 13L36 15L35 15L35 13L34 13L34 14L32 14L32 12L33 12L33 11L35 11L35 12L37 12L37 9L36 9L36 8L31 8L31 9L35 9L35 10L32 10L32 12L29 12L29 11L31 11L31 10L29 10L29 9L30 9L30 8L29 8L29 5L28 5L28 7L27 7L27 6L26 6L26 8L24 8L24 7L25 7L25 5L27 5L27 4L28 4L28 3L29 3L29 2L24 2L24 1L26 1L26 0L20 0L20 2L19 2L19 3L18 3L18 0L16 0L16 1L14 1L14 2L13 2L13 1L12 1L12 0L11 0L11 1L12 1L12 2L9 2L9 1L10 1L10 0ZM28 0L28 1L29 1L29 0ZM16 1L16 2L17 2L17 1ZM22 1L22 2L23 2L23 1ZM14 2L14 4L12 4L12 5L11 5L11 3L9 3L9 7L10 7L10 8L9 8L9 10L11 10L11 11L9 11L9 12L8 12L8 11L5 11L5 10L7 10L7 9L5 9L5 10L4 10L4 11L5 11L5 13L6 13L6 14L4 14L4 17L3 17L3 18L2 18L2 19L3 19L3 18L4 18L4 17L5 17L5 16L7 16L7 17L6 17L6 18L7 18L7 19L6 19L6 20L8 20L8 21L9 21L9 20L8 20L8 18L7 18L7 17L9 17L9 18L10 18L10 17L11 17L11 19L10 19L10 20L12 20L12 21L10 21L10 22L14 22L14 24L16 24L16 23L15 23L15 22L17 22L17 21L19 21L19 22L18 22L18 26L15 26L15 27L12 27L12 26L13 26L13 23L12 23L12 24L11 24L11 23L10 23L10 25L9 25L9 23L6 23L6 24L8 24L8 25L6 25L6 26L7 26L7 27L6 27L6 28L7 28L7 27L8 27L8 29L9 29L9 27L12 27L12 28L10 28L10 29L11 29L11 30L12 30L12 28L15 28L15 29L16 29L16 30L17 30L17 29L16 29L16 28L15 28L15 27L17 27L17 28L18 28L18 29L19 29L19 28L20 28L20 27L22 27L22 26L20 26L20 25L21 25L21 22L22 22L22 24L23 24L23 27L24 27L24 24L23 24L23 23L24 23L24 21L26 21L26 18L25 18L25 17L26 17L26 16L27 16L27 15L25 15L25 14L28 14L28 18L29 18L29 19L28 19L28 20L27 20L27 21L28 21L28 20L30 20L30 19L33 19L33 17L35 17L35 19L36 19L36 17L35 17L35 15L34 15L34 16L33 16L33 15L32 15L32 14L31 14L31 17L32 17L32 18L29 18L29 17L30 17L30 16L29 16L29 14L28 14L28 13L29 13L29 12L27 12L27 11L28 11L28 8L27 8L27 10L26 10L26 11L25 11L25 9L23 9L23 7L24 7L24 6L23 6L23 5L25 5L25 4L26 4L26 3L24 3L24 4L22 4L22 5L21 5L21 4L20 4L20 5L17 5L17 4L18 4L18 3L17 3L17 4L16 4L16 3L15 3L15 2ZM15 4L15 6L14 6L14 5L13 5L13 6L12 6L12 8L10 8L10 9L12 9L12 8L13 8L13 9L14 9L14 10L12 10L12 11L11 11L11 13L12 13L12 14L10 14L10 12L9 12L9 15L10 15L10 16L9 16L9 17L10 17L10 16L13 16L13 13L14 13L14 12L15 12L15 11L14 11L14 10L16 10L16 13L15 13L15 14L14 14L14 17L12 17L12 19L13 19L13 20L15 20L15 21L17 21L17 20L18 20L18 19L16 19L16 20L15 20L15 18L14 18L14 17L16 17L16 18L19 18L19 19L20 19L20 20L19 20L19 21L20 21L20 20L21 20L21 21L22 21L22 22L23 22L23 21L22 21L22 20L23 20L23 19L24 19L24 20L25 20L25 19L24 19L24 18L23 18L23 16L24 16L24 15L22 15L22 13L21 13L21 11L20 11L20 14L19 14L19 15L20 15L20 14L21 14L21 15L22 15L22 18L23 18L23 19L22 19L22 20L21 20L21 19L20 19L20 17L19 17L19 16L17 16L17 17L16 17L16 15L15 15L15 14L17 14L17 15L18 15L18 13L19 13L19 10L20 10L20 8L21 8L21 10L22 10L22 7L23 7L23 6L22 6L22 7L21 7L21 6L20 6L20 7L19 7L19 6L18 6L18 7L19 7L19 8L15 8L15 6L16 6L16 7L17 7L17 6L16 6L16 4ZM10 5L10 7L11 7L11 5ZM13 6L13 7L14 7L14 6ZM14 8L14 9L15 9L15 8ZM16 9L16 10L17 10L17 9ZM23 10L23 12L25 12L25 11L24 11L24 10ZM35 10L35 11L36 11L36 10ZM12 11L12 13L13 13L13 11ZM17 11L17 12L18 12L18 11ZM6 12L6 13L8 13L8 12ZM1 13L1 14L0 14L0 15L2 15L2 13ZM23 13L23 14L24 14L24 13ZM6 14L6 15L8 15L8 14ZM13 18L13 19L14 19L14 18ZM19 22L19 24L20 24L20 22ZM35 24L35 25L36 25L36 26L35 26L35 27L37 27L37 24ZM8 26L8 27L9 27L9 26ZM18 26L18 28L19 28L19 26ZM0 28L0 29L2 29L2 28ZM22 29L22 30L23 30L23 29ZM29 29L29 32L32 32L32 29ZM18 30L18 31L19 31L19 30ZM30 30L30 31L31 31L31 30ZM10 31L10 33L11 33L11 32L12 32L12 31ZM34 31L34 32L33 32L33 34L34 34L34 33L35 33L35 34L36 34L36 33L35 33L35 31ZM12 33L12 34L11 34L11 35L10 35L10 36L11 36L11 35L12 35L12 34L13 34L13 33ZM29 33L29 34L27 34L27 35L29 35L29 34L30 34L30 36L31 36L31 35L32 35L32 33ZM21 34L21 35L22 35L22 34ZM16 35L16 36L17 36L17 37L18 37L18 36L17 36L17 35ZM23 36L23 37L24 37L24 36ZM36 36L36 37L37 37L37 36ZM0 0L0 7L7 7L7 0ZM1 1L1 6L6 6L6 1ZM2 2L2 5L5 5L5 2ZM30 0L30 7L37 7L37 0ZM31 1L31 6L36 6L36 1ZM32 2L32 5L35 5L35 2ZM0 30L0 37L7 37L7 30ZM1 31L1 36L6 36L6 31ZM2 32L2 35L5 35L5 32Z" fill="#000000"/></g></g></svg>
