<?xml version="1.0" encoding="UTF-8"?>
<svg xmlns="http://www.w3.org/2000/svg" version="1.1" width="300" height="300" viewBox="0 0 300 300"><rect x="0" y="0" width="300" height="300" fill="#ffffff"/><g transform="scale(7.692)"><g transform="translate(1,1)"><path fill-rule="evenodd" d="M8 0L8 1L9 1L9 2L10 2L10 3L8 3L8 4L9 4L9 6L8 6L8 7L9 7L9 6L10 6L10 7L11 7L11 8L8 8L8 11L7 11L7 10L6 10L6 9L7 9L7 8L4 8L4 11L3 11L3 13L2 13L2 12L1 12L1 10L0 10L0 12L1 12L1 13L2 13L2 15L1 15L1 14L0 14L0 15L1 15L1 17L0 17L0 19L1 19L1 20L2 20L2 21L1 21L1 22L0 22L0 23L1 23L1 24L0 24L0 25L2 25L2 27L1 27L1 26L0 26L0 27L1 27L1 28L0 28L0 29L1 29L1 28L2 28L2 29L5 29L5 28L6 28L6 29L7 29L7 28L6 28L6 27L9 27L9 29L8 29L8 30L9 30L9 29L10 29L10 31L8 31L8 33L9 33L9 32L14 32L14 31L15 31L15 29L16 29L16 27L17 27L17 26L18 26L18 28L17 28L17 29L19 29L19 28L21 28L21 29L24 29L24 28L25 28L25 30L24 30L24 31L23 31L23 30L21 30L21 32L20 32L20 31L19 31L19 30L18 30L18 31L17 31L17 30L16 30L16 31L17 31L17 35L16 35L16 33L15 33L15 35L14 35L14 34L13 34L13 33L11 33L11 34L10 34L10 35L11 35L11 36L9 36L9 37L13 37L13 36L15 36L15 37L16 37L16 36L18 36L18 31L19 31L19 33L20 33L20 35L19 35L19 36L20 36L20 37L23 37L23 36L24 36L24 35L23 35L23 34L24 34L24 33L23 33L23 32L24 32L24 31L25 31L25 34L26 34L26 35L25 35L25 37L27 37L27 36L26 36L26 35L28 35L28 37L29 37L29 35L28 35L28 34L30 34L30 33L31 33L31 35L32 35L32 37L33 37L33 34L34 34L34 35L35 35L35 37L37 37L37 36L36 36L36 35L37 35L37 28L36 28L36 27L37 27L37 24L36 24L36 23L37 23L37 20L35 20L35 21L36 21L36 23L35 23L35 24L36 24L36 25L35 25L35 26L34 26L34 25L33 25L33 26L32 26L32 24L31 24L31 23L30 23L30 22L31 22L31 21L32 21L32 20L33 20L33 19L32 19L32 18L31 18L31 17L32 17L32 15L33 15L33 14L34 14L34 15L37 15L37 13L36 13L36 12L37 12L37 8L36 8L36 10L34 10L34 8L33 8L33 10L32 10L32 9L31 9L31 10L30 10L30 8L29 8L29 5L28 5L28 4L27 4L27 2L28 2L28 3L29 3L29 2L28 2L28 1L29 1L29 0L27 0L27 1L25 1L25 0L24 0L24 1L25 1L25 2L24 2L24 3L25 3L25 4L26 4L26 5L24 5L24 4L23 4L23 3L22 3L22 2L23 2L23 0L21 0L21 1L20 1L20 0L18 0L18 1L19 1L19 2L21 2L21 4L23 4L23 5L24 5L24 7L25 7L25 8L26 8L26 10L27 10L27 11L28 11L28 12L27 12L27 14L26 14L26 11L25 11L25 9L24 9L24 10L23 10L23 11L24 11L24 12L23 12L23 14L24 14L24 16L23 16L23 15L21 15L21 16L20 16L20 15L19 15L19 14L21 14L21 13L22 13L22 10L21 10L21 11L20 11L20 10L19 10L19 8L22 8L22 9L23 9L23 6L22 6L22 7L21 7L21 6L20 6L20 4L19 4L19 3L17 3L17 2L16 2L16 3L13 3L13 2L14 2L14 0L13 0L13 2L10 2L10 1L11 1L11 0L10 0L10 1L9 1L9 0ZM15 0L15 1L17 1L17 0ZM21 1L21 2L22 2L22 1ZM25 2L25 3L26 3L26 2ZM10 3L10 5L11 5L11 7L12 7L12 6L13 6L13 7L14 7L14 8L12 8L12 10L13 10L13 11L11 11L11 12L10 12L10 11L9 11L9 12L7 12L7 11L6 11L6 10L5 10L5 12L4 12L4 13L3 13L3 15L6 15L6 16L3 16L3 17L5 17L5 19L4 19L4 18L2 18L2 17L1 17L1 18L2 18L2 19L3 19L3 20L4 20L4 23L5 23L5 24L3 24L3 22L2 22L2 25L3 25L3 28L5 28L5 27L4 27L4 25L5 25L5 26L7 26L7 25L8 25L8 26L10 26L10 29L11 29L11 28L13 28L13 30L14 30L14 28L15 28L15 27L16 27L16 26L17 26L17 25L18 25L18 26L19 26L19 22L22 22L22 23L23 23L23 24L24 24L24 23L23 23L23 22L22 22L22 20L23 20L23 19L25 19L25 18L26 18L26 20L29 20L29 21L27 21L27 22L26 22L26 21L25 21L25 20L24 20L24 21L25 21L25 22L26 22L26 23L25 23L25 26L26 26L26 27L28 27L28 28L26 28L26 30L25 30L25 31L26 31L26 32L27 32L27 34L28 34L28 28L29 28L29 27L31 27L31 24L30 24L30 26L29 26L29 24L28 24L28 23L29 23L29 21L30 21L30 20L29 20L29 19L28 19L28 18L30 18L30 19L31 19L31 20L32 20L32 19L31 19L31 18L30 18L30 17L29 17L29 16L30 16L30 12L31 12L31 14L33 14L33 11L34 11L34 13L35 13L35 12L36 12L36 11L34 11L34 10L33 10L33 11L32 11L32 10L31 10L31 11L30 11L30 10L29 10L29 11L30 11L30 12L28 12L28 13L29 13L29 14L27 14L27 15L26 15L26 14L25 14L25 13L24 13L24 14L25 14L25 15L26 15L26 16L27 16L27 18L26 18L26 17L25 17L25 16L24 16L24 18L22 18L22 19L21 19L21 20L20 20L20 18L21 18L21 17L20 17L20 18L18 18L18 17L17 17L17 16L18 16L18 15L17 15L17 13L18 13L18 14L19 14L19 12L18 12L18 11L17 11L17 10L16 10L16 9L18 9L18 8L19 8L19 7L20 7L20 6L19 6L19 5L18 5L18 4L15 4L15 5L14 5L14 4L13 4L13 5L11 5L11 4L12 4L12 3ZM13 5L13 6L14 6L14 7L15 7L15 8L16 8L16 7L17 7L17 8L18 8L18 7L19 7L19 6L18 6L18 5L17 5L17 6L16 6L16 7L15 7L15 6L14 6L14 5ZM26 5L26 6L25 6L25 7L26 7L26 6L27 6L27 8L28 8L28 6L27 6L27 5ZM17 6L17 7L18 7L18 6ZM2 8L2 10L3 10L3 8ZM10 9L10 10L11 10L11 9ZM13 9L13 10L15 10L15 9ZM14 11L14 12L15 12L15 13L17 13L17 12L15 12L15 11ZM31 11L31 12L32 12L32 11ZM5 12L5 13L7 13L7 14L6 14L6 15L7 15L7 16L6 16L6 17L9 17L9 18L10 18L10 19L11 19L11 20L10 20L10 21L11 21L11 22L10 22L10 23L11 23L11 27L13 27L13 28L14 28L14 27L15 27L15 26L14 26L14 27L13 27L13 26L12 26L12 23L13 23L13 25L15 25L15 24L16 24L16 25L17 25L17 22L16 22L16 21L18 21L18 22L19 22L19 21L18 21L18 20L17 20L17 19L18 19L18 18L17 18L17 17L16 17L16 15L15 15L15 14L14 14L14 13L9 13L9 16L8 16L8 15L7 15L7 14L8 14L8 13L7 13L7 12ZM10 14L10 15L11 15L11 16L12 16L12 18L11 18L11 17L10 17L10 18L11 18L11 19L13 19L13 16L12 16L12 14ZM33 16L33 17L34 17L34 19L37 19L37 16L36 16L36 17L34 17L34 16ZM14 17L14 19L15 19L15 17ZM6 18L6 19L7 19L7 20L5 20L5 23L7 23L7 24L5 24L5 25L7 25L7 24L9 24L9 23L8 23L8 21L9 21L9 19L7 19L7 18ZM16 18L16 19L17 19L17 18ZM11 20L11 21L12 21L12 22L11 22L11 23L12 23L12 22L13 22L13 23L14 23L14 24L15 24L15 23L16 23L16 22L15 22L15 23L14 23L14 22L13 22L13 21L14 21L14 20ZM15 20L15 21L16 21L16 20ZM6 21L6 22L7 22L7 21ZM33 21L33 22L32 22L32 23L34 23L34 21ZM20 23L20 25L21 25L21 26L20 26L20 27L21 27L21 28L22 28L22 27L21 27L21 26L23 26L23 25L21 25L21 23ZM27 24L27 26L28 26L28 24ZM35 26L35 27L34 27L34 29L33 29L33 32L34 32L34 33L36 33L36 31L34 31L34 30L35 30L35 29L36 29L36 28L35 28L35 27L36 27L36 26ZM23 27L23 28L24 28L24 27ZM29 29L29 32L32 32L32 29ZM11 30L11 31L12 31L12 30ZM26 30L26 31L27 31L27 30ZM30 30L30 31L31 31L31 30ZM22 31L22 32L21 32L21 33L22 33L22 34L23 34L23 33L22 33L22 32L23 32L23 31ZM8 34L8 35L9 35L9 34ZM35 34L35 35L36 35L36 34ZM20 35L20 36L23 36L23 35ZM30 36L30 37L31 37L31 36ZM0 0L0 7L7 7L7 0ZM1 1L1 6L6 6L6 1ZM2 2L2 5L5 5L5 2ZM30 0L30 7L37 7L37 0ZM31 1L31 6L36 6L36 1ZM32 2L32 5L35 5L35 2ZM0 30L0 37L7 37L7 30ZM1 31L1 36L6 36L6 31ZM2 32L2 35L5 35L5 32Z" fill="#000000"/></g></g></svg>
