<?xml version="1.0" encoding="UTF-8"?>
<svg xmlns="http://www.w3.org/2000/svg" version="1.1" width="300" height="300" viewBox="0 0 300 300"><rect x="0" y="0" width="300" height="300" fill="#ffffff"/><g transform="scale(7.692)"><g transform="translate(1,1)"><path fill-rule="evenodd" d="M9 0L9 1L11 1L11 2L10 2L10 3L9 3L9 4L8 4L8 5L11 5L11 4L12 4L12 2L13 2L13 1L15 1L15 2L14 2L14 3L13 3L13 4L14 4L14 5L15 5L15 6L14 6L14 8L15 8L15 6L16 6L16 7L17 7L17 8L18 8L18 7L19 7L19 6L18 6L18 7L17 7L17 5L18 5L18 4L17 4L17 2L16 2L16 1L15 1L15 0ZM18 0L18 1L19 1L19 0ZM20 0L20 1L21 1L21 2L22 2L22 1L21 1L21 0ZM24 0L24 1L26 1L26 2L25 2L25 3L21 3L21 4L20 4L20 5L21 5L21 4L22 4L22 7L23 7L23 6L24 6L24 7L25 7L25 6L26 6L26 7L27 7L27 9L26 9L26 8L24 8L24 9L23 9L23 8L22 8L22 9L23 9L23 10L21 10L21 11L20 11L20 9L21 9L21 8L20 8L20 9L19 9L19 11L18 11L18 9L16 9L16 10L15 10L15 11L14 11L14 14L15 14L15 15L14 15L14 16L13 16L13 17L15 17L15 16L16 16L16 17L17 17L17 18L16 18L16 21L15 21L15 19L14 19L14 18L12 18L12 17L11 17L11 19L14 19L14 22L13 22L13 23L14 23L14 22L16 22L16 21L17 21L17 24L14 24L14 25L13 25L13 27L12 27L12 25L11 25L11 24L12 24L12 23L9 23L9 22L8 22L8 21L9 21L9 20L10 20L10 21L11 21L11 22L12 22L12 21L11 21L11 20L10 20L10 18L9 18L9 17L10 17L10 16L12 16L12 15L10 15L10 16L9 16L9 17L8 17L8 16L5 16L5 18L6 18L6 19L7 19L7 20L5 20L5 21L7 21L7 22L6 22L6 23L5 23L5 22L4 22L4 18L3 18L3 17L2 17L2 16L4 16L4 15L9 15L9 14L13 14L13 13L9 13L9 12L10 12L10 11L11 11L11 12L12 12L12 11L11 11L11 10L10 10L10 9L11 9L11 8L12 8L12 10L13 10L13 5L12 5L12 7L11 7L11 6L10 6L10 7L9 7L9 6L8 6L8 8L6 8L6 9L7 9L7 10L6 10L6 11L4 11L4 10L2 10L2 12L1 12L1 11L0 11L0 12L1 12L1 15L0 15L0 18L1 18L1 19L0 19L0 20L1 20L1 19L3 19L3 21L2 21L2 22L3 22L3 23L5 23L5 24L4 24L4 26L2 26L2 25L3 25L3 24L2 24L2 23L1 23L1 21L0 21L0 23L1 23L1 27L0 27L0 28L1 28L1 27L4 27L4 28L3 28L3 29L4 29L4 28L5 28L5 27L4 27L4 26L5 26L5 25L8 25L8 26L10 26L10 25L11 25L11 27L9 27L9 28L10 28L10 29L11 29L11 28L13 28L13 27L14 27L14 25L15 25L15 27L16 27L16 30L15 30L15 28L14 28L14 30L13 30L13 29L12 29L12 31L11 31L11 30L9 30L9 29L8 29L8 31L9 31L9 33L8 33L8 35L9 35L9 36L11 36L11 37L13 37L13 36L14 36L14 37L15 37L15 35L17 35L17 34L16 34L16 33L15 33L15 32L16 32L16 30L17 30L17 31L18 31L18 30L17 30L17 28L18 28L18 29L19 29L19 26L18 26L18 25L17 25L17 24L18 24L18 23L20 23L20 24L19 24L19 25L21 25L21 26L20 26L20 28L21 28L21 30L20 30L20 32L21 32L21 30L24 30L24 31L23 31L23 32L22 32L22 33L21 33L21 34L22 34L22 35L19 35L19 34L20 34L20 33L19 33L19 34L18 34L18 35L19 35L19 36L21 36L21 37L23 37L23 35L25 35L25 37L26 37L26 35L27 35L27 37L28 37L28 35L29 35L29 36L30 36L30 37L31 37L31 36L30 36L30 35L32 35L32 36L33 36L33 37L37 37L37 36L35 36L35 35L36 35L36 34L35 34L35 33L34 33L34 30L35 30L35 31L36 31L36 32L37 32L37 29L36 29L36 28L37 28L37 27L36 27L36 28L34 28L34 27L33 27L33 28L28 28L28 27L27 27L27 24L28 24L28 25L29 25L29 26L30 26L30 27L32 27L32 26L33 26L33 25L35 25L35 26L37 26L37 24L36 24L36 25L35 25L35 23L36 23L36 20L35 20L35 22L34 22L34 21L33 21L33 20L34 20L34 17L36 17L36 18L35 18L35 19L37 19L37 17L36 17L36 16L37 16L37 15L36 15L36 14L37 14L37 13L36 13L36 12L37 12L37 11L34 11L34 15L35 15L35 16L33 16L33 18L31 18L31 17L32 17L32 16L31 16L31 17L29 17L29 16L30 16L30 15L29 15L29 13L28 13L28 15L27 15L27 16L24 16L24 17L25 17L25 18L27 18L27 21L25 21L25 19L23 19L23 18L21 18L21 17L22 17L22 16L23 16L23 15L21 15L21 14L22 14L22 13L23 13L23 14L24 14L24 15L26 15L26 14L27 14L27 12L28 12L28 10L29 10L29 11L30 11L30 10L31 10L31 11L32 11L32 10L31 10L31 8L29 8L29 6L28 6L28 7L27 7L27 6L26 6L26 5L29 5L29 4L27 4L27 3L26 3L26 2L27 2L27 0ZM15 2L15 3L16 3L16 2ZM18 2L18 3L19 3L19 2ZM28 2L28 3L29 3L29 2ZM10 3L10 4L11 4L11 3ZM25 3L25 5L26 5L26 3ZM15 4L15 5L16 5L16 4ZM23 4L23 5L24 5L24 4ZM20 6L20 7L21 7L21 6ZM10 7L10 8L11 8L11 7ZM2 8L2 9L4 9L4 8ZM32 8L32 9L33 9L33 10L34 10L34 9L33 9L33 8ZM0 9L0 10L1 10L1 9ZM29 9L29 10L30 10L30 9ZM35 9L35 10L36 10L36 9ZM7 10L7 11L6 11L6 12L5 12L5 13L4 13L4 14L3 14L3 15L4 15L4 14L8 14L8 12L7 12L7 11L8 11L8 10ZM9 10L9 11L10 11L10 10ZM25 10L25 11L26 11L26 12L27 12L27 10ZM3 11L3 12L4 12L4 11ZM15 11L15 13L16 13L16 12L17 12L17 13L19 13L19 14L16 14L16 16L17 16L17 17L18 17L18 19L17 19L17 20L19 20L19 18L20 18L20 17L21 17L21 15L19 15L19 14L21 14L21 13L22 13L22 11L21 11L21 12L20 12L20 13L19 13L19 12L17 12L17 11ZM23 11L23 13L24 13L24 14L26 14L26 13L25 13L25 12L24 12L24 11ZM6 12L6 13L7 13L7 12ZM30 12L30 14L33 14L33 12L32 12L32 13L31 13L31 12ZM1 15L1 16L2 16L2 15ZM19 16L19 17L20 17L20 16ZM27 16L27 17L28 17L28 16ZM1 17L1 18L2 18L2 17ZM6 17L6 18L7 18L7 19L8 19L8 20L9 20L9 19L8 19L8 17ZM28 18L28 20L29 20L29 21L27 21L27 22L26 22L26 23L25 23L25 21L23 21L23 20L22 20L22 19L20 19L20 20L21 20L21 21L22 21L22 22L20 22L20 21L18 21L18 22L20 22L20 23L21 23L21 25L22 25L22 26L23 26L23 23L25 23L25 25L26 25L26 24L27 24L27 23L28 23L28 24L30 24L30 26L32 26L32 25L31 25L31 24L33 24L33 23L32 23L32 22L33 22L33 21L32 21L32 20L33 20L33 19L32 19L32 20L29 20L29 18ZM30 18L30 19L31 19L31 18ZM31 21L31 22L30 22L30 24L31 24L31 22L32 22L32 21ZM7 22L7 23L6 23L6 24L7 24L7 23L8 23L8 22ZM28 22L28 23L29 23L29 22ZM16 25L16 26L17 26L17 25ZM6 26L6 27L7 27L7 28L6 28L6 29L7 29L7 28L8 28L8 27L7 27L7 26ZM24 26L24 28L22 28L22 27L21 27L21 28L22 28L22 29L24 29L24 30L25 30L25 31L24 31L24 32L23 32L23 33L22 33L22 34L24 34L24 32L25 32L25 35L26 35L26 33L27 33L27 34L28 34L28 32L26 32L26 31L27 31L27 29L28 29L28 28L26 28L26 26ZM24 28L24 29L25 29L25 30L26 30L26 28ZM29 29L29 32L32 32L32 29ZM35 29L35 30L36 30L36 29ZM14 30L14 31L13 31L13 32L11 32L11 31L10 31L10 32L11 32L11 33L12 33L12 34L10 34L10 33L9 33L9 35L15 35L15 33L13 33L13 32L14 32L14 31L15 31L15 30ZM30 30L30 31L31 31L31 30ZM29 33L29 34L30 34L30 33ZM31 33L31 34L32 34L32 33ZM33 34L33 35L35 35L35 34ZM16 36L16 37L17 37L17 36ZM0 0L0 7L7 7L7 0ZM1 1L1 6L6 6L6 1ZM2 2L2 5L5 5L5 2ZM30 0L30 7L37 7L37 0ZM31 1L31 6L36 6L36 1ZM32 2L32 5L35 5L35 2ZM0 30L0 37L7 37L7 30ZM1 31L1 36L6 36L6 31ZM2 32L2 35L5 35L5 32Z" fill="#000000"/></g></g></svg>
