<?xml version="1.0" encoding="UTF-8"?>
<svg xmlns="http://www.w3.org/2000/svg" version="1.1" width="300" height="300" viewBox="0 0 300 300"><rect x="0" y="0" width="300" height="300" fill="#ffffff"/><g transform="scale(7.692)"><g transform="translate(1,1)"><path fill-rule="evenodd" d="M9 0L9 1L11 1L11 2L10 2L10 3L9 3L9 4L8 4L8 5L11 5L11 6L10 6L10 7L9 7L9 6L8 6L8 8L6 8L6 9L7 9L7 10L6 10L6 11L5 11L5 10L4 10L4 8L2 8L2 9L3 9L3 10L2 10L2 11L3 11L3 12L4 12L4 13L2 13L2 12L1 12L1 11L0 11L0 12L1 12L1 15L0 15L0 19L1 19L1 17L2 17L2 19L3 19L3 21L2 21L2 20L0 20L0 21L2 21L2 22L3 22L3 23L5 23L5 24L0 24L0 25L2 25L2 26L1 26L1 27L0 27L0 28L1 28L1 27L2 27L2 28L4 28L4 29L5 29L5 28L6 28L6 29L7 29L7 28L8 28L8 27L7 27L7 26L3 26L3 25L7 25L7 24L8 24L8 26L9 26L9 28L10 28L10 30L9 30L9 29L8 29L8 31L10 31L10 32L9 32L9 33L8 33L8 35L9 35L9 36L11 36L11 37L13 37L13 36L14 36L14 37L15 37L15 36L14 36L14 34L11 34L11 35L9 35L9 33L10 33L10 32L12 32L12 33L15 33L15 35L17 35L17 34L16 34L16 33L15 33L15 32L17 32L17 33L19 33L19 32L18 32L18 31L19 31L19 29L18 29L18 30L17 30L17 26L18 26L18 25L16 25L16 24L13 24L13 27L12 27L12 25L11 25L11 23L15 23L15 22L16 22L16 21L17 21L17 24L18 24L18 23L20 23L20 25L21 25L21 26L20 26L20 28L21 28L21 30L20 30L20 33L21 33L21 30L24 30L24 31L23 31L23 32L22 32L22 33L23 33L23 32L24 32L24 34L23 34L23 35L25 35L25 37L26 37L26 35L27 35L27 37L28 37L28 35L29 35L29 36L30 36L30 37L31 37L31 36L30 36L30 35L32 35L32 36L33 36L33 37L37 37L37 36L35 36L35 35L36 35L36 34L35 34L35 33L34 33L34 30L35 30L35 31L36 31L36 32L37 32L37 29L36 29L36 28L37 28L37 27L36 27L36 28L34 28L34 27L35 27L35 26L37 26L37 24L36 24L36 25L35 25L35 23L36 23L36 20L35 20L35 22L34 22L34 21L33 21L33 20L34 20L34 17L36 17L36 18L35 18L35 19L37 19L37 17L36 17L36 16L37 16L37 15L36 15L36 14L37 14L37 13L36 13L36 12L37 12L37 11L34 11L34 15L35 15L35 16L33 16L33 18L31 18L31 17L32 17L32 16L31 16L31 17L29 17L29 16L30 16L30 15L29 15L29 12L28 12L28 10L29 10L29 11L30 11L30 10L31 10L31 11L33 11L33 10L34 10L34 9L33 9L33 8L32 8L32 9L33 9L33 10L31 10L31 8L29 8L29 6L28 6L28 7L27 7L27 6L26 6L26 5L25 5L25 3L26 3L26 4L27 4L27 5L29 5L29 4L27 4L27 3L26 3L26 2L27 2L27 0L26 0L26 1L25 1L25 0L24 0L24 1L25 1L25 3L21 3L21 4L20 4L20 3L19 3L19 2L18 2L18 3L19 3L19 6L18 6L18 7L17 7L17 5L18 5L18 4L17 4L17 2L16 2L16 1L15 1L15 0L12 0L12 1L11 1L11 0ZM18 0L18 1L19 1L19 0ZM20 0L20 2L22 2L22 1L21 1L21 0ZM13 1L13 2L11 2L11 3L10 3L10 4L11 4L11 5L13 5L13 7L14 7L14 6L15 6L15 8L13 8L13 10L12 10L12 6L11 6L11 7L10 7L10 8L11 8L11 9L9 9L9 11L10 11L10 12L11 12L11 13L9 13L9 14L11 14L11 15L10 15L10 16L11 16L11 18L10 18L10 17L9 17L9 15L4 15L4 14L5 14L5 13L6 13L6 14L8 14L8 12L7 12L7 11L8 11L8 10L7 10L7 11L6 11L6 12L5 12L5 11L4 11L4 12L5 12L5 13L4 13L4 14L3 14L3 18L4 18L4 22L5 22L5 23L6 23L6 24L7 24L7 23L6 23L6 22L8 22L8 21L9 21L9 23L8 23L8 24L9 24L9 23L11 23L11 21L10 21L10 20L12 20L12 21L13 21L13 22L15 22L15 21L16 21L16 18L17 18L17 17L13 17L13 16L14 16L14 15L16 15L16 14L17 14L17 16L18 16L18 19L17 19L17 20L19 20L19 18L20 18L20 20L22 20L22 22L21 22L21 21L20 21L20 22L21 22L21 23L22 23L22 24L21 24L21 25L23 25L23 23L25 23L25 25L26 25L26 24L27 24L27 27L28 27L28 28L26 28L26 26L24 26L24 28L22 28L22 27L21 27L21 28L22 28L22 29L24 29L24 30L25 30L25 31L24 31L24 32L25 32L25 35L26 35L26 33L27 33L27 34L28 34L28 32L26 32L26 31L27 31L27 29L28 29L28 28L33 28L33 27L34 27L34 26L35 26L35 25L33 25L33 26L32 26L32 25L31 25L31 24L33 24L33 23L32 23L32 22L33 22L33 21L32 21L32 20L33 20L33 19L32 19L32 20L29 20L29 18L28 18L28 20L29 20L29 21L27 21L27 20L26 20L26 19L27 19L27 18L25 18L25 17L24 17L24 16L27 16L27 17L28 17L28 16L27 16L27 15L28 15L28 12L27 12L27 10L24 10L24 11L23 11L23 12L24 12L24 14L23 14L23 13L22 13L22 11L21 11L21 10L22 10L22 9L20 9L20 6L21 6L21 8L22 8L22 6L23 6L23 9L24 9L24 8L26 8L26 9L27 9L27 7L26 7L26 6L25 6L25 7L24 7L24 6L23 6L23 5L24 5L24 4L21 4L21 5L20 5L20 6L19 6L19 7L18 7L18 8L17 8L17 7L16 7L16 6L15 6L15 5L16 5L16 4L15 4L15 3L16 3L16 2L15 2L15 1ZM13 2L13 3L14 3L14 2ZM28 2L28 3L29 3L29 2ZM11 3L11 4L12 4L12 3ZM13 4L13 5L14 5L14 4ZM21 5L21 6L22 6L22 5ZM0 9L0 10L1 10L1 9ZM19 9L19 10L18 10L18 11L17 11L17 10L16 10L16 11L17 11L17 14L18 14L18 13L20 13L20 12L21 12L21 11L20 11L20 9ZM29 9L29 10L30 10L30 9ZM35 9L35 10L36 10L36 9ZM10 10L10 11L11 11L11 12L12 12L12 11L11 11L11 10ZM14 11L14 14L15 14L15 11ZM18 11L18 12L19 12L19 11ZM24 11L24 12L25 12L25 13L26 13L26 14L24 14L24 15L21 15L21 14L22 14L22 13L21 13L21 14L19 14L19 15L21 15L21 16L19 16L19 17L21 17L21 19L23 19L23 21L25 21L25 23L26 23L26 22L27 22L27 21L25 21L25 19L23 19L23 18L22 18L22 16L24 16L24 15L26 15L26 14L27 14L27 12L26 12L26 11ZM6 12L6 13L7 13L7 12ZM30 12L30 14L33 14L33 12L32 12L32 13L31 13L31 12ZM11 13L11 14L13 14L13 13ZM1 15L1 16L2 16L2 15ZM11 15L11 16L12 16L12 15ZM6 16L6 17L7 17L7 18L6 18L6 19L7 19L7 20L5 20L5 21L7 21L7 20L8 20L8 19L7 19L7 18L9 18L9 20L10 20L10 18L9 18L9 17L8 17L8 16ZM12 18L12 19L13 19L13 18ZM30 18L30 19L31 19L31 18ZM14 19L14 21L15 21L15 19ZM18 21L18 22L19 22L19 21ZM31 21L31 22L30 22L30 24L28 24L28 23L29 23L29 22L28 22L28 23L27 23L27 24L28 24L28 25L29 25L29 26L30 26L30 27L31 27L31 26L30 26L30 24L31 24L31 22L32 22L32 21ZM10 25L10 27L11 27L11 25ZM15 25L15 26L14 26L14 27L13 27L13 28L11 28L11 31L12 31L12 29L13 29L13 30L14 30L14 31L13 31L13 32L14 32L14 31L16 31L16 28L15 28L15 27L16 27L16 25ZM6 27L6 28L7 28L7 27ZM14 28L14 30L15 30L15 28ZM24 28L24 29L25 29L25 30L26 30L26 28ZM29 29L29 32L32 32L32 29ZM35 29L35 30L36 30L36 29ZM30 30L30 31L31 31L31 30ZM29 33L29 34L30 34L30 33ZM31 33L31 34L32 34L32 33ZM18 34L18 35L19 35L19 36L21 36L21 37L22 37L22 35L20 35L20 34ZM33 34L33 35L35 35L35 34ZM11 35L11 36L12 36L12 35ZM16 36L16 37L17 37L17 36ZM0 0L0 7L7 7L7 0ZM1 1L1 6L6 6L6 1ZM2 2L2 5L5 5L5 2ZM30 0L30 7L37 7L37 0ZM31 1L31 6L36 6L36 1ZM32 2L32 5L35 5L35 2ZM0 30L0 37L7 37L7 30ZM1 31L1 36L6 36L6 31ZM2 32L2 35L5 35L5 32Z" fill="#000000"/></g></g></svg>
